<svg id="Layer_2" data-name="Layer 2" xmlns="http://www.w3.org/2000/svg" viewBox="0 0 470 280"><defs><style>.cls-1{fill:#fb8;}.cls-2{fill:#fff;}</style></defs><title>learningfactory</title><path class="cls-1" d="M165.18,105.42V77.75a2.64,2.64,0,0,0,0-.28s0,0,0-.06a2.11,2.11,0,0,0-.1-.45.56.56,0,0,0,0-.12,2.35,2.35,0,0,0-.19-.43h0a2.14,2.14,0,0,0-.28-.39l-.07-.09a3.4,3.4,0,0,0-.34-.32l-.05,0-.24-.16-24-13.83a2.69,2.69,0,0,0-2.69,0L41.34,116.92l-.23.16,0,0a2.56,2.56,0,0,0-.34.31l-.08.1a2.76,2.76,0,0,0-.28.39h0a2.83,2.83,0,0,0-.2.43.56.56,0,0,1,0,.12,3.13,3.13,0,0,0-.1.44V119a2.64,2.64,0,0,0,0,.28v27.67a2.7,2.7,0,0,0,1.34,2.33l46.58,26.89v26.11a2.69,2.69,0,0,0,1.34,2.33l24,13.83a2.1,2.1,0,0,0,.26.13l0,0a2.49,2.49,0,0,0,.44.14l.12,0a2.61,2.61,0,0,0,.48.05,2.42,2.42,0,0,0,.47-.05l.12,0a2.25,2.25,0,0,0,.44-.14l.06,0,.25-.13,24-13.83a2.7,2.7,0,0,0,1.35-2.33V176.13l22.61-13a2.7,2.7,0,0,0,1.35-2.33V133.08c0-.09,0-.18,0-.28s0,0,0-.06a2.26,2.26,0,0,0-.1-.45.36.36,0,0,0,0-.11,2.44,2.44,0,0,0-.19-.44h0a2.14,2.14,0,0,0-.28-.39l-.07-.09a3.28,3.28,0,0,0-.34-.31l-.05,0-.24-.16-19.92-11.5,19.92-11.5A2.7,2.7,0,0,0,165.18,105.42ZM87.92,169.93,45.38,145.36V123.91l42.54,24.56ZM48.07,119.25,138.53,67l18.58,10.73L89.26,116.92a2.7,2.7,0,0,0,0,4.66l19.93,11.5L90.61,143.81Zm63.81,92.17L93.3,200.7V148.47l18.58-10.73Zm45.23-78.34-15.89,9.18V123.91Zm2.69-29.22-22.62,13.06-.1.07-.1.07a2.45,2.45,0,0,0-.35.29h0c-.1.11-.2.23-.29.35l-.06.1a1.9,1.9,0,0,0-.2.37l0,0a3.22,3.22,0,0,0-.14.44.5.5,0,0,0,0,.12,2.61,2.61,0,0,0,0,.48v27.67a2.68,2.68,0,0,0,2.69,2.69,2.67,2.67,0,0,0,1.34-.36l19.93-11.51V159.2l-22.62,13.05a2.69,2.69,0,0,0-1.34,2.33V200.7l-18.58,10.72V133.08c0-.09,0-.18,0-.28a.13.13,0,0,0,0-.06,2.26,2.26,0,0,0-.1-.45.36.36,0,0,0,0-.11,2.44,2.44,0,0,0-.19-.44h0a2.76,2.76,0,0,0-.28-.39l-.08-.09a3.28,3.28,0,0,0-.34-.31l0,0-.24-.16L96,119.25,159.8,82.41Z"/><path class="cls-2" d="M207.85,126.91a2.76,2.76,0,0,1,2.8-2.71,2.69,2.69,0,0,1,2.61,2.71v22.22h12.07c4.35,0,4.44,5.81,0,5.81H210.65a2.68,2.68,0,0,1-2.8-2.7Z"/><path class="cls-2" d="M235.52,154.94a2.7,2.7,0,0,1-2.75-2.75V127a2.68,2.68,0,0,1,2.75-2.75h15.93a2.88,2.88,0,1,1,0,5.76H238.67v6.66h11.18a2.91,2.91,0,1,1,0,5.81H238.67v6.65H252.2a2.91,2.91,0,1,1,0,5.81Z"/><path class="cls-2" d="M260.24,154.94a3.12,3.12,0,0,1-1.42-4.25l12.73-24.89a3,3,0,0,1,5.5,0l12.51,24.89c1.82,3.46-3.55,6.21-5.14,2.75l-2-3.91H266.1l-1.91,3.91C263.48,154.94,261.84,155.26,260.24,154.94Zm19.08-11.26-5-11-5.46,11Z"/><path class="cls-2" d="M299.6,152.06c0,3.86-5.9,4-5.9.09V127a2.65,2.65,0,0,1,2.66-2.7h11.8c11.27,0,13.58,15.08,4.17,18.85l5.9,7.19c2.31,3.41-2.3,6.7-5,3.32l-6.7-9.58h-7Zm0-13.13h8.56c5.77,0,6.13-9.32,0-9.32H299.6Z"/><path class="cls-2" d="M324,127.35c0-1.6.35-3.15,2.66-3.15,1.6,0,2,.4,3.15,1.55l14.68,18.37V126.91a3.12,3.12,0,0,1,2.8-3.06,3.37,3.37,0,0,1,3.15,3.06v25a3,3,0,0,1-2.35,3.06,4.46,4.46,0,0,1-3.6-1.55L329.8,134.76v17.12a2.75,2.75,0,0,1-2.79,3.06,2.92,2.92,0,0,1-3-3.06Z"/><path class="cls-2" d="M357.34,126.91c0-3.64,5.85-3.77,5.85,0v25.33c0,3.68-5.85,3.77-5.85,0Z"/><path class="cls-2" d="M370.09,127.35c0-1.6.35-3.15,2.66-3.15,1.6,0,1.95.4,3.15,1.55l14.68,18.37V126.91a3.12,3.12,0,0,1,2.8-3.06,3.38,3.38,0,0,1,3.15,3.06v25a3,3,0,0,1-2.35,3.06,4.46,4.46,0,0,1-3.6-1.55L375.9,134.76v17.12a2.75,2.75,0,0,1-2.79,3.06,2.92,2.92,0,0,1-3-3.06Z"/><path class="cls-2" d="M428.89,151.53A16.79,16.79,0,0,1,418,155.26c-9.32,0-15.93-5.33-15.93-15.89,0-9,7-15.92,16.33-15.92a14.51,14.51,0,0,1,10.11,3.9c2.71,2.66-1.2,6.61-3.86,4.26a9.35,9.35,0,0,0-6.25-2.79,10.57,10.57,0,0,0-10.56,10.55c0,6.57,4.35,10.56,10.16,10.56a11.34,11.34,0,0,0,6.65-2v-5.46H418c-4,0-3.55-5.41,0-5.41h8.87c1.64,0,3.15,1.24,3.15,2.61v9.45A3.56,3.56,0,0,1,428.89,151.53Z"/><path class="cls-2" d="M213.62,174.38v7.06h11.31a3.43,3.43,0,0,1,3.2,3.15c0,1.46-1.6,2.66-3.2,2.66H213.62v9.31a2.63,2.63,0,0,1-2.66,2.75c-2,0-3.15-1.19-3.15-2.75V171.37c0-1.6,1.19-2.75,3.15-2.75h15.57c1.95,0,3.1,1.15,3.1,2.75a3.05,3.05,0,0,1-3.1,3Z"/><path class="cls-2" d="M231.14,199.31a3.12,3.12,0,0,1-1.41-4.25l12.73-24.89a3,3,0,0,1,5.5,0l12.51,24.89c1.82,3.46-3.55,6.21-5.15,2.75l-1.95-3.91H237l-1.91,3.91C234.38,199.31,232.74,199.63,231.14,199.31Zm19.08-11.26-5-11-5.46,11Z"/><path class="cls-2" d="M262.36,183.74c0-8.56,5.37-15.92,15.57-15.92a14.49,14.49,0,0,1,10.16,4,2.88,2.88,0,1,1-3.95,4.17,7.67,7.67,0,0,0-6.21-2.44c-6.83,0-10.11,4.83-10.11,10.24s3.23,10.56,10.11,10.56a10.32,10.32,0,0,0,6.92-2.84,3,3,0,0,1,4.08.54,3.06,3.06,0,0,1-.48,4.17c-3.11,2.88-6.84,3.46-10.52,3.46C267.19,199.63,262.36,192.31,262.36,183.74Z"/><path class="cls-2" d="M303.17,174.16h-7.76a2.84,2.84,0,1,1,0-5.68h21a2.84,2.84,0,1,1,0,5.68H309v22.4c0,3.86-5.85,3.95-5.85,0Z"/><path class="cls-2" d="M337.66,199.76c-8.2.35-16.72-5.1-16.72-16s8.52-16.28,16.72-16.28c7.77.4,15.89,5.76,15.89,16.28S345.43,199.76,337.66,199.76Zm-.48-26.49a10.52,10.52,0,0,0,0,21c5.1,0,10.55-3.55,10.55-10.51S342.28,173.27,337.18,173.27Z"/><path class="cls-2" d="M365,196.43c0,3.86-5.9,4-5.9.09v-25.2a2.65,2.65,0,0,1,2.66-2.7h11.81c11.26,0,13.57,15.08,4.17,18.85l5.9,7.19c2.3,3.41-2.31,6.7-5,3.32l-6.7-9.58h-7Zm0-13.13h8.57c5.76,0,6.12-9.32,0-9.32H365Z"/><path class="cls-2" d="M386.68,172.79c-2.4-3,2.62-6.39,5-3.15l8.16,12.15,8.3-12.15c2.35-3.24,7.18,0,4.87,3L402.6,187.38v9.14c.4,3.86-5.85,3.86-5.85,0v-9.14Z"/><path class="cls-2" d="M227.28,84.94a2.46,2.46,0,0,0,.78-1.91,2.65,2.65,0,0,0-2.67-2.69H208.66a2.68,2.68,0,0,0,0,5.35h5.71v22.2a2.54,2.54,0,0,0,2.58,2.66,2.65,2.65,0,0,0,2.7-2.66V85.69h5.74A2.64,2.64,0,0,0,227.28,84.94Z"/><path class="cls-2" d="M242,88.1a8.53,8.53,0,0,0-5.27,2l-.18.14V83.06a2.65,2.65,0,0,0-.76-1.94,2.72,2.72,0,0,0-4.62,1.94v24.81a2.58,2.58,0,0,0,.79,1.89,2.61,2.61,0,0,0,1.91.79,2.65,2.65,0,0,0,2.68-2.68v-9.1A6,6,0,0,1,238,95a4.7,4.7,0,0,1,3.47-1.5,3.91,3.91,0,0,1,3.3,1.52A6.92,6.92,0,0,1,246,99.21v8.73a2.68,2.68,0,0,0,5.35,0V99.12a12.23,12.23,0,0,0-2.57-7.86A8.6,8.6,0,0,0,242,88.1Z"/><path class="cls-2" d="M277.72,99.34a11,11,0,0,0-3.37-7.86,11.27,11.27,0,0,0-15.86,0,11.15,11.15,0,0,0,0,15.9,11.24,11.24,0,0,0,7.95,3.27,10.39,10.39,0,0,0,4.42-.76,8.85,8.85,0,0,0,1.66-.91,2.47,2.47,0,0,0,1.21-1.78,2.64,2.64,0,0,0-.21-1.49,2.43,2.43,0,0,0-1.12-1.22,2.36,2.36,0,0,0-.94-.24,2.41,2.41,0,0,0-1.67.49,5,5,0,0,1-3.35,1,5.35,5.35,0,0,1-3.57-1.21A5.92,5.92,0,0,1,261,102l-.06-.15H275.2A2.41,2.41,0,0,0,277.72,99.34Zm-17-1.9,0-.14a6,6,0,0,1,1.92-2.84,5.86,5.86,0,0,1,3.82-1.32,6.25,6.25,0,0,1,3.88,1.32,6,6,0,0,1,1.95,2.84l0,.14Z"/></svg>