<svg id="Layer_2" data-name="Layer 2" xmlns="http://www.w3.org/2000/svg" viewBox="0 0 470 280"><defs><style>.cls-1{fill:#fb8;}.cls-2{fill:#fff;}</style></defs><title>churro</title><path class="cls-1" d="M277.63,81.19c-.42-.27-.81-.58-1.2-.88a71.42,71.42,0,0,0-12.12-7,4.14,4.14,0,0,0-1.88-.45h0a4.13,4.13,0,0,0-3.56,2l-.28.47a9.25,9.25,0,0,1-7.86,4.55h-.38A4.3,4.3,0,0,0,247,81.45a4.14,4.14,0,0,0-.38,4.65l.26.45a9.25,9.25,0,0,1,0,9.1l-.26.47a4.14,4.14,0,0,0,0,4.1,5,5,0,0,0,2.88,2,38.84,38.84,0,1,1-29.59.21l.82-.3a4.61,4.61,0,0,0,2.48-6.67,9.21,9.21,0,0,1-.18-8.85,4.72,4.72,0,0,0,.31-4,4.42,4.42,0,0,0-4.11-2.74h0a9.13,9.13,0,0,1-7.85-4.42,4.78,4.78,0,0,0-6.09-1.91l-1.14.51-.07,0-.13.06-.05,0,0,0a71.25,71.25,0,1,0,73.72,7Zm-14.2-2a13.91,13.91,0,0,0,8.82,5.08,1.26,1.26,0,0,1,1,1.73,13.87,13.87,0,0,0,0,10.18,1.26,1.26,0,0,1-1,1.73,13.89,13.89,0,0,0-8.81,5.1,1.27,1.27,0,0,1-2,0,13.8,13.8,0,0,0-8.82-5.08,1.27,1.27,0,0,1-1-1.74,13.8,13.8,0,0,0,0-10.17,1.28,1.28,0,0,1,1-1.74,13.81,13.81,0,0,0,8.81-5.09A1.26,1.26,0,0,1,263.43,79.19Zm-71.67,62.22a43.35,43.35,0,1,0,74.71-32.94,1.36,1.36,0,0,1-.18-1.64h0a9.17,9.17,0,0,1,7.86-4.55,5.25,5.25,0,0,1,4.13,2.18c8.64,10,12.4,21.68,12.4,35a55.68,55.68,0,1,1-74.82-52.3,1.39,1.39,0,0,1,1.83,1.55,13.73,13.73,0,0,0,1.08,7.88,1.26,1.26,0,0,1-.65,1.69h0A43.24,43.24,0,0,0,191.76,141.41ZM235,205A66.73,66.73,0,0,1,205.92,78.19l.06,0a1.88,1.88,0,0,1,2.28.62,13.63,13.63,0,0,0,4.53,3.92.65.65,0,0,1-.07,1.18,59.85,59.85,0,0,0-37.61,55.6c0,39.4,38.25,70,79.57,56.73,15.61-5,32.56-22.2,37.35-37.88,6.31-20.67,2-41.44-10.73-56.83A39.78,39.78,0,0,1,278,96.33a10.43,10.43,0,0,1-.91-7.61,1.17,1.17,0,0,1,1.9-.58A66.71,66.71,0,0,1,235,205Z"/><circle class="cls-1" cx="262.44" cy="91.1" r="3.72"/><path class="cls-2" d="M123.45,85.2q.19.52.42,1a4.9,4.9,0,0,0,.24.52,18.41,18.41,0,0,0,17.22,10.47l.57,0c.36,0,.73-.06,1.1-.1.56-.07,1.12-.17,1.68-.29a18.88,18.88,0,0,0,3.86-1.31l.51-.25c.19-.09.37-.19.55-.29l.49-.28.48-.29c.17-.11.35-.22.51-.34l.47-.32A18.66,18.66,0,0,0,156,89.09a18.48,18.48,0,0,0,2.88-13.38,2.63,2.63,0,0,0-4.82-1,2.67,2.67,0,0,0-.37,1.86,13.17,13.17,0,0,1-2.06,9.56,12.93,12.93,0,0,1-3.16,3.27l-.35.26-.69.43c-.12.08-.25.15-.38.22s-.47.25-.72.37a13.9,13.9,0,0,1-2.79,1c-.39.08-.78.15-1.17.2l-.82.08a13.16,13.16,0,0,1-12.87-7.82c-.11-.24-.21-.49-.3-.74s-.26-.76-.37-1.16a13.17,13.17,0,0,1,8.68-15.95,2.61,2.61,0,0,0,1.45-1.11,2.63,2.63,0,0,0-3.06-3.9,18.42,18.42,0,0,0-12.15,22.33Q123.17,84.41,123.45,85.2Z"/><path class="cls-2" d="M160.61,55.23l9,13a2.64,2.64,0,0,0,4.33-3l-7.51-10.81,11.54-8,7.5,10.82a2.64,2.64,0,1,0,4.33-3l-9-13-9-13a2.63,2.63,0,1,0-4.32,3L175,42l-11.54,8-7.5-10.82a2.63,2.63,0,1,0-4.32,3Z"/><path class="cls-2" d="M201.7,44a12.06,12.06,0,0,0,3.78,3.33A14,14,0,0,0,223,43.56,12,12,0,0,0,225.1,39a13.79,13.79,0,0,0,0-5.89l-4.47-20.67a2.64,2.64,0,0,0-5.15,1.12l4.47,20.66a8.61,8.61,0,0,1,.09,3.55,6.76,6.76,0,0,1-1.19,2.7,8.7,8.7,0,0,1-10.75,2.33,6.9,6.9,0,0,1-2.18-1.94,8.74,8.74,0,0,1-1.4-3.3L200,16.86A2.64,2.64,0,0,0,194.85,18l4.47,20.66A14,14,0,0,0,201.7,44Z"/><path class="cls-2" d="M245.33,44.18,247,34.69l4.95.88a7.69,7.69,0,0,1,4,2.37,9.19,9.19,0,0,1,1.26,1.78A15.27,15.27,0,0,1,258.9,47a2.63,2.63,0,1,0,5.26.06,20.15,20.15,0,0,0-2.36-9.9,14.84,14.84,0,0,0-1.9-2.65,9.82,9.82,0,0,0,1.77-1.21A12.87,12.87,0,0,0,266,25.6a12.87,12.87,0,0,0-1.42-8.73,11.45,11.45,0,0,0-8.09-5.44L248.74,10a2.65,2.65,0,0,0-3.06,2.13l-3.39,19.08-2.14,12a2.63,2.63,0,1,0,5.18.93Zm5.07-28.49,5.19.92a6,6,0,0,1,4.46,2.91,8.09,8.09,0,0,1-1.73,9.72,6,6,0,0,1-5.19,1.19l-5.19-.92Z"/><path class="cls-2" d="M279.55,54.4l5-8.23,4.29,2.61a7.7,7.7,0,0,1,2.85,3.65,10.19,10.19,0,0,1,.53,2.11,15.46,15.46,0,0,1-1.05,7.4,2.63,2.63,0,1,0,4.88,2,20.17,20.17,0,0,0,1.38-10.09,15.41,15.41,0,0,0-.8-3.16,10.05,10.05,0,0,0,2.08-.48,13.35,13.35,0,0,0,8.68-14.24,11.47,11.47,0,0,0-5.57-8l-6.74-4.1a2.62,2.62,0,0,0-3.62.88L281.39,41.25l-6.34,10.41a2.63,2.63,0,1,0,4.5,2.74ZM294.6,29.68l4.49,2.74a6,6,0,0,1,3.11,4.33,7.81,7.81,0,0,1-1.14,5.09,7.7,7.7,0,0,1-4,3.34,6,6,0,0,1-5.28-.77l-4.49-2.74Z"/><path class="cls-2" d="M338.33,91.84a18.42,18.42,0,1,0-25.64-4.63A18.42,18.42,0,0,0,338.33,91.84Zm-18-25.94A13.16,13.16,0,1,1,317,84.21,13.14,13.14,0,0,1,320.32,65.9Z"/><path class="cls-2" d="M155.61,204.46a2.66,2.66,0,0,0,.38,1.79,2.6,2.6,0,0,0,1.72,1.17,2.56,2.56,0,0,0,1.91-.36,2.61,2.61,0,0,0,1.2-1.89,18.42,18.42,0,0,0-14.93-20.58c-.56-.1-1.13-.18-1.69-.23-.36,0-.73-.05-1.1-.06h-.57a18.46,18.46,0,0,0-16.86,11.05c-.07.17-.14.35-.22.53-.13.34-.26.68-.37,1-.18.54-.33,1.08-.46,1.64a18,18,0,0,0-.48,4.06v.57l0,.61c0,.19,0,.38,0,.56l.06.57c0,.2,0,.4.08.6s.06.38.1.56a18.1,18.1,0,0,0,2.25,6,18.44,18.44,0,0,0,10.84,8.36,2.63,2.63,0,0,0,3-3.94,2.6,2.6,0,0,0-1.52-1.12,13.15,13.15,0,0,1-9.34-10.23c0-.15,0-.29-.08-.44s-.07-.53-.09-.8,0-.29,0-.44,0-.53,0-.8a14,14,0,0,1,.34-2.94c.09-.39.2-.77.32-1.14s.18-.52.28-.77a13.18,13.18,0,0,1,5-6.11,13,13,0,0,1,7.59-2.15c.26,0,.53,0,.79.05s.8.09,1.21.16a13.17,13.17,0,0,1,10.67,14.69Z"/><path class="cls-2" d="M190.89,223.1a2.64,2.64,0,0,0-3.64.71l-7.41,10.88-11.6-7.9,7.4-10.88a2.63,2.63,0,1,0-4.35-3L162.38,226l-8.87,13a2.64,2.64,0,0,0,4.36,3l7.4-10.88,11.61,7.9-7.41,10.88a2.63,2.63,0,1,0,4.35,3l8.91-13.08,8.87-13A2.64,2.64,0,0,0,190.89,223.1Z"/><path class="cls-2" d="M226.87,233.91a2.64,2.64,0,0,0-3.1,2.06l-4.19,20.73a8.74,8.74,0,0,1-1.34,3.29,6.74,6.74,0,0,1-2.18,2,8.7,8.7,0,0,1-10.77-2.17,6.69,6.69,0,0,1-1.22-2.66,8.47,8.47,0,0,1,0-3.58l4.19-20.73a2.63,2.63,0,0,0-5.16-1l-4.19,20.73a13.73,13.73,0,0,0,0,5.89,12.12,12.12,0,0,0,2.13,4.56,14,14,0,0,0,17.61,3.56,12,12,0,0,0,3.73-3.38,13.73,13.73,0,0,0,2.31-5.42L228.93,237A2.63,2.63,0,0,0,226.87,233.91Z"/><path class="cls-2" d="M265.58,254.33a15.4,15.4,0,0,0-2.73-1.78,10.2,10.2,0,0,0,1.22-1.77,13.35,13.35,0,0,0-3.22-16.36,11.46,11.46,0,0,0-9.51-2.15l-7.75,1.52a2.64,2.64,0,0,0-2.07,3.09l3.74,19,2.35,12a2.63,2.63,0,1,0,5.16-1l-1.86-9.45,4.93-1a7.65,7.65,0,0,1,4.56.77,9.24,9.24,0,0,1,1.82,1.2,15.45,15.45,0,0,1,4.22,6.16,2.63,2.63,0,1,0,4.93-1.85A20.26,20.26,0,0,0,265.58,254.33Zm-6.11-6.12a6,6,0,0,1-4.41,3l-5.16,1-2.71-13.77,5.17-1a5.94,5.94,0,0,1,5.21,1.11,8.06,8.06,0,0,1,1.9,9.67Z"/><path class="cls-2" d="M304.79,235.36a15.36,15.36,0,0,0-3.19-.67,10.57,10.57,0,0,0,.49-2.08,13.35,13.35,0,0,0-9-14.05,11.42,11.42,0,0,0-9.63,1.48l-6.65,4.25a2.63,2.63,0,0,0-.8,3.64l10.44,16.32L293,254.52a2.63,2.63,0,1,0,4.43-2.84l-5.19-8.11,4.24-2.71a7.73,7.73,0,0,1,4.52-1,9.73,9.73,0,0,1,2.14.45,15.43,15.43,0,0,1,6.17,4.19,2.63,2.63,0,1,0,3.91-3.52A20,20,0,0,0,304.79,235.36Zm-7.92-3.46a6,6,0,0,1-3,4.4l-4.43,2.83-7.56-11.82,4.43-2.84a6,6,0,0,1,5.26-.88,8.08,8.08,0,0,1,5.31,8.31Z"/><path class="cls-2" d="M338.06,186.45A18.42,18.42,0,1,0,343.37,212,18.42,18.42,0,0,0,338.06,186.45Zm.91,22.62a13.16,13.16,0,1,1-3.8-18.22A13.16,13.16,0,0,1,339,209.07Z"/><path class="cls-2" d="M349.63,140a4.93,4.93,0,0,1-2.43-4.21,1.26,1.26,0,0,0-.64-1.08,1.22,1.22,0,0,0-1.24,0,5,5,0,0,1-4.86,0,1.26,1.26,0,0,0-1.88,1.08,5,5,0,0,1-2.43,4.21,1.26,1.26,0,0,0,0,2.17,5,5,0,0,1,2.43,4.21,1.25,1.25,0,0,0,.63,1.08,1.22,1.22,0,0,0,1.25,0,5,5,0,0,1,4.86,0,1.23,1.23,0,0,0,.62.17,1.28,1.28,0,0,0,1.26-1.25,5,5,0,0,1,2.43-4.21,1.26,1.26,0,0,0,0-2.17Z"/><path class="cls-2" d="M129.54,147.42a1.26,1.26,0,0,0,1.88-1.08,5,5,0,0,1,2.43-4.21,1.26,1.26,0,0,0,0-2.17,5,5,0,0,1-2.43-4.21,1.26,1.26,0,0,0-1.88-1.08,5,5,0,0,1-4.86,0,1.22,1.22,0,0,0-1.24,0,1.26,1.26,0,0,0-.64,1.08,4.93,4.93,0,0,1-2.43,4.21,1.26,1.26,0,0,0,0,2.17,5,5,0,0,1,2.43,4.21,1.28,1.28,0,0,0,1.26,1.25,1.23,1.23,0,0,0,.62-.17A5,5,0,0,1,129.54,147.42Z"/></svg>