<svg id="Layer_1" data-name="Layer 1" xmlns="http://www.w3.org/2000/svg" xmlns:xlink="http://www.w3.org/1999/xlink" viewBox="0 0 470 280"><defs><style>.cls-1{fill:none;}.cls-2{fill:#fff;}.cls-3{clip-path:url(#clip-path);}.cls-4{fill:#ffebd9;}.cls-5{fill:#ffe5d5;}.cls-6{fill:#ffe0d1;}.cls-7{fill:#ffdacd;}.cls-8{fill:#ffd4ca;}.cls-9{fill:#ffcec6;}.cls-10{fill:#ffc9c2;}.cls-11{fill:#ffc3be;}.cls-12{fill:#ffbdba;}.cls-13{fill:#ffb8b6;}.cls-14{fill:#ffb2b2;}.cls-15{fill:#ffacaf;}.cls-16{fill:#ffa6ab;}.cls-17{fill:#ffa1a7;}.cls-18{fill:#ff9ba3;}.cls-19{fill:#8ae9db;}.cls-20{fill:#86e3da;}.cls-21{fill:#82deda;}.cls-22{fill:#7ed9d9;}.cls-23{fill:#7ad3d8;}.cls-24{fill:#76ced7;}.cls-25{fill:#72c9d6;}.cls-26{fill:#6dc3d5;}.cls-27{fill:#69bed4;}.cls-28{fill:#a3efd7;}.cls-29{fill:#bcf4d3;}.cls-30{fill:#d4facf;}.cls-31{fill:#edffcb;}.cls-32{fill:#63b7d3;}.cls-33{fill:#5eafd1;}.cls-34{fill:#58a8d0;}.cls-35{fill:url(#radial-gradient);}.cls-36{fill:url(#radial-gradient-2);}.cls-37{fill:url(#linear-gradient);}.cls-38{fill:url(#linear-gradient-2);}.cls-39{fill:url(#linear-gradient-3);}.cls-40{fill:url(#linear-gradient-4);}.cls-41{fill:url(#linear-gradient-5);}.cls-42{fill:url(#linear-gradient-6);}.cls-43{fill:url(#linear-gradient-7);}.cls-44{fill:url(#linear-gradient-8);}.cls-45{fill:url(#linear-gradient-9);}</style><clipPath id="clip-path"><path class="cls-1" d="M222.1,66.44a53,53,0,0,0-50.71,37.68,36.07,36.07,0,0,1,69.28,14,18.38,18.38,0,1,0-18.38,18.37H272a55.07,55.07,0,0,0,3.08-17.14A53,53,0,0,0,222.1,66.44Z"/></clipPath><radialGradient id="radial-gradient" cx="247.18" cy="254.61" r="211.94" gradientUnits="userSpaceOnUse"><stop offset="0" stop-color="#0565b8"/><stop offset="0.95" stop-color="#9be5b8"/><stop offset="1" stop-color="#a3ecb8"/></radialGradient><radialGradient id="radial-gradient-2" cx="227.41" cy="243.2" r="170.97" xlink:href="#radial-gradient"/><linearGradient id="linear-gradient" x1="3.22" y1="314.17" x2="96.71" y2="-60.74" xlink:href="#radial-gradient"/><linearGradient id="linear-gradient-2" x1="32.02" y1="321.35" x2="125.51" y2="-53.56" xlink:href="#radial-gradient"/><linearGradient id="linear-gradient-3" x1="64.56" y1="329.46" x2="158.05" y2="-45.44" xlink:href="#radial-gradient"/><linearGradient id="linear-gradient-4" x1="87.63" y1="335.22" x2="181.12" y2="-39.69" xlink:href="#radial-gradient"/><linearGradient id="linear-gradient-5" x1="247.8" y1="375.16" x2="341.29" y2="0.25" xlink:href="#radial-gradient"/><linearGradient id="linear-gradient-6" x1="279.38" y1="383.03" x2="372.87" y2="8.12" xlink:href="#radial-gradient"/><linearGradient id="linear-gradient-7" x1="309.63" y1="390.57" x2="403.12" y2="15.67" xlink:href="#radial-gradient"/><linearGradient id="linear-gradient-8" x1="337.07" y1="397.42" x2="430.56" y2="22.51" xlink:href="#radial-gradient"/><linearGradient id="linear-gradient-9" x1="364.3" y1="404.21" x2="457.79" y2="29.3" xlink:href="#radial-gradient"/></defs><title>surfplace</title><path class="cls-2" d="M222.1,212.49a3.9,3.9,0,0,1-2.68-1.08,290.38,290.38,0,0,1-27.28-30.87c-18.35-24-27.66-44.7-27.66-61.4a57.63,57.63,0,1,1,115.25,0c0,16.7-9.31,37.35-27.67,61.4a290.38,290.38,0,0,1-27.28,30.87A3.88,3.88,0,0,1,222.1,212.49Z"/><path class="cls-2" d="M222.1,62.24a57,57,0,0,1,56.9,56.9c0,16.53-9.26,37-27.52,61a288.72,288.72,0,0,1-27.2,30.79,3.14,3.14,0,0,1-4.36,0,290,290,0,0,1-27.2-30.79c-18.26-23.91-27.52-44.42-27.52-60.95a57,57,0,0,1,56.9-56.9m0-1.45a58.42,58.42,0,0,0-58.35,58.35c0,16.86,9.36,37.66,27.82,61.84a290.87,290.87,0,0,0,27.35,31,4.62,4.62,0,0,0,6.36,0,291.58,291.58,0,0,0,27.36-31c18.46-24.18,27.82-45,27.82-61.84A58.42,58.42,0,0,0,222.1,60.79Z"/><g class="cls-3"><path class="cls-4" d="M291,95.35a1,1,0,0,1-1-1c0-15.58-24.28-28.26-54.13-28.26S181.8,78.8,181.8,94.38a1,1,0,1,1-1.94,0c0-16.65,25.15-30.2,56.07-30.2S292,77.73,292,94.38A1,1,0,0,1,291,95.35Z"/><path class="cls-5" d="M289.11,100.32a1,1,0,0,1-1-1c0-15.54-23.41-28.19-52.2-28.19s-52.2,12.65-52.2,28.19a1,1,0,0,1-1.94,0c0-16.61,24.29-30.13,54.14-30.13s54.15,13.52,54.15,30.13A1,1,0,0,1,289.11,100.32Z"/><path class="cls-6" d="M287.18,105.28a1,1,0,0,1-1-1c0-15.5-22.55-28.11-50.28-28.11s-50.28,12.61-50.28,28.11a1,1,0,0,1-1.94,0c0-16.57,23.43-30,52.22-30s52.22,13.48,52.22,30.05A1,1,0,0,1,287.18,105.28Z"/><path class="cls-7" d="M285.26,110.25a1,1,0,0,1-1-1c0-15.46-21.69-28-48.36-28s-48.36,12.58-48.36,28a1,1,0,0,1-1.94,0c0-16.53,22.57-30,50.3-30s50.3,13.45,50.3,30A1,1,0,0,1,285.26,110.25Z"/><path class="cls-8" d="M283.34,115.21a1,1,0,0,1-1-1c0-15.42-20.83-28-46.44-28s-46.44,12.54-46.44,28a1,1,0,0,1-1.94,0c0-16.49,21.71-29.9,48.38-29.9s48.38,13.41,48.38,29.9A1,1,0,0,1,283.34,115.21Z"/><path class="cls-9" d="M281.41,120.18a1,1,0,0,1-1-1c0-15.38-20-27.89-44.51-27.89s-44.51,12.51-44.51,27.89a1,1,0,0,1-1.94,0c0-16.45,20.84-29.83,46.45-29.83s46.45,13.38,46.45,29.83A1,1,0,0,1,281.41,120.18Z"/><path class="cls-10" d="M279.49,125.14a1,1,0,0,1-1-1c0-15.33-19.1-27.81-42.59-27.81s-42.59,12.48-42.59,27.81a1,1,0,0,1-1.94,0c0-16.4,20-29.75,44.53-29.75s44.53,13.35,44.53,29.75A1,1,0,0,1,279.49,125.14Z"/><path class="cls-11" d="M277.57,130.1a1,1,0,0,1-1-1c0-15.29-18.25-27.73-40.67-27.73s-40.67,12.44-40.67,27.73a1,1,0,1,1-1.94,0c0-16.36,19.12-29.67,42.61-29.67s42.61,13.31,42.61,29.67A1,1,0,0,1,277.57,130.1Z"/><path class="cls-12" d="M275.65,135.07a1,1,0,0,1-1-1c0-15.25-17.38-27.66-38.74-27.66s-38.74,12.41-38.74,27.66a1,1,0,0,1-1.94,0c0-16.32,18.25-29.6,40.68-29.6s40.69,13.28,40.69,29.6A1,1,0,0,1,275.65,135.07Z"/><path class="cls-13" d="M273.72,140a1,1,0,0,1-1-1c0-15.21-16.52-27.58-36.82-27.58s-36.82,12.37-36.82,27.58a1,1,0,0,1-1.94,0c0-16.28,17.39-29.52,38.76-29.52s38.76,13.24,38.76,29.52A1,1,0,0,1,273.72,140Z"/><path class="cls-14" d="M271.8,145a1,1,0,0,1-1-1c0-15.17-15.66-27.51-34.9-27.51S201,128.86,201,144a1,1,0,0,1-1.94,0c0-16.24,16.53-29.45,36.84-29.45s36.84,13.21,36.84,29.45A1,1,0,0,1,271.8,145Z"/><path class="cls-15" d="M269.88,150a1,1,0,0,1-1-1c0-15.13-14.8-27.43-33-27.43s-33,12.3-33,27.43a1,1,0,1,1-1.94,0c0-16.2,15.67-29.37,34.92-29.37s34.92,13.17,34.92,29.37A1,1,0,0,1,269.88,150Z"/><path class="cls-16" d="M268,154.93a1,1,0,0,1-1-1c0-15.09-13.93-27.36-31.05-27.36S204.88,138.87,204.88,154a1,1,0,0,1-1.94,0c0-16.16,14.8-29.3,33-29.3s33,13.14,33,29.3A1,1,0,0,1,268,154.93Z"/><path class="cls-17" d="M266,159.89a1,1,0,0,1-1-1c0-15-13.07-27.28-29.13-27.28s-29.13,12.24-29.13,27.28a1,1,0,0,1-1.94,0c0-16.11,13.94-29.22,31.07-29.22S267,142.81,267,158.92A1,1,0,0,1,266,159.89Z"/><path class="cls-18" d="M264.11,164.86a1,1,0,0,1-1-1,27.21,27.21,0,1,0-54.42,0,1,1,0,1,1-1.94,0,29.15,29.15,0,1,1,58.3,0A1,1,0,0,1,264.11,164.86Z"/></g><path class="cls-19" d="M267.76,140.52H222.31c-11.22,0-20.69-8.9-21.1-19.84a20.76,20.76,0,0,1,.5-5.39l1.89.43a18.65,18.65,0,0,0-.45,4.89c.37,9.91,9,18,19.16,18h45.45Z"/><path class="cls-20" d="M266.55,145H222.19c-12.38,0-22.67-9.87-22.93-22a18.51,18.51,0,0,1,1.86-8.45l1.74.85A16.52,16.52,0,0,0,201.2,123c.24,11.07,9.65,20.09,21,20.09h44.36Z"/><path class="cls-21" d="M265.34,149.51H222.07a24.68,24.68,0,0,1-24.76-24.13A21,21,0,0,1,200.5,114l1.65,1a19.14,19.14,0,0,0-2.9,10.34,22.74,22.74,0,0,0,22.82,22.22h43.27Z"/><path class="cls-22" d="M264.14,154H222a26.6,26.6,0,0,1-26.59-26.28,24.54,24.54,0,0,1,4.5-14.3l1.59,1.12a22.62,22.62,0,0,0-4.15,13.17A24.66,24.66,0,0,0,222,152.07h42.19Z"/><path class="cls-23" d="M262.93,158.51h-41.1a28.46,28.46,0,0,1-28.42-28.43,28.14,28.14,0,0,1,5.81-17.19l1.54,1.18a26.47,26.47,0,0,0,21.07,42.5h41.1Z"/><path class="cls-23" d="M260.84,163H222.4a32.77,32.77,0,0,1-30.57-44.63l1.81.71a30.82,30.82,0,0,0,28.76,42h38.44Z"/><path class="cls-24" d="M256.43,168.3H222.25a34.82,34.82,0,0,1-34.78-34.78,31.74,31.74,0,0,1,3.95-15.34l1.7.94a29.8,29.8,0,0,0-3.71,14.4,32.87,32.87,0,0,0,32.84,32.84h34.18Z"/><path class="cls-25" d="M252,173.62H222.09a36.82,36.82,0,0,1-36.77-36.78A33.8,33.8,0,0,1,191,118.06l1.62,1.08a31.83,31.83,0,0,0-5.35,17.7,34.88,34.88,0,0,0,34.83,34.84H252Z"/><path class="cls-26" d="M247.61,178.93H221.94a38.81,38.81,0,0,1-38.77-38.76,36.79,36.79,0,0,1,7.38-22.2l1.55,1.16a34.9,34.9,0,0,0-7,21A36.87,36.87,0,0,0,221.94,177h25.67Z"/><path class="cls-27" d="M243.2,184.25H221.79a40.73,40.73,0,0,1-31.69-66.36l1.51,1.22a38.79,38.79,0,0,0,30.18,63.2H243.2Z"/><path class="cls-19" d="M178,147.92h-1.94c0-28.54,18.34-49.14,44.59-50.1.54,0,1.11,0,1.67,0a21.65,21.65,0,0,1,8.81,1.85l-.78,1.77a19.93,19.93,0,0,0-8-1.68c-.53,0-1.06,0-1.59,0a43.25,43.25,0,0,0-30.05,13.18C182.4,121.67,178,133.77,178,147.92Z"/><path class="cls-28" d="M175.42,142.86a1,1,0,0,1-1-.94c-.51-21.18,10.26-38.1,28.1-44.16a42.59,42.59,0,0,1,18.9-1.89c.54.06,1.09.14,1.63.23a23,23,0,0,1,8.28,3.1,1,1,0,1,1-1,1.65A20.91,20.91,0,0,0,222.76,98c-.51-.09-1-.16-1.54-.22a40.48,40.48,0,0,0-18,1.8c-17,5.78-27.28,22-26.79,42.27a1,1,0,0,1-.95,1Z"/><path class="cls-29" d="M173.78,136.83a1,1,0,0,1-1-.92c-.52-10.93,2.35-20.84,8.29-28.67a37.51,37.51,0,0,1,22-14,39.3,39.3,0,0,1,19.14.76c.53.15,1,.32,1.57.51a25.47,25.47,0,0,1,7.75,4.32,1,1,0,0,1-1.22,1.5,23.9,23.9,0,0,0-7.16-4c-.5-.17-1-.33-1.49-.48a37.23,37.23,0,0,0-18.18-.72c-20.88,4.46-29.54,24.24-28.76,40.73a1,1,0,0,1-.92,1Z"/><path class="cls-30" d="M172.15,130.8a1,1,0,0,1-1-.9c-.78-11.1,2.27-21,8.81-28.77a35.56,35.56,0,0,1,23.66-12.5A36.19,36.19,0,0,1,223,92.05c.52.25,1,.51,1.52.78a29.27,29.27,0,0,1,7.2,5.54,1,1,0,1,1-1.4,1.34,27.15,27.15,0,0,0-6.73-5.17c-.48-.26-1-.51-1.43-.75a34.43,34.43,0,0,0-18.33-3.23c-21.6,2.19-32,21.83-30.73,39.2a1,1,0,0,1-.9,1Z"/><path class="cls-31" d="M170.51,124.77a1,1,0,0,1-1-.88c-1-10.91,2.17-21,9-28.48a34.8,34.8,0,0,1,25.67-11.33A34.37,34.37,0,0,1,231.91,98a1,1,0,1,1-1.55,1.16A32.46,32.46,0,0,0,204.19,86,32.83,32.83,0,0,0,180,96.72c-6.43,7-9.44,16.63-8.48,27a1,1,0,0,1-.88,1.06Z"/><path class="cls-27" d="M243.2,188.34H222.1a46.34,46.34,0,0,1-24.67-7.1l1-1.65a44.3,44.3,0,0,0,23.64,6.81h21.1Z"/><path class="cls-32" d="M237.49,193.85H222.22c-6.35,0-13.44-1.88-18.06-4.79l1-1.64c4.34,2.72,11,4.49,17,4.49h15.27Z"/><path class="cls-33" d="M231.78,199.35h-9.44c-3.08,0-8.93-.88-11.45-2.47l1-1.64c2.11,1.32,7.58,2.17,10.42,2.17h9.44Z"/><rect class="cls-34" x="218.13" y="202.92" width="7.94" height="1.94"/><path class="cls-35" d="M222.1,189a45.87,45.87,0,0,1-1.69-91.7c.56,0,1.12,0,1.69,0a21.78,21.78,0,0,1,7.52,1.33,32.53,32.53,0,0,0-57.74,20.56.37.37,0,0,1-.37.36H165.2a.36.36,0,0,1-.36-.36,39.58,39.58,0,0,1,79-3.55,3.62,3.62,0,0,1-.93,2.76,3.48,3.48,0,0,1-2.62,1.15,3.59,3.59,0,0,1-3.56-3,14.84,14.84,0,0,0-14.63-12.23h-.66a15,15,0,0,0-14.18,14.13A14.89,14.89,0,0,0,222.1,134h50.3a.36.36,0,0,1,.36.36v6.31a.36.36,0,0,1-.36.36H222.63c-11.91,0-22-9.44-22.4-21a21.39,21.39,0,0,1,.22-4.08,25.71,25.71,0,0,0-4.36,14.4,26,26,0,0,0,26,26h39.49a.36.36,0,0,1,.36.36V163a.36.36,0,0,1-.36.36H222.1a33,33,0,0,1-31.57-42.8A38.82,38.82,0,0,0,222.1,182h21.1a.36.36,0,0,1,.36.36v6.31a.36.36,0,0,1-.36.36Z"/><path class="cls-2" d="M204.42,79.93a39.26,39.26,0,0,1,39.05,35.69,3.21,3.21,0,0,1-3.18,3.52h-.06a3.21,3.21,0,0,1-3.15-2.68,15.24,15.24,0,0,0-15-12.54l-.67,0h-.08a15.22,15.22,0,0,0,.75,30.42h50.3v6.31H222.63c-11.66,0-21.6-9-22-20.7a21.84,21.84,0,0,1,.52-5.63,26.37,26.37,0,0,0,21,42.33h39.49V163H222.1a32.67,32.67,0,0,1-30.47-44.48,39.17,39.17,0,0,0,30.47,63.82h21.1v6.31H222.1a45.51,45.51,0,0,1-1.68-91c.56,0,1.12,0,1.68,0a21.54,21.54,0,0,1,8.65,1.81,32.9,32.9,0,0,0-59.24,19.72H165.2a39.26,39.26,0,0,1,39.22-39.21m0-.73a40,40,0,0,0-39.94,39.94.73.73,0,0,0,.72.73h6.31a.73.73,0,0,0,.73-.73A32.22,32.22,0,0,1,204.42,87,31.87,31.87,0,0,1,228.5,97.82a22.18,22.18,0,0,0-6.4-.94c-.57,0-1.15,0-1.72.05a46.23,46.23,0,0,0,1.72,92.43h21.1a.73.73,0,0,0,.73-.73v-6.31a.73.73,0,0,0-.73-.73H222.1a38.45,38.45,0,0,1-32.51-59,33.43,33.43,0,0,0,32.51,41.13h39.49a.73.73,0,0,0,.72-.73v-6.31a.72.72,0,0,0-.72-.72H222.1a25.68,25.68,0,0,1-25.65-25.65,25.34,25.34,0,0,1,3.46-12.85,24.06,24.06,0,0,0,0,2.55c.45,11.8,10.66,21.4,22.77,21.4H272.4a.73.73,0,0,0,.73-.73v-6.31a.73.73,0,0,0-.73-.73H222.1a14.49,14.49,0,0,1-14.47-15.18,14.59,14.59,0,0,1,13.76-13.78h0l.67,0a14.48,14.48,0,0,1,14.27,11.93,3.94,3.94,0,0,0,3.86,3.29h.06a3.88,3.88,0,0,0,2.89-1.27,4,4,0,0,0,1-3A40,40,0,0,0,204.42,79.2Z"/><path class="cls-36" d="M222.1,211.76a3.13,3.13,0,0,1-2.18-.88,290,290,0,0,1-27.2-30.79c-18.26-23.91-27.52-44.42-27.52-60.95a56.9,56.9,0,0,1,113.8,0c0,16.53-9.26,37-27.52,61a288.72,288.72,0,0,1-27.2,30.79A3.11,3.11,0,0,1,222.1,211.76Zm0-143.21a50.65,50.65,0,0,0-50.59,50.59c0,32.09,40.64,75,50.59,85,10-10,50.59-53,50.59-85A50.64,50.64,0,0,0,222.1,68.55Z"/><path class="cls-37" d="M55,133.4h-6.5V121.81q0-4.84-3.77-4.85c-2.64,0-4,1.59-4,4.75V130a15.2,15.2,0,0,0,2,7.93,47.67,47.67,0,0,0,4.55,6.21q4.55,5.52,5.77,8.56a23.38,23.38,0,0,1,1.9,9.49v12.52a10.51,10.51,0,0,1-3,7.77,9.68,9.68,0,0,1-7.14,2.84,11.34,11.34,0,0,1-7.29-2.45,8.32,8.32,0,0,1-3.32-6.94V157.56h6.5v16.33a5.1,5.1,0,0,0,1.37,3.77,3.61,3.61,0,0,0,2.64,1.12,3.39,3.39,0,0,0,2.4-1,5,5,0,0,0,1.32-3.72V161.86a15.69,15.69,0,0,0-2.15-8.21,43.37,43.37,0,0,0-4.75-6.17c-3-3.35-4.87-5.95-5.62-7.77a19,19,0,0,1-1.71-8v-9.88a11.23,11.23,0,0,1,3.27-8.27,10,10,0,0,1,7.34-3.08,9.52,9.52,0,0,1,7,2.88A11,11,0,0,1,55,121.46Z"/><path class="cls-38" d="M65.84,111.09h6.41v61.68q0,6,4,6,4.26,0,4.26-6V111.09H87v61.68q0,12.53-10.76,12.52-10.47,0-10.46-13.4Z"/><path class="cls-39" d="M119.21,177.51V156.58a12.23,12.23,0,0,0-1.13-5.87,8.42,8.42,0,0,0-5-3.47,9,9,0,0,0,4.45-2.2c1.08-1.27,1.63-3.44,1.67-6.51V121.32q0-10.23-9.39-10.23H98.57V184.7h6.5V151.05q4,0,5.58.93c1.33.82,2,2.58,2,5.28v20.45c0,3.23.6,5.56,1.91,7h6.5Q119.25,182.56,119.21,177.51Zm-6.51-39.86q0,3.57-1.42,5.14-1.71,1.8-6.21,1.86V117.6h1.32a9.43,9.43,0,0,1,4.45.78q1.81,1.08,1.86,4.45Z"/><polygon class="cls-40" points="130.89 111.09 146.5 111.09 146.5 117.11 137.79 117.11 137.79 145.13 144.71 145.13 144.71 151.15 137.79 151.15 137.79 184.7 130.89 184.7 130.89 111.09"/><path class="cls-41" d="M317.44,114.13a9,9,0,0,0-7.14-3H299.88V184.7h6.5V150.56h3.82a8.77,8.77,0,0,0,8-4.59,15.72,15.72,0,0,0,1.86-8V122A11.32,11.32,0,0,0,317.44,114.13Zm-3.87,24.4c-.06,2.77-1,4.57-2.74,5.38a11.86,11.86,0,0,1-4.45.64V117.11a11,11,0,0,1,5,.83q2.1,1.28,2.15,5.58Z"/><polygon class="cls-42" points="330.21 111.09 336.91 111.09 336.91 178.69 345.81 178.69 345.81 184.7 330.21 184.7 330.21 111.09"/><path class="cls-43" d="M372.79,111.09H361.54l-6.7,73.61h6.21l1.61-18.34h8.51l1.37,18.34h6.21Zm-9.64,49.55,3.42-38.74h1.08l3,38.74Z"/><path class="cls-44" d="M409.66,135.43h-6.5v-14.6a4.62,4.62,0,0,0-1.37-3.38,3.83,3.83,0,0,0-2.79-1.17q-4,0-4,6.21v52.19q0,4.69,3.81,4.69a3.92,3.92,0,0,0,2.79-1.17,5.56,5.56,0,0,0,1.52-4.11V160.45h6.5V173.5q0,5.73-3.28,9a9.67,9.67,0,0,1-7.14,2.89,9.79,9.79,0,0,1-7.72-3.28q-2.94-3.33-2.94-11.3l.05-9.78V137q0-12.67.25-15.41,1-11.3,10.51-11.3a10.09,10.09,0,0,1,7.48,3.08,9,9,0,0,1,2.79,6.56Z"/><polygon class="cls-45" points="420.66 111.09 435.77 111.09 435.77 117.11 427.17 117.11 427.17 144.65 433.99 144.65 433.99 150.66 427.17 150.66 427.17 178.69 435.77 178.69 435.77 184.7 420.66 184.7 420.66 111.09"/></svg>