<svg id="Layer_2" data-name="Layer 2" xmlns="http://www.w3.org/2000/svg" viewBox="0 0 470 280"><defs><style>.cls-1{fill:#fb8;}.cls-2{fill:#fff;}</style></defs><title>redlama</title><path class="cls-1" d="M251.49,100.41h-.14v-4a4.74,4.74,0,1,0-9.48,0v29.29c0,2.8,1.15,5.24,5.24,5.24s5.24-2.44,5.24-5.24v-12.2c0-8.69,2.3-11.64,6.53-11.64h1.87c2.59,0,5.17-1.36,5.17-5.24,0-2.94-2.44-5.09-5.74-5.09-5.1,0-7.47,4.52-8.69,8.9"/><path class="cls-1" d="M288.1,98.83c4.67,0,8.26,3.52,8.84,8.33H278.56c1.15-5.1,4.31-8.33,9.54-8.33m-20,13.07c0,9.11,5.52,19,20.17,19,6.32,0,16.44-2.94,16.44-9.26a4.33,4.33,0,0,0-4.31-4.09c-4.23,0-4.23,5.17-12.13,5.17-6.1,0-9.69-4-9.69-9.55h23.69c3.52,0,4.6-.93,4.6-4.53,0-8.61-6.9-17.15-19-17.15-12.42,0-19.81,8.18-19.81,20.39"/><path class="cls-1" d="M322.49,111.32c0-4.88,1.65-11.63,8.33-11.63h.11c6.3,0,8.29,6.28,8.29,11.63,0,6-2.3,11.42-8.4,11.42-5.6-.15-8.33-5.24-8.33-11.42M338.65,82.6V96.82h-.15c-2.08-3.37-5.67-5.31-10.33-5.31-11.06,0-16.16,9.4-16.16,19.45,0,13.57,7.69,20,16.44,20,5.1,0,9.33-2.15,11.06-6.6h.14V126c0,3.23,1.65,4.95,4.74,4.95s4.74-1.72,4.74-4.95V82.6c0-3.44-2.08-5.23-5.24-5.23s-5.24,1.79-5.24,5.23"/><path class="cls-2" d="M241.87,145.42V188.5c0,3.45,2.08,5.24,5.24,5.24s5.24-1.79,5.24-5.24V145.42c0-3.44-2.08-5.24-5.24-5.24s-5.24,1.8-5.24,5.24"/><path class="cls-2" d="M270.51,182.54c0-3.16,2.38-4.52,6.75-5.17l3.81-.57c1.22-.22,3.37-.57,4.52-1.65v4.09c0,3.88-3.52,7.61-9.26,7.61-3.59,0-5.82-1.94-5.82-4.31m-8.1-18.74a4.17,4.17,0,0,0,4.44,4c4.17,0,4.38-5.75,12.14-5.75,3.52,0,6.6,1.29,6.6,4.31s-2,3.59-4.52,3.88l-6.39.71c-8,.94-14.65,3.38-14.65,12.06,0,6.61,5.89,10.7,11.85,10.7,5.53,0,10.27-1.58,14.36-6.1.14,3.23,1.65,6.1,6.17,6.1,2.52,0,4.74-1.65,4.74-4,0-1.65-1.07-2.65-1.07-7V165.1c0-7.54-7-10.77-17-10.77-10.77,0-16.65,5.31-16.65,9.47"/><path class="cls-2" d="M337.86,160.93a10.45,10.45,0,0,0-10.05-6.6,14.79,14.79,0,0,0-12.64,6.6H315v-1.36c0-3.16-1.87-5.24-5-5.24s-4.95,2.08-4.95,5.24V188.5c0,2.8,1.15,5.24,5.24,5.24s5.24-2.44,5.24-5.24V171.06a7.74,7.74,0,0,1,7.61-8.12c4.09,0,5.75,3,5.75,6.75V188.5c0,2.8,1.15,5.24,5.24,5.24s5.24-2.44,5.24-5.24V171.06a7.74,7.74,0,0,1,7.61-8.12c4.09,0,5.74,3,5.74,6.75V188.5c0,2.8,1.15,5.24,5.25,5.24s5.23-2.44,5.23-5.24V167c0-9.41-5.81-12.71-13.06-12.71-5.67,0-9.41,2.51-12.35,6.6"/><path class="cls-2" d="M380.86,182.54c0-3.16,2.37-4.52,6.75-5.17l3.81-.57c1.22-.22,3.37-.57,4.52-1.65v4.09c0,3.88-3.52,7.61-9.26,7.61-3.59,0-5.82-1.94-5.82-4.31m-8.11-18.74a4.18,4.18,0,0,0,4.45,4c4.17,0,4.38-5.75,12.14-5.75,3.51,0,6.6,1.29,6.6,4.31s-2,3.59-4.52,3.88L385,171c-8,.94-14.65,3.38-14.65,12.06,0,6.61,5.89,10.7,11.85,10.7,5.53,0,10.26-1.58,14.36-6.1.14,3.23,1.65,6.1,6.17,6.1,2.51,0,4.74-1.65,4.74-4,0-1.65-1.08-2.65-1.08-7V165.1c0-7.54-7-10.77-17-10.77-10.77,0-16.66,5.31-16.66,9.47"/><path class="cls-1" d="M132.86,69.64A70.36,70.36,0,0,0,83,189.68a63,63,0,0,1,2.19-7.19c1.81-4.09,5.58-15.36,6-16.75a107.37,107.37,0,0,1,4.33-11.17c3-5.64,4.43-13.94,5-18.6.27-2.23,2.08-6.16,6.32-10.92s9.82-13.32,12-16.55c1.61-2.32,8.06-8.49,11.28-11.81s8.29-8.63,8.29-8.63,3.66-4.21,5.62-4.48,5,4.23,2.8,8.09a47,47,0,0,1-7.49,9.44,48.18,48.18,0,0,1-6.69,10.24s-5,10-5.18,11.45c0,0,12.27-16.62,12.68-17.76s1.48-4,3.31-4.05c2.34-.11,3.8,3,3,5.94s-4.06,9.79-5.69,11.14c0,0-1,3.33-2,4.14,0,0,3.6-.67,5,0s2.51,2.36,3,2.91,9.6,9.67,11.14,10.55,13.11,5.25,13.46,6.71,1.11,3.38-1.06,6c0,0,3.4,4.34.45,6.28s-10.93,4.48-11.4,4.89a34,34,0,0,1-10.45,4.33,17.24,17.24,0,0,0-8.32,4.67,16.53,16.53,0,0,1-5.83,3.26,34.72,34.72,0,0,1-18.39,13.36s-.87-.06-1.08,2.18c-.17,1.74-2.77,12.8-3.89,19.74a70.36,70.36,0,1,0,21.3-137.43"/><path class="cls-1" d="M133.72,142.05c.13,1.72-2.78,9.46-2.78,9.46,3.35,2.9,12.58.36,12.58.36,3.53-3.39,14.72-4.81,14.72-4.81l-3.84-1c-4.28-.64-10.71-7.25-10.71-7.25-5.94.27-8.23-1-8.23-1,.47,2.16-1.74,4.2-1.74,4.2"/></svg>