<svg id="Layer_1" data-name="Layer 1" xmlns="http://www.w3.org/2000/svg" viewBox="0 0 470 280"><defs><style>.cls-1{fill:#fccb8d;}.cls-2{fill:#432522;}</style></defs><title>churro</title><path class="cls-1" d="M276.44,83.18a2,2,0,0,0-.75-.54,69.08,69.08,0,0,0-12.09-7l-.05,0-.2-.09h0a1.89,1.89,0,0,0-2.31.8l-.27.47a11.58,11.58,0,0,1-9.87,5.7h-.54a1.9,1.9,0,0,0-1.64,2.83l.27.48a11.58,11.58,0,0,1,0,11.4l-.27.47a1.88,1.88,0,0,0,.48,2.41h0l.05,0a1.85,1.85,0,0,0,1,.37,41.69,41.69,0,0,1,11.16,6.57l.09.08A41.46,41.46,0,1,1,219,100.83l1-.35a2.39,2.39,0,0,0,1.25-3.43,11.49,11.49,0,0,1-.11-11.34h0a2.21,2.21,0,0,0-1.93-3.28,11.53,11.53,0,0,1-9.88-5.58,2.56,2.56,0,0,0-3.25-1l-1.17.54h0l-.15.07-.08,0h0a69.58,69.58,0,1,0,71.83,6.71Z"/><path class="cls-2" d="M278,80.67a14.93,14.93,0,0,1-1.21-.88,72.22,72.22,0,0,0-12.22-7.05,4.23,4.23,0,0,0-1.9-.46h0a4.15,4.15,0,0,0-3.59,2.06l-.28.47a9.32,9.32,0,0,1-7.93,4.58h-.39a4.3,4.3,0,0,0-3.36,1.54,4.17,4.17,0,0,0-.39,4.69l.26.45a9.3,9.3,0,0,1,0,9.18l-.26.47a4.21,4.21,0,0,0,0,4.15,5,5,0,0,0,2.91,2,39.18,39.18,0,1,1-29.85.21l.83-.3a4.62,4.62,0,0,0,1.92-1.27,4.67,4.67,0,0,0,.58-5.46,9.29,9.29,0,0,1-.18-8.93,4.78,4.78,0,0,0,.31-4.07,4.46,4.46,0,0,0-4.14-2.76h0a9.21,9.21,0,0,1-7.91-4.46,4.83,4.83,0,0,0-6.15-1.93l-1.15.52-.07,0-.13.07-.05,0,0,0A71.86,71.86,0,1,0,278,80.67Zm-14.32-2a14,14,0,0,0,8.9,5.13,1.27,1.27,0,0,1,1,1.74,14,14,0,0,0,0,10.27,1.27,1.27,0,0,1-1,1.75,13.9,13.9,0,0,0-8.89,5.14,1.28,1.28,0,0,1-2,0,14,14,0,0,0-8.89-5.13,1.27,1.27,0,0,1-1-1.75,14,14,0,0,0,0-10.26,1.27,1.27,0,0,1,1-1.75,14,14,0,0,0,8.88-5.14A1.28,1.28,0,0,1,263.68,78.66Zm-72.3,62.76a43.73,43.73,0,1,0,75.37-33.22,1.38,1.38,0,0,1-.19-1.66h0a9.26,9.26,0,0,1,7.93-4.59,5.27,5.27,0,0,1,4.17,2.2c8.71,10.06,12.5,21.87,12.5,35.33a56.16,56.16,0,1,1-75.47-52.75,1.4,1.4,0,0,1,1.85,1.56,13.87,13.87,0,0,0,1.09,7.95A1.28,1.28,0,0,1,218,98h0A43.63,43.63,0,0,0,191.38,141.42ZM235,205.54A67.31,67.31,0,0,1,205.67,77.65l.06,0a1.9,1.9,0,0,1,2.3.63,13.83,13.83,0,0,0,4.56,3.95.65.65,0,0,1-.07,1.19,60.38,60.38,0,0,0-37.93,56.08c0,39.75,38.58,70.66,80.27,57.23,15.74-5.07,32.83-22.4,37.66-38.22,6.37-20.84,2-41.79-10.82-57.32A40.45,40.45,0,0,1,278.41,96a10.57,10.57,0,0,1-.91-7.68,1.19,1.19,0,0,1,1.92-.58A67.29,67.29,0,0,1,235,205.54Z"/><circle class="cls-2" cx="262.68" cy="90.67" r="3.75"/><path class="cls-2" d="M122.48,84.72c.13.35.27.7.42,1l.24.53a18.63,18.63,0,0,0,17.37,10.56l.58,0c.37,0,.74-.06,1.11-.11a17.07,17.07,0,0,0,1.69-.29,18.29,18.29,0,0,0,3.9-1.32l.51-.25c.19-.09.37-.19.55-.29l.5-.28.49-.3.51-.34.47-.33a18.6,18.6,0,0,0,7.41-18.15,2.66,2.66,0,0,0-4.87-1A2.73,2.73,0,0,0,153,76a13.32,13.32,0,0,1-2.07,9.64,13.17,13.17,0,0,1-3.19,3.3l-.36.26c-.23.15-.45.3-.69.44l-.38.22-.73.37a13.59,13.59,0,0,1-2.82,1c-.39.08-.79.15-1.18.2s-.55.06-.83.08a13.29,13.29,0,0,1-13-7.89c-.11-.24-.21-.49-.3-.74s-.26-.77-.37-1.17a13.28,13.28,0,0,1,8.75-16.09,2.62,2.62,0,0,0,1.46-1.12,2.66,2.66,0,0,0,.33-2.08,2.67,2.67,0,0,0-3.41-1.86A18.59,18.59,0,0,0,122,83.09C122.11,83.64,122.28,84.19,122.48,84.72Z"/><path class="cls-2" d="M160,54.49,169,67.55a2.65,2.65,0,1,0,4.36-3l-7.56-10.91,11.63-8.07L185,56.45a2.65,2.65,0,1,0,4.36-3l-9.1-13.11-9.06-13.07a2.65,2.65,0,0,0-4.36,3l7.56,10.91-11.63,8.07-7.57-10.91a2.65,2.65,0,1,0-4.36,3Z"/><path class="cls-2" d="M201.41,43.2a12.23,12.23,0,0,0,3.81,3.35,14.08,14.08,0,0,0,17.71-3.83A12.15,12.15,0,0,0,225,38.09a14,14,0,0,0-.06-5.94L220.45,11.3a2.65,2.65,0,0,0-5.19,1.12l4.51,20.85a8.75,8.75,0,0,1,.09,3.58,6.8,6.8,0,0,1-1.2,2.72,8.8,8.8,0,0,1-10.84,2.35,6.81,6.81,0,0,1-2.2-2,8.62,8.62,0,0,1-1.42-3.32l-4.51-20.85a2.65,2.65,0,0,0-5.19,1.12L199,37.76A14.22,14.22,0,0,0,201.41,43.2Z"/><path class="cls-2" d="M245.42,43.34l1.7-9.57,5,.89a7.79,7.79,0,0,1,4,2.39,9.08,9.08,0,0,1,1.27,1.8,15.52,15.52,0,0,1,1.72,7.33,2.66,2.66,0,1,0,5.31.06,20.36,20.36,0,0,0-2.39-10,15.27,15.27,0,0,0-1.91-2.68,10.41,10.41,0,0,0,1.79-1.22,13,13,0,0,0,4.38-7.76,13,13,0,0,0-1.43-8.8,11.58,11.58,0,0,0-8.16-5.5l-7.84-1.39a2.64,2.64,0,0,0-3.08,2.15l-3.43,19.25-2.16,12.1a2.66,2.66,0,1,0,5.23.93Zm5.12-28.74,5.23.93a6,6,0,0,1,4.5,2.94,7.85,7.85,0,0,1,.79,5.2,7.8,7.8,0,0,1-2.54,4.6,6,6,0,0,1-5.24,1.21l-5.22-.94Z"/><path class="cls-2" d="M279.94,53.65l5.05-8.3L289.32,48a7.75,7.75,0,0,1,2.87,3.68,9.78,9.78,0,0,1,.54,2.13,15.67,15.67,0,0,1-1.06,7.45,2.66,2.66,0,1,0,4.93,2A20.47,20.47,0,0,0,298,53.06a15,15,0,0,0-.82-3.19,10.2,10.2,0,0,0,2.11-.48A13.45,13.45,0,0,0,308,35a11.57,11.57,0,0,0-5.62-8.08l-6.8-4.14a2.66,2.66,0,0,0-3.65.89L281.8,40.39l-6.4,10.5a2.66,2.66,0,1,0,4.54,2.76Zm15.18-24.93,4.53,2.76a6,6,0,0,1,3.13,4.37,8.16,8.16,0,0,1-5.17,8.5,6,6,0,0,1-5.32-.77l-4.54-2.77Z"/><path class="cls-2" d="M339.23,91.42a18.58,18.58,0,1,0-25.86-4.67A18.58,18.58,0,0,0,339.23,91.42ZM321.07,65.25a13.27,13.27,0,1,1-3.34,18.47A13.26,13.26,0,0,1,321.07,65.25Z"/><path class="cls-2" d="M154.91,205a2.71,2.71,0,0,0,.39,1.81,2.66,2.66,0,0,0,4.88-1.09A18.59,18.59,0,0,0,145.11,185c-.57-.1-1.13-.18-1.7-.23-.37,0-.74-.06-1.11-.07h-.57a18.64,18.64,0,0,0-17,11.15c-.07.18-.15.36-.22.53-.14.35-.26.7-.38,1.05-.18.54-.34,1.09-.47,1.65a19,19,0,0,0-.48,4.09c0,.2,0,.39,0,.58s0,.41,0,.62,0,.38,0,.56l.06.57.09.62.09.56a18.57,18.57,0,0,0,8.16,12.2,18.29,18.29,0,0,0,5.05,2.29,2.65,2.65,0,1,0,1.44-5.11,13.28,13.28,0,0,1-7.8-6,13,13,0,0,1-1.62-4.29c0-.15-.05-.3-.07-.44a7.46,7.46,0,0,1-.1-.81c0-.15,0-.29,0-.44s0-.54,0-.82a12.86,12.86,0,0,1,.35-3,11,11,0,0,1,.32-1.16c.09-.26.18-.52.28-.78A13.3,13.3,0,0,1,142.14,190c.26,0,.53,0,.79,0s.82.09,1.22.16A13.27,13.27,0,0,1,154.91,205Z"/><path class="cls-2" d="M190.5,223.83a2.65,2.65,0,0,0-3.67.71l-7.47,11-11.71-8,7.48-11a2.68,2.68,0,0,0-.72-3.7,2.64,2.64,0,0,0-3.67.71l-9,13.2-8.95,13.14a2.65,2.65,0,1,0,4.39,3l7.47-11,11.71,8-7.47,11a2.65,2.65,0,1,0,4.39,3l9-13.19,8.95-13.14A2.66,2.66,0,0,0,190.5,223.83Z"/><path class="cls-2" d="M226.8,234.73a2.66,2.66,0,0,0-3.13,2.08l-4.23,20.91a8.47,8.47,0,0,1-1.35,3.31,6.76,6.76,0,0,1-2.19,2,8.79,8.79,0,0,1-10.87-2.2,6.75,6.75,0,0,1-1.23-2.67,8.66,8.66,0,0,1,0-3.62l4.22-20.91a2.65,2.65,0,1,0-5.2-1.05l-4.23,20.91a14.12,14.12,0,0,0,0,5.94,12.37,12.37,0,0,0,2.14,4.61,14.08,14.08,0,0,0,17.77,3.58,12.13,12.13,0,0,0,3.76-3.4,14,14,0,0,0,2.33-5.47l4.23-20.91A2.66,2.66,0,0,0,226.8,234.73Z"/><path class="cls-2" d="M265.85,255.33a15.19,15.19,0,0,0-2.76-1.8,10.74,10.74,0,0,0,1.23-1.78,13.45,13.45,0,0,0-3.24-16.51,11.55,11.55,0,0,0-9.6-2.17l-7.81,1.54a2.65,2.65,0,0,0-2.09,3.12l3.77,19.18L247.72,269a2.65,2.65,0,1,0,5.21-1l-1.88-9.54,5-1a7.87,7.87,0,0,1,4.6.78,9.66,9.66,0,0,1,1.83,1.21,15.58,15.58,0,0,1,4.25,6.22,2.66,2.66,0,1,0,5-1.87A20.38,20.38,0,0,0,265.85,255.33Zm-6.16-6.17a6,6,0,0,1-4.45,3l-5.21,1-2.73-13.89,5.21-1a6,6,0,0,1,5.26,1.12,8.15,8.15,0,0,1,1.92,9.76Z"/><path class="cls-2" d="M305.4,236.19a15.63,15.63,0,0,0-3.22-.67,10.84,10.84,0,0,0,.49-2.11,13.46,13.46,0,0,0-9.06-14.17,11.55,11.55,0,0,0-9.72,1.5L277.18,225a2.64,2.64,0,0,0-.81,3.66l10.53,16.47,6.63,10.36a2.65,2.65,0,1,0,4.47-2.86l-5.24-8.19,4.27-2.73a7.82,7.82,0,0,1,4.57-1,9.85,9.85,0,0,1,2.15.46,15.52,15.52,0,0,1,6.23,4.23,2.66,2.66,0,1,0,3.94-3.56A20.4,20.4,0,0,0,305.4,236.19Zm-8-3.49a6,6,0,0,1-3,4.44L289.9,240l-7.62-11.93,4.47-2.86a6,6,0,0,1,5.3-.89,8.15,8.15,0,0,1,5.36,8.38Z"/><path class="cls-2" d="M339,186.86a18.58,18.58,0,1,0,5.35,25.73A18.58,18.58,0,0,0,339,186.86Zm.91,22.82a13.27,13.27,0,1,1-3.82-18.38A13.27,13.27,0,0,1,339.87,209.68Z"/><path class="cls-2" d="M350.62,140a5,5,0,0,1-2.45-4.25,1.24,1.24,0,0,0-.63-1.08,1.26,1.26,0,0,0-1.26,0,5,5,0,0,1-4.9,0,1.26,1.26,0,0,0-1.27,0,1.24,1.24,0,0,0-.63,1.08A5,5,0,0,1,337,140a1.27,1.27,0,0,0,0,2.19,5,5,0,0,1,2.45,4.24,1.24,1.24,0,0,0,.63,1.09,1.28,1.28,0,0,0,1.27,0,5,5,0,0,1,4.9,0,1.26,1.26,0,0,0,.62.17,1.29,1.29,0,0,0,1.27-1.27,5,5,0,0,1,2.45-4.24,1.27,1.27,0,0,0,0-2.19Z"/><path class="cls-2" d="M128.62,147.49a1.28,1.28,0,0,0,1.27,0,1.24,1.24,0,0,0,.63-1.09,5,5,0,0,1,2.45-4.24,1.27,1.27,0,0,0,0-2.19,5,5,0,0,1-2.45-4.25,1.24,1.24,0,0,0-.63-1.08,1.26,1.26,0,0,0-1.27,0,5,5,0,0,1-4.9,0,1.27,1.27,0,0,0-1.89,1.09,5,5,0,0,1-2.45,4.25,1.27,1.27,0,0,0,0,2.19,5,5,0,0,1,2.45,4.24,1.29,1.29,0,0,0,1.27,1.27,1.26,1.26,0,0,0,.62-.17A5,5,0,0,1,128.62,147.49Z"/></svg>