<svg id="Layer_1" data-name="Layer 1" xmlns="http://www.w3.org/2000/svg" xmlns:xlink="http://www.w3.org/1999/xlink" viewBox="0 0 470 280"><defs><style>.cls-1{fill:#121e50;}.cls-2{fill:url(#New_Gradient_Swatch_copy_8);}</style><linearGradient id="New_Gradient_Swatch_copy_8" x1="159.36" y1="198.34" x2="88.8" y2="88.72" gradientUnits="userSpaceOnUse"><stop offset="0" stop-color="#9d24df"/><stop offset="0.51" stop-color="#8a5ef1"/><stop offset="1" stop-color="#59caff"/></linearGradient></defs><title>learningfactory</title><path class="cls-1" d="M207.05,126.4a2.79,2.79,0,0,1,2.82-2.72,2.72,2.72,0,0,1,2.64,2.72v22.39h12.15c4.38,0,4.47,5.85,0,5.85H209.87a2.7,2.7,0,0,1-2.82-2.72Z"/><path class="cls-1" d="M234.93,154.64a2.72,2.72,0,0,1-2.77-2.77V126.49a2.7,2.7,0,0,1,2.77-2.77h16a2.91,2.91,0,1,1,0,5.81H238.1v6.71h11.26a2.93,2.93,0,1,1,0,5.85H238.1v6.7h13.63a2.93,2.93,0,1,1,0,5.85Z"/><path class="cls-1" d="M259.82,154.64a3.15,3.15,0,0,1-1.43-4.28l12.83-25.07a3,3,0,0,1,5.54,0l12.6,25.07c1.83,3.48-3.57,6.25-5.18,2.77l-2-3.94H265.72l-1.92,3.94C263.08,154.64,261.43,155,259.82,154.64ZM279,143.3l-5.05-11-5.5,11Z"/><path class="cls-1" d="M299.47,151.74c0,3.89-5.94,4-5.94.09V126.45a2.67,2.67,0,0,1,2.68-2.73H308.1c11.35,0,13.67,15.2,4.2,19l5.94,7.24c2.32,3.44-2.32,6.75-5,3.35l-6.75-9.65h-7Zm0-13.23h8.63c5.81,0,6.16-9.38,0-9.38h-8.63Z"/><path class="cls-1" d="M324,126.85c0-1.61.35-3.17,2.68-3.17,1.61,0,2,.4,3.17,1.56l14.79,18.5V126.4a3.15,3.15,0,0,1,2.82-3.08,3.41,3.41,0,0,1,3.17,3.08v25.16a3,3,0,0,1-2.37,3.08,4.49,4.49,0,0,1-3.62-1.56l-14.79-18.77v17.25a2.77,2.77,0,0,1-2.81,3.08,2.94,2.94,0,0,1-3-3.08Z"/><path class="cls-1" d="M357.63,126.4c0-3.66,5.9-3.79,5.9,0v25.52c0,3.71-5.9,3.8-5.9,0Z"/><path class="cls-1" d="M370.47,126.85c0-1.61.36-3.17,2.68-3.17,1.61,0,2,.4,3.17,1.56l14.8,18.5V126.4a3.14,3.14,0,0,1,2.81-3.08,3.4,3.4,0,0,1,3.17,3.08v25.16a3,3,0,0,1-2.36,3.08,4.46,4.46,0,0,1-3.62-1.56l-14.8-18.77v17.25a2.77,2.77,0,0,1-2.81,3.08,2.94,2.94,0,0,1-3-3.08Z"/><path class="cls-1" d="M429.7,151.2a16.9,16.9,0,0,1-11,3.76c-9.38,0-16-5.36-16-16,0-9,7-16,16.44-16a14.62,14.62,0,0,1,10.19,3.93c2.73,2.68-1.21,6.66-3.89,4.29a9.41,9.41,0,0,0-6.3-2.81A10.65,10.65,0,0,0,408.48,139c0,6.61,4.38,10.64,10.23,10.64a11.32,11.32,0,0,0,6.7-2v-5.49h-6.7c-4,0-3.57-5.45,0-5.45h8.94c1.65,0,3.17,1.25,3.17,2.63v9.52A3.58,3.58,0,0,1,429.7,151.2Z"/><path class="cls-1" d="M212.86,174.22v7.11h11.4a3.46,3.46,0,0,1,3.22,3.17c0,1.48-1.61,2.68-3.22,2.68h-11.4v9.39a2.65,2.65,0,0,1-2.68,2.77c-2,0-3.17-1.21-3.17-2.77V171.19c0-1.61,1.21-2.77,3.17-2.77h15.69c2,0,3.13,1.16,3.13,2.77a3.08,3.08,0,0,1-3.13,3Z"/><path class="cls-1" d="M230.52,199.34a3.15,3.15,0,0,1-1.43-4.29L241.91,170a3,3,0,0,1,5.54,0l12.61,25.07c1.83,3.48-3.58,6.25-5.19,2.77l-2-3.93H236.42l-1.92,3.93C233.78,199.34,232.13,199.65,230.52,199.34ZM249.73,188l-5-11-5.49,11Z"/><path class="cls-1" d="M262,183.65c0-8.62,5.4-16,15.68-16a14.62,14.62,0,0,1,10.24,4,2.9,2.9,0,1,1-4,4.2,7.74,7.74,0,0,0-6.26-2.46c-6.88,0-10.18,4.87-10.18,10.32s3.26,10.64,10.18,10.64a10.4,10.4,0,0,0,7-2.86,3,3,0,0,1,4.11.54,3.07,3.07,0,0,1-.49,4.2c-3.12,2.9-6.88,3.48-10.59,3.48C266.83,199.65,262,192.28,262,183.65Z"/><path class="cls-1" d="M303.07,174h-7.82a2.86,2.86,0,1,1,0-5.72h21.13a2.86,2.86,0,1,1,0,5.72H309v22.57c0,3.89-5.89,4-5.89,0Z"/><path class="cls-1" d="M337.81,199.79c-8.27.35-16.84-5.14-16.84-16.09s8.57-16.4,16.84-16.4c7.82.4,16,5.81,16,16.4S345.63,199.79,337.81,199.79Zm-.49-26.68a10.59,10.59,0,0,0,0,21.18c5.14,0,10.64-3.58,10.64-10.59S342.46,173.11,337.32,173.11Z"/><path class="cls-1" d="M365.3,196.43c0,3.89-5.94,4-5.94.09V171.14a2.66,2.66,0,0,1,2.68-2.72h11.88c11.35,0,13.68,15.19,4.2,19l5.95,7.24c2.32,3.44-2.33,6.74-5,3.35l-6.74-9.65h-7Zm0-13.22h8.62c5.81,0,6.17-9.39,0-9.39H365.3Z"/><path class="cls-1" d="M387.18,172.62c-2.41-3,2.64-6.44,5-3.18l8.22,12.25,8.36-12.25c2.36-3.26,7.23,0,4.91,3l-10.46,14.88v9.2c.41,3.89-5.89,3.89-5.89,0v-9.2Z"/><path class="cls-1" d="M226.63,84.14a2.51,2.51,0,0,0,.78-1.93,2.68,2.68,0,0,0-2.69-2.72H207.87a2.7,2.7,0,0,0,0,5.39h5.75v22.37a2.55,2.55,0,0,0,2.6,2.67,2.66,2.66,0,0,0,2.72-2.67V84.88h5.78A2.72,2.72,0,0,0,226.63,84.14Z"/><path class="cls-1" d="M241.47,87.32a8.62,8.62,0,0,0-5.32,2l-.18.14V82.24a2.67,2.67,0,0,0-.77-2,2.74,2.74,0,0,0-4.65,2v25a2.65,2.65,0,0,0,.79,1.9,2.72,2.72,0,0,0,4.63-1.9V98.06a5.93,5.93,0,0,1,1.49-3.84,4.74,4.74,0,0,1,3.5-1.51,3.94,3.94,0,0,1,3.33,1.52,7.08,7.08,0,0,1,1.21,4.27v8.8a2.7,2.7,0,0,0,5.39,0V98.41a12.32,12.32,0,0,0-2.58-7.91A8.67,8.67,0,0,0,241.47,87.32Z"/><path class="cls-1" d="M277.43,98.64A11.09,11.09,0,0,0,274,90.72a11.35,11.35,0,0,0-16,0,11.24,11.24,0,0,0,0,16,11.3,11.3,0,0,0,8,3.3,10.31,10.31,0,0,0,4.45-.77,8.67,8.67,0,0,0,1.67-.91,2.49,2.49,0,0,0,1.22-1.8,2.59,2.59,0,0,0-.21-1.5,2.49,2.49,0,0,0-1.12-1.23,2.61,2.61,0,0,0-2.63.25,5,5,0,0,1-3.39,1,5.38,5.38,0,0,1-3.59-1.22,6,6,0,0,1-1.93-2.59l-.06-.15h14.41A2.43,2.43,0,0,0,277.43,98.64Zm-17.12-1.92.05-.14a6.09,6.09,0,0,1,1.93-2.86,5.93,5.93,0,0,1,3.85-1.33,6.29,6.29,0,0,1,3.91,1.33,6,6,0,0,1,2,2.86l.05.14Z"/><path class="cls-2" d="M166.27,104.17V76.3a2.46,2.46,0,0,0,0-.28.17.17,0,0,0,0-.07,2.42,2.42,0,0,0-.1-.45.56.56,0,0,0,0-.12,2.48,2.48,0,0,0-.2-.44h0a2.55,2.55,0,0,0-.28-.39l-.08-.09a2,2,0,0,0-.34-.31.1.1,0,0,0,0,0c-.08,0-.15-.11-.24-.16L140.78,60a2.73,2.73,0,0,0-2.71,0L41.53,115.75l-.23.16-.06,0a2.42,2.42,0,0,0-.33.31l-.08.09a2.63,2.63,0,0,0-.29.39h0a3.07,3.07,0,0,0-.2.45l0,.11a2.46,2.46,0,0,0-.11.45v.07a2.46,2.46,0,0,0,0,.28V146a2.72,2.72,0,0,0,1.35,2.34L88.45,175.4v26.3a2.71,2.71,0,0,0,1.35,2.35L113.94,218l.25.13.06,0a3.19,3.19,0,0,0,.44.13l.12,0a2.9,2.9,0,0,0,1,0l.12,0a3.19,3.19,0,0,0,.44-.13l.06,0,.26-.13,24.13-13.93a2.71,2.71,0,0,0,1.35-2.35V175.4l22.78-13.15a2.72,2.72,0,0,0,1.36-2.35V132c0-.09,0-.18,0-.28a.2.2,0,0,0,0-.07,2.42,2.42,0,0,0-.1-.45.76.76,0,0,0,0-.11,2.48,2.48,0,0,0-.2-.44h0a2.14,2.14,0,0,0-.28-.39l-.08-.1a2.56,2.56,0,0,0-.34-.31l0,0-.24-.16L144.84,118.1l20.07-11.59A2.71,2.71,0,0,0,166.27,104.17Zm-77.82,65L45.6,144.4V122.79l42.85,24.74Zm-40.14-51,91.11-52.61L158.14,76.3,89.8,115.75a2.72,2.72,0,0,0,0,4.7L109.87,132,91.16,142.84Zm64.27,92.84-18.71-10.8V147.53l18.71-10.81ZM158.14,132l-16,9.24V122.79Zm2.71-29.43-22.78,13.15-.1.07-.11.07a3.17,3.17,0,0,0-.35.29h0a3.37,3.37,0,0,0-.3.36l-.06.1a1.9,1.9,0,0,0-.2.37l0,0a2.35,2.35,0,0,0-.14.45l0,.12a3.88,3.88,0,0,0,0,.48V146a2.7,2.7,0,0,0,1.35,2.34,2.67,2.67,0,0,0,2.71,0l20.07-11.59v21.62l-22.78,13.15a2.7,2.7,0,0,0-1.35,2.34v26.31L118,210.94V132c0-.09,0-.18,0-.28v-.07a2.46,2.46,0,0,0-.11-.45.76.76,0,0,0,0-.11,2.44,2.44,0,0,0-.19-.44h0a2.19,2.19,0,0,0-.29-.39l-.08-.1a3.26,3.26,0,0,0-.33-.31l-.06,0c-.08-.05-.15-.11-.23-.15L96.57,118.1,160.85,81Z"/></svg>