<svg id="Layer_2" data-name="Layer 2" xmlns="http://www.w3.org/2000/svg" viewBox="0 0 470 280"><defs><style>.cls-1{fill:#fff;}.cls-2{fill:#fb8;}</style></defs><title>vinoblu</title><path class="cls-1" d="M185.75,128V92.68c0-5.06-3.42-9.49-8.36-10l24.82-3.17v49.13c0,6.58,3.54,8.36,6.2,9.12H179.29C182.07,137,185.75,135.1,185.75,128Z"/><path class="cls-2" d="M347.38,60.46c-.83-5.1-7.1-8.39-14-7.27-13.9,2.26-19.86,12.56-23.84,28-1.2,4.68-2.57,9.78-3.76,15.32a35.32,35.32,0,0,0-8.9,16.39c-2.53,10.78,11.26,25.8,15.82,27.65s8,9,8,9c.8-3.36,7.9-8.55,7.9-8.55,12.12-10.73,8.94-36.79,8.94-36.79-21.66,9.55-28.8,5.62-30.94.44-1.62-4.37,4.45-33.9,23.32-37,4.92-.8,7.29,1.5,11,.89C345.1,67.94,348,64.29,347.38,60.46Z"/><path class="cls-2" d="M182.76,161.15c-.83-2.79-7.26-6-11.71-4.7-3.21,1-23.71,46.63-17.53,67.37,2.11,7.11,5.95,10.82,10.26,9.53,2.79-.83,3.47-3.61,2.17-4.44-.68-.25-2.37,2.23-3.74-2.37-2.41-8.07,1-20.15,5.71-31.72C174.29,178.53,183.38,163.24,182.76,161.15Z"/><path class="cls-2" d="M190.76,192.11c12.12-12.25,28.13-33.84,23.73-48.6-2.11-7.1-13.82-17.41-32.34-11.89-35,10.41-60,43.8-54.39,62.73a13.11,13.11,0,0,0,12.79,9.84,24.06,24.06,0,0,1-2.93-6.26c-4.06-13.64,15.81-46.69,50.48-57,6.4-1.91,14.41-2,16.11,3.69,5.43,18.24-36.33,50.08-36.29,50.22a19.26,19.26,0,0,0,3.63,4.53c.83,2.79,3.73,6.93,5.68,6.35,1.39-.42,4.79-3.25,10.22-4.87,5.71-1.7,9.12-.44,10.11,2.9,2.61,8.78-17.73,31.06-35.42,36.32-9.61,2.87-13.53-3.7-14.51-1.89-1.08,2,8.86,16,21.11,12.36,18.66-5.56,42.41-27.64,36.1-48.8C202.93,195.31,197.14,192.64,190.76,192.11Z"/><path class="cls-2" d="M320.56,154.07c-8.36,2.48-37.66,30.31-42,31.6.22-14,8.28-32.79,7.7-34.74-.79-2.64-6.84-4.63-11.72-3.18-4.17,1.25-18.8,44.26-24.37,45.92-3.62,1.08,6.74-30.81,6.41-31.93-1.25-4.17-8.21-6.19-13.37-4.66-2.23.67-6.7,15.25-7.23,28.88-3.13,4.78-9.21,13.6-9.92,12.77,1.32-40.87,13.12-61.82,12.33-64.47s-8.55-4.27-10.5-3.69c-4.45,1.32-19.24,55-12.32,78.25,1,3.35,3.65,8.16,7.68,7,3.41-1,9.8-12.51,13.33-19a30.18,30.18,0,0,0,.74,3.18c2,6.68,8.25,9.37,9.64,9,6.55-2,14.77-16.07,20-29-1.82,12.22,2.85,22.8,9,20.52,8.63-2.57,41.46-35.39,55.52-39.58,3.48-1,0,6.52,3.46,5.49C342.07,164.18,333.51,150.21,320.56,154.07Z"/><path class="cls-1" d="M124.4,63c-3.17-7.6-8.11-9.12-11.15-10-.12-.12-.12-.12-.25-.12h37.73c-2.91.63-7.72,1.77-7.72,7,0,2,1,4.43,1.9,6.46l21.52,53.43-9.11,23Zm66-1.52c0-6.59-6.84-8-9.49-8.61h25.45c-4.06,1-11.27,3-17.22,14.05A14.17,14.17,0,0,0,190.36,61.49Z"/><path class="cls-1" d="M222.85,128V92.68c0-5.06-3.41-9.49-8.35-10l24.81-3.17v49.13c0,6.58,3.55,8.36,6.34,9.12H216.4C219.18,137,222.85,135.1,222.85,128Zm38-.38V93.69c0-7-3.42-11-9.37-11a17.51,17.51,0,0,0-7.22,1.65,29.61,29.61,0,0,1,16.08-4.82c4.18,0,16.84,1.27,16.84,16.59v32.41c0,6.84,3.8,8.49,6.59,9.25H255.27C257.67,137,260.84,135.1,260.84,127.63Z"/><path class="cls-1" d="M342.8,81.19H331.87c14.41,56.13-6.43,54.42-11.18,68.39C327.9,134.35,372.76,136.16,342.8,81.19Z"/><path class="cls-1" d="M298.59,81.19h10.92c-14.41,56.13,6.44,54.42,11.18,68.39C313.49,134.35,268.63,136.16,298.59,81.19Z"/><path class="cls-1" d="M336.41,188.2H305c5.45-1.24,14-3.73,15.57-15.87C321.94,184.47,331,187,336.41,188.2Z"/></svg>