<svg id="Layer_2" data-name="Layer 2" xmlns="http://www.w3.org/2000/svg" viewBox="0 0 470 280"><defs><style>.cls-1{fill:#fb8;}.cls-2{fill:#fff;}</style></defs><title>beardbread</title><path class="cls-1" d="M253.52,72.72a56.92,56.92,0,0,0-13.13,1.45h0a15.18,15.18,0,0,0-2.92,1.16,21.8,21.8,0,0,1,6.87,16.48,21.48,21.48,0,0,1-5.67,15.2c-.37.39-.73.74-1.1,1.07l.11.06.17.1.74.38.23.11.74.34.29.12.74.3.34.13.74.25.39.13.74.23.45.12.74.19.49.12.75.16.58.11.72.13.45.06.3.05.61.08.56.07.36,0,.49,0,.71.06.76,0,.88,0,.64,0c1,0,2.06,0,3.15,0q1.35,0,2.76-.12l.87-.06c6.81-.5,14.8-1.85,22.52-3.16,10.12-1.71,20.58-3.48,29-3.48h1.31c5.12.14,8.28,1.14,10.2,2.19-.31-.49-.64-1-1-1.48C308.11,86.81,279.05,72.72,253.52,72.72Z"/><path class="cls-1" d="M159.11,104.89c8.45,0,18.92,1.76,29,3.46,9.78,1.64,19.89,3.33,27.74,3.33,7,0,12.68-1.31,16.92-3.9a.52.52,0,0,1,.11-.1,18.51,18.51,0,0,0,1.62-1.11.41.41,0,0,1,.11-.07,17.55,17.55,0,0,0,1.52-1.34c3.36-3.36,5.06-7.85,5.06-13.34,0-8.42-4.27-13-6.81-15a16.4,16.4,0,0,0-1.6-1.11,14.88,14.88,0,0,0-3.47-1.54l-.08,0a50,50,0,0,0-13.17-1.64c-24.53,0-54,14.39-67,32.77-.38.54-.75,1.08-1.1,1.61,2-1,5.32-2,10.72-2Z"/><path class="cls-2" d="M227.73,132.26c-2.85,9.74-3.1,19.94-3.33,28.93-.15,6.11-.3,11.87-1.24,16.61a57.44,57.44,0,0,1-2.79,8.56l0,0a16.18,16.18,0,0,0,4.17.54c6.52,0,15.36-3.68,20.49-21.17,2.85-9.73,3.11-19.93,3.33-28.93.16-6.1.3-11.86,1.25-16.61a41.89,41.89,0,0,1,1.66-5.6,39.46,39.46,0,0,1-10.41-1.77C236,115.32,231.08,120.84,227.73,132.26Z"/><path class="cls-2" d="M283.52,159.49c2.17-7.9,2.45-16.17,2.69-23.47a93.48,93.48,0,0,1,1.06-13.51,50,50,0,0,1,2.07-6.84,10.73,10.73,0,0,0-2.55-.3c-3.87,0-11,2.23-15.11,17.19-2.18,7.9-2.45,16.18-2.69,23.47a93.25,93.25,0,0,1-1.06,13.51,51.06,51.06,0,0,1-2.07,6.83,10.53,10.53,0,0,0,2.55.31C272.29,176.68,279.4,174.45,283.52,159.49Z"/><path class="cls-2" d="M189.34,132.56c-2.18,7.91-2.45,16.18-2.69,23.48a93.45,93.45,0,0,1-1.06,13.5,51.06,51.06,0,0,1-2.07,6.83,10.53,10.53,0,0,0,2.55.31c3.88,0,11-2.23,15.11-17.19,2.17-7.91,2.45-16.18,2.69-23.47a93.48,93.48,0,0,1,1.06-13.51,49.53,49.53,0,0,1,2.07-6.84,10.73,10.73,0,0,0-2.55-.3C200.58,115.37,193.46,117.6,189.34,132.56Z"/><path class="cls-2" d="M312.88,147.14c1.38-5.09,1.57-10.43,1.73-15.14a61.49,61.49,0,0,1,.7-8.81,30.84,30.84,0,0,1,1.19-4.07,6,6,0,0,0-1.05-.09c-2.33,0-6.64,1.42-9.2,10.88-1.38,5.09-1.57,10.43-1.73,15.14a63,63,0,0,1-.7,8.82,32.54,32.54,0,0,1-1.19,4.06,6,6,0,0,0,1,.09C306,158,310.31,156.61,312.88,147.14Z"/><path class="cls-2" d="M166.64,147.14c1.38-5.08,1.57-10.42,1.74-15.13a61.51,61.51,0,0,1,.7-8.82,32.09,32.09,0,0,1,1.18-4.07,6.1,6.1,0,0,0-1-.09c-2.34,0-6.64,1.42-9.21,10.88-1.38,5.09-1.56,10.43-1.73,15.14a61.39,61.39,0,0,1-.7,8.82,31,31,0,0,1-1.18,4.06,6.2,6.2,0,0,0,1,.09C159.78,158,164.08,156.61,166.64,147.14Z"/><path class="cls-1" d="M326.24,115a39.47,39.47,0,0,0-3.94-4l-.26-.23c-.81-.72-3.27-2.9-11.05-3h-.4c-8.19,0-18.52,1.75-28.52,3.44-9.72,1.65-19.76,3.34-27.81,3.4a3.23,3.23,0,0,1-.16,1,38.3,38.3,0,0,0-1.54,5.17c-.9,4.49-1,10.12-1.19,16.09-.23,9.18-.49,19.59-3.45,29.71-5.66,19.29-15.85,23.34-23.4,23.34a19.44,19.44,0,0,1-5-.64,3,3,0,0,1-1.95-1.61,3.06,3.06,0,0,1-.07-2.48h0a55.63,55.63,0,0,0,2.62-8c.9-4.49,1-10.13,1.19-16.09.23-9.19.49-19.59,3.45-29.71,2.81-9.56,7-16.27,12.52-20a22.58,22.58,0,0,1-2.43-1.33c-4.77,3.09-11.17,4.65-19,4.65-1.94,0-4-.1-6.13-.27a3,3,0,0,1,.07,2.26,46.66,46.66,0,0,0-1.93,6.34,90.35,90.35,0,0,0-1,13.05c-.25,7.46-.53,15.92-2.8,24.18-4.65,16.89-13.29,19.41-18,19.41a13.35,13.35,0,0,1-3.29-.4,3,3,0,0,1-1.95-1.53,3,3,0,0,1-.15-2.47,48,48,0,0,0,1.93-6.34,91.52,91.52,0,0,0,1-13c.24-7.46.52-15.93,2.8-24.18,3.3-12,8.61-16.74,13.11-18.49-3.91-.56-7.91-1.23-11.87-1.89-10-1.68-20.35-3.42-28.55-3.42h-.4c-5.17,0-8.8,1-10.77,2.77l-.11.1c-1.6,1.4-4,5.07-5,6.64a64.17,64.17,0,0,0-3.35,21.2,23.14,23.14,0,0,0,1.66,7.45c.39,1.15.8,2.34,1.12,3.55a23.57,23.57,0,0,1,.53,5c.08,2.31.16,4.7,1.19,6.63,1,1.77,2.72,3.07,4.58,4.45a22.84,22.84,0,0,1,4.1,3.55,21.11,21.11,0,0,1,2.61,4.57c1,2,1.93,4.12,3.54,5.51a15.44,15.44,0,0,0,5.58,2.56,21.42,21.42,0,0,1,5.27,2.19,20.29,20.29,0,0,1,4,3.79,16.65,16.65,0,0,0,4.75,4.23,16.07,16.07,0,0,0,5.94,1.12,20.51,20.51,0,0,1,5.75.92,19.72,19.72,0,0,1,4.8,2.92,16.84,16.84,0,0,0,5.43,3.09,9.1,9.1,0,0,0,2.33.27,28.32,28.32,0,0,0,3.68-.32,21.6,21.6,0,0,1,5.86-.17,19.64,19.64,0,0,1,5.32,2,16.87,16.87,0,0,0,5.82,2.06,16,16,0,0,0,5.91-1.06,14.88,14.88,0,0,1,11.52,0,16.64,16.64,0,0,0,5.91,1.07,17.1,17.1,0,0,0,5.82-2.07,19.64,19.64,0,0,1,5.32-2,21.6,21.6,0,0,1,5.86.17,28.32,28.32,0,0,0,3.68.32,9.15,9.15,0,0,0,2.33-.27,16.84,16.84,0,0,0,5.43-3.09,19.72,19.72,0,0,1,4.8-2.92,20.51,20.51,0,0,1,5.75-.92,16.07,16.07,0,0,0,5.94-1.12,16.52,16.52,0,0,0,4.75-4.23,20.29,20.29,0,0,1,4-3.79,21.42,21.42,0,0,1,5.27-2.19,15.61,15.61,0,0,0,5.58-2.56c1.61-1.39,2.59-3.49,3.54-5.51a21.53,21.53,0,0,1,2.61-4.57,22.84,22.84,0,0,1,4.1-3.55c1.86-1.38,3.62-2.68,4.58-4.45,1-1.93,1.11-4.32,1.19-6.63a23.57,23.57,0,0,1,.53-5c.32-1.21.73-2.4,1.12-3.55a22.88,22.88,0,0,0,1.66-7.45A62.9,62.9,0,0,0,326.24,115Zm-153.12,5.11a27.58,27.58,0,0,0-1.06,3.61,59.76,59.76,0,0,0-.65,8.37c-.17,4.87-.37,10.39-1.84,15.82-3.09,11.41-8.93,13.11-12.13,13.11a9,9,0,0,1-1.55-.13,3,3,0,0,1-2.35-4,26.71,26.71,0,0,0,1.06-3.61,59.73,59.73,0,0,0,.65-8.36c.17-4.87.37-10.4,1.84-15.82C160.18,117.71,166,116,169.22,116a10.26,10.26,0,0,1,1.56.13,3,3,0,0,1,2.34,4Zm119.06-3.41a47.1,47.1,0,0,0-1.93,6.34,90.23,90.23,0,0,0-1,13.05c-.25,7.46-.53,15.92-2.8,24.18-4.65,16.89-13.29,19.41-18,19.41a13.35,13.35,0,0,1-3.29-.4,3,3,0,0,1-2.1-4A48,48,0,0,0,265,169a91.4,91.4,0,0,0,1-13c.24-7.47.53-15.93,2.8-24.18,4.65-16.89,13.29-19.42,18-19.42a13.91,13.91,0,0,1,3.29.4,3,3,0,0,1,1.94,1.53A3,3,0,0,1,292.18,116.73Zm27.17,3.41a26.71,26.71,0,0,0-1.06,3.61,59.85,59.85,0,0,0-.65,8.36c-.17,4.88-.36,10.4-1.84,15.83-3.09,11.41-8.92,13.11-12.13,13.11a8.93,8.93,0,0,1-1.55-.13,3,3,0,0,1-2.35-4,26.19,26.19,0,0,0,1.07-3.61,59.89,59.89,0,0,0,.64-8.37c.18-4.87.37-10.39,1.84-15.81,3.1-11.41,8.93-13.12,12.13-13.12a10.05,10.05,0,0,1,1.56.13,3.06,3.06,0,0,1,2.1,1.46A3,3,0,0,1,319.35,120.14Z"/><path class="cls-2" d="M184.83,233c-1.54-1.85-4.31-3.19-8.46-4.1h0c-2.65-.59-5.31-1.21-7.9-1.86a.34.34,0,0,0-.14,0,.56.56,0,0,0-.53.39l-9.55,37.45a.51.51,0,0,0,.06.34.8.8,0,0,0,.5.34c3.68.93,7.43,1.8,11.15,2.59s6.92.4,9.43-1.18,4-4.05,4.59-7.6a10.28,10.28,0,0,0-.55-6.17,8.38,8.38,0,0,0-4.49-3.91.56.56,0,0,1-.32-.62l0-.28a.55.55,0,0,1,.56-.45,6.12,6.12,0,0,0,4.57-1.84,9.69,9.69,0,0,0,2.49-5.26C186.86,237.46,186.37,234.83,184.83,233Zm-8.12,24.23h0a7,7,0,0,1-2.39,4.49,4.74,4.74,0,0,1-2.93.89,7.9,7.9,0,0,1-1.75-.2l-2.75-.61a.55.55,0,0,1-.35-.25.57.57,0,0,1-.07-.42L169,250a.57.57,0,0,1,.68-.42l2.51.56C175.91,250.91,177.48,253.36,176.71,257.2Zm2.63-16.73a6.51,6.51,0,0,1-2,3.87,4,4,0,0,1-2.58.81,7.69,7.69,0,0,1-1.71-.2l-2.24-.5a.56.56,0,0,1-.42-.67l2.19-9.61a.56.56,0,0,1,.67-.43c.62.15,1.25.29,1.87.42a5.75,5.75,0,0,1,3.69,2.08A5.33,5.33,0,0,1,179.34,240.47Z"/><path class="cls-2" d="M217.31,274.53a.41.41,0,0,0,.37-.15.16.16,0,0,0,0-.16c-2.48-5.7-4.86-11.52-7.06-17.32a.56.56,0,0,1,.3-.71c3.76-1.63,5.74-4.86,6.06-9.88.25-3.88-.53-6.88-2.32-8.92s-4.65-3.21-8.79-3.67c-3-.32-6-.7-8.91-1.12a.54.54,0,0,0-.61.44l-5.62,38.24a.42.42,0,0,0,.1.33.77.77,0,0,0,.52.29c2.06.3,4.16.57,6.22.83a.81.81,0,0,0,.58-.15.44.44,0,0,0,.18-.29l1.74-14.7a.57.57,0,0,1,.56-.49h.07l3,.34a.55.55,0,0,1,.47.38c1.7,5.26,3.53,10.57,5.46,15.79a.7.7,0,0,0,.62.41C212.55,274.21,214.94,274.38,217.31,274.53ZM210,246a7.5,7.5,0,0,1-1.84,4.74,5,5,0,0,1-3.67,1.31,10,10,0,0,1-1.07-.06l-2.1-.24a.61.61,0,0,1-.37-.21.63.63,0,0,1-.12-.42l1.4-11.75a.56.56,0,0,1,.21-.38.56.56,0,0,1,.41-.12l1.95.23A6,6,0,0,1,209,241C209.89,242.1,210.22,243.77,210,246Z"/><path class="cls-2" d="M245.08,274.46,245,270c0-.29-.31-.51-.69-.51-3.66.09-7.38.12-11,.08a.55.55,0,0,1-.56-.56l.12-11.31a.57.57,0,0,1,.57-.56c2.73,0,5.51,0,8.26,0a.67.67,0,0,0,.48-.19.54.54,0,0,0,.14-.34l-.1-4.41a.55.55,0,0,0-.61-.52c-2.7.05-5.43.06-8.12,0a.57.57,0,0,1-.55-.57l.1-9.72a.52.52,0,0,1,.17-.39.54.54,0,0,1,.4-.16c3.32,0,6.69,0,10-.08a.57.57,0,0,0,.41-.17.55.55,0,0,0,.14-.37l-.13-4.38a.52.52,0,0,0-.55-.51c-5.45.13-11,.11-16.42-.08h0a.54.54,0,0,0-.54.51L225,274.37a.41.41,0,0,0,.13.32.79.79,0,0,0,.54.23c6.23.21,12.54.24,18.76.08a.74.74,0,0,0,.54-.22A.46.46,0,0,0,245.08,274.46Z"/><path class="cls-2" d="M274.07,272.88c2.19-.26,4.4-.55,6.56-.85a.4.4,0,0,0,.32-.19.18.18,0,0,0,0-.16c-4.88-12.43-9.46-25.13-13.61-37.76a.53.53,0,0,0-.5-.34h-.07c-2.86.32-5.78.59-8.66.81a.55.55,0,0,0-.5.45c-1.72,13.16-3.85,26.49-6.32,39.6a.16.16,0,0,0,0,.17.46.46,0,0,0,.35.13c2.18-.11,4.39-.23,6.56-.38a.66.66,0,0,0,.65-.47c.07-.25.25-1.48.86-7.6a.56.56,0,0,1,.51-.5c3.36-.26,6.8-.58,10.24-1a.56.56,0,0,1,.6.4q1.11,3.66,2.25,7.34A.72.72,0,0,0,274.07,272.88Zm-5-13.74a.56.56,0,0,1-.41.25c-2.58.27-5.15.52-7.65.72h0a.56.56,0,0,1-.4-.17.61.61,0,0,1-.16-.45c.75-7.84,1.54-16.43,1.73-18.67a1,1,0,0,1,1.92-.2c1.56,5.8,3.28,11.87,5.09,18.05A.55.55,0,0,1,269.08,259.14Z"/><path class="cls-2" d="M309.79,245.73c-1.51-5.9-4-10.28-7.45-13a13,13,0,0,0-8.38-3,17.75,17.75,0,0,0-3.39.35c-2.8.56-5.65,1.07-8.47,1.54a.55.55,0,0,0-.45.61l6.16,38.15a.53.53,0,0,0,.19.29.84.84,0,0,0,.59.12c2.86-.48,5.76-1,8.62-1.55,5.7-1.11,9.69-3.75,11.86-7.84S311.43,252.16,309.79,245.73Zm-7,12.94c-1,2.79-3.24,4.52-6.54,5.16l-1.23.24h-.1a.56.56,0,0,1-.55-.46l-5.16-27.13a.57.57,0,0,1,.45-.66l1.71-.33c5.43-1.07,9.24,3,11.33,12.16C303.73,252.39,303.76,256,302.76,258.67Z"/><path class="cls-2" d="M186.74,38.23a10.15,10.15,0,0,0-2.6-5.6,7.93,7.93,0,0,0-5.6-2,.56.56,0,0,1-.54-.45l-.06-.27a.56.56,0,0,1,.34-.64A6.45,6.45,0,0,0,182,25.86a9.5,9.5,0,0,0,.55-5.81c-.63-3.41-2.08-5.59-4.43-6.69a11,11,0,0,0-4.7-.89,26.53,26.53,0,0,0-6.06.8c-3,.7-6.07,1.47-9.07,2.27a.82.82,0,0,0-.5.36.44.44,0,0,0-.05.33l10.13,37.3a.54.54,0,0,0,.67.36c3.22-.85,6.49-1.66,9.74-2.4a10.91,10.91,0,0,0,7.15-4.55A11.62,11.62,0,0,0,186.74,38.23Zm-17.87-8.47a.52.52,0,0,1-.29-.09.51.51,0,0,1-.25-.34L166,19.75a.56.56,0,0,1,.41-.68l2.07-.5a6.49,6.49,0,0,1,4.58.24,5.09,5.09,0,0,1,2.3,3.66,6.4,6.4,0,0,1-.31,4.36c-.61,1.14-1.84,1.92-3.76,2.36l-2.3.55Zm10.47,14.13a5.18,5.18,0,0,1-3.66,2.52l-2.5.59-.13,0a.52.52,0,0,1-.29-.09.51.51,0,0,1-.25-.34l-2.69-11.1a.58.58,0,0,1,.06-.43.55.55,0,0,1,.35-.25l2.5-.59a5.64,5.64,0,0,1,4.44.49,6.14,6.14,0,0,1,2.47,4.16A7.57,7.57,0,0,1,179.34,43.89Z"/><path class="cls-2" d="M190.47,9a.46.46,0,0,0-.09.33l6,38.18A.54.54,0,0,0,197,48c5.39-.82,10.89-1.48,16.34-2a.54.54,0,0,0,.5-.57L213.42,41a.48.48,0,0,0-.18-.35.56.56,0,0,0-.43-.13c-3.34.29-6.7.66-10,1.07a.57.57,0,0,1-.42-.11.61.61,0,0,1-.21-.37l-1.41-11.23a.55.55,0,0,1,.48-.62c2.71-.34,5.46-.65,8.16-.91a.58.58,0,0,0,.56-.59l-.4-4.39a.52.52,0,0,0-.18-.32.69.69,0,0,0-.51-.14c-2.75.26-5.55.57-8.31.92a.56.56,0,0,1-.63-.48l-1.22-9.64a.58.58,0,0,1,.12-.42.54.54,0,0,1,.37-.21c3.67-.46,7.39-.86,11.07-1.19.38,0,.67-.3.64-.58l-.36-4.37a.45.45,0,0,0-.17-.3.78.78,0,0,0-.5-.17h-.08C203.55,7,197.22,7.76,191,8.7A.79.79,0,0,0,190.47,9Z"/><path class="cls-2" d="M252.15,45.44c1.84.11,3.68.24,5.47.38a.53.53,0,0,0,.59-.48l1.25-14.75a.55.55,0,0,1,.2-.38.59.59,0,0,1,.36-.13h.05l2.9.26a.57.57,0,0,1,.48.39c1.71,5.24,3.32,10.57,4.79,15.83a.55.55,0,0,0,.46.39c2,.25,4.12.53,6.18.84a.27.27,0,0,0,.24-.09.23.23,0,0,0,.06-.23c-1.63-5.87-3.44-11.79-5.38-17.61a.57.57,0,0,1,.33-.7c3.86-1.52,6.07-4.64,6.77-9.51.56-3.95-.1-6.91-2-9.06s-5.37-3.55-10.07-4c-3.41-.32-6.87-.59-10.3-.79a.82.82,0,0,0-.58.18.43.43,0,0,0-.15.3l-2.15,38.59A.55.55,0,0,0,252.15,45.44ZM261,12.29a.64.64,0,0,1,.2-.39.65.65,0,0,1,.41-.13l2.17.2a6.68,6.68,0,0,1,4.6,1.94c.94,1.1,1.29,2.78,1,5a7.42,7.42,0,0,1-2,4.72,5.31,5.31,0,0,1-3.81,1.29c-.32,0-.65,0-1-.05l-2.14-.19a.56.56,0,0,1-.51-.61Z"/><path class="cls-2" d="M282.11,49c2.51.44,5.05.93,7.54,1.44,5,1,9.13.26,12.62-2.37s6.28-7.27,8-13.53c1.64-6,1.46-11.06-.52-15s-5.74-6.64-11-7.75c-3.22-.68-6.5-1.31-9.73-1.88h-.16a.72.72,0,0,0-.44.13.4.4,0,0,0-.19.28l-6.54,38.08A.54.54,0,0,0,282.11,49Zm7.16-4.85,5.47-27.06a.57.57,0,0,1,.24-.36.59.59,0,0,1,.43-.08q.94.18,1.89.39a7.68,7.68,0,0,1,5.18,3.38c1.7,2.71,1.88,6.91.52,12.5-1.1,4.57-2.65,7.92-4.62,9.95a7.47,7.47,0,0,1-5.55,2.39,9.42,9.42,0,0,1-2-.22l-1.12-.22a.63.63,0,0,1-.36-.24A.59.59,0,0,1,289.27,44.11Z"/><path class="cls-2" d="M239.33,45c1.93,0,3.87.06,5.78.12a.32.32,0,0,0,.21-.09.25.25,0,0,0,.06-.21c-2.24-13.1-4.9-26.31-7.93-39.3a.71.71,0,0,0-.69-.41h-.28c-3.25,0-6.53.05-9.74.16a.69.69,0,0,0-.68.44c-2.61,13-4.85,26.34-6.67,39.49a.28.28,0,0,0,.06.23.23.23,0,0,0,.22.09c1.89-.13,3.82-.23,5.74-.31a.52.52,0,0,0,.51-.43c0-.32.44-3.46,1-7.56a.57.57,0,0,1,.54-.49c3.12-.1,6.33-.15,9.54-.14a.56.56,0,0,1,.55.47c.43,2.51.84,5,1.25,7.55A.54.54,0,0,0,239.33,45Zm-3.07-14.22a.54.54,0,0,1-.43.2c-2.45,0-4.94.05-7.37.12h0a.57.57,0,0,1-.42-.19.53.53,0,0,1-.13-.45c.84-5.89,2.36-16.14,3-18.61a1,1,0,0,1,1-.75,1,1,0,0,1,1,.74c1.19,5.91,2.37,12.12,3.5,18.48A.54.54,0,0,1,236.26,30.77Z"/></svg>