<svg xmlns="http://www.w3.org/2000/svg" viewBox="0 0 470 280"><defs><style>.cls-1{isolation:isolate;}.cls-2{opacity:0.2;mix-blend-mode:multiply;}.cls-3{fill:#1d1d1b;}.cls-4{fill:#fff;}</style></defs><title>simplify</title><g class="cls-1"><g id="Layer_1" data-name="Layer 1"><g class="cls-2"><path class="cls-3" d="M321.2,158.84c.38-4.34,4.95-16-2-18.38-11.3-3.94-9.25,18.44-9.17,22.83a27.64,27.64,0,0,1-13.85,6.08c-5,.68-7.84-4.23-9.29-8.38,9.48-8.86,14.8-19.24,17.67-31.23,2.14-8.92,2.5-24.39-5.3-28.77-12.42-7-20.92,5.49-23.74,15.1-3.68,12.54-3.33,28.91-1.05,41.64a53.25,53.25,0,0,1-7.57,3.65c1.58-9.28-1.78-22.35-12.7-24-9.33-1.4-16.87,4.27-21.89,12.07-.18-2.25-1.09-6.15-2.49-8.06a5.66,5.66,0,0,0-8-1.09c-3,2.4-2.05,6.22-1.79,9.52.36,4.45.87,13,1.2,17.46-2.22,2.21-6.44,5.48-9.45,3.87-2.09-1.11-1.76-6.64-1.76-8.87,0-5.68.89-10.67-1.49-16.18-4.21-9.71-18.56-6.65-25.69.24-2.65-9.22-16.9-6.19-23.8.2,1.36-11.49-10.51-10.51-10.91-3.17-.35,6.59-.46,16.59-.36,23.19-1.89,2.79-10,6.62-13,1.66-3.12-5.3-1.33-14.12-.22-19.76,1-3.45,1.26-7.67-2.72-9.29-4.66-1.91-7,2.63-8.12,6-1.08,3.14-5.28,5.45-11.15,6.4-2.84-11.69-13.68-16.43-24.46-18.57-7.06-1.4-21.77-1.47-21.56-11.59.24-11.13,11.42-16.11,21.25-14.69a19,19,0,0,1,8.72,3.29c1,.78,4.92,5.22,1.84,5.87-7.61,1.59-3.95,14.19,3.72,11.92h0c.32-.11.62-.23.93-.36a13.69,13.69,0,0,0,8.46-13.25c-.44-7.15-5.5-12.59-11.78-15.44C86.94,93,69,95.44,60,106.89c-7.73,9.89-8.26,27.71,4.85,33.27,6.85,2.9,14.61,3.43,21.87,4.73,5.24.93,11.86,2.11,14.25,7.57-12.31.23-26.52-2.15-38.25,2.5a15.25,15.25,0,0,0-5.33,25.09c8.77,9.09,24.77,9.17,36,5.52,10.62-3.46,18.67-11,19.83-23.4,3.15-.47,6.55-1.13,8.87-2.86.12,6.28,1.42,14.92,6.76,18.92,5.72,4.29,13.93,2.93,19.67-.58a5.64,5.64,0,0,0,9.75,1.47c2.58-3.47-.2-12.31.71-16.25,2-8.68,8.12-12.3,12-12.47,4.37-.18,1.85,9.07,1.74,13.55-.1,3.87-.54,11.05,2.36,14.27a5.7,5.7,0,0,0,8,.37c2.37-2.19,1.25-4.86,1.31-7.68.2-8.21,1.31-18,8.3-20.43s6.33,4.48,6.11,8.93c-.26,5.27,0,11.14,2.66,15.82,4.24,7.38,12.91,6.4,19.32,2.49-.27,1.19-.54,2.35-.79,3.48l-.21.93c-1.92,8.51-3.35,20.25,1.35,28.17,2.87,4.84,9.62,5.15,11.94-.51,1-2.54,1-8.9,1-11.57,0-9-.64-17-.89-23.68-.32-8.32,3.47-19.61,11.89-24.8,2.46-1.51,6.25-1.75,8.59.41,3.74,3.44,2.75,9.9,1,14-4.85,1.45-20.54,4.49-16.43,13,1.89,3.91,8.1,4.45,12,4,4.9-.6,9.62-4.13,12.49-8.07a94.56,94.56,0,0,0,14.6-5.92c2.73,6.93,7.62,12,14.37,13.29,7.24,1.38,14.71-2.32,20.1-7,1.08,5.67,7.56,9.65,12.55,6.66,3.35-2,2.69-7.28-.51-8.77a3.16,3.16,0,0,1-1.77-2A29.94,29.94,0,0,1,321.2,158.84ZM91.76,174.16a33.06,33.06,0,0,1-17.41,1.89c-3.59-.58-10.27-3.24-7.88-8.66,1.86-4.22,9.76-4.3,13.31-4.39,7.32-.18,14.51.45,21.83.28-1,5.68-5.83,9.25-9.85,10.88ZM286,122.5c.95-4.76,3.36-13.23,7.14-12.27,4.88,1.25,2.67,13.63,2,17.34a52.56,52.56,0,0,1-10.5,22.8C284,143.52,284.27,130.89,286,122.5Z"/><path class="cls-3" d="M398.32,185.53c1.63-23.66.49-38-.44-42.73-1-4.89-7.77-5.33-10.09-2-2,2.89-1.44,7.81-2.32,11.16-1.22,4.67-3.12,10.85-6.16,14.65-1.6,2-5.86,6-8.21,2.81-3.11-4.18-2.89-12.63-2.51-17.52,6.9-3.11,8.27-9.66,3.43-13.82s-12.8-1.51-14.17,6.16c-2.71.42-12.88.55-13.09-4a20.2,20.2,0,0,1,.55-5c8.92-1.34,16.52-5,22.27-12.64,4.51-6,5.51-15.36-.66-20.42-6.35-5.21-15.54-3.19-21.52,1.56-6.76,5.38-9.59,14.74-10.74,23a26.86,26.86,0,0,1-10.2-2.13c-1-3.48-5.32-6.23-9.15-4-3.39,1.92-3.81,5.78-2.58,8.78,2.82,6.84,14.76,6.44,20.86,6.55,0,.75-1.93,29,1.55,39.93,1.16,3.64,4,7,8.24,6.27,5.13-.85,7.66-7.66,3.39-10.63a3.72,3.72,0,0,1-1.62-2.54,153.06,153.06,0,0,1-.79-16.72c4.48,2,8.64,1.82,12.92,1.46-.07,7.37.83,17.32,6.33,22.78,7.13,7.07,19.85,3,23.51-4.19,0,3.9.05,8.52,0,11.47-9.13-.69-20.38-.3-28.2,5.14-8.43,5.87-8,17.45-.78,24.13s19.28,7.1,27.34,1.42c5.92-4.17,9.3-11,11.26-17.78,2.77.69,5.72,1.46,8,3.16,2.07,1.51,2.44,3.45,4.95,4.25,5.88,1.87,9.34-5.17,6.27-9.3C412.2,189.76,404.63,187,398.32,185.53Zm-38.95-74.81c2.72,1.32.91,6.13-1,8.28a24.18,24.18,0,0,1-12.13,7C346.83,117.32,353.64,107.94,359.37,110.72Zm4.89,87.53c4.46-4.67,15.54-3.55,21.16-3.21-1.8,5.44-5.2,10.63-11,11.56C365.59,208,361.1,201.57,364.26,198.25Z"/><path class="cls-3" d="M130.42,120.94c-7.16.25-7.49,10.56-.11,11.57C139.94,133.82,138.53,120.65,130.42,120.94Z"/></g><path class="cls-4" d="M322.56,155.33c.39-4.41,5-16.2-2-18.66-11.47-4-9.4,18.72-9.32,23.19A28.08,28.08,0,0,1,297.14,166c-5.11.69-8-4.3-9.44-8.52,9.63-9,15-19.54,17.95-31.72,2.17-9.06,2.54-24.77-5.38-29.22-12.62-7.1-21.26,5.57-24.12,15.34-3.74,12.74-3.38,29.37-1.07,42.29a52.32,52.32,0,0,1-7.69,3.71c1.61-9.42-1.81-22.7-12.9-24.37-9.47-1.42-17.13,4.34-22.23,12.26-.18-2.28-1.11-6.24-2.54-8.18a5.74,5.74,0,0,0-8.12-1.11c-3,2.44-2.09,6.32-1.81,9.67.36,4.52.88,13.22,1.21,17.74-2.25,2.25-6.54,5.56-9.6,3.93-2.12-1.13-1.78-6.74-1.79-9,0-5.77.91-10.85-1.51-16.44-4.27-9.86-18.86-6.75-26.09.24-2.7-9.36-17.17-6.28-24.18.21,1.38-11.67-10.68-10.67-11.08-3.22-.36,6.69-.47,16.85-.37,23.55-1.92,2.84-10.2,6.74-13.17,1.7-3.17-5.39-1.35-14.35-.22-20.08,1.07-3.5,1.28-7.79-2.76-9.44-4.73-1.94-7.07,2.67-8.25,6.12-1.09,3.19-5.36,5.55-11.33,6.51-2.88-11.88-13.89-16.69-24.84-18.86-7.18-1.43-22.11-1.5-21.9-11.78.24-11.3,11.6-16.36,21.59-14.92a19.23,19.23,0,0,1,8.85,3.35c1.05.79,5,5.3,1.87,6-7.73,1.62-4,14.42,3.78,12.11h0c.32-.11.63-.24.94-.38a13.87,13.87,0,0,0,8.6-13.45c-.45-7.27-5.58-12.79-12-15.68-13-5.88-31.25-3.41-40.33,8.22-7.86,10-8.4,28.15,4.92,33.8,7,2.95,14.84,3.48,22.21,4.8,5.33,1,12,2.14,14.49,7.69-12.52.24-26.94-2.19-38.87,2.54a15.49,15.49,0,0,0-5.41,25.49c8.91,9.23,25.17,9.32,36.55,5.61,10.79-3.52,19-11.19,20.14-23.78,3.21-.47,6.66-1.14,9-2.89.13,6.37,1.45,15.14,6.88,19.21,5.81,4.36,14.14,3,20-.59a5.72,5.72,0,0,0,9.9,1.49c2.62-3.52-.21-12.51.72-16.5,2-8.82,8.25-12.5,12.18-12.67,4.43-.19,1.88,9.22,1.77,13.76-.1,3.94-.56,11.23,2.39,14.5a5.78,5.78,0,0,0,8.14.37c2.41-2.22,1.26-4.93,1.33-7.79.2-8.35,1.33-18.32,8.43-20.76s6.43,4.55,6.21,9.07c-.27,5.35,0,11.32,2.7,16.08,4.31,7.49,13.12,6.49,19.62,2.53-.27,1.2-.54,2.38-.8,3.52l-.21,1c-2,8.64-3.4,20.57,1.37,28.62,2.92,4.91,9.78,5.23,12.12-.52,1.06-2.58,1-9,1-11.75,0-9.17-.64-17.24-.9-24.05-.33-8.46,3.52-19.93,12.08-25.2,2.49-1.54,6.34-1.78,8.73.42,3.79,3.49,2.79,10.05,1,14.25-4.92,1.48-20.86,4.57-16.69,13.18,1.92,4,8.23,4.52,12.17,4,5-.61,9.77-4.18,12.68-8.2a95.32,95.32,0,0,0,14.83-6c2.78,7,7.75,12.19,14.6,13.49,7.36,1.41,15-2.35,20.43-7.14,1.09,5.76,7.67,9.81,12.74,6.77,3.4-2.05,2.73-7.39-.52-8.91a3.22,3.22,0,0,1-1.79-2A30.39,30.39,0,0,1,322.56,155.33ZM89.5,170.9a33.7,33.7,0,0,1-17.69,1.92c-3.64-.59-10.43-3.29-8-8.8,1.89-4.29,9.91-4.37,13.52-4.46,7.43-.18,14.74.45,22.17.28-1,5.77-5.92,9.41-10,11.06Zm197.26-52.48c1-4.84,3.41-13.44,7.25-12.46,5,1.27,2.71,13.84,2,17.61a53.57,53.57,0,0,1-10.66,23.16C284.78,139.78,285.05,126.94,286.76,118.42Z"/><path class="cls-4" d="M400.9,182.44c1.66-24,.5-38.62-.45-43.4-1-5-7.89-5.42-10.25-2-2,2.93-1.46,7.94-2.35,11.34-1.24,4.73-3.17,11-6.26,14.88-1.63,2-5.95,6.06-8.34,2.85-3.16-4.25-2.94-12.83-2.55-17.8,7-3.16,8.4-9.81,3.49-14s-13-1.54-14.4,6.25c-2.75.43-13.08.56-13.29-4a20.35,20.35,0,0,1,.55-5.05c9.06-1.36,16.79-5.1,22.63-12.84,4.57-6.06,5.59-15.6-.67-20.74-6.45-5.29-15.79-3.24-21.86,1.58-6.88,5.47-9.74,15-10.92,23.39a27.29,27.29,0,0,1-10.35-2.16c-1-3.54-5.41-6.33-9.3-4.12-3.45,2-3.88,5.87-2.62,8.92,2.86,6.95,15,6.54,21.19,6.66,0,.75-2,29.44,1.58,40.55,1.17,3.7,4,7.09,8.36,6.37,5.21-.86,7.78-7.78,3.45-10.79a3.73,3.73,0,0,1-1.64-2.59,156.77,156.77,0,0,1-.82-17c4.56,2.05,8.79,1.85,13.13,1.48-.07,7.49.84,17.6,6.44,23.15,7.24,7.17,20.16,3,23.87-4.26,0,3.95.06,8.65,0,11.65-9.27-.7-20.7-.3-28.65,5.22-8.55,6-8.1,17.73-.79,24.51s19.59,7.21,27.78,1.44c6-4.23,9.45-11.15,11.44-18.06,2.81.71,5.81,1.49,8.17,3.21,2.1,1.54,2.47,3.5,5,4.32,6,1.9,9.48-5.25,6.36-9.45C415,186.74,407.31,184,400.9,182.44Zm-39.56-76c2.76,1.34.92,6.22-1,8.4A24.52,24.52,0,0,1,348,121.93C348.6,113.16,355.52,103.63,361.34,106.46Zm5,88.91c4.53-4.75,15.78-3.61,21.48-3.26-1.82,5.52-5.27,10.79-11.15,11.74C367.65,205.3,363.09,198.74,366.31,195.37Z"/><path class="cls-4" d="M128.77,116.83c-7.28.26-7.61,10.73-.12,11.75C138.44,129.92,137,116.54,128.77,116.83Z"/></g></g></svg>