<svg id="Layer_2" data-name="Layer 2" xmlns="http://www.w3.org/2000/svg" viewBox="0 0 470 280"><defs><style>.cls-1{fill:#fff;}</style></defs><title>simplify</title><path class="cls-1" d="M322.56,155c.39-4.42,5-16.21-2-18.67-11.47-4-9.4,18.72-9.32,23.19a28.08,28.08,0,0,1-14.06,6.17c-5.11.69-8-4.3-9.44-8.51,9.63-9,15-19.55,17.95-31.73,2.17-9.05,2.54-24.77-5.38-29.22-12.62-7.1-21.26,5.58-24.12,15.34-3.74,12.74-3.38,29.37-1.07,42.3a53.3,53.3,0,0,1-7.69,3.7c1.61-9.42-1.81-22.7-12.9-24.36-9.47-1.43-17.13,4.33-22.23,12.25-.18-2.28-1.11-6.24-2.54-8.18a5.74,5.74,0,0,0-8.12-1.11c-3,2.44-2.09,6.32-1.81,9.67.36,4.52.88,13.22,1.21,17.74-2.25,2.25-6.54,5.57-9.6,3.93-2.12-1.13-1.78-6.74-1.79-9,0-5.77.91-10.84-1.51-16.44-4.27-9.86-18.86-6.75-26.09.25-2.7-9.37-17.17-6.29-24.18.2,1.38-11.67-10.68-10.67-11.08-3.22-.36,6.69-.47,16.85-.37,23.55-1.92,2.84-10.2,6.74-13.17,1.7-3.17-5.39-1.35-14.35-.22-20.08,1.07-3.5,1.28-7.79-2.76-9.44-4.73-1.94-7.07,2.67-8.25,6.12-1.09,3.2-5.36,5.55-11.33,6.51-2.88-11.88-13.89-16.68-24.84-18.86-7.18-1.43-22.11-1.5-21.9-11.78.24-11.3,11.6-16.36,21.59-14.92a19.23,19.23,0,0,1,8.85,3.35c1.05.79,5,5.3,1.87,6-7.73,1.62-4,14.42,3.78,12.11h0c.32-.11.63-.24.94-.37a13.89,13.89,0,0,0,8.6-13.46c-.45-7.27-5.58-12.79-12-15.68-13-5.88-31.25-3.41-40.33,8.22-7.86,10-8.4,28.15,4.92,33.8,7,2.95,14.84,3.48,22.21,4.8,5.33.95,12,2.14,14.49,7.69-12.52.24-26.94-2.18-38.87,2.54a15.49,15.49,0,0,0-5.41,25.49c8.91,9.24,25.17,9.32,36.55,5.61,10.79-3.52,19-11.19,20.14-23.78,3.21-.47,6.66-1.14,9-2.89.13,6.37,1.45,15.14,6.88,19.21,5.81,4.36,14.14,3,20-.59a5.72,5.72,0,0,0,9.9,1.49c2.62-3.52-.21-12.5.72-16.5,2-8.82,8.25-12.5,12.18-12.67,4.43-.18,1.88,9.22,1.77,13.76-.1,3.94-.56,11.23,2.39,14.5a5.79,5.79,0,0,0,8.14.38c2.41-2.23,1.26-4.94,1.33-7.8.2-8.35,1.33-18.31,8.43-20.76s6.43,4.55,6.21,9.07c-.27,5.35,0,11.32,2.7,16.08,4.31,7.49,13.12,6.49,19.62,2.53-.27,1.2-.54,2.38-.8,3.52l-.21.95c-2,8.65-3.4,20.57,1.37,28.62,2.92,4.91,9.78,5.23,12.12-.52,1.06-2.58,1-9,1-11.75,0-9.17-.64-17.24-.9-24-.33-8.46,3.52-19.93,12.08-25.2,2.49-1.54,6.34-1.78,8.73.42,3.79,3.49,2.79,10,1,14.25-4.92,1.48-20.86,4.57-16.69,13.18,1.92,4,8.23,4.53,12.17,4,5-.61,9.77-4.18,12.68-8.19a96.32,96.32,0,0,0,14.83-6c2.78,7,7.75,12.19,14.6,13.5,7.36,1.4,15-2.36,20.43-7.15,1.09,5.76,7.67,9.81,12.74,6.77,3.4-2,2.73-7.39-.52-8.91a3.22,3.22,0,0,1-1.79-2A30.35,30.35,0,0,1,322.56,155ZM89.5,170.54a33.7,33.7,0,0,1-17.69,1.92c-3.64-.59-10.43-3.29-8-8.8,1.89-4.29,9.91-4.37,13.52-4.46,7.43-.18,14.74.45,22.17.28-1,5.78-5.92,9.41-10,11.06Zm197.26-52.48c1-4.84,3.41-13.44,7.25-12.46,5,1.27,2.71,13.84,2,17.62a53.59,53.59,0,0,1-10.66,23.15C284.78,139.42,285.05,126.58,286.76,118.06Z"/><path class="cls-1" d="M400.9,182.08c1.66-24,.5-38.62-.45-43.4-1-5-7.89-5.42-10.25-2-2,2.94-1.46,7.94-2.35,11.34-1.24,4.74-3.17,11-6.26,14.88-1.63,2-5.95,6.06-8.34,2.85-3.16-4.25-2.94-12.83-2.55-17.8,7-3.16,8.4-9.81,3.49-14s-13-1.54-14.4,6.25c-2.75.43-13.08.56-13.29-4a20.35,20.35,0,0,1,.55-5c9.06-1.36,16.79-5.1,22.63-12.83,4.57-6.07,5.59-15.61-.67-20.75-6.45-5.29-15.79-3.24-21.86,1.59-6.88,5.46-9.74,15-10.92,23.38a27.29,27.29,0,0,1-10.35-2.16c-1-3.54-5.41-6.33-9.3-4.12-3.45,2-3.88,5.87-2.62,8.92,2.86,7,15,6.55,21.19,6.66,0,.75-2,29.44,1.58,40.55,1.17,3.7,4,7.09,8.36,6.37,5.21-.86,7.78-7.78,3.45-10.79a3.73,3.73,0,0,1-1.64-2.59,156.63,156.63,0,0,1-.82-17c4.56,2,8.79,1.85,13.13,1.49-.07,7.48.84,17.59,6.44,23.14,7.24,7.17,20.16,3,23.87-4.26,0,4,.06,8.65,0,11.65-9.27-.7-20.7-.3-28.65,5.22-8.55,6-8.1,17.73-.79,24.51s19.59,7.21,27.78,1.44c6-4.23,9.45-11.15,11.44-18.05,2.81.7,5.81,1.48,8.17,3.2,2.1,1.54,2.47,3.5,5,4.32,6,1.9,9.48-5.25,6.36-9.45C415,186.38,407.31,183.6,400.9,182.08Zm-39.56-76c2.76,1.34.92,6.23-1,8.4A24.52,24.52,0,0,1,348,121.57C348.6,112.8,355.52,103.27,361.34,106.1Zm5,88.91c4.53-4.75,15.78-3.61,21.48-3.26-1.82,5.52-5.27,10.79-11.15,11.74C367.65,204.94,363.09,198.38,366.31,195Z"/><path class="cls-1" d="M128.77,116.47c-7.28.26-7.61,10.73-.12,11.76C138.44,129.56,137,116.18,128.77,116.47Z"/></svg>