<svg id="Layer_1" data-name="Layer 1" xmlns="http://www.w3.org/2000/svg" viewBox="0 0 470 280"><defs><style>.cls-1{fill:#5c3020;}.cls-2{fill:#ffc300;}.cls-3{fill:#e88000;}.cls-4{fill:#ffc45d;stroke:#5c3020;stroke-miterlimit:10;stroke-width:4.28px;}</style></defs><title>lesch</title><path class="cls-1" d="M406.84,180.73,389.2,152.14l10.46-24.83,1.63-16.39-17.67,2-33.78,24.72L332.55,136l-22.31-9.13-21-7.51,10.06-7.39L283.48,88.6,277.2,59.12,249.83,76.2,236.1,97.71,233,102.55l-3.28-.29-20.08,1.55-9.81,1.43L174,113.81l-.79.26-.67.47-20.06,14-2.55,2.05-7.05,3.28-21.43,10-15.74,11.61,1.47,13.9L122,180.88,139.48,187l22.71,15.07,12.31,4.79,25.64,7.55,16.24,34.15,17.55-.67,9.56-13.67.29-13.89-5.47-4.54,15.24-.76,10.33-2.94L284.48,241l16.68-3.84,22.31-34,20.13-22-3.71-8,8.38-2.78,38.83,26.49,21.22,1.36Z"/><polygon class="cls-2" points="155.69 133.19 175.75 119.17 201.61 110.6 201.61 169.4 198.26 208.07 180.59 203.35 183.58 172.81 183.58 134.85 178.65 136.84 174.4 140.06 175.76 168.72 170.06 187.2 162.07 196 147.19 185.52 153.93 178.14 157.4 165.86 155.69 133.19"/><polygon class="cls-2" points="210.08 109.44 210.87 161.4 208.13 209.43 230.04 210.39 247.52 209.88 246.3 192.78 226.99 193.52 228.08 168.84 243.19 168.84 243.43 159.92 242.62 150.85 228.85 150.85 228.6 124.53 247.03 125.83 247.54 109.48 229.7 107.93 210.08 109.44"/><polygon class="cls-2" points="326.58 139.88 327.47 157.76 326.14 172.81 332.04 170.58 337.42 180.31 322.71 196.71 315.34 191.42 314.89 181.57 287.15 199.6 254.88 208.79 252.3 159.16 254.03 112.15 271.77 119.84 270.66 157.05 271.9 185.71 282.19 181.49 280.95 155.94 282.33 123.1 300.05 128.65 299.19 156.06 300.18 171.07 308.24 165.99 309.48 156.43 308.04 132.04 326.58 139.88"/><polygon class="cls-3" points="240.86 100.75 256.49 104.07 283.1 116.8 291.54 110.6 278.18 90.85 273.36 68.18 253.91 80.32 240.86 100.75"/><polygon class="cls-3" points="339.39 167.31 336.03 159.44 335.77 142.01 351.45 143.44 385.74 118.34 394.98 117.31 394.12 125.9 382.86 152.63 401.32 182.55 402.14 192.11 389 191.27 349.14 164.08 339.39 167.31"/><polygon class="cls-3" points="316.33 201.52 297.58 232.14 286.89 234.6 270.99 212.32 287.34 209.36 309.4 195.66 316.33 201.52"/><polygon class="cls-3" points="207.59 216.94 219.88 242.78 230.91 242.36 237.87 232.4 238.07 222.94 231.67 217.63 207.59 216.94"/><polygon class="cls-3" points="146.65 137.6 148.56 162.02 146.47 172.43 139.44 180.76 124.76 175.85 112.51 166.36 111.64 158.07 124.32 148.73 146.65 137.6"/><polygon class="cls-1" points="139.72 147.68 133.93 150.27 132.61 156.25 137.22 158.74 141.59 156.82 143.24 150.77 139.72 147.68"/><polygon class="cls-1" points="215.06 214 220 229.38 219.93 229.25 224.5 239.31 217.87 230.47 217.8 230.34 209.88 216.26 215.06 214"/><polygon class="cls-1" points="223.46 214.15 226.43 226.79 226.29 226.53 231.9 236.84 224.29 227.91 224.15 227.64 218.16 216.11 223.46 214.15"/><polygon class="cls-1" points="231.52 214.9 232.55 224.37 232.38 224.04 236.23 230.65 230.77 225.29 230.6 224.97 226.12 216.57 231.52 214.9"/><polygon class="cls-1" points="278.25 207.9 290.95 231.78 273.57 211.06 278.25 207.9"/><polygon class="cls-1" points="287.11 205.75 297.69 227.31 282.36 208.81 287.11 205.75"/><polygon class="cls-1" points="293.79 201.39 302.49 219.7 289.08 204.5 293.79 201.39"/><polygon class="cls-1" points="300 198.14 307.72 212.75 296.02 201.07 300 198.14"/><polygon class="cls-1" points="305.12 193.63 312.9 206.18 301.42 196.9 305.12 193.63"/><polygon class="cls-1" points="276.22 114.28 287.63 106.21 279.74 117.75 276.22 114.28"/><polygon class="cls-1" points="269.01 110.13 282.38 100.98 272.96 114.17 269.01 110.13"/><polygon class="cls-1" points="260.75 107.13 269.32 99 269.57 98.76 269.58 98.75 277.98 94.5 271.33 101.16 271.59 100.91 265.08 110.76 260.75 107.13"/><polygon class="cls-1" points="252.83 104.21 262.21 92.44 262.51 92.06 262.67 91.98 274.5 86.2 264.52 94.78 264.99 94.33 257.5 107.38 252.83 104.21"/><polygon class="cls-1" points="244.02 101.34 256.64 85.39 256.89 85.07 257.05 84.98 271.72 77.16 258.71 87.51 259.13 87.11 248.67 104.55 244.02 101.34"/><polygon class="cls-1" points="334.11 151.89 349.66 154.1 334.33 157.53 334.11 151.89"/><polygon class="cls-1" points="334.27 144.15 350.51 147.25 334.17 149.79 334.27 144.15"/><polygon class="cls-1" points="335.41 159.17 349.44 160.2 336.14 164.78 335.41 159.17"/><polygon class="cls-1" points="376.83 152.76 385.17 147.73 385.64 156.9 376.83 152.76"/><polygon class="cls-4" points="244.21 31.67 241.2 39.28 229.42 29.43 136.87 54.59 149.43 102.55 236.57 78.86 236.57 78.86 326.07 113.55 342.75 66.86 244.21 31.67"/><path class="cls-1" d="M167.26,62.68l-5.89,1.74,5.93,22.7-9.2,2.22-7.59-29.91,24.29-7.22,3.51,13.91,4.43,16.54-9.61,3.09Z"/><path class="cls-1" d="M198.74,64.4l-1.48,4-2,7,1.1,4.13-9.2,1.8L179.7,52.07l8.93-2.25,3.53,13,1.51-4.9,1.83-6.12-1-3.84,9.64-2.54,3.38,13.38,4.55,17-9.69,2.75Z"/><path class="cls-1" d="M239,58.76l.1.39-3.32,10.7-18.9,4.71-8-29.44.17-.35,11.63-3.71,7-1.65,6.13,6.19.07.29-1.88,8ZM223.58,48l-4.35,1,1.31,5.22L225,53Zm3.86,11-4.93,1.24L224,66l4.95-1.56Z"/><path class="cls-1" d="M258.3,65.63l-5.81-1.85-3.61,10-8.79-3.21,10.26-28.35L259,45.43,255.3,56.34,261,58l4-11,9.51,3L269.6,63.42l-5.79,16.64-9.56-3.16Z"/><path class="cls-1" d="M291.2,89.93l-8.65-2.72,1.66-6-7-1.9-2.08,5-8.09-3.1,7.4-16.49,10.37-10.1,8.45,2.7L296.06,71ZM286,74.07l1.07-3.95-.58-6.37-4.4,4.45-2,4.1Z"/><path class="cls-1" d="M301.1,94.66l-7.35-6.43,9-6.68-2.58-2.76,6.47-15.59L314.12,65l13.46,5-9.86,29.73-9.89-3,3.75-9-1.67-1Zm16.33-20.41-5.11-1.43L310.12,79,315,80.69Z"/></svg>