<svg id="Layer_1" data-name="Layer 1" xmlns="http://www.w3.org/2000/svg" xmlns:xlink="http://www.w3.org/1999/xlink" viewBox="0 0 470 280"><defs><style>.cls-1{fill:#002571;}.cls-2{fill:url(#linear-gradient);}.cls-3{fill:url(#linear-gradient-2);}.cls-4{fill:url(#linear-gradient-3);}.cls-5{fill:url(#linear-gradient-4);}</style><linearGradient id="linear-gradient" x1="283.22" y1="25.24" x2="361.19" y2="158.39" gradientUnits="userSpaceOnUse"><stop offset="0" stop-color="#6fadff"/><stop offset="1" stop-color="#06f"/></linearGradient><linearGradient id="linear-gradient-2" x1="122.45" y1="119.38" x2="200.42" y2="252.53" xlink:href="#linear-gradient"/><linearGradient id="linear-gradient-3" x1="133.01" y1="113.2" x2="210.98" y2="246.35" xlink:href="#linear-gradient"/><linearGradient id="linear-gradient-4" x1="207.19" y1="69.76" x2="285.16" y2="202.91" xlink:href="#linear-gradient"/></defs><title>vinoblu</title><path class="cls-1" d="M185.35,130.81V95.19c0-5.11-3.45-9.58-8.42-10.09l25-3.19v49.54c0,6.63,3.57,8.42,6.26,9.19H178.84C181.65,139.87,185.35,138,185.35,130.81Z"/><path class="cls-2" d="M348.33,62.7c-.83-5.15-7.16-8.46-14.14-7.33-14,2.27-20,12.66-24,28.23-1.21,4.72-2.59,9.86-3.8,15.45a35.74,35.74,0,0,0-9,16.52c-2.55,10.87,11.36,26,15.95,27.88s8.09,9.11,8.09,9.11c.81-3.39,8-8.62,8-8.62,12.22-10.82,9-37.1,9-37.1-21.84,9.63-29,5.67-31.19.44-1.64-4.4,4.48-34.18,23.5-37.26,5-.81,7.36,1.51,11.15.9C346,70.24,349,66.56,348.33,62.7Z"/><path class="cls-3" d="M182.34,164.22c-.84-2.8-7.32-6.07-11.81-4.74-3.23,1-23.91,47-17.67,67.94,2.13,7.16,6,10.9,10.35,9.61,2.8-.84,3.5-3.64,2.18-4.47-.69-.26-2.39,2.24-3.77-2.4-2.43-8.14,1-20.31,5.76-32C173.8,181.75,183,166.33,182.34,164.22Z"/><path class="cls-4" d="M190.41,195.45c12.22-12.35,28.36-34.13,23.93-49-2.13-7.16-13.94-17.56-32.62-12-35.24,10.49-60.52,44.16-54.84,63.26a13.23,13.23,0,0,0,12.9,9.92,24,24,0,0,1-2.95-6.31c-4.1-13.76,15.93-47.09,50.89-57.5,6.46-1.93,14.53-2,16.25,3.72,5.47,18.39-36.63,50.5-36.59,50.64a19.55,19.55,0,0,0,3.65,4.57c.84,2.81,3.76,7,5.73,6.4,1.41-.42,4.83-3.28,10.31-4.91,5.76-1.71,9.19-.45,10.2,2.92,2.63,8.85-17.89,31.32-35.72,36.63-9.69,2.88-13.65-3.73-14.63-1.91-1.09,2,8.93,16.14,21.29,12.46,18.81-5.6,42.75-27.87,36.4-49.21C202.68,198.67,196.84,196,190.41,195.45Z"/><path class="cls-5" d="M321.29,157.08c-8.43,2.51-38,30.57-42.33,31.87.22-14.13,8.35-33.06,7.76-35-.8-2.66-6.9-4.67-11.81-3.2-4.21,1.25-19,44.62-24.58,46.3-3.65,1.08,6.8-31.07,6.46-32.2-1.25-4.21-8.28-6.24-13.47-4.69-2.26.67-6.76,15.37-7.29,29.11-3.16,4.82-9.29,13.72-10,12.88,1.33-41.21,13.23-62.34,12.44-65s-8.62-4.32-10.59-3.73c-4.49,1.34-19.41,55.46-12.42,78.91,1,3.37,3.67,8.23,7.74,7,3.43-1,9.88-12.62,13.44-19.21a30.17,30.17,0,0,0,.75,3.21c2,6.74,8.32,9.45,9.72,9,6.6-2,14.89-16.21,20.18-29.25-1.83,12.32,2.88,23,9.07,20.69,8.7-2.59,41.8-35.69,56-39.91,3.51-1,0,6.58,3.49,5.54C343,167.28,334.35,153.19,321.29,157.08Z"/><path class="cls-1" d="M123.49,65.27c-3.19-7.66-8.17-9.2-11.23-10.09-.13-.13-.13-.13-.26-.13h38.05c-2.94.64-7.79,1.79-7.79,7,0,2.05,1,4.47,1.91,6.51l21.71,53.88-9.2,23.24ZM190,63.73c0-6.63-6.9-8-9.58-8.68h25.66c-4.08,1-11.36,3.07-17.36,14.17A14.22,14.22,0,0,0,190,63.73Z"/><path class="cls-1" d="M222.77,130.81V95.19c0-5.11-3.45-9.58-8.43-10.09l25-3.19v49.54c0,6.63,3.57,8.42,6.38,9.19H216.26C219.07,139.87,222.77,138,222.77,130.81Zm38.3-.39V96.21c0-7-3.45-11.11-9.45-11.11a17.55,17.55,0,0,0-7.27,1.66,29.85,29.85,0,0,1,16.21-4.85c4.21,0,17,1.28,17,16.73v32.68c0,6.89,3.83,8.55,6.64,9.32H255.45C257.88,139.87,261.07,138,261.07,130.42Z"/><path class="cls-1" d="M343.72,83.6h-11c14.53,56.6-6.49,54.87-11.28,69C328.69,137.2,373.92,139,343.72,83.6Z"/><path class="cls-1" d="M299.13,83.6h11c-14.53,56.6,6.49,54.87,11.27,69C314.16,137.2,268.93,139,299.13,83.6Z"/><path class="cls-1" d="M337.27,191.51h-31.7c5.5-1.26,14.13-3.77,15.7-16C322.68,187.74,331.78,190.25,337.27,191.51Z"/></svg>