<svg id="Layer_1" data-name="Layer 1" xmlns="http://www.w3.org/2000/svg" xmlns:xlink="http://www.w3.org/1999/xlink" viewBox="0 0 470 280"><defs><style>.cls-1{fill:url(#New_Gradient_Swatch);}.cls-2{fill:#fff;}.cls-3{fill:url(#New_Gradient_Swatch-7);}</style><radialGradient id="New_Gradient_Swatch" cx="231.4" cy="26.53" r="115.32" gradientUnits="userSpaceOnUse"><stop offset="0" stop-color="#00afe9"/><stop offset="1" stop-color="#0089d0"/></radialGradient><radialGradient id="New_Gradient_Swatch-7" cx="231.4" cy="215.52" r="119.71" xlink:href="#New_Gradient_Swatch"/></defs><title>calamore</title><path class="cls-1" d="M257.15,42.22a20,20,0,0,1-3.3,9.89,77.11,77.11,0,0,1,16.38,6.23A77.15,77.15,0,0,1,266.44,79c.4,0,.8,0,1.2,0a20,20,0,0,1,10.13,3.44,88.93,88.93,0,0,0,4.39-27.56V51.46l-3-1.71a88.59,88.59,0,0,0-22-9C257.18,41.22,257.18,41.72,257.15,42.22Z"/><path class="cls-1" d="M251.39,112.41a20.24,20.24,0,0,1-2.76-4,76.92,76.92,0,0,1-13.87,11.35,77.29,77.29,0,0,1-16.54-14.27,20.27,20.27,0,0,1-8.84,7.91,89.09,89.09,0,0,0,22.42,18.42l3,1.71,3-1.71a89.18,89.18,0,0,0,19.26-15A20.15,20.15,0,0,1,251.39,112.41Z"/><path class="cls-1" d="M201.92,75.06a76.66,76.66,0,0,1-2.62-16.72,76.88,76.88,0,0,1,20.42-7.15A19.89,19.89,0,0,1,217,39.82c0-.06,0-.12,0-.18a89,89,0,0,0-26.68,10.11l-3,1.71v3.42A88.87,88.87,0,0,0,190.44,78,20,20,0,0,1,201.92,75.06Z"/><path class="cls-1" d="M234.76,62.39a18.62,18.62,0,1,1,18.62-18.62A18.65,18.65,0,0,1,234.76,62.39Zm0-25.39a6.77,6.77,0,1,0,6.77,6.77A6.78,6.78,0,0,0,234.76,37Z"/><path class="cls-1" d="M265.12,114.41a18.62,18.62,0,1,1,18.62-18.62A18.64,18.64,0,0,1,265.12,114.41Zm0-25.39a6.77,6.77,0,1,0,6.77,6.77A6.78,6.78,0,0,0,265.12,89Z"/><path class="cls-1" d="M204.41,114.41A18.62,18.62,0,1,1,223,95.79,18.64,18.64,0,0,1,204.41,114.41Zm0-25.39a6.77,6.77,0,1,0,6.77,6.77A6.78,6.78,0,0,0,204.41,89Z"/><path class="cls-2" d="M70,179.64c0-16,9.9-25.8,26-25.8,9.89,0,17,3.74,21.84,9.61l-7.7,6.58c-2.9-4-7.5-6.65-13.86-6.65-9.83,0-15.91,6-15.91,16.26s6.08,16.61,15.91,16.61c6.36,0,11-2.61,13.86-6.64l7.7,6.57c-4.81,5.8-11.59,9.48-21.84,9.48C79.9,205.66,70,195.69,70,179.64Z"/><path class="cls-2" d="M118.76,185.44c0-12.23,7.21-19.94,18.81-19.94a18.56,18.56,0,0,1,11.31,3.39v-2.61h9.61v38.39h-9.61v-2.83c-2.69,2.4-6.79,3.6-11.1,3.6C125.83,205.44,118.76,197.6,118.76,185.44Zm30.33,7.92v-15.7a13.18,13.18,0,0,0-9.47-3.61c-6.86,0-11,4.18-11,11.39s4,11.45,11.1,11.45A13.09,13.09,0,0,0,149.09,193.36Z"/><path class="cls-2" d="M174.37,151.36v53.31h-9.75V151.36Z"/><path class="cls-2" d="M178.64,185.44c0-12.23,7.21-19.94,18.8-19.94a18.56,18.56,0,0,1,11.31,3.39v-2.61h9.62v38.39h-9.62v-2.83c-2.68,2.4-6.78,3.6-11.1,3.6C185.71,205.44,178.64,197.6,178.64,185.44ZM209,193.36v-15.7a13.18,13.18,0,0,0-9.47-3.61c-6.86,0-11,4.18-11,11.39s4,11.45,11.1,11.45A13.09,13.09,0,0,0,209,193.36Z"/><path class="cls-2" d="M285.32,181.69v23h-9.61v-21.5c0-6.85-2.33-9-7.56-9a15.76,15.76,0,0,0-8.56,2.68c.14,1.49.21,3.11.21,4.88v23h-9.54v-21.5c0-6.85-2.26-9-7.21-9a15.3,15.3,0,0,0-8.84,3v27.5h-9.68V166.28h9.33v2.83a26.14,26.14,0,0,1,12.37-3.75c5.59,0,9.12,1.34,11.17,4.52a25.57,25.57,0,0,1,14.21-4.52C281.79,165.36,285.32,169.67,285.32,181.69Z"/><path class="cls-2" d="M289.12,185.44c0-12.16,8.2-20,21.14-20s21.14,7.85,21.14,20-8.2,20.07-21.14,20.07S289.12,197.67,289.12,185.44Zm32.45,0c0-6.79-4.52-11.31-11.31-11.31S299,178.65,299,185.44s4.52,11.38,11.31,11.38S321.57,192.29,321.57,185.44Z"/><path class="cls-2" d="M345.29,166.28v5.44A14.29,14.29,0,0,1,357,165.43a8.15,8.15,0,0,1,2.62.28v10.68a16.44,16.44,0,0,0-4.6-.71c-7.07,0-9.76,5.3-9.76,10.39v18.6h-9.68V166.28Z"/><path class="cls-2" d="M399.93,188.41H370.24c1.06,5.72,5,8.9,11.31,8.9a14,14,0,0,0,11-4.87l6.08,5.16c-3.47,4.8-9.05,7.84-17.82,7.84-12.79,0-20.36-7.84-20.36-20s8.13-20,19.87-20c13.15,0,19.65,8.34,19.65,20.15C400,186.5,399.93,188.41,399.93,188.41Zm-29.62-7h20.22c-.57-4.17-3.61-8-10.18-8C375.47,173.42,371.51,175.89,370.31,181.41Z"/><path class="cls-3" d="M126.37,240.72v-8.83h-2.63v-3.8h2.63V221h4.55v7.11h5.26v3.8h-5.26V240c0,2,.51,2.9,2.43,2.9a11.11,11.11,0,0,0,2.79-.37v3.7a12.17,12.17,0,0,1-4.21.64C127.92,246.82,126.37,244.9,126.37,240.72Z"/><path class="cls-3" d="M156.72,238.63H142.57c.51,2.73,2.4,4.25,5.39,4.25a6.64,6.64,0,0,0,5.26-2.33l2.9,2.46c-1.65,2.3-4.31,3.74-8.49,3.74-6.1,0-9.71-3.74-9.71-9.53s3.88-9.54,9.47-9.54c6.27,0,9.37,4,9.37,9.61C156.76,237.72,156.72,238.63,156.72,238.63Zm-14.11-3.33h9.63c-.27-2-1.72-3.81-4.85-3.81A4.54,4.54,0,0,0,142.61,235.3Z"/><path class="cls-3" d="M159.33,237.22c0-5.59,3.68-9.5,9.84-9.5a9.52,9.52,0,0,1,8,3.64l-3.2,2.86a5.5,5.5,0,0,0-4.58-2.33c-3.3,0-5.39,2.09-5.39,5.26s2.05,5.43,5.36,5.43a5.79,5.79,0,0,0,4.78-2.33l3.14,2.83a9.57,9.57,0,0,1-8.06,3.67C162.94,246.75,159.33,243,159.33,237.22Z"/><path class="cls-3" d="M184.74,221v8.46a12.58,12.58,0,0,1,6.23-1.76c4.78,0,6.47,2.06,6.47,7.75v10.95h-4.58V236.14c0-3.23-1.08-4.31-3.58-4.31a7.82,7.82,0,0,0-4.54,1.45v13.1h-4.59V221Z"/><path class="cls-3" d="M206.24,228.09v1.35a13.53,13.53,0,0,1,6.37-1.76c4.78,0,6.47,2.06,6.47,7.75v10.95h-4.59V236.14c0-3.23-1.07-4.31-3.57-4.31a7.65,7.65,0,0,0-4.51,1.45v13.1h-4.62V228.09Z"/><path class="cls-3" d="M222.4,237.22c0-5.8,3.91-9.54,10.08-9.54s10.07,3.74,10.07,9.54-3.91,9.57-10.07,9.57S222.4,243.05,222.4,237.22Zm15.47,0a5.39,5.39,0,1,0-5.39,5.42A5.09,5.09,0,0,0,237.87,237.22Z"/><path class="cls-3" d="M250.77,221v25.4h-4.65V221Z"/><path class="cls-3" d="M254.29,237.22c0-5.8,3.91-9.54,10.08-9.54s10.07,3.74,10.07,9.54-3.91,9.57-10.07,9.57S254.29,243.05,254.29,237.22Zm15.47,0a5.4,5.4,0,1,0-5.39,5.42A5.09,5.09,0,0,0,269.76,237.22Z"/><path class="cls-3" d="M278.89,251.88v-4.15a18.34,18.34,0,0,0,6.7,1.25c3.78,0,5.66-1.25,5.66-4.15v-.77a8.33,8.33,0,0,1-5.18,1.62c-5.83,0-9.07-3.58-9.07-8.8,0-5.52,3.37-9.2,8.93-9.2a8.87,8.87,0,0,1,5.46,1.65v-1.24h4.55V243c0,6-2.33,9.84-9.4,9.84A25.48,25.48,0,0,1,278.89,251.88Zm12.57-11.8v-6.53a6.1,6.1,0,0,0-4.52-1.76c-3.13,0-5.25,1.89-5.25,5.09,0,2.87,1.95,4.79,5.15,4.79A6.71,6.71,0,0,0,291.46,240.08Z"/><path class="cls-3" d="M299.87,222.63a2.83,2.83,0,1,1,2.87,2.86A2.84,2.84,0,0,1,299.87,222.63Zm5.12,5.46v18.29h-4.65V228.09Z"/><path class="cls-3" d="M327.23,238.63H313.08c.5,2.73,2.39,4.25,5.39,4.25a6.62,6.62,0,0,0,5.25-2.33l2.9,2.46c-1.65,2.3-4.31,3.74-8.49,3.74-6.1,0-9.71-3.74-9.71-9.53s3.88-9.54,9.47-9.54c6.27,0,9.37,4,9.37,9.61C327.26,237.72,327.23,238.63,327.23,238.63Zm-14.12-3.33h9.64c-.27-2-1.72-3.81-4.86-3.81A4.54,4.54,0,0,0,313.11,235.3Z"/><path class="cls-3" d="M329.53,245.17l1.48-3.5a14.46,14.46,0,0,0,6.3,1.48c2.26,0,3.3-.64,3.3-1.89s-1.14-1.55-4.21-2.22c-4.18-.91-6.64-2.26-6.64-5.66,0-3.84,3-5.7,7.25-5.7a19.89,19.89,0,0,1,7.55,1.42L343,232.77a15.21,15.21,0,0,0-5.93-1.35c-1.58,0-2.73.47-2.73,1.55s.91,1.52,4.11,2.26c4.38,1.05,6.84,2.39,6.84,5.56,0,4.21-2.76,6-7.48,6A17.91,17.91,0,0,1,329.53,245.17Z"/></svg>