<svg id="Layer_1" data-name="Layer 1" xmlns="http://www.w3.org/2000/svg" viewBox="0 0 470 280"><defs><style>.cls-1{fill:#e42;}.cls-2{fill:#f29c6e;}.cls-3{fill:#1e1e1e;}</style></defs><title>guru</title><path class="cls-1" d="M350.11,198.86a7.69,7.69,0,0,0-5.76-12.81h-35.1l.68-1.2a37.33,37.33,0,0,0,3.18-28.7c-1.85-6.21-4-13.17-6.33-20.67a93.32,93.32,0,0,0-11.74-25,32.22,32.22,0,0,0-19.77-13.19l-4.94-1.08a35.85,35.85,0,0,0-11-.66,22.93,22.93,0,0,0,1.58-2.92L263,88a12.72,12.72,0,0,0,2.59.25,12.56,12.56,0,0,0,12.1-9.09,11.2,11.2,0,0,0,5.8-9.87V60.44a11.33,11.33,0,0,0-1.12-4.89,7.57,7.57,0,0,0,1-3.8,29.88,29.88,0,0,0-3.9-14.69,7.56,7.56,0,0,0-.52-.91C271.14,23,253.87,14.5,235,14.5S198.9,23,191,36.1a7,7,0,0,0-.69,1.22,29.93,29.93,0,0,0-3.76,14.43,7.57,7.57,0,0,0,1,3.8,11.33,11.33,0,0,0-1.12,4.89v8.83a11.2,11.2,0,0,0,5.8,9.87A12.7,12.7,0,0,0,206.86,88l1.93,4.36a25.18,25.18,0,0,0,1.64,3.07c-.78,0-1.6-.06-2.41-.06a34.19,34.19,0,0,0-6.55.54l-4.24.87a33.84,33.84,0,0,0-20.33,12.93,100.3,100.3,0,0,0-14.06,26.12c-2.38,6.73-4.59,13.25-6.58,19.4a40.43,40.43,0,0,0,2,30.07l.36.75h-33a7.69,7.69,0,0,0-5.76,12.81,7.71,7.71,0,0,0-6.23,7.56v15.66a7.71,7.71,0,0,0,7.7,7.7h12.85a26.84,26.84,0,0,0-3.72,13.56v.5c.15,15.76,12.39,26.86,31.19,28.28,3.07.23,6.39.35,9.87.35A136.15,136.15,0,0,0,199,269.89,146.43,146.43,0,0,0,219,264.18l.17-.06a55.21,55.21,0,0,1,19-3.14c11.37,0,23.11,2.82,34.47,5.55,12,2.89,23.38,5.61,35,5.61h.12c17.81,0,31.76-12.49,31.76-28.37v-.43a26.84,26.84,0,0,0-3.72-13.56h12.85a7.71,7.71,0,0,0,7.7-7.7V206.42A7.71,7.71,0,0,0,350.11,198.86Z"/><path class="cls-2" d="M207.85,134.45s4.7-2.8,6.79-.7.62,18.3.62,18.3-.71,7,.51,9.57,4.85,10.06,6.63,10.91,8.22-3.52,10.94-13.5.6-19.25-2-19.55-3,3.83-5.64,4.31-6.94-11.85-5.46-19.6c0,0,1.13,7.65,7.53,6.32,2.53-.53,17.9-11.92,17.9-11.92l8.73-14.5h-5.73l.57-3.22s-2.09-1.85-1.63-3,11.26-20.43,11.26-20.43V55.34l-6.17-11.83-17-5.27-15.43,3L211,52.64,210.19,71l2.7,11.42,6.82,12.24,2.14,3.86-1.83,3L216,103l-4.59,2.41-5.47,13.81Z"/><path class="cls-3" d="M348.1,220.9H121.9V207.6H348.1Z"/><path class="cls-3" d="M348.64,204.07H343.1v-3.84a2.35,2.35,0,0,0-2.35-2.35h-1.68V196.1h5.28a2.35,2.35,0,1,0,0-4.69H307a2.34,2.34,0,0,0-2.34,2.34v3.16a2.35,2.35,0,1,0,4.69,0v-.81h25.06v1.78H332.7a2.35,2.35,0,0,0-2.35,2.35v3.84h-3.12v-.73a3.64,3.64,0,0,0-3.69-3.6H296.33c-1.35-2.8-1.05-4.31-.76-4.69a.63.63,0,0,1-.13.13l-.13-.14a31.43,31.43,0,0,0,8.05-9.43l1.89-3.37A31.94,31.94,0,0,0,308,157.68c-1.83-6.17-4-13.1-6.3-20.6a88.18,88.18,0,0,0-11-23.6,26.85,26.85,0,0,0-16.51-11l-4.93-1.08a30.34,30.34,0,0,0-9.36-.56l-9.82.93-.36-.51a2.34,2.34,0,0,0-3.85,2.67l1.13,1.64a2.34,2.34,0,0,0,2.15,1l2.36-.22c-3.34,5.7-11.17,16.4-24.37,19.54a2.34,2.34,0,0,0,.54,4.62,2.48,2.48,0,0,0,.54-.06c17.74-4.22,26.63-20,28.91-24.64l3.22-.3a25.34,25.34,0,0,1,7.91.47l4.93,1.08a22.18,22.18,0,0,1,13.65,9.07,83.55,83.55,0,0,1,10.42,22.35c2.35,7.47,4.46,14.38,6.29,20.52a27.19,27.19,0,0,1-2.32,20.93l-1.89,3.38A26.78,26.78,0,0,1,287,194.63l-9.11,4.21a2.39,2.39,0,0,0-1,.9H255.55a3.65,3.65,0,0,0-3.7,3.6v.73h-15c7.81-4.54,18.61-12.19,22.37-21.43a2.34,2.34,0,1,0-4.34-1.77c-4.89,12-25,21.73-28.14,23.2h-8.57v-.73a3.65,3.65,0,0,0-3.7-3.6H178.82a21.73,21.73,0,0,0,2.48-8.42l40.8-15,.08,0a15.85,15.85,0,0,0,6.38-4.78c5.39-6.79,11.74-17.37,4.61-30.83A2.34,2.34,0,1,0,229,142.9c4.57,8.63,3.33,16.32-4.14,25.72a11,11,0,0,1-4.45,3.34l-43.66,16-.08,0a5.71,5.71,0,0,1-7.32-2.82l-2-4.24a30.49,30.49,0,0,1-1.52-22.63c2-6.08,4.15-12.52,6.49-19.14A90.39,90.39,0,0,1,185,115.72a23.83,23.83,0,0,1,14.31-9.1l4.24-.87a26.62,26.62,0,0,1,4.86-.33c-3.1,5.41-7.92,16.49-3.55,27.7a2.35,2.35,0,0,0,2.19,1.49,2.34,2.34,0,0,0,2.18-3.2c-4.28-11,2.38-22.46,4.49-25.67l7.26.61a2.35,2.35,0,0,0,2.08-.94l1-1.4a2.34,2.34,0,1,0-3.76-2.8l-.27.36-8.37-.7a38.88,38.88,0,0,0-9.1.28l-4.24.88a28.47,28.47,0,0,0-17.11,10.88,95.06,95.06,0,0,0-13.31,24.71c-2.35,6.66-4.55,13.14-6.53,19.25A35.15,35.15,0,0,0,163.12,183l2,4.24a10.43,10.43,0,0,0,9.4,5.91,10.59,10.59,0,0,0,1.77-.16c-.45,2.27-1.42,5.15-3.51,6.77H146.46a3.64,3.64,0,0,0-3.69,3.6v.73h-3.12v-3.84a2.35,2.35,0,0,0-2.35-2.35h-1.68V196.1h25.06v.81a2.35,2.35,0,1,0,4.69,0v-3.16a2.34,2.34,0,0,0-2.34-2.34H125.65a2.35,2.35,0,1,0,0,4.69h5.28v1.78h-1.68a2.35,2.35,0,0,0-2.35,2.35v3.84h-5.54a2.35,2.35,0,0,0-2.34,2.35v15.66a2.34,2.34,0,0,0,2.34,2.34h25.12c-6.45,4.31-10.63,11.19-10.63,18.92v.45c.12,12.77,10.42,21.79,26.24,23,3,.23,6.19.33,9.46.33a131,131,0,0,0,26.3-2.45,140.89,140.89,0,0,0,19.36-5.55l.09,0c18.9-6.8,38-2.21,56.53,2.24,11.7,2.81,22.77,5.47,33.8,5.47h.11c14.81,0,26.41-10.14,26.41-23v-.43c0-7.73-4.18-14.61-10.63-18.92h25.12a2.34,2.34,0,0,0,2.34-2.34V206.42A2.35,2.35,0,0,0,348.64,204.07Zm-2.35,15.66H123.71v-11H346.29Zm-44.36,12.08c-5.7-.89-14.76-2.14-19.6-2A177,177,0,0,0,263,232a75.31,75.31,0,0,0-16.3,6c2.22-5.36,2.78-9.81,1.64-13.27,0-.11-.07-.2-.11-.31h6.8a7.68,7.68,0,0,0,.68,6.94,2.34,2.34,0,1,0,3.82-2.72c-.79-1.11,0-3.13.6-4.22h34.62C298.56,225.26,300.77,229,301.93,231.81ZM167,224.42h31.2c-7.41,2.2-13.51,3.82-15,3.83-5.94,0-16,.22-22.79.43C163.32,226.63,166,225.05,167,224.42Zm-35.43-21.85H135v1.5h-3.37Zm203.45,0h3.37v1.5H335Zm-46-3.68c.61-.28,1.22-.59,1.81-.91a12.79,12.79,0,0,0,.46,1.76h-4.1Zm-92.16,61.19c-9.15,2-23.3,2.86-34.4,2-13.21-1-21.81-8.2-21.9-18.33v-.43c0-9.08,7.38-16.68,17.19-18.5a63.29,63.29,0,0,0-5.91,4.67,2.34,2.34,0,0,0,1.57,4.08h.09c.2,0,20.29-.72,29.71-.65h0c4.22,0,25.68-6.85,30.84-8.52h28.77a4,4,0,0,1,1.16,2c.56,1.95.7,6.53-4.39,15.46-1.51.89-3,1.82-4.54,2.81C223.1,252.43,213.1,256.47,196.84,260.08Zm41.29-9.16q-2.2,0-4.41.12c1.28-.77,2.57-1.58,3.89-2.44,1.52-1,3-1.92,4.54-2.8a2.48,2.48,0,0,0,.63-.37l2.14-1.2a25.42,25.42,0,0,0-1.17,6.88C241.88,251,240,250.92,238.13,250.92Zm91.33-7.58v.43c0,10.26-9.54,18.31-21.73,18.33h-.1c-10.48,0-21.28-2.6-32.71-5.34-8.7-2.09-17.54-4.21-26.49-5.23.06-2.64.66-8.2,4.27-10.94a2.18,2.18,0,0,0,.38-.36,64.57,64.57,0,0,1,11-3.67,176.62,176.62,0,0,1,18.38-2.06c5-.13,15.61,1.44,19.95,2.13a4.14,4.14,0,0,0,3.78-1.37,3.64,3.64,0,0,0,.69-3.56,23,23,0,0,0-3.9-7.28h4.75C319.72,224.42,329.46,232.91,329.46,243.34Z"/><path class="cls-3" d="M258.71,194.7a2.34,2.34,0,1,0,3.84,2.69l16.18-23a10.49,10.49,0,0,0,1.9-6.57L280,155a2.34,2.34,0,1,0-4.68.24l.66,12.82a5.77,5.77,0,0,1-1,3.62Z"/><path class="cls-3" d="M222,143.43c1.44-.17,2.38,2.45,2.72,3.58a2.34,2.34,0,1,0,4.49-1.34c-2-6.82-6.1-7.09-7.76-6.9a7.56,7.56,0,0,0-3.59,1.52c.15-5.59.75-12,2.88-17.23a2.34,2.34,0,0,0-4.34-1.77c-3.38,8.3-3.31,18.66-3.27,25.51,0,.72,0,1.4,0,2a32.24,32.24,0,0,0,.46,5.36c-13.31-.15-37.18,6.88-38.27,7.2A2.35,2.35,0,0,0,176,166a2.59,2.59,0,0,0,.67-.1c.27-.08,26.1-7.69,38.12-7a30.41,30.41,0,0,0,3.8,7.88,2.35,2.35,0,0,0,3.79-2.77,28.46,28.46,0,0,1-4.54-15.12C218,146.59,220.21,143.64,222,143.43Z"/><path class="cls-3" d="M224.2,68.12a10.7,10.7,0,0,0,7.35-2.51,2.34,2.34,0,0,0-3.26-3.37,7.55,7.55,0,0,1-8.17,0,2.34,2.34,0,1,0-3.26,3.37A10.69,10.69,0,0,0,224.2,68.12Z"/><path class="cls-3" d="M241.75,85.94c-1.1,1.07-4,1.21-6.75,1.21s-5.65-.14-6.75-1.21A2.34,2.34,0,0,0,225,89.31c2.41,2.33,6.43,2.53,10,2.53s7.6-.2,10-2.53a2.34,2.34,0,0,0-3.26-3.37Z"/><path class="cls-3" d="M245.79,68.12a10.72,10.72,0,0,0,7.35-2.51,2.34,2.34,0,0,0-3.26-3.37,7.55,7.55,0,0,1-8.17,0,2.34,2.34,0,1,0-3.26,3.37A10.69,10.69,0,0,0,245.79,68.12Z"/><path class="cls-3" d="M230.94,75.06a4.88,4.88,0,0,1-1.22-.15,2.34,2.34,0,0,0-4.37,1.17c0,1.92,1.73,3.29,4.41,3.6a6.86,6.86,0,0,0,11.07-.09c2.34-.43,3.82-1.73,3.82-3.51a2.35,2.35,0,0,0-4.38-1.17,4.75,4.75,0,0,1-1.22.15,2.34,2.34,0,0,0-2.33,2.23v0a2.25,2.25,0,0,1-1.45.43,2.22,2.22,0,0,1-1.45-.43,3.11,3.11,0,0,0-2.88-2.26Z"/><path class="cls-3" d="M197.15,75.16v.48a7.23,7.23,0,0,0,7.23,7.23h.1a7.21,7.21,0,0,0,5.06-2.07s0,.07,0,.11l4.11,9.29a19.24,19.24,0,0,0,17.58,11.44h7.29a19.25,19.25,0,0,0,17.49-11.27L260.31,81c0-.09.07-.18.11-.26a7.22,7.22,0,0,0,5.1,2.11h.1a7.23,7.23,0,0,0,7.23-7.23v-.48a5.94,5.94,0,0,0,5.31-5.89V60.44a6,6,0,0,0-5.31-5.9v-.47a7.23,7.23,0,0,0-7.23-7.23h-.1a7.21,7.21,0,0,0-5.35,2.38,22.51,22.51,0,0,0-14.67-12l-.24-.07a41.68,41.68,0,0,0-20.52,0l-.24.07a22.51,22.51,0,0,0-14.67,12,7.21,7.21,0,0,0-5.35-2.38h-.1a7.23,7.23,0,0,0-7.23,7.23v.47a6,6,0,0,0-5.31,5.9v8.83A5.94,5.94,0,0,0,197.15,75.16Zm76.32-14.72v8.83a1.25,1.25,0,0,1-.62,1.07v-11A1.23,1.23,0,0,1,273.47,60.44ZM263,54.07a2.54,2.54,0,0,1,2.54-2.54h.1a2.54,2.54,0,0,1,2.54,2.54V75.64a2.54,2.54,0,0,1-2.54,2.54h-.1A2.54,2.54,0,0,1,263,75.64Zm-50.73,4.59a17.9,17.9,0,0,1,13.41-16.91l.25-.06a36.5,36.5,0,0,1,18.18,0l.25.06a17.9,17.9,0,0,1,13.41,16.91l.22,11A21.68,21.68,0,0,1,256,79.08l-4.25,9.35A14.57,14.57,0,0,1,238.56,97h-7.29A14.56,14.56,0,0,1,218,88.3L213.87,79A21.66,21.66,0,0,1,212,69.83Zm-10.41-4.59a2.54,2.54,0,0,1,2.54-2.54h.1A2.54,2.54,0,0,1,207,54.07V75.64a2.54,2.54,0,0,1-2.54,2.54h-.1a2.54,2.54,0,0,1-2.54-2.54V54.07Zm-5.31,6.37a1.23,1.23,0,0,1,.62-1.07v11a1.25,1.25,0,0,1-.62-1.07Z"/><path class="cls-3" d="M191.94,51.75a2.35,2.35,0,0,0,4.69,0,19.94,19.94,0,0,1,1.64-7.86,11.86,11.86,0,0,0,5.28,1.3,11,11,0,0,0,7.44-3c5.86-5.25,14.61-8.27,24-8.27s18.15,3,24,8.27a10.82,10.82,0,0,0,12.7,1.67,20,20,0,0,1,1.66,7.91,2.35,2.35,0,0,0,4.69,0,24.67,24.67,0,0,0-3.32-12.26,2.13,2.13,0,0,0-.27-.46C267.83,27.76,252.64,19.86,235,19.86s-32.85,7.91-39.49,19.19a2.25,2.25,0,0,0-.35.62A24.73,24.73,0,0,0,191.94,51.75ZM235,24.55c15.08,0,28.15,6.2,34.42,15.19a6.17,6.17,0,0,1-7.28-1.06c-6.71-6-16.61-9.47-27.14-9.47s-20.43,3.45-27.14,9.47a6.28,6.28,0,0,1-7.31,1.11C206.8,30.77,219.89,24.55,235,24.55Z"/><path class="cls-3" d="M203.1,193.41a2.34,2.34,0,0,0,2.32,2l.32,0c36-5,54.43-26.43,63.59-43.56a100.48,100.48,0,0,0,11.3-36.27,2.34,2.34,0,1,0-4.67-.35,97.88,97.88,0,0,1-10.85,34.56c-12.57,23.43-32.76,37.22-60,41A2.34,2.34,0,0,0,203.1,193.41Z"/><path class="cls-3" d="M180.5,127.07a2.34,2.34,0,0,0-1.09,3.13c.23.47,5.82,11.68,22.57,18.84a2.48,2.48,0,0,0,.92.19,2.35,2.35,0,0,0,.92-4.51c-15-6.4-20.11-16.42-20.19-16.57A2.34,2.34,0,0,0,180.5,127.07Z"/><path class="cls-3" d="M245.08,147.67a2.28,2.28,0,0,0,1-.25c15.76-7.8,21.79-26.71,22-27.51a2.35,2.35,0,1,0-4.48-1.39c-.05.17-5.66,17.78-19.64,24.7a2.35,2.35,0,0,0,1,4.45Z"/><path class="cls-3" d="M195.34,136a2.41,2.41,0,0,0,1,.23,2.35,2.35,0,0,0,1-4.45c-3.39-1.66-4.8-6.15-4.81-6.21a2.35,2.35,0,0,0-4.5,1.33C188.18,127.12,190.08,133.37,195.34,136Z"/><path class="cls-3" d="M290.54,179.23a2.35,2.35,0,0,0,1.35-4.26c-2.22-1.58-5.46-4.87-5.35-6.91a2.34,2.34,0,0,0-4.68-.26c-.3,5.42,6.54,10.44,7.32,11A2.36,2.36,0,0,0,290.54,179.23Z"/><path class="cls-1" d="M338.81,212.59a2.34,2.34,0,1,0,3.32,0A2.43,2.43,0,0,0,338.81,212.59Z"/><path class="cls-1" d="M333.43,212.59a2.34,2.34,0,0,0,1.65,4,2.34,2.34,0,0,0,2.35-2.34,2.36,2.36,0,0,0-.69-1.66A2.41,2.41,0,0,0,333.43,212.59Z"/><path class="cls-1" d="M328,212.59a2.34,2.34,0,0,0,0,3.32,2.35,2.35,0,0,0,3.32-3.32A2.44,2.44,0,0,0,328,212.59Z"/><path class="cls-1" d="M322.65,212.59a2.35,2.35,0,0,0,3.32,3.32,2.35,2.35,0,1,0-3.32-3.32Z"/><path class="cls-1" d="M317.86,211.9h-7.42a2.35,2.35,0,1,0,0,4.69h7.42a2.35,2.35,0,1,0,0-4.69Z"/><path class="cls-2" d="M301.93,231.81c-5.7-.89-14.76-2.14-19.6-2A177,177,0,0,0,263,232a75.31,75.31,0,0,0-16.3,6c2.22-5.36,2.78-9.81,1.64-13.27,0-.11-.07-.2-.11-.31h6.8a7.68,7.68,0,0,0,.68,6.94,2.34,2.34,0,1,0,3.82-2.72c-.79-1.11,0-3.13.6-4.22h34.62C298.56,225.26,300.77,229,301.93,231.81Z"/><path class="cls-2" d="M238.13,250.92q-2.2,0-4.41.12c1.28-.77,2.57-1.58,3.89-2.44,1.52-1,3-1.92,4.54-2.8a2.48,2.48,0,0,0,.63-.37l2.14-1.2a25.42,25.42,0,0,0-1.17,6.88C241.88,251,240,250.92,238.13,250.92Z"/></svg>