<svg id="Layer_1" data-name="Layer 1" xmlns="http://www.w3.org/2000/svg" viewBox="0 0 470 280"><defs><style>.cls-1{fill:#fff;}.cls-2{fill:#f73;}</style></defs><title>genium4</title><path class="cls-1" d="M165.75,151.6a4.62,4.62,0,0,0-3.66,2l-15.1.3v-2.25a9.41,9.41,0,0,0-9.17-9.69c-5.16,0-9.42,4.5-9.42,10v7.27a3.32,3.32,0,0,1-3.13,3.35,3.1,3.1,0,0,1-3.15-3.18V143.81a10,10,0,1,0-20,.11v7.53a3.45,3.45,0,0,1-3.37,3.44,3.33,3.33,0,0,1-3.4-3.34V144a10.62,10.62,0,0,0-10.6-10.54,10.76,10.76,0,0,0-10.91,10.66v16.65a3.72,3.72,0,0,1-3.63,3.63,3.48,3.48,0,0,1-3.66-3.43V153c0-6-5.1-10.84-11.45-10.82s-11.79,5-11.79,11.21V156l-21,.42A7,7,0,0,0,17,154.16c-3.85.07-7,3-7,6.44s3.14,6.22,7,6.1a7.39,7.39,0,0,0,5.39-2.54l21.38-.63a7.59,7.59,0,0,0,7.56-7.29v-3a3.78,3.78,0,0,1,3.81-3.66,3.63,3.63,0,0,1,3.77,3.54v8a10.65,10.65,0,0,0,11.34,10.49,11.38,11.38,0,0,0,11-11.1V144a3.51,3.51,0,0,1,7,0v7.67a10.19,10.19,0,0,0,10.5,10.24A10.6,10.6,0,0,0,109,151.34v-7.46a3.26,3.26,0,1,1,6.51,0v15.74a9.52,9.52,0,0,0,9.76,9.77,10.19,10.19,0,0,0,9.5-10.29v-7.19a3.2,3.2,0,0,1,3-3.27,3.07,3.07,0,0,1,3,3.16v2.62a5.87,5.87,0,0,0,5.83,6.09l15.42-.46a4.34,4.34,0,0,0,3.66,1.84,5.06,5.06,0,0,0,4.61-5.24,4.77,4.77,0,0,0-4.61-5"/><path class="cls-1" d="M137.82,138.17a8.65,8.65,0,0,1-8.33-8.86,8.33,8.33,0,0,1,8.33-8.6,8.67,8.67,0,0,1,8.14,8.85,8.37,8.37,0,0,1-8.14,8.61m0-11.88a3,3,0,0,0-3,3.1,3.12,3.12,0,0,0,3,3.19,3,3,0,0,0,3-3.1,3.13,3.13,0,0,0-3-3.19"/><path class="cls-1" d="M112.27,129.71a9.25,9.25,0,0,1-9-9.29,8.68,8.68,0,0,1,9-8.81,9.26,9.26,0,0,1,8.74,9.28,8.68,8.68,0,0,1-8.74,8.82m0-12.31a3.12,3.12,0,0,0-3.2,3.17,3.33,3.33,0,0,0,3.2,3.35,3.14,3.14,0,0,0,3.17-3.18,3.33,3.33,0,0,0-3.17-3.34"/><path class="cls-1" d="M84.78,129.32a9.79,9.79,0,0,1-9.65-9.65,9.17,9.17,0,0,1,9.65-9.14,9.8,9.8,0,0,1,9.42,9.64,9.19,9.19,0,0,1-9.42,9.15m0-12.78a3.3,3.3,0,0,0-3.44,3.29,3.53,3.53,0,0,0,3.44,3.48A3.31,3.31,0,0,0,88.2,120a3.53,3.53,0,0,0-3.42-3.47"/><path class="cls-1" d="M55.13,138c-5.72,0-10.43-4.47-10.43-9.92a9.87,9.87,0,0,1,10.43-9.6,10.23,10.23,0,0,1,10.16,9.91A9.87,9.87,0,0,1,55.13,138m0-13.28a3.55,3.55,0,0,0-3.72,3.46,3.68,3.68,0,0,0,3.72,3.57,3.55,3.55,0,0,0,3.69-3.46,3.68,3.68,0,0,0-3.69-3.57"/><path class="cls-2" d="M151,185.2,38,192.64c-5.93.39-10.81-3.78-10.81-9.31V169.41l8.31-.3v13.77a2.26,2.26,0,0,0,2.5,2.18L151,178.69a2,2,0,0,0,1.84-2.08V164.85l5.94-.21v11.65c0,4.63-3.47,8.63-7.78,8.91"/><path class="cls-2" d="M158.79,149.17l-5.94.08V103.43a2.05,2.05,0,0,0-1.84-2.09L38,95a2.27,2.27,0,0,0-2.51,2.18v53.68l-8.3.11V96.71C27.14,91.18,32,87,38,87.39L151,94.83c4.31.29,7.78,4.28,7.78,8.92Z"/><path class="cls-1" d="M240,157.85a25,25,0,0,1-16.26,5.55c-13.88,0-23.73-7.93-23.73-23.66,0-13.36,10.38-23.73,24.33-23.73a21.66,21.66,0,0,1,15.07,5.81c4,4-1.79,9.85-5.75,6.35a14,14,0,0,0-9.32-4.17,15.76,15.76,0,0,0-15.73,15.74c0,9.78,6.47,15.73,15.13,15.73a16.81,16.81,0,0,0,9.92-3v-8.13h-9.92c-5.88,0-5.29-8.06,0-8.06H237c2.45,0,4.7,1.85,4.7,3.9v14.08a5.33,5.33,0,0,1-1.66,3.57"/><path class="cls-1" d="M253.64,162.94a4,4,0,0,1-4.1-4.1V121.29a4,4,0,0,1,4.1-4.09h23.73a4.3,4.3,0,1,1,0,8.59h-19v9.91H275c5.88,0,5.88,8.66,0,8.66H258.33v9.92h20.16c6,0,6.48,8.66,0,8.66Z"/><path class="cls-1" d="M288.62,121.82c0-2.38.53-4.69,4-4.69,2.38,0,2.9.59,4.69,2.31l21.88,27.37V121.16c0-2.18,1.92-4.56,4.16-4.56a5,5,0,0,1,4.7,4.56v37.22a4.41,4.41,0,0,1-3.51,4.56c-2.31,0-3.43-.53-5.35-2.31l-21.88-27.77v25.52c0,2.91-1.79,4.56-4.17,4.56a4.35,4.35,0,0,1-4.49-4.56Z"/><path class="cls-1" d="M336.65,121.16c0-5.42,8.72-5.62,8.72,0v37.75c0,5.48-8.72,5.62-8.72,0Z"/><path class="cls-1" d="M384.91,121.56c0-5.88,8.66-6.35,8.66,0v23.93c0,24.72-39.86,24.72-39.86,0V121.56c0-6,8.66-6.22,8.66,0v23.93c0,13,22.54,13.81,22.54,0Z"/><path class="cls-1" d="M419,142.19l.06-.07,4.31-5.19-13.29-18c-1.13-1.25-2.25-2.38-4.17-2.38a4.4,4.4,0,0,0-4,4.56v37.22c0,2.91,1.86,4.56,4,4.56a4.56,4.56,0,0,0,4.76-4.56V133.92L417.78,144a13.23,13.23,0,0,1,1.19-1.79"/><path class="cls-2" d="M444.73,153H426.24c-5.18,0-6.23-4.2-3.41-7.74l21.9-26.43a5.72,5.72,0,0,1,4.66-2.23c2.75,0,3.94,2.23,3.94,4.59v23.55h2.88c5.25,0,4.85,8.26,0,8.26h-2.88v6.18c0,5-8.6,5-8.6,0Zm-11.87-8.33h12.33l.13-14.95Z"/></svg>