<svg id="Layer_2" data-name="Layer 2" xmlns="http://www.w3.org/2000/svg" viewBox="0 0 470 280"><defs><style>.cls-1{fill:#fb8;}.cls-2{fill:#fff;}</style></defs><title>surfplace</title><path class="cls-1" d="M200.29,119.82c.45,11.75,10.48,20.88,22.23,20.88h50.2v-6.36H222a15.35,15.35,0,0,1-.75-30.69h.07a15.38,15.38,0,0,1,15.79,12.63,3.26,3.26,0,0,0,3.18,2.71h.06a3.24,3.24,0,0,0,3.21-3.55,39.56,39.56,0,0,0-79,3.55H171A33.18,33.18,0,0,1,230.71,99.1,21.68,21.68,0,0,0,222,97.27c-.57,0-1.13,0-1.69,0A45.89,45.89,0,0,0,222,189.07h21.28v-6.36H222a39.5,39.5,0,0,1-30.73-64.37,32.65,32.65,0,0,0-2.23,11.9,33,33,0,0,0,33,33h39.83v-6.36H222a26.59,26.59,0,0,1-21.17-42.69A22.15,22.15,0,0,0,200.29,119.82Z"/><path class="cls-1" d="M222,212.4a3.18,3.18,0,0,1-2.2-.88,292.61,292.61,0,0,1-27.43-31.06c-18.42-24.12-27.76-44.8-27.76-61.47a57.39,57.39,0,1,1,114.78,0c0,16.67-9.34,37.35-27.76,61.47a292.61,292.61,0,0,1-27.43,31.06A3.18,3.18,0,0,1,222,212.4ZM222,68a51.08,51.08,0,0,0-51,51c0,32.36,41,75.64,51,85.75,10-10.11,51-53.41,51-85.75A51.09,51.09,0,0,0,222,68Z"/><path class="cls-2" d="M53.42,133.37H46.85V121.68q0-4.89-3.79-4.89-4,0-4,4.79v8.33a15.3,15.3,0,0,0,2,8,49.49,49.49,0,0,0,4.59,6.27q4.59,5.58,5.82,8.63a23.65,23.65,0,0,1,1.93,9.57V175a10.62,10.62,0,0,1-3,7.84,9.77,9.77,0,0,1-7.21,2.86,11.52,11.52,0,0,1-7.35-2.46,8.44,8.44,0,0,1-3.35-7V157.74h6.56v16.47a5.14,5.14,0,0,0,1.38,3.8,3.65,3.65,0,0,0,2.67,1.13,3.36,3.36,0,0,0,2.41-1,5.07,5.07,0,0,0,1.33-3.75V162.08a15.75,15.75,0,0,0-2.17-8.29,43,43,0,0,0-4.78-6.22q-4.55-5.07-5.67-7.84a19,19,0,0,1-1.73-8.09v-10a11.27,11.27,0,0,1,3.31-8.34,10.09,10.09,0,0,1,7.39-3.11,9.61,9.61,0,0,1,7.06,2.91,11.12,11.12,0,0,1,3.16,8.19Z"/><path class="cls-2" d="M64.39,110.87h6.46v62.21q0,6.06,4,6.06,4.29,0,4.29-6.06V110.87H85.7v62.21q0,12.63-10.85,12.62-10.56,0-10.56-13.51Z"/><path class="cls-2" d="M118.21,177.86V156.75a12.43,12.43,0,0,0-1.13-5.92,8.51,8.51,0,0,0-5-3.5,9.21,9.21,0,0,0,4.49-2.22c1.09-1.29,1.65-3.47,1.68-6.56V121.18q0-10.31-9.47-10.31H97.39v74.24H104V151.17c2.67,0,4.54.32,5.63.94q2,1.23,2.07,5.33v20.62c0,3.25.61,5.61,1.92,7.05h6.56Q118.26,183,118.21,177.86Zm-6.56-40.2q0,3.6-1.43,5.18c-1.15,1.21-3.24,1.84-6.27,1.87V117.43h1.34a9.62,9.62,0,0,1,4.49.79c1.21.73,1.84,2.22,1.87,4.49Z"/><polygon class="cls-2" points="130 110.87 145.73 110.87 145.73 116.94 136.95 116.94 136.95 145.21 143.93 145.21 143.93 151.27 136.95 151.27 136.95 185.11 130 185.11 130 110.87"/><path class="cls-2" d="M318.15,113.93a9.08,9.08,0,0,0-7.21-3.06h-10.5v74.24H307V150.68h3.84a8.83,8.83,0,0,0,8.09-4.64,15.8,15.8,0,0,0,1.88-8.09V121.87A11.44,11.44,0,0,0,318.15,113.93Zm-3.9,24.61q-.11,4.2-2.76,5.43a12.1,12.1,0,0,1-4.49.64V116.94a11,11,0,0,1,5.08.84c1.41.85,2.14,2.73,2.17,5.62Z"/><polygon class="cls-2" points="331.03 110.87 337.79 110.87 337.79 179.04 346.77 179.04 346.77 185.11 331.03 185.11 331.03 110.87"/><path class="cls-2" d="M374,110.87H362.62l-6.75,74.24h6.26l1.63-18.5h8.58l1.38,18.5H380Zm-9.72,50,3.46-39.07h1.08l3.06,39.07Z"/><path class="cls-2" d="M411.16,135.41H404.6V120.69a4.65,4.65,0,0,0-1.38-3.41,3.88,3.88,0,0,0-2.81-1.18c-2.66,0-4,2.09-4,6.26V175c0,3.16,1.29,4.74,3.85,4.74a4,4,0,0,0,2.81-1.19,5.59,5.59,0,0,0,1.53-4.14V160.65h6.56v13.17q0,5.76-3.3,9.07a9.78,9.78,0,0,1-7.2,2.91,9.88,9.88,0,0,1-7.8-3.3q-3-3.36-3-11.4l.05-9.86V137q0-12.78.25-15.54,1-11.4,10.6-11.4a10.18,10.18,0,0,1,7.55,3.11,9,9,0,0,1,2.81,6.61Z"/><polygon class="cls-2" points="422.26 110.87 437.5 110.87 437.5 116.94 428.82 116.94 428.82 144.71 435.7 144.71 435.7 150.78 428.82 150.78 428.82 179.04 437.5 179.04 437.5 185.11 422.26 185.11 422.26 110.87"/></svg>