<svg id="Layer_1" data-name="Layer 1" xmlns="http://www.w3.org/2000/svg" xmlns:xlink="http://www.w3.org/1999/xlink" viewBox="0 0 470 280"><defs><style>.cls-1{fill:#95330a;stroke:#461602;stroke-width:0.51px;}.cls-1,.cls-11{stroke-miterlimit:10;}.cls-2{fill:#9c350a;}.cls-3{mask:url(#mask);}.cls-4{opacity:0.3;}.cls-5{fill:#5f1f04;}.cls-6{opacity:0.65;}.cls-19,.cls-7{fill:#de6024;}.cls-18,.cls-8{fill:#dd6024;}.cls-9{opacity:0.35;}.cls-10{opacity:0.5;}.cls-11,.cls-17,.cls-20{fill:#441404;}.cls-11,.cls-17,.cls-18,.cls-19{stroke:#441404;}.cls-11{stroke-width:0.96px;}.cls-12{fill:#9d350a;}.cls-13{opacity:0.8;}.cls-14{fill:#cf5824;}.cls-15{opacity:0.25;}.cls-16{opacity:0.6;}.cls-17,.cls-18,.cls-19{stroke-linejoin:round;stroke-width:1.11px;}.cls-21{mask:url(#mask-2);}.cls-22{filter:url(#luminosity-invert);}.cls-23{filter:url(#luminosity-noclip);}</style><filter id="luminosity-noclip" x="140.45" y="-7424" width="189.1" height="32766" filterUnits="userSpaceOnUse" color-interpolation-filters="sRGB"><feFlood flood-color="#fff" result="bg"/><feBlend in="SourceGraphic" in2="bg"/></filter><mask id="mask" x="140.45" y="-7424" width="189.1" height="32766" maskUnits="userSpaceOnUse"><g class="cls-23"/></mask><filter id="luminosity-invert" filterUnits="userSpaceOnUse" color-interpolation-filters="sRGB"><feColorMatrix values="-1 0 0 0 1 0 -1 0 0 1 0 0 -1 0 1 0 0 0 1 0"/></filter><mask id="mask-2" x="157.31" y="6.99" width="154.44" height="269.36" maskUnits="userSpaceOnUse"><g class="cls-22"><path d="M177.41,227.25q-3.89-.85-7.76-1.83a1.09,1.09,0,0,0-1.32.77q-4.71,18.44-9.4,36.86a1.16,1.16,0,0,0,.94,1.35q5.49,1.37,11,2.55c3.87.82,7.13.38,9.7-1.24s4.15-4.26,4.77-7.85a10.65,10.65,0,0,0-.59-6.41,8.92,8.92,0,0,0-4.69-4.12,2,2,0,0,1,0-.26,6.5,6.5,0,0,0,4.9-2,10,10,0,0,0,2.6-5.47c.6-3.49.07-6.19-1.56-8.14S181.55,228.16,177.41,227.25Zm-.32,28.32a6.4,6.4,0,0,1-2.14,4.09,5,5,0,0,1-4.16.58l-2.7-.6,2.49-11,2.48.56C176.44,250,177.79,252.05,177.09,255.57Zm2.59-16.46a5.91,5.91,0,0,1-1.76,3.48,4.28,4.28,0,0,1-3.75.49l-2.21-.49,2.16-9.46,1.84.42a5.24,5.24,0,0,1,3.31,1.81A4.81,4.81,0,0,1,179.68,239.11Z"/><path d="M211.53,255.19c3.91-1.7,6-5.14,6.3-10.2.26-4-.57-7.07-2.43-9.18s-4.84-3.33-9-3.79q-4.38-.48-8.74-1.1a1.07,1.07,0,0,0-1.23.9q-2.76,18.83-5.53,37.64a1.16,1.16,0,0,0,1.08,1.23c2,.3,4.09.57,6.13.82a1.17,1.17,0,0,0,1.36-.92q.87-7.23,1.72-14.46l2.92.33q2.52,7.8,5.38,15.56a1.25,1.25,0,0,0,1.09.77q3.5.29,7,.5a.82.82,0,0,0,.91-1.08Q214.78,263.74,211.53,255.19Zm-1.67-10.61a6.81,6.81,0,0,1-1.65,4.33c-.91.92-2.32,1.28-4.21,1.07l-2.06-.24q.69-5.78,1.37-11.57l1.93.22A5.35,5.35,0,0,1,209,240.1C209.76,241.05,210.05,242.54,209.86,244.58Z"/><path d="M244.1,267.22c-3.62.09-7.23.11-10.85.07l.12-11.13q4.06,0,8.15,0a1.13,1.13,0,0,0,1.15-1.1c0-1.44-.07-2.89-.1-4.34a1.11,1.11,0,0,0-1.17-1c-2.65,0-5.31.06-8,0l.09-9.57c3.3,0,6.6,0,9.89-.07a1.09,1.09,0,0,0,1.08-1.1l-.12-4.31a1.08,1.08,0,0,0-1.12-1q-8.06.19-16.13-.08a1.08,1.08,0,0,0-1.12,1l-1.44,38a1.16,1.16,0,0,0,1.2,1.11q9.24.31,18.49.08a1.15,1.15,0,0,0,1.21-1.1c0-1.47-.08-2.93-.13-4.4A1.14,1.14,0,0,0,244.1,267.22Z"/><path d="M267.36,232.58a1.08,1.08,0,0,0-1.14-.7q-4.25.47-8.51.8a1.1,1.1,0,0,0-1,.89q-2.55,19.52-6.22,39a.84.84,0,0,0,.95.95c2.15-.1,4.31-.22,6.46-.37a1.21,1.21,0,0,0,1.15-.91c.11-.36.44-3.41.85-7.53,3.37-.25,6.73-.57,10.09-.94q1.1,3.61,2.22,7.23a1.21,1.21,0,0,0,1.3.69c2.16-.26,4.31-.54,6.47-.84a.83.83,0,0,0,.75-1.11Q273.51,251.28,267.36,232.58ZM260.56,258c.75-7.77,1.52-16.23,1.7-18.39a.42.42,0,0,1,.81-.07q2.4,8.9,5,17.75Q264.33,257.69,260.56,258Z"/><path d="M301.63,231.15a14,14,0,0,0-12-2.68q-4.15.83-8.32,1.51a1.09,1.09,0,0,0-.9,1.24q3,18.76,6.07,37.55a1.16,1.16,0,0,0,1.4.85c2.83-.46,5.67-1,8.49-1.52,5.81-1.13,9.87-3.86,12.06-8s2.4-9.44.75-15.86C307.6,238.21,305.05,233.88,301.63,231.15Zm-.46,25.78c-.94,2.54-3,4.14-6,4.73l-1.21.24-5.07-26.71,1.69-.32c5-1,8.5,2.78,10.5,11.54C302.07,250.88,302.13,254.39,301.17,256.93Z"/><path d="M185.32,34.24a8.39,8.39,0,0,0-5.89-2.08,2.56,2.56,0,0,0-.05-.27,6.93,6.93,0,0,0,3.91-3.68,9.87,9.87,0,0,0,.58-6.05c-.64-3.48-2.18-5.83-4.67-7S173,13.92,168.25,15q-4.49,1.05-8.94,2.25a1.17,1.17,0,0,0-.94,1.36q5,18.35,10,36.71a1.1,1.1,0,0,0,1.34.75q4.77-1.28,9.57-2.37A11.29,11.29,0,0,0,186.63,49c1.57-2.4,2.07-5.39,1.42-9A10.52,10.52,0,0,0,185.32,34.24ZM167.63,21.83l2-.48a5.88,5.88,0,0,1,4.11.17,4.48,4.48,0,0,1,2,3.24,5.72,5.72,0,0,1-.26,3.91c-.51,1-1.63,1.65-3.33,2l-2.27.54Zm12.09,23.64a4.54,4.54,0,0,1-3.23,2.2l-2.46.58q-1.32-5.46-2.65-10.93l2.45-.58c3.35-.77,5.4.64,6.14,4.15A6.86,6.86,0,0,1,179.72,45.47Z"/><path d="M197.64,50.27c5.33-.81,10.69-1.45,16.05-1.93a1.08,1.08,0,0,0,1-1.16c-.12-1.46-.25-2.92-.37-4.38a1.08,1.08,0,0,0-1.2-1q-4.94.44-9.86,1.05-.7-5.52-1.4-11c2.67-.34,5.34-.63,8-.89a1.13,1.13,0,0,0,1.06-1.18c-.13-1.44-.27-2.88-.4-4.32a1.14,1.14,0,0,0-1.28-1c-2.74.27-5.47.57-8.2.92l-1.2-9.49q5.43-.69,10.88-1.17a1.15,1.15,0,0,0,1.13-1.17l-.36-4.3a1.16,1.16,0,0,0-1.34-1q-9.28.81-18.54,2.22a1.16,1.16,0,0,0-1.07,1.25q2.93,18.8,5.86,37.58A1.09,1.09,0,0,0,197.64,50.27Z"/><path d="M251.84,47.8c1.8.11,3.59.23,5.38.38a1.09,1.09,0,0,0,1.17-1l1.23-14.52,2.85.26q2.53,7.77,4.71,15.56a1.11,1.11,0,0,0,.92.79q3,.38,6.07.82a.82.82,0,0,0,.91-1q-2.41-8.7-5.3-17.36c3.91-1.55,6.29-4.77,7-9.8.57-4-.12-7.12-2.13-9.36s-5.45-3.66-10.27-4.11c-3.38-.32-6.77-.58-10.15-.78a1.17,1.17,0,0,0-1.31,1q-1.05,19-2.11,38A1.09,1.09,0,0,0,251.84,47.8Zm9.31-33.13,2.13.18a6.08,6.08,0,0,1,4.17,1.73c.83,1,1.12,2.47.89,4.51a6.78,6.78,0,0,1-1.76,4.3,5.3,5.3,0,0,1-4.31,1.07l-2.1-.18Q260.66,20.48,261.15,14.67Z"/><path d="M281.28,51.26c2.47.43,4.94.91,7.4,1.41,5.05,1,9.27.28,12.86-2.43s6.32-7.21,8.07-13.61c1.64-6,1.51-11.07-.56-15.17s-5.83-6.79-11.21-7.92q-4.79-1-9.59-1.85a1.16,1.16,0,0,0-1.42.84Q283.61,31.27,280.39,50A1.09,1.09,0,0,0,281.28,51.26Zm13.07-31.85,1.86.39c5.59,1.17,7.3,6.24,5.18,15-1.07,4.45-2.55,7.62-4.4,9.53a7,7,0,0,1-6.93,2l-1.1-.22Q291.65,32.73,294.35,19.41Z"/><path d="M238,7.81A1.25,1.25,0,0,0,236.74,7q-5,0-9.89.16a1.23,1.23,0,0,0-1.19.85q-3.87,19.42-6.57,38.92a.81.81,0,0,0,.85.95c1.88-.12,3.76-.22,5.65-.3a1.08,1.08,0,0,0,1-.87c0-.36.42-3.39,1-7.47,3.13-.11,6.25-.15,9.38-.15.41,2.48.83,5,1.22,7.43a1.1,1.1,0,0,0,1.05.85c1.9,0,3.79.06,5.68.12a.8.8,0,0,0,.82-1Q242.45,27.12,238,7.81Zm-9.41,24.76c1.12-7.72,2.4-16.12,2.94-18.25a.47.47,0,0,1,.89,0q1.84,9.07,3.45,18.16C233.39,32.46,231,32.5,228.54,32.57Z"/></g></mask></defs><title>beardbread</title><path class="cls-1" d="M322.88,110.34a3.21,3.21,0,0,1,.25.47A3.21,3.21,0,0,0,322.88,110.34Z"/><path class="cls-2" d="M245.88,204.91a19.78,19.78,0,0,1-5.64-1.14,13.23,13.23,0,0,0-10.47,0,19.85,19.85,0,0,1-5.65,1.14l-.73,0a17.56,17.56,0,0,1-6.28-2.19,18.37,18.37,0,0,0-4.81-1.86,9.79,9.79,0,0,0-1.68-.13A30.47,30.47,0,0,0,207,201a30.45,30.45,0,0,1-3.81.33h0a10.55,10.55,0,0,1-2.68-.31,17.72,17.72,0,0,1-5.86-3.3,18.46,18.46,0,0,0-4.34-2.67,19.67,19.67,0,0,0-5.24-.82,16.87,16.87,0,0,1-6.41-1.25,17.41,17.41,0,0,1-5.15-4.52,18.45,18.45,0,0,0-3.59-3.46,20.08,20.08,0,0,0-4.82-2,16.58,16.58,0,0,1-6-2.81,16.93,16.93,0,0,1-3.87-5.93,19.27,19.27,0,0,0-2.37-4.17,21.24,21.24,0,0,0-3.76-3.25c-1.89-1.4-3.84-2.84-4.94-4.88-1.18-2.21-1.27-4.74-1.36-7.19a21.36,21.36,0,0,0-.47-4.59c-.3-1.13-.69-2.28-1.07-3.39a24.2,24.2,0,0,1-1.72-7.82c0-11.21,2.38-21.17,7.08-29.62l.07-.1c1.1-1.48,4.29-4,13.32-4h.42c8.35,0,18.66,1.75,28.64,3.44,9.6,1.62,19.52,3.51,27.21,3.51s13.87-1.62,18.08-4.69h1.16c4.21,3.07,10.3,4.69,18.08,4.69s17.62-1.79,27.21-3.41c10-1.69,20.29-3.49,28.64-3.49l.42,0c9.82.07,13,3.2,13.85,4.55l0,.06c4.51,8.33,6.8,18.12,6.8,29.11a24.2,24.2,0,0,1-1.72,7.82c-.38,1.11-.77,2.26-1.07,3.39a21.36,21.36,0,0,0-.47,4.59c-.09,2.45-.17,5-1.36,7.19-1.1,2-3.05,3.48-4.94,4.88a21.62,21.62,0,0,0-3.76,3.24,19.6,19.6,0,0,0-2.37,4.18,17,17,0,0,1-3.86,5.93,16.7,16.7,0,0,1-6,2.81,20.08,20.08,0,0,0-4.82,2,18.45,18.45,0,0,0-3.59,3.46,17.41,17.41,0,0,1-5.15,4.52,16.87,16.87,0,0,1-6.41,1.25,19.67,19.67,0,0,0-5.24.82,18.46,18.46,0,0,0-4.34,2.67,17.72,17.72,0,0,1-5.86,3.3,10.55,10.55,0,0,1-2.68.31A30.45,30.45,0,0,1,263,201a30.47,30.47,0,0,0-3.65-.31,9.71,9.71,0,0,0-1.68.13,18.07,18.07,0,0,0-4.81,1.87,17.74,17.74,0,0,1-6.28,2.18Z"/><g class="cls-3"><g class="cls-4"><path class="cls-5" d="M146.85,156.91c2.53,3.81,6.94,6.3,10.46,9.68,3.29,3.16,5.89,7.48,9.94,10.19,3.81,2.55,8.8,3.34,13.19,5.42,4.15,2,7.89,5.37,12.49,6.88,4.38,1.45,9.4,1,14.13,1.94,4.53.94,8.93,3.41,13.72,3.89,4.61.46,9.42-1.07,14.22-1.07s9.61,1.53,14.22,1.07c4.79-.48,9.19-2.95,13.72-3.89,4.73-1,9.75-.49,14.13-1.94,4.6-1.51,8.34-4.91,12.49-6.88,4.39-2.08,9.38-2.88,13.19-5.42,4.05-2.71,6.65-7,9.94-10.19,3.52-3.38,7.93-5.87,10.46-9.68,2.68-4,3.18-9,4.6-13.44.52-1.61,1.17-3.2,1.8-4.81,0-1.37-.05-2.72-.13-4-1.26,1-2.56,2-3.94,2.94-5.1,3.42-11.08,5.75-17,8.55-5.57,2.65-11.12,5.84-17.29,7.87-5.88,1.94-12.24,2.7-18.58,4-6.08,1.27-12.21,3.13-18.63,3.77-6.19.63-12.57,0-19,0s-12.82.59-19,0c-6.42-.64-12.55-2.5-18.63-3.77-6.34-1.31-12.7-2.07-18.58-4-6.17-2-11.72-5.22-17.29-7.87-5.89-2.8-11.86-5.13-17-8.54-1.38-.92-2.68-1.92-3.94-2.95-.08,1.33-.12,2.68-.13,4,.63,1.61,1.28,3.2,1.8,4.81C143.67,147.88,144.18,152.89,146.85,156.91Z"/></g><path class="cls-5" d="M140.45,138.66v0Z"/><path class="cls-5" d="M329.55,138.66h0v0Z"/><g class="cls-6"><path class="cls-5" d="M329.55,138.66c-.63,1.61-1.28,3.2-1.8,4.81-1.42,4.41-1.92,9.42-4.6,13.44-2.53,3.81-6.94,6.3-10.46,9.68-3.29,3.16-5.89,7.48-9.94,10.19-3.81,2.54-8.8,3.34-13.19,5.42-4.15,2-7.89,5.37-12.49,6.88-4.38,1.45-9.4,1-14.13,1.94-4.53.94-8.93,3.41-13.72,3.89-4.61.46-9.42-1.07-14.22-1.07s-9.61,1.53-14.22,1.07c-4.79-.48-9.19-2.95-13.72-3.89-4.73-1-9.75-.49-14.13-1.94-4.6-1.51-8.34-4.91-12.49-6.88-4.39-2.08-9.38-2.87-13.19-5.42-4.05-2.71-6.65-7-9.94-10.19-3.52-3.38-7.93-5.87-10.46-9.68-2.67-4-3.18-9-4.6-13.44-.52-1.61-1.17-3.2-1.8-4.81V139c0,3.86,1.79,7.3,2.75,11s-.08,8.16,1.75,11.57,6.1,5,8.6,8c2.37,2.85,3.16,7.42,6.12,10,2.8,2.43,7.45,2.59,10.74,4.72,3.12,2,5.14,6.21,8.64,7.93,3.35,1.64,7.9.69,11.56,2,3.51,1.28,6.36,5,10.11,5.93s7.91-.85,11.74-.21,7.15,3.72,11,4,7.66-2.19,11.53-2.19,7.78,2.49,11.53,2.19,7.31-3.42,11-4,8.11,1.16,11.73.21,6.61-4.65,10.12-5.93c3.66-1.34,8.21-.39,11.56-2,3.5-1.72,5.52-5.91,8.64-7.93,3.29-2.13,7.94-2.29,10.74-4.72,3-2.56,3.76-7.13,6.12-10,2.5-3,6.84-4.69,8.6-8s.79-7.92,1.75-11.57,2.75-7.11,2.75-11Z"/></g></g><path class="cls-7" d="M253.47,111.9c0,.23-.12.42-.33.95a53.59,53.59,0,0,0-2.69,8.22c-2.27,11.37.24,28.65-4.53,44.92-7.24,24.71-22.25,22.06-25.92,21-.53-.15-.7-.25-.71-.49a2.26,2.26,0,0,1,.27-1,53.23,53.23,0,0,0,2.69-8.22c2.27-11.37-.24-28.65,4.53-44.92,7.24-24.71,22.25-22,25.92-21C253.23,111.56,253.46,111.66,253.47,111.9Z"/><path class="cls-8" d="M289.84,115.84c0,.19-.09.34-.25.78a48.07,48.07,0,0,0-2,6.69c-1.76,9.25-.06,23.25-3.71,36.49-5.54,20.12-16.56,18.09-19.25,17.25-.39-.11-.51-.19-.52-.38a1.91,1.91,0,0,1,.21-.79,48.07,48.07,0,0,0,2.05-6.69c1.76-9.25.06-23.25,3.71-36.49,5.54-20.11,16.56-18.09,19.25-17.26C289.67,115.57,289.83,115.64,289.84,115.84Z"/><path class="cls-8" d="M208.8,115.84c0,.19-.09.34-.26.78a48.2,48.2,0,0,0-2,6.69c-1.77,9.25-.07,23.25-3.72,36.49-5.54,20.12-16.55,18.09-19.25,17.25-.39-.11-.51-.19-.52-.38a2.09,2.09,0,0,1,.21-.79,46.76,46.76,0,0,0,2.05-6.69c1.76-9.25.07-23.25,3.71-36.49,5.54-20.11,16.56-18.09,19.26-17.26C208.63,115.57,208.79,115.64,208.8,115.84Z"/><path class="cls-8" d="M316.61,119.13c0,.13-.05.22-.16.51a31.58,31.58,0,0,0-1.31,4.34c-1.13,6-.08,15.07-2.41,23.66-3.54,13.05-10.5,11.76-12.21,11.23-.24-.08-.32-.13-.32-.26a1.34,1.34,0,0,1,.13-.51,31.58,31.58,0,0,0,1.31-4.34c1.13-6,.08-15.07,2.41-23.66,3.54-13,10.51-11.76,12.21-11.22C316.5,119,316.61,119,316.61,119.13Z"/><path class="cls-8" d="M172.68,119.13c0,.13-.06.22-.16.51a31.58,31.58,0,0,0-1.31,4.34c-1.13,6-.08,15.07-2.41,23.66-3.54,13.05-10.51,11.76-12.21,11.23-.24-.08-.32-.13-.33-.26a1.43,1.43,0,0,1,.14-.51,31.58,31.58,0,0,0,1.31-4.34c1.13-6,.08-15.07,2.41-23.66,3.54-13,10.5-11.76,12.21-11.22C172.57,119,172.68,119,172.68,119.13Z"/><g class="cls-9"><path class="cls-5" d="M236.6,130.35c5.39-11.14,11.45-16.33,16.87-18.48,0-.22-.26-.32-.77-.47-3.67-1.06-18.68-3.72-25.92,21-4.77,16.27-2.26,33.55-4.53,44.92a53.23,53.23,0,0,1-2.69,8.22,3.35,3.35,0,0,0-.27.82,57.8,57.8,0,0,0,4.28-8.22C228.08,166.24,228.49,147.09,236.6,130.35Z"/></g><g class="cls-9"><path class="cls-5" d="M278.1,130.63c3.84-8.26,8-12.59,11.74-14.72,0,0,0,0,0-.07,0-.2-.17-.27-.56-.4-2.69-.83-13.71-2.85-19.25,17.26-3.65,13.24-1.95,27.24-3.71,36.49a48.07,48.07,0,0,1-2.05,6.69c-.07.18-.12.31-.15.42a51.14,51.14,0,0,0,3.31-6.67C271,159.89,271.73,144.36,278.1,130.63Z"/></g><g class="cls-9"><path class="cls-5" d="M302.46,154c2.32-6.32,2.83-16.39,6.94-25.32,2.36-5.14,4.88-8,7.19-9.4a.21.21,0,0,0,0-.13c0-.12-.11-.17-.35-.25-1.7-.54-8.67-1.83-12.21,11.22-2.33,8.59-1.28,17.67-2.41,23.66a31.58,31.58,0,0,1-1.31,4.34,1.81,1.81,0,0,0-.13.45s0-.05,0-.08A34.78,34.78,0,0,0,302.46,154Z"/></g><g class="cls-9"><path class="cls-5" d="M186.82,169.19c3.6-9.74,4.31-25.27,10.68-39,3.68-7.91,7.63-12.22,11.27-14.44-.06-.12-.22-.2-.53-.3-2.7-.83-13.72-2.85-19.26,17.26-3.64,13.24-1.95,27.24-3.71,36.49a46.76,46.76,0,0,1-2.05,6.69,2.09,2.09,0,0,0-.21.79.17.17,0,0,0,0,.1,3.14,3.14,0,0,1,.34-.68A51.33,51.33,0,0,0,186.82,169.19Z"/></g><g class="cls-9"><path class="cls-5" d="M158.53,154c2.32-6.32,2.83-16.39,6.94-25.32,2.36-5.14,4.88-8,7.19-9.4a.69.69,0,0,0,0-.13c0-.12-.11-.17-.35-.25-1.71-.54-8.67-1.83-12.21,11.22-2.33,8.59-1.28,17.67-2.41,23.66a31.58,31.58,0,0,1-1.31,4.34,1.45,1.45,0,0,0-.13.45l0-.08A34.78,34.78,0,0,0,158.53,154Z"/></g><g class="cls-10"><path class="cls-5" d="M309.81,106.21c-16.37-.12-40.42,6.74-56.26,6.74-8.31,0-14.47-1.87-18.65-5.08-4.18,3.25-10.36,5.13-18.7,5.13-15.84,0-39.93-6.8-56.31-6.68-9,.06-11.81,2.62-12.66,3.83l-.06.11c19.72.71,46.81,8.07,65,8.07,10.14,0,17.64-2.29,22.73-6.24,5.08,3.91,12.56,6.17,22.65,6.17,18.25,0,45.45-7.48,65.19-8.14C321.75,108.85,318.7,106.27,309.81,106.21Z"/></g><path class="cls-11" d="M224.69,188.26a17.57,17.57,0,0,1-4.87-.67c-.45-.13-1.12-.32-1.17-1.06a2.66,2.66,0,0,1,.32-1.24,53.35,53.35,0,0,0,2.66-8.1c.9-4.53,1-10.12,1.19-16.05.22-9,.47-19.13,3.35-28.92,5.63-19.23,16.1-22.1,21.84-22.1a17.83,17.83,0,0,1,4.87.67c.5.15,1.18.35,1.23,1.07a1.8,1.8,0,0,1-.22.86c0,.1-.1.22-.16.37a52.87,52.87,0,0,0-2.66,8.11c-.9,4.52-1,10.12-1.19,16-.22,9-.47,19.13-3.35,28.93C240.9,185.39,230.43,188.26,224.69,188.26Zm-4.74-2,.22.07a16.58,16.58,0,0,0,4.52.62c6.58,0,15.49-3.67,20.62-21.18,2.83-9.64,3.08-19.71,3.3-28.6.15-6,.29-11.63,1.22-16.26a52.24,52.24,0,0,1,2.72-8.33c.06-.17.12-.31.17-.42l.05-.11-.24-.08a16.59,16.59,0,0,0-4.52-.61c-6.57,0-15.49,3.67-20.62,21.17-2.83,9.64-3.08,19.71-3.3,28.6-.15,6-.29,11.63-1.22,16.27a53.59,53.59,0,0,1-2.72,8.33C220.05,186,220,186.19,220,186.3Z"/><path class="cls-11" d="M267.89,178.18a11.69,11.69,0,0,1-3.5-.52c-.33-.1-.94-.28-1-1a2.41,2.41,0,0,1,.25-1,46.52,46.52,0,0,0,2-6.59,90.73,90.73,0,0,0,1-13c.24-7.28.52-15.54,2.72-23.52,4.36-15.84,12.24-18.21,16.55-18.21a11.75,11.75,0,0,1,3.5.52c.37.11,1,.3,1,1a1.58,1.58,0,0,1-.18.73l-.12.3a47.94,47.94,0,0,0-2,6.59,90.76,90.76,0,0,0-1,13c-.25,7.28-.52,15.53-2.72,23.51C280.08,175.81,272.2,178.18,267.89,178.18Zm-3.15-1.74h0a10.69,10.69,0,0,0,3.13.45c3.95,0,11.19-2.24,15.33-17.27,2.15-7.83,2.43-16,2.66-23.22a92.28,92.28,0,0,1,1-13.22,48.66,48.66,0,0,1,2.07-6.8c.05-.13.1-.24.14-.33h0a10.55,10.55,0,0,0-3.12-.45c-4,0-11.19,2.24-15.33,17.27-2.16,7.84-2.43,16-2.67,23.22a91,91,0,0,1-1,13.22,48.41,48.41,0,0,1-2.08,6.8Z"/><path class="cls-11" d="M186.84,178.18a11.75,11.75,0,0,1-3.5-.52c-.32-.1-.93-.28-1-1a2.41,2.41,0,0,1,.25-1,47.87,47.87,0,0,0,2-6.59,90.49,90.49,0,0,0,1-13c.24-7.28.51-15.54,2.71-23.52,4.36-15.84,12.25-18.21,16.56-18.21a11.75,11.75,0,0,1,3.5.52c.36.11,1,.3,1,1a1.54,1.54,0,0,1-.17.73l-.12.3a49.68,49.68,0,0,0-2,6.59,90.76,90.76,0,0,0-1,13c-.24,7.28-.51,15.53-2.71,23.51C199,175.81,191.15,178.18,186.84,178.18Zm-3.14-1.74h0a10.61,10.61,0,0,0,3.12.45c3.95,0,11.19-2.24,15.33-17.27,2.16-7.83,2.43-16,2.67-23.22a91,91,0,0,1,1-13.22,48.59,48.59,0,0,1,2.08-6.8c.05-.13.09-.24.13-.33h0a10.61,10.61,0,0,0-3.12-.45c-4,0-11.19,2.24-15.33,17.27-2.16,7.84-2.43,16-2.67,23.22a92.39,92.39,0,0,1-1,13.22,49.78,49.78,0,0,1-2.08,6.8C183.77,176.23,183.73,176.35,183.7,176.44Z"/><path class="cls-11" d="M302.59,159.81a7.41,7.41,0,0,1-2.26-.34.93.93,0,0,1-.77-.83,1.91,1.91,0,0,1,.17-.75,30.09,30.09,0,0,0,1.28-4.25,59.49,59.49,0,0,0,.66-8.41c.17-4.73.35-10.09,1.77-15.3,2.83-10.44,7.95-12,10.75-12a7.79,7.79,0,0,1,2.26.33,1,1,0,0,1,.8.83,1.26,1.26,0,0,1-.13.57l-.07.19a30.75,30.75,0,0,0-1.28,4.24,59.61,59.61,0,0,0-.66,8.41c-.17,4.74-.36,10.1-1.77,15.3C310.51,158.25,305.39,159.81,302.59,159.81Zm-1.66-1.49a6.29,6.29,0,0,0,1.66.22c2.44,0,6.91-1.44,9.52-11.06,1.38-5.06,1.56-10.35,1.73-15a60.06,60.06,0,0,1,.68-8.61,32.16,32.16,0,0,1,1.33-4.44,6.41,6.41,0,0,0-1.66-.21c-2.44,0-6.92,1.43-9.53,11.06-1.37,5.06-1.55,10.34-1.72,15a59.79,59.79,0,0,1-.68,8.6A32.76,32.76,0,0,1,300.93,158.32Z"/><path class="cls-11" d="M158.66,159.81a7.41,7.41,0,0,1-2.26-.34.92.92,0,0,1-.77-.83,1.78,1.78,0,0,1,.17-.75,29.69,29.69,0,0,0,1.28-4.25,59.49,59.49,0,0,0,.66-8.41c.17-4.73.35-10.09,1.76-15.3,2.84-10.44,8-12,10.75-12a7.81,7.81,0,0,1,2.27.33c.23.08.77.25.8.83a1.26,1.26,0,0,1-.13.57l-.08.19a31.44,31.44,0,0,0-1.27,4.24,59.73,59.73,0,0,0-.66,8.41c-.17,4.74-.36,10.1-1.77,15.3C166.58,158.25,161.46,159.81,158.66,159.81ZM157,158.32a6.29,6.29,0,0,0,1.66.22c2.44,0,6.91-1.44,9.52-11.06,1.38-5.06,1.56-10.35,1.73-15a60.06,60.06,0,0,1,.68-8.61,32.21,32.21,0,0,1,1.33-4.44,6.49,6.49,0,0,0-1.67-.21c-2.43,0-6.91,1.43-9.52,11.06-1.37,5.06-1.56,10.34-1.72,15a59.79,59.79,0,0,1-.68,8.6A32.32,32.32,0,0,1,157,158.32Z"/><path class="cls-12" d="M253.55,113.9c-16.8,0-26.44-7.66-26.44-21,0-11.2,6.81-17,12.7-18.67l.11,0h.15a54.16,54.16,0,0,1,13.16-1.53c27.72,0,59.32,16.66,70.46,37.2a3.14,3.14,0,0,1,.34.63l-.91.31h0l-.89.32a1.78,1.78,0,0,0-.15-.27l0,0c-.62-.89-3.23-3.6-12.25-3.67h-.41c-8.19,0-18.42,1.73-28.32,3.41C271.41,112.21,261.4,113.9,253.55,113.9Z"/><g class="cls-13"><path class="cls-14" d="M237.91,82.48h0c23.64-5.63,54.7,2.42,77.52,17.64C297.86,81.2,264.24,69.26,240.18,75h0c-4.84,1.34-10.21,5.55-11.7,13.42A19.87,19.87,0,0,1,237.91,82.48Z"/></g><g class="cls-15"><path class="cls-5" d="M293.3,107.63c-14.48-.53-30.95.28-42.48-1.75a47,47,0,0,1-6.81-1.71,19.15,19.15,0,0,1-3.71,6.66A37.34,37.34,0,0,0,253.55,113C264.6,113,279.65,109.61,293.3,107.63Z"/></g><g class="cls-16"><path class="cls-5" d="M235.91,78.68c3.2,3,5.79,7.63,5.79,14.22a20.16,20.16,0,0,1-2.15,9.43,16.81,16.81,0,0,1-4.65,5.54,21.41,21.41,0,0,0,5.4,3,19.15,19.15,0,0,0,3.71-6.66,24.29,24.29,0,0,0,1.11-7.46C245.12,87.52,240.62,81.68,235.91,78.68Z"/></g><path class="cls-2" d="M216.2,114c-7.86,0-17.87-1.68-27.55-3.31-9.91-1.66-20.15-3.38-28.34-3.38h-.41c-8.51.06-11.12,2.37-11.86,3.39-.18.31-.27.51-.28.53l-1.79-.66a3.22,3.22,0,0,1,.46-.9l.08-.14c11.17-20.1,43.19-37.1,69.9-37.1a50.44,50.44,0,0,1,13.45,1.69l.95.26v.06c4.79,1.78,11.85,7.32,11.85,18.5C242.65,106.28,233,114,216.2,114Z"/><g class="cls-15"><path class="cls-5" d="M241.24,88.29C240,96.85,232.92,103.49,219,106c-11.49,2-27.9,1.26-42.35,1.8,13.62,2,28.59,5.24,39.6,5.24,17.51,0,25.5-8.29,25.5-20.1A22.93,22.93,0,0,0,241.24,88.29Z"/></g><g class="cls-13"><path class="cls-14" d="M231.81,82.49h0a20.4,20.4,0,0,1,9.52,6.3A17.33,17.33,0,0,0,229.6,75h0c-23-6.35-57.4,6.25-75.1,25.29C177.63,84.74,209.16,76.24,231.81,82.49Z"/></g><path class="cls-17" d="M324.9,110.1a4.59,4.59,0,0,0-.39-.74c-5.6-10.31-16.23-19.89-29.9-27-13.35-6.92-28.06-10.74-41.42-10.74A59.09,59.09,0,0,0,240.4,73l-1,.18a17.3,17.3,0,0,0-4.64,2.2A18,18,0,0,0,232,73.83l-1.87-.67a51.43,51.43,0,0,0-13.7-1.73c-12.73,0-27.61,4-40.82,10.87-13.52,7.07-24.05,16.43-29.71,26.39h0l-.14.22-.1.19h0a4.73,4.73,0,0,0-.49.92c-4.37,8.34-6.59,18.08-6.59,29a24.9,24.9,0,0,0,1.77,8.13c.39,1.14.75,2.22,1,3.32a20.4,20.4,0,0,1,.45,4.38c.09,2.56.18,5.21,1.47,7.61,1.2,2.23,3.24,3.74,5.21,5.2a20.22,20.22,0,0,1,3.6,3.08,18.77,18.77,0,0,1,2.23,4c1.05,2.23,2.12,4.53,4.11,6.25a17.32,17.32,0,0,0,6.36,3,19.22,19.22,0,0,1,4.59,1.87,17.65,17.65,0,0,1,3.39,3.29,18.09,18.09,0,0,0,5.45,4.75A17.7,17.7,0,0,0,185,195.2a18.38,18.38,0,0,1,5,.76,17.61,17.61,0,0,1,4.1,2.54,18.35,18.35,0,0,0,6.19,3.45,11.53,11.53,0,0,0,2.92.34,31.88,31.88,0,0,0,3.93-.33,28,28,0,0,1,3.53-.3,8.89,8.89,0,0,1,1.52.11,17.43,17.43,0,0,1,4.55,1.78,18.46,18.46,0,0,0,6.63,2.28c.26,0,.53,0,.8,0a20.09,20.09,0,0,0,5.92-1.18,18,18,0,0,1,5-1,17.62,17.62,0,0,1,5,1,20.47,20.47,0,0,0,5.92,1.17c.27,0,.54,0,.8,0a18.27,18.27,0,0,0,6.63-2.28,17.43,17.43,0,0,1,4.55-1.78,8.89,8.89,0,0,1,1.52-.11,28,28,0,0,1,3.53.3,31.88,31.88,0,0,0,3.93.33,11.53,11.53,0,0,0,2.92-.34A18.35,18.35,0,0,0,276,198.5a17.61,17.61,0,0,1,4.1-2.54,18.38,18.38,0,0,1,5-.76,17.7,17.7,0,0,0,6.77-1.35,18.09,18.09,0,0,0,5.45-4.75,18,18,0,0,1,3.39-3.29,19.22,19.22,0,0,1,4.59-1.87,17.32,17.32,0,0,0,6.36-3,17.57,17.57,0,0,0,4.11-6.25,18.77,18.77,0,0,1,2.23-4,20.22,20.22,0,0,1,3.6-3.08c2-1.46,4-3,5.21-5.2,1.29-2.4,1.38-5.05,1.47-7.61a20.4,20.4,0,0,1,.45-4.38c.29-1.1.65-2.18,1-3.32a24.84,24.84,0,0,0,1.77-8.13C331.46,128.14,329.25,118.42,324.9,110.1ZM240.17,75h0a56.37,56.37,0,0,1,13-1.44c24.71,0,53.9,13.69,67,32.5a44,44,0,0,1,2.66,4.29l-.07-.11h0l-.07-.09,0,0-.05-.06,0-.07,0,0-.08-.1,0,0c-1.16-1.28-4.21-3.39-11.78-3.59H309.4c-14.66,0-35.27,5.4-50.7,6.53l-.86.06c-.93.06-1.85.1-2.74.13l-1.55,0c-.54,0-1.06,0-1.58,0l-.53,0-1,0-.65,0-.82-.07-.69-.07-.71-.08-.72-.1-.64-.1-.72-.13-.58-.11-.73-.16-.51-.12-.74-.19-.45-.12-.75-.23-.39-.12-.75-.27-.34-.12-.74-.3-.29-.12-.74-.34-.24-.12-.74-.38-.18-.1c-.26-.14-.51-.29-.75-.44l0,0,.2-.17a18.25,18.25,0,0,0,1.43-1.35,20.51,20.51,0,0,0,5.43-14.58c0-7.39-3.1-12.91-7.17-16.32A15.73,15.73,0,0,1,240.17,75Zm-4.51,33.43.05,0ZM216.41,73.34A49.66,49.66,0,0,1,229.6,75h0a15.15,15.15,0,0,1,3.55,1.58,18.36,18.36,0,0,1,1.63,1.13c3.69,2.88,6.92,7.83,6.92,15.19,0,5.39-1.67,10-5.15,13.52a17.81,17.81,0,0,1-1.65,1.45h0c-.52.39-1.06.77-1.64,1.13h0c-4.11,2.55-9.76,4-17.07,4-15.71,0-39.52-6.68-55.89-6.68h-.42c-8.86.06-11.75,2.56-12.63,3.79l.05-.09,0,0,.11-.19c.76-1.34,1.61-2.67,2.53-4C163.08,87.37,192.44,73.34,216.41,73.34ZM326.8,150c-1,3.65.08,8.16-1.75,11.57s-6.1,5-8.6,8c-2.36,2.85-3.15,7.42-6.12,10-2.8,2.43-7.45,2.59-10.74,4.72-3.12,2-5.14,6.21-8.64,7.93-3.35,1.64-7.9.69-11.56,2-3.51,1.28-6.36,5-10.12,5.93a9.29,9.29,0,0,1-2.43.28c-2.41,0-5-.63-7.46-.63a11.32,11.32,0,0,0-1.84.14c-3.7.62-7.16,3.72-11,4-.22,0-.43,0-.65,0-3.55,0-7.24-2.22-10.88-2.22S227.67,204,224.12,204c-.22,0-.43,0-.65,0-3.86-.32-7.31-3.42-11-4a11.32,11.32,0,0,0-1.84-.14c-2.47,0-5.05.63-7.46.63a9.42,9.42,0,0,1-2.44-.28c-3.75-1-6.6-4.65-10.11-5.93-3.66-1.34-8.21-.39-11.56-2-3.5-1.72-5.52-5.91-8.64-7.93-3.29-2.13-7.94-2.29-10.74-4.72-3-2.56-3.75-7.13-6.12-10-2.5-3-6.84-4.69-8.6-8s-.79-7.92-1.75-11.57-2.75-7.11-2.75-11a63.24,63.24,0,0,1,3.35-21.1c1.17-1.87,3.45-5.32,5-6.71.57-.5,2.76-2.9,11.07-3h.4c8.11,0,18.31,1.71,28.18,3.36,9.72,1.63,19.77,3.32,27.71,3.32s14.07-1.58,18.71-4.69c4.62,3.08,10.88,4.64,18.64,4.64,7.93,0,18-1.7,27.69-3.35s20.05-3.4,28.16-3.4h.4c8.72.06,10.86,2.8,11.46,3.24a44.93,44.93,0,0,1,4,4.09A62.14,62.14,0,0,1,329.55,139C329.55,142.86,327.76,146.3,326.8,150Z"/><path class="cls-7" d="M177.41,227.25q-3.89-.85-7.76-1.83a1.09,1.09,0,0,0-1.32.77q-4.71,18.44-9.4,36.86a1.16,1.16,0,0,0,.94,1.35q5.49,1.37,11,2.55c3.87.82,7.13.38,9.7-1.24s4.15-4.26,4.77-7.85a10.65,10.65,0,0,0-.59-6.41,8.92,8.92,0,0,0-4.69-4.12,2,2,0,0,1,0-.26,6.5,6.5,0,0,0,4.9-2,10,10,0,0,0,2.6-5.47c.6-3.49.07-6.19-1.56-8.14S181.55,228.16,177.41,227.25Zm-.32,28.32a6.4,6.4,0,0,1-2.14,4.09,5,5,0,0,1-4.16.58l-2.7-.6,2.49-11,2.48.56C176.44,250,177.79,252.05,177.09,255.57Zm2.59-16.46a5.91,5.91,0,0,1-1.76,3.48,4.28,4.28,0,0,1-3.75.49l-2.21-.49,2.16-9.46,1.84.42a5.24,5.24,0,0,1,3.31,1.81A4.81,4.81,0,0,1,179.68,239.11Z"/><path class="cls-7" d="M211.53,255.19c3.91-1.7,6-5.14,6.3-10.2.26-4-.57-7.07-2.43-9.18s-4.84-3.33-9-3.79q-4.38-.48-8.74-1.1a1.07,1.07,0,0,0-1.23.9q-2.76,18.83-5.53,37.64a1.16,1.16,0,0,0,1.08,1.23c2,.3,4.09.57,6.13.82a1.17,1.17,0,0,0,1.36-.92q.87-7.23,1.72-14.46l2.92.33q2.52,7.8,5.38,15.56a1.25,1.25,0,0,0,1.09.77q3.5.29,7,.5a.82.82,0,0,0,.91-1.08Q214.78,263.74,211.53,255.19Zm-1.67-10.61a6.81,6.81,0,0,1-1.65,4.33c-.91.92-2.32,1.28-4.21,1.07l-2.06-.24q.69-5.78,1.37-11.57l1.93.22A5.35,5.35,0,0,1,209,240.1C209.76,241.05,210.05,242.54,209.86,244.58Z"/><path class="cls-7" d="M244.1,267.22c-3.62.09-7.23.11-10.85.07l.12-11.13q4.06,0,8.15,0a1.13,1.13,0,0,0,1.15-1.1c0-1.44-.07-2.89-.1-4.34a1.11,1.11,0,0,0-1.17-1c-2.65,0-5.31.06-8,0l.09-9.57c3.3,0,6.6,0,9.89-.07a1.09,1.09,0,0,0,1.08-1.1l-.12-4.31a1.08,1.08,0,0,0-1.12-1q-8.06.19-16.13-.08a1.08,1.08,0,0,0-1.12,1l-1.44,38a1.16,1.16,0,0,0,1.2,1.11q9.24.31,18.49.08a1.15,1.15,0,0,0,1.21-1.1c0-1.47-.08-2.93-.13-4.4A1.14,1.14,0,0,0,244.1,267.22Z"/><path class="cls-7" d="M267.36,232.58a1.08,1.08,0,0,0-1.14-.7q-4.25.47-8.51.8a1.1,1.1,0,0,0-1,.89q-2.55,19.52-6.22,39a.84.84,0,0,0,.95.95c2.15-.1,4.31-.22,6.46-.37a1.21,1.21,0,0,0,1.15-.91c.11-.36.44-3.41.85-7.53,3.37-.25,6.73-.57,10.09-.94q1.1,3.61,2.22,7.23a1.21,1.21,0,0,0,1.3.69c2.16-.26,4.31-.54,6.47-.84a.83.83,0,0,0,.75-1.11Q273.51,251.28,267.36,232.58ZM260.56,258c.75-7.77,1.52-16.23,1.7-18.39a.42.42,0,0,1,.81-.07q2.4,8.9,5,17.75Q264.33,257.69,260.56,258Z"/><path class="cls-7" d="M301.63,231.15a14,14,0,0,0-12-2.68q-4.15.83-8.32,1.51a1.09,1.09,0,0,0-.9,1.24q3,18.76,6.07,37.55a1.17,1.17,0,0,0,1.4.86c2.83-.47,5.67-1,8.49-1.53,5.81-1.13,9.87-3.86,12.06-8s2.4-9.44.75-15.86C307.6,238.21,305.05,233.88,301.63,231.15Zm-.46,25.78c-.94,2.54-3,4.14-6,4.73l-1.21.24-5.07-26.71,1.69-.32c5-1,8.5,2.78,10.5,11.54C302.07,250.88,302.13,254.39,301.17,256.93Z"/><path class="cls-7" d="M185.32,34.24a8.39,8.39,0,0,0-5.89-2.08,2.56,2.56,0,0,0-.05-.27,6.93,6.93,0,0,0,3.91-3.68,9.87,9.87,0,0,0,.58-6.05c-.64-3.48-2.18-5.83-4.67-7S173,13.92,168.25,15q-4.49,1.05-8.94,2.25a1.17,1.17,0,0,0-.94,1.36q5,18.35,10,36.71a1.1,1.1,0,0,0,1.34.75q4.77-1.28,9.57-2.37A11.29,11.29,0,0,0,186.63,49c1.57-2.4,2.07-5.39,1.42-9A10.52,10.52,0,0,0,185.32,34.24ZM167.63,21.83l2-.48a5.88,5.88,0,0,1,4.11.17,4.48,4.48,0,0,1,2,3.24,5.72,5.72,0,0,1-.26,3.91c-.51,1-1.63,1.65-3.33,2l-2.27.54Zm12.09,23.64a4.54,4.54,0,0,1-3.23,2.2l-2.46.58q-1.32-5.46-2.65-10.93l2.45-.58c3.35-.77,5.4.64,6.14,4.15A6.86,6.86,0,0,1,179.72,45.47Z"/><path class="cls-7" d="M197.64,50.27c5.33-.81,10.69-1.45,16.05-1.93a1.08,1.08,0,0,0,1-1.16c-.12-1.46-.25-2.92-.37-4.38a1.08,1.08,0,0,0-1.2-1q-4.94.44-9.86,1.05-.7-5.52-1.4-11c2.67-.34,5.34-.63,8-.89a1.13,1.13,0,0,0,1.06-1.18c-.13-1.44-.27-2.88-.4-4.32a1.14,1.14,0,0,0-1.28-1c-2.74.27-5.47.57-8.2.92l-1.2-9.49q5.43-.69,10.88-1.17a1.15,1.15,0,0,0,1.13-1.17l-.36-4.3a1.16,1.16,0,0,0-1.34-1q-9.28.81-18.54,2.22a1.16,1.16,0,0,0-1.07,1.25q2.93,18.8,5.86,37.58A1.09,1.09,0,0,0,197.64,50.27Z"/><path class="cls-7" d="M251.84,47.8c1.8.11,3.59.23,5.38.38a1.09,1.09,0,0,0,1.17-1l1.23-14.52,2.85.26q2.53,7.77,4.71,15.56a1.11,1.11,0,0,0,.92.79q3,.38,6.07.82a.82.82,0,0,0,.91-1q-2.41-8.7-5.3-17.36c3.91-1.55,6.29-4.77,7-9.8.57-4-.12-7.12-2.13-9.36s-5.45-3.66-10.27-4.11c-3.38-.32-6.77-.58-10.15-.78a1.17,1.17,0,0,0-1.31,1q-1.05,19-2.11,38A1.09,1.09,0,0,0,251.84,47.8Zm9.31-33.13,2.13.18a6.08,6.08,0,0,1,4.17,1.73c.83,1,1.12,2.47.89,4.51a6.78,6.78,0,0,1-1.76,4.3,5.3,5.3,0,0,1-4.31,1.07l-2.1-.18Q260.66,20.48,261.15,14.67Z"/><path class="cls-7" d="M281.28,51.26c2.47.43,4.94.91,7.4,1.41,5.05,1,9.27.28,12.86-2.43s6.32-7.21,8.07-13.61c1.64-6,1.51-11.07-.56-15.17s-5.83-6.79-11.21-7.92q-4.79-1-9.59-1.85a1.16,1.16,0,0,0-1.42.84Q283.61,31.27,280.39,50A1.09,1.09,0,0,0,281.28,51.26Zm13.07-31.85,1.86.39c5.59,1.17,7.3,6.24,5.18,15-1.07,4.45-2.55,7.62-4.4,9.53a7,7,0,0,1-6.93,2l-1.1-.22Q291.65,32.73,294.35,19.41Z"/><path class="cls-7" d="M238,7.81A1.25,1.25,0,0,0,236.74,7q-5,0-9.89.16a1.23,1.23,0,0,0-1.19.85q-3.87,19.42-6.57,38.92a.81.81,0,0,0,.85.95c1.88-.12,3.76-.22,5.65-.3a1.08,1.08,0,0,0,1-.87c0-.36.42-3.39,1-7.47,3.13-.11,6.25-.15,9.38-.15.41,2.48.83,5,1.22,7.43a1.1,1.1,0,0,0,1.05.85c1.9,0,3.79.06,5.68.12a.8.8,0,0,0,.82-1Q242.45,27.12,238,7.81Zm-9.41,24.76c1.12-7.72,2.4-16.12,2.94-18.25a.47.47,0,0,1,.89,0q1.84,9.07,3.45,18.16C233.39,32.46,231,32.5,228.54,32.57Z"/><path class="cls-18" d="M177.41,227.25q-3.89-.85-7.76-1.83a1.09,1.09,0,0,0-1.32.77q-4.71,18.44-9.4,36.86a1.16,1.16,0,0,0,.94,1.35q5.49,1.37,11,2.55c3.87.82,7.13.38,9.7-1.24s4.15-4.26,4.77-7.85a10.65,10.65,0,0,0-.59-6.41,8.92,8.92,0,0,0-4.69-4.12,2,2,0,0,1,0-.26,6.5,6.5,0,0,0,4.9-2,10,10,0,0,0,2.6-5.47c.6-3.49.07-6.19-1.56-8.14S181.55,228.16,177.41,227.25Zm-.32,28.32a6.4,6.4,0,0,1-2.14,4.09,5,5,0,0,1-4.16.58l-2.7-.6,2.49-11,2.48.56C176.44,250,177.79,252.05,177.09,255.57Zm2.59-16.46a5.91,5.91,0,0,1-1.76,3.48,4.28,4.28,0,0,1-3.75.49l-2.21-.49,2.16-9.46,1.84.42a5.24,5.24,0,0,1,3.31,1.81A4.81,4.81,0,0,1,179.68,239.11Z"/><path class="cls-18" d="M211.53,255.19c3.91-1.7,6-5.14,6.3-10.2.26-4-.57-7.07-2.43-9.18s-4.84-3.33-9-3.79q-4.38-.48-8.74-1.1a1.07,1.07,0,0,0-1.23.9q-2.76,18.83-5.53,37.64a1.16,1.16,0,0,0,1.08,1.23c2,.3,4.09.57,6.13.82a1.17,1.17,0,0,0,1.36-.92q.87-7.23,1.72-14.46l2.92.33q2.52,7.8,5.38,15.56a1.25,1.25,0,0,0,1.09.77q3.5.29,7,.5a.82.82,0,0,0,.91-1.08Q214.78,263.74,211.53,255.19Zm-1.67-10.61a6.81,6.81,0,0,1-1.65,4.33c-.91.92-2.32,1.28-4.21,1.07l-2.06-.24q.69-5.78,1.37-11.57l1.93.22A5.35,5.35,0,0,1,209,240.1C209.76,241.05,210.05,242.54,209.86,244.58Z"/><path class="cls-18" d="M244.1,267.22c-3.62.09-7.23.11-10.85.07l.12-11.13q4.06,0,8.15,0a1.13,1.13,0,0,0,1.15-1.1c0-1.44-.07-2.89-.1-4.34a1.11,1.11,0,0,0-1.17-1c-2.65,0-5.31.06-8,0l.09-9.57c3.3,0,6.6,0,9.89-.07a1.09,1.09,0,0,0,1.08-1.1l-.12-4.31a1.08,1.08,0,0,0-1.12-1q-8.06.19-16.13-.08a1.08,1.08,0,0,0-1.12,1l-1.44,38a1.16,1.16,0,0,0,1.2,1.11q9.24.31,18.49.08a1.15,1.15,0,0,0,1.21-1.1c0-1.47-.08-2.93-.13-4.4A1.14,1.14,0,0,0,244.1,267.22Z"/><path class="cls-18" d="M267.36,232.58a1.08,1.08,0,0,0-1.14-.7q-4.25.47-8.51.8a1.1,1.1,0,0,0-1,.89q-2.55,19.52-6.22,39a.84.84,0,0,0,.95.95c2.15-.1,4.31-.22,6.46-.37a1.21,1.21,0,0,0,1.15-.91c.11-.36.44-3.41.85-7.53,3.37-.25,6.73-.57,10.09-.94q1.1,3.61,2.22,7.23a1.21,1.21,0,0,0,1.3.69c2.16-.26,4.31-.54,6.47-.84a.83.83,0,0,0,.75-1.11Q273.51,251.28,267.36,232.58ZM260.56,258c.75-7.77,1.52-16.23,1.7-18.39a.42.42,0,0,1,.81-.07q2.4,8.9,5,17.75Q264.33,257.69,260.56,258Z"/><path class="cls-18" d="M301.63,231.15a14,14,0,0,0-12-2.68q-4.15.83-8.32,1.51a1.09,1.09,0,0,0-.9,1.24q3,18.76,6.07,37.55a1.17,1.17,0,0,0,1.4.86c2.83-.47,5.67-1,8.49-1.53,5.81-1.13,9.87-3.86,12.06-8s2.4-9.44.75-15.86C307.6,238.21,305.05,233.88,301.63,231.15Zm-.46,25.78c-.94,2.54-3,4.14-6,4.73l-1.21.24-5.07-26.71,1.69-.32c5-1,8.5,2.78,10.5,11.54C302.07,250.88,302.13,254.39,301.17,256.93Z"/><path class="cls-19" d="M185.32,34.24a8.39,8.39,0,0,0-5.89-2.08,2.56,2.56,0,0,0-.05-.27,6.93,6.93,0,0,0,3.91-3.68,9.87,9.87,0,0,0,.58-6.05c-.64-3.48-2.18-5.83-4.67-7S173,13.92,168.25,15q-4.49,1.05-8.94,2.25a1.17,1.17,0,0,0-.94,1.36q5,18.35,10,36.71a1.1,1.1,0,0,0,1.34.75q4.77-1.28,9.57-2.37A11.29,11.29,0,0,0,186.63,49c1.57-2.4,2.07-5.39,1.42-9A10.52,10.52,0,0,0,185.32,34.24ZM167.63,21.83l2-.48a5.88,5.88,0,0,1,4.11.17,4.48,4.48,0,0,1,2,3.24,5.72,5.72,0,0,1-.26,3.91c-.51,1-1.63,1.65-3.33,2l-2.27.54Zm12.09,23.64a4.54,4.54,0,0,1-3.23,2.2l-2.46.58q-1.32-5.46-2.65-10.93l2.45-.58c3.35-.77,5.4.64,6.14,4.15A6.86,6.86,0,0,1,179.72,45.47Z"/><path class="cls-19" d="M197.64,50.27c5.33-.81,10.69-1.45,16.05-1.93a1.08,1.08,0,0,0,1-1.16c-.12-1.46-.25-2.92-.37-4.38a1.08,1.08,0,0,0-1.2-1q-4.94.44-9.86,1.05-.7-5.52-1.4-11c2.67-.34,5.34-.63,8-.89a1.13,1.13,0,0,0,1.06-1.18c-.13-1.44-.27-2.88-.4-4.32a1.14,1.14,0,0,0-1.28-1c-2.74.27-5.47.57-8.2.92l-1.2-9.49q5.43-.69,10.88-1.17a1.15,1.15,0,0,0,1.13-1.17l-.36-4.3a1.16,1.16,0,0,0-1.34-1q-9.28.81-18.54,2.22a1.16,1.16,0,0,0-1.07,1.25q2.93,18.8,5.86,37.58A1.09,1.09,0,0,0,197.64,50.27Z"/><path class="cls-19" d="M251.84,47.8c1.8.11,3.59.23,5.38.38a1.09,1.09,0,0,0,1.17-1l1.23-14.52,2.85.26q2.53,7.77,4.71,15.56a1.11,1.11,0,0,0,.92.79q3,.38,6.07.82a.82.82,0,0,0,.91-1q-2.41-8.7-5.3-17.36c3.91-1.55,6.29-4.77,7-9.8.57-4-.12-7.12-2.13-9.36s-5.45-3.66-10.27-4.11c-3.38-.32-6.77-.58-10.15-.78a1.17,1.17,0,0,0-1.31,1q-1.05,19-2.11,38A1.09,1.09,0,0,0,251.84,47.8Zm9.31-33.13,2.13.18a6.08,6.08,0,0,1,4.17,1.73c.83,1,1.12,2.47.89,4.51a6.78,6.78,0,0,1-1.76,4.3,5.3,5.3,0,0,1-4.31,1.07l-2.1-.18Q260.66,20.48,261.15,14.67Z"/><path class="cls-19" d="M281.28,51.26c2.47.43,4.94.91,7.4,1.41,5.05,1,9.27.28,12.86-2.43s6.32-7.21,8.07-13.61c1.64-6,1.51-11.07-.56-15.17s-5.83-6.79-11.21-7.92q-4.79-1-9.59-1.85a1.16,1.16,0,0,0-1.42.84Q283.61,31.27,280.39,50A1.09,1.09,0,0,0,281.28,51.26Zm13.07-31.85,1.86.39c5.59,1.17,7.3,6.24,5.18,15-1.07,4.45-2.55,7.62-4.4,9.53a7,7,0,0,1-6.93,2l-1.1-.22Q291.65,32.73,294.35,19.41Z"/><path class="cls-18" d="M238,7.81A1.25,1.25,0,0,0,236.74,7q-5,0-9.89.16a1.23,1.23,0,0,0-1.19.85q-3.87,19.42-6.57,38.92a.81.81,0,0,0,.85.95c1.88-.12,3.76-.22,5.65-.3a1.08,1.08,0,0,0,1-.87c0-.36.42-3.39,1-7.47,3.13-.11,6.25-.15,9.38-.15.41,2.48.83,5,1.22,7.43a1.1,1.1,0,0,0,1.05.85c1.9,0,3.79.06,5.68.12a.8.8,0,0,0,.82-1Q242.45,27.12,238,7.81Zm-9.41,24.76c1.12-7.72,2.4-16.12,2.94-18.25a.47.47,0,0,1,.89,0q1.84,9.07,3.45,18.16C233.39,32.46,231,32.5,228.54,32.57Z"/><path class="cls-20" d="M169.38,225.39l.27,0q3.87,1,7.76,1.83c4.14.91,7,2.28,8.63,4.23s2.16,4.65,1.56,8.14a10,10,0,0,1-2.6,5.47,6.47,6.47,0,0,1-4.74,2h-.16a2,2,0,0,0,0,.26,8.88,8.88,0,0,1,4.69,4.12,10.65,10.65,0,0,1,.59,6.41c-.62,3.59-2.18,6.22-4.77,7.85a11.12,11.12,0,0,1-6.07,1.64,17.6,17.6,0,0,1-3.63-.4q-5.51-1.18-11-2.55a1.16,1.16,0,0,1-.94-1.35q4.69-18.42,9.4-36.86a1.07,1.07,0,0,1,1-.8m6.35,17.88a3.37,3.37,0,0,0,2.19-.68,5.91,5.91,0,0,0,1.76-3.48,4.81,4.81,0,0,0-.41-3.75,5.24,5.24,0,0,0-3.31-1.81l-1.84-.42L172,242.59l2.21.49a6.9,6.9,0,0,0,1.56.19m-3.34,17.15a4.2,4.2,0,0,0,2.56-.76,6.4,6.4,0,0,0,2.14-4.09c.7-3.52-.65-5.61-4-6.34l-2.48-.56-2.49,11,2.7.6a7.76,7.76,0,0,0,1.6.18m-3-36.28a2.34,2.34,0,0,0-2.27,1.74L161.23,249l-3.52,13.79a2.26,2.26,0,0,0,.26,1.7,2.56,2.56,0,0,0,1.6,1.17c3.64.92,7.36,1.78,11,2.56a18.67,18.67,0,0,0,3.89.43,12.4,12.4,0,0,0,6.74-1.83c2.86-1.8,4.65-4.73,5.33-8.7a11.83,11.83,0,0,0-.69-7.15,8.61,8.61,0,0,0-2.62-3.16,8,8,0,0,0,2.64-1.79,11.16,11.16,0,0,0,2.94-6.14c.66-3.82,0-6.9-1.82-9.15s-4.84-3.67-9.33-4.65c-2.58-.57-5.17-1.18-7.73-1.82a2.17,2.17,0,0,0-.57-.07Zm4.09,17.5.15-.68,1.44-6.33.64.14a4.09,4.09,0,0,1,2.54,1.31,3.93,3.93,0,0,1,.21,2.78,4.72,4.72,0,0,1-1.32,2.76,2.22,2.22,0,0,1-1.4.4,6.47,6.47,0,0,1-1.3-.16l-1-.22Zm-3.88,17.05,1-4.3,1-4.22,1.27.28c2.71.59,3.62,2.05,3.06,4.88a5.31,5.31,0,0,1-1.65,3.32,3,3,0,0,1-1.82.52,6.09,6.09,0,0,1-1.34-.16l-1.46-.32Z"/><path class="cls-20" d="M197.49,230.91h.16q4.36.62,8.74,1.1c4.17.46,7.15,1.68,9,3.79s2.69,5.16,2.43,9.18c-.33,5.06-2.39,8.5-6.3,10.2q3.25,8.55,6.94,17a.81.81,0,0,1-.85,1.08h-.06q-3.5-.21-7-.5a1.25,1.25,0,0,1-1.09-.77q-2.86-7.75-5.38-15.56l-2.92-.33q-.85,7.23-1.72,14.46a1.13,1.13,0,0,1-1.18.93h-.18c-2-.25-4.09-.52-6.13-.82a1.16,1.16,0,0,1-1.08-1.23q2.76-18.82,5.53-37.64a1.08,1.08,0,0,1,1.07-.91M205,250a4.35,4.35,0,0,0,3.22-1.13,6.81,6.81,0,0,0,1.65-4.33c.19-2-.1-3.53-.86-4.48a5.35,5.35,0,0,0-3.76-1.71l-1.93-.22q-.69,5.79-1.37,11.57L204,250a8.74,8.74,0,0,0,1,.06m-7.5-20.39a2.34,2.34,0,0,0-2.31,2l-2.68,18.23-2.85,19.4a2.24,2.24,0,0,0,.44,1.67,2.59,2.59,0,0,0,1.7,1c2,.29,4.11.56,6.16.81a1.83,1.83,0,0,0,.33,0,2.39,2.39,0,0,0,2.43-2l.88-7.43.69-5.79.88.1c1.61,4.94,3.33,9.93,5.14,14.84a2.55,2.55,0,0,0,2.17,1.58c2.32.19,4.68.36,7,.5h.14a2.16,2.16,0,0,0,1.84-1,1.93,1.93,0,0,0,.16-1.86c-2.28-5.24-4.47-10.58-6.51-15.9,3.63-2,5.64-5.62,6-10.74.28-4.31-.64-7.71-2.74-10.09s-5.27-3.71-9.81-4.2c-2.89-.32-5.82-.69-8.71-1.1a1.84,1.84,0,0,0-.33,0Zm5.84,19,.95-8,.13-1.07.69.08a4.2,4.2,0,0,1,2.92,1.24,5.19,5.19,0,0,1,.59,3.59,5.69,5.69,0,0,1-1.28,3.56,3.22,3.22,0,0,1-2.34.75,6.43,6.43,0,0,1-.85-.05l-.81-.09Z"/><path class="cls-20" d="M227.09,233.51h0q4.65.17,9.3.16,3.42,0,6.83-.08h0a1.09,1.09,0,0,1,1.09,1l.12,4.31a1.09,1.09,0,0,1-1.08,1.1c-2.33.06-4.65.09-7,.09l-2.91,0-.09,9.57h3c1.65,0,3.31,0,5,0h0a1.11,1.11,0,0,1,1.14,1c0,1.45.06,2.9.1,4.34a1.13,1.13,0,0,1-1.15,1.1c-1.7,0-3.39,0-5.08,0l-3.07,0-.12,11.13c1.06,0,2.12,0,3.18,0,2.56,0,5.11,0,7.67-.09h0a1.13,1.13,0,0,1,1.21,1c0,1.47.09,2.93.13,4.4a1.15,1.15,0,0,1-1.21,1.1q-3.91.11-7.83.1c-3.55,0-7.11-.06-10.66-.18a1.16,1.16,0,0,1-1.2-1.11l1.44-38a1.08,1.08,0,0,1,1.08-1m0-1.25h0a2.31,2.31,0,0,0-2.33,2.24l-.8,21.2-.64,16.81a2.23,2.23,0,0,0,.61,1.61,2.55,2.55,0,0,0,1.8.8c3.55.12,7.15.18,10.7.18,2.61,0,5.26,0,7.86-.09a2.63,2.63,0,0,0,1.81-.79,2.21,2.21,0,0,0,.62-1.61l-.06-2.19-.06-2.2a2.39,2.39,0,0,0-2.47-2.26h-.06c-2.54.07-5.11.1-7.64.1h-1.91l.09-8.62h1.83c1.69,0,3.4,0,5.1,0a2.48,2.48,0,0,0,1.74-.75,2.29,2.29,0,0,0,.64-1.62l-.09-4.35a2.38,2.38,0,0,0-2.4-2.27c-1.69,0-3.35,0-5,0H234.7l.07-7.06h1.67c2.33,0,4.69,0,7-.08a2.39,2.39,0,0,0,1.67-.74,2.32,2.32,0,0,0,.63-1.66l-.06-2.15-.06-2.16a2.33,2.33,0,0,0-2.34-2.26h-.06c-2.25.06-4.54.09-6.8.09-3.07,0-6.18-.06-9.25-.16Z"/><path class="cls-20" d="M266.34,231.88a1.08,1.08,0,0,1,1,.7q6.15,18.69,13.38,37.13a.83.83,0,0,1-.75,1.11c-2.16.3-4.31.58-6.47.84h-.17a1.2,1.2,0,0,1-1.13-.7q-1.12-3.62-2.22-7.23c-3.36.37-6.72.69-10.09.94-.41,4.12-.74,7.17-.85,7.53a1.21,1.21,0,0,1-1.15.91c-2.15.15-4.31.27-6.46.37h-.06a.82.82,0,0,1-.89-.95q3.67-19.46,6.22-39a1.1,1.1,0,0,1,1-.89q4.26-.33,8.51-.8h.12M260.56,258q3.76-.3,7.53-.71-2.61-8.85-5-17.75a.4.4,0,0,0-.39-.29.41.41,0,0,0-.42.36c-.18,2.16-.95,10.62-1.7,18.39m5.78-27.37-.25,0c-2.81.3-5.66.57-8.48.79a2.32,2.32,0,0,0-2.12,1.93.07.07,0,0,0,0,0c-1.69,12.93-3.78,26-6.21,38.87a2,2,0,0,0,.38,1.65,2.25,2.25,0,0,0,1.74.82h.12c2.14-.11,4.32-.23,6.49-.38a2.45,2.45,0,0,0,2.28-1.87c.07-.25.2-1,.77-6.65,2.64-.21,5.34-.46,8.06-.75.68,2.24,1.31,4.29,1.92,6.24a.24.24,0,0,0,0,.08,2.44,2.44,0,0,0,2.3,1.5,1.72,1.72,0,0,0,.32,0c2.16-.25,4.34-.54,6.49-.84a2.23,2.23,0,0,0,1.65-1.1,2,2,0,0,0,.09-1.73c-4.78-12.18-9.28-24.64-13.35-37a.08.08,0,0,0,0-.05,2.35,2.35,0,0,0-2.19-1.52Zm-4.39,26c.42-4.43.84-8.94,1.14-12.26,1.07,3.85,2.2,7.81,3.37,11.83-1.51.16-3,.3-4.51.43Z"/><path class="cls-20" d="M293,228.12a13.43,13.43,0,0,1,8.6,3c3.42,2.73,6,7.06,7.51,13.1,1.65,6.42,1.45,11.72-.75,15.86s-6.25,6.86-12.06,8c-2.82.55-5.66,1.06-8.49,1.52a1,1,0,0,1-.24,0,1.12,1.12,0,0,1-1.16-.87q-3-18.78-6.07-37.55a1.09,1.09,0,0,1,.9-1.24q4.17-.69,8.32-1.51a18.17,18.17,0,0,1,3.44-.35m.91,33.78,1.21-.24c3.06-.59,5.08-2.19,6-4.73s.9-6.05-.11-10.51c-1.79-7.86-4.78-11.71-9-11.71a7.25,7.25,0,0,0-1.51.16l-1.69.32,5.07,26.71m-.91-35a18.4,18.4,0,0,0-3.68.38c-2.74.54-5.53,1-8.28,1.5a2.35,2.35,0,0,0-1.94,2.67l2.69,16.65L285.2,269a2.37,2.37,0,0,0,2.4,1.93,2.12,2.12,0,0,0,.44,0c2.84-.47,5.71-1,8.53-1.53,6.17-1.2,10.52-4.11,12.93-8.64,2.3-4.33,2.59-10,.86-16.75-1.59-6.2-4.26-10.83-7.95-13.77a14.75,14.75,0,0,0-9.38-3.3Zm-2.69,9.32.46-.09a6.41,6.41,0,0,1,1.27-.14c3.53,0,6.15,3.61,7.77,10.73,1,4.23,1,7.53.16,9.8a6.15,6.15,0,0,1-5.06,3.94l-2.16-11.38-2.44-12.86Z"/><path class="cls-20" d="M174.33,14.25a11.47,11.47,0,0,1,4.87.92c2.49,1.16,4,3.51,4.67,7a9.87,9.87,0,0,1-.58,6.05,6.93,6.93,0,0,1-3.91,3.68,2.56,2.56,0,0,1,.05.27,8.39,8.39,0,0,1,5.89,2.08,10.52,10.52,0,0,1,2.73,5.81c.65,3.59.15,6.58-1.42,9a11.29,11.29,0,0,1-7.38,4.71q-4.8,1.09-9.57,2.37a1.43,1.43,0,0,1-.29,0,1.08,1.08,0,0,1-1-.78q-5-18.36-10-36.71a1.17,1.17,0,0,1,.94-1.36q4.45-1.2,8.94-2.25a27.2,27.2,0,0,1,6.08-.79m-4.42,17,2.27-.54c1.7-.4,2.82-1.07,3.33-2a5.72,5.72,0,0,0,.26-3.91,4.48,4.48,0,0,0-2-3.24,4.32,4.32,0,0,0-2-.44,9.21,9.21,0,0,0-2.08.27l-2,.48,2.28,9.43m4.12,17,2.46-.58a4.54,4.54,0,0,0,3.23-2.2,6.86,6.86,0,0,0,.25-4.58c-.61-2.88-2.11-4.35-4.48-4.35a7.21,7.21,0,0,0-1.66.2l-2.45.58Q172.7,42.8,174,48.25m.3-35.25a28.73,28.73,0,0,0-6.36.82c-3,.71-6,1.46-9,2.26a2.61,2.61,0,0,0-1.59,1.2,2.21,2.21,0,0,0-.23,1.7l4.77,17.56,5.21,19.14a2.33,2.33,0,0,0,2.25,1.72,2.49,2.49,0,0,0,.61-.08c3.15-.84,6.35-1.63,9.53-2.35a12.61,12.61,0,0,0,8.14-5.25c1.77-2.7,2.31-6,1.61-9.89a11.81,11.81,0,0,0-3.08-6.49,8.31,8.31,0,0,0-3.61-2,8.44,8.44,0,0,0,1.84-2.6,11.17,11.17,0,0,0,.67-6.8c-.72-3.91-2.53-6.56-5.37-7.89a12.75,12.75,0,0,0-5.4-1Zm-5.19,9.76.81-.19a7.91,7.91,0,0,1,1.8-.24,3,3,0,0,1,1.44.3A3.36,3.36,0,0,1,174.54,25a4.59,4.59,0,0,1-.13,3.06,3.65,3.65,0,0,1-2.51,1.42l-1.06.25L169.69,25l-.55-2.25Zm3.75,15.49,1.22-.29a6.49,6.49,0,0,1,1.38-.17c1.18,0,2.62.38,3.25,3.36a5.72,5.72,0,0,1-.13,3.74,3.33,3.33,0,0,1-2.4,1.55l-1.26.3-1.37-5.67-.69-2.82Z"/><path class="cls-20" d="M210.29,8.31a1.14,1.14,0,0,1,1.2,1l.36,4.3a1.15,1.15,0,0,1-1.13,1.17q-5.44.48-10.88,1.17l1.2,9.49c2.73-.35,5.46-.65,8.2-.92h.13a1.11,1.11,0,0,1,1.15,1c.13,1.44.27,2.88.4,4.32A1.13,1.13,0,0,1,209.86,31c-2.67.26-5.34.55-8,.89q.71,5.52,1.4,11,4.92-.62,9.86-1.05h.11a1.09,1.09,0,0,1,1.09,1c.12,1.46.25,2.92.37,4.38a1.08,1.08,0,0,1-1,1.16c-5.36.48-10.72,1.12-16.05,1.93h-.17a1.08,1.08,0,0,1-1.07-.91q-2.93-18.78-5.86-37.58a1.16,1.16,0,0,1,1.07-1.25q9.24-1.39,18.54-2.22h.14m0-1.25H210c-6.2.55-12.46,1.3-18.62,2.23a2.65,2.65,0,0,0-1.71,1A2.23,2.23,0,0,0,189.3,12l2.92,18.7,2.94,18.88a2.32,2.32,0,0,0,2.31,2l.36,0c5.27-.81,10.65-1.45,16-1.92a2.33,2.33,0,0,0,2.13-2.51l-.07-.84-.3-3.55a2.32,2.32,0,0,0-2.34-2.12H213c-2.89.25-5.8.56-8.67.91l-.62-5-.46-3.61c2.23-.27,4.49-.52,6.73-.73a2.39,2.39,0,0,0,2.19-2.54L212,27.45l-.19-2.12a2.37,2.37,0,0,0-2.4-2.1l-.25,0c-2.32.22-4.66.48-7,.76l-.45-3.5-.44-3.5c3.18-.39,6.4-.73,9.59-1a2.42,2.42,0,0,0,2.27-2.53l-.33-3.92,0-.38a2.38,2.38,0,0,0-2.45-2.11Z"/><path class="cls-20" d="M254.15,7.69h.09c3.38.2,6.77.46,10.15.78,4.82.45,8.26,1.87,10.27,4.11s2.7,5.37,2.13,9.36c-.72,5-3.1,8.25-7,9.8q2.88,8.65,5.3,17.36a.81.81,0,0,1-.79,1h-.12q-3-.45-6.07-.82a1.11,1.11,0,0,1-.92-.79q-2.18-7.8-4.71-15.56l-2.85-.26L258.39,47.2a1.07,1.07,0,0,1-1.08,1h-.09c-1.79-.15-3.58-.27-5.38-.38a1.09,1.09,0,0,1-1-1.13q1.05-19,2.11-38a1.15,1.15,0,0,1,1.22-1m9,18.82a4.72,4.72,0,0,0,3.38-1.12,6.78,6.78,0,0,0,1.76-4.3c.23-2-.06-3.54-.89-4.51a6.08,6.08,0,0,0-4.17-1.73l-2.13-.18q-.48,5.8-1,11.61l2.1.18c.32,0,.63.05.93.05m-9-20.08a2.4,2.4,0,0,0-2.47,2.19l-1.1,19.82-1,18.16a2.34,2.34,0,0,0,2.2,2.45c1.79.11,3.59.23,5.35.38h.19a2.31,2.31,0,0,0,2.33-2.13l.62-7.25.51-6,.77.07C263.12,39,264.61,44,266,48.84a2.33,2.33,0,0,0,2,1.69c2,.25,4,.52,6,.82l.3,0a2.07,2.07,0,0,0,1.65-.81,2,2,0,0,0,.34-1.79c-1.5-5.44-3.17-10.94-4.95-16.35,3.73-1.88,6-5.34,6.7-10.3.63-4.39-.19-7.88-2.44-10.38s-6-4-11.08-4.52c-3.38-.31-6.81-.58-10.2-.78Zm7.37,18.71L262.3,16l.87.08a4.89,4.89,0,0,1,3.33,1.3c.58.68.79,1.87.6,3.55a5.65,5.65,0,0,1-1.39,3.53,3.51,3.51,0,0,1-2.51.77l-.81,0-.87-.08Z"/><path class="cls-20" d="M288,11.66l.26,0q4.8.84,9.59,1.85c5.38,1.13,9.16,3.84,11.21,7.92s2.2,9.16.56,15.17c-1.75,6.4-4.48,10.9-8.07,13.61a14.06,14.06,0,0,1-8.74,2.88,20.19,20.19,0,0,1-4.12-.45c-2.46-.5-4.93-1-7.4-1.41a1.09,1.09,0,0,1-.89-1.24q3.21-18.75,6.44-37.49a1.12,1.12,0,0,1,1.16-.87m3.95,34.82A6.77,6.77,0,0,0,297,44.29c1.85-1.91,3.33-5.08,4.4-9.53,2.12-8.72.41-13.79-5.18-15l-1.86-.39q-2.7,13.32-5.39,26.65l1.1.22a8.92,8.92,0,0,0,1.88.2M288,10.41a2.37,2.37,0,0,0-2.4,1.91l-5.2,30.27-1.24,7.21a2.34,2.34,0,0,0,1.91,2.69c2.46.44,4.94.91,7.37,1.41a21.28,21.28,0,0,0,4.37.47,15.44,15.44,0,0,0,9.5-3.13c3.87-2.92,6.73-7.73,8.52-14.28,1.73-6.36,1.52-11.77-.65-16.06-2.25-4.49-6.32-7.38-12.07-8.59-3.2-.67-6.44-1.3-9.64-1.86a3.57,3.57,0,0,0-.47,0Zm2.45,34.67,2.77-13.75,2.11-10.44L296,21a5.78,5.78,0,0,1,3.94,2.53c1.4,2.23,1.5,5.9.28,10.91-1,4.18-2.37,7.2-4.08,9a5.54,5.54,0,0,1-4.15,1.81,7.94,7.94,0,0,1-1.5-.15Z"/><path class="cls-20" d="M236.44,7h.3a1.25,1.25,0,0,1,1.21.82q4.5,19.29,7.8,38.7a.8.8,0,0,1-.79,1h0c-1.89-.06-3.78-.1-5.68-.12a1.1,1.1,0,0,1-1.05-.85c-.39-2.48-.81-4.95-1.22-7.43h-.59q-4.39,0-8.79.15c-.57,4.08-1,7.11-1,7.47a1.08,1.08,0,0,1-1,.87c-1.89.08-3.77.18-5.65.3h-.05a.81.81,0,0,1-.8-.95Q221.77,27.44,225.66,8a1.23,1.23,0,0,1,1.19-.85c3.19-.1,6.39-.16,9.59-.16m-7.9,25.58c2.43-.07,4.85-.11,7.28-.11q-1.62-9.09-3.45-18.16a.43.43,0,0,0-.44-.31.44.44,0,0,0-.45.33c-.54,2.13-1.82,10.53-2.94,18.25m7.9-26.83c-3.2,0-6.44,0-9.63.16a2.46,2.46,0,0,0-2.36,1.8.13.13,0,0,0,0,.06c-2.58,12.9-4.8,26-6.59,39a2,2,0,0,0,.45,1.63,2.06,2.06,0,0,0,1.59.74H220c1.86-.12,3.75-.22,5.62-.3a2.33,2.33,0,0,0,2.2-1.89.77.77,0,0,0,0-.15c0-.25.29-2.36.84-6.34,2.36-.06,4.79-.1,7.22-.1.38,2.29.73,4.38,1,6.37a.64.64,0,0,1,0,.07,2.33,2.33,0,0,0,2.26,1.83c1.86,0,3.76.06,5.65.12H245a2.05,2.05,0,0,0,2-2.45c-2.21-12.9-4.84-25.94-7.82-38.75l0-.06a2.46,2.46,0,0,0-2.41-1.73ZM230,31.28c.78-5.42,1.45-9.76,1.95-12.71.8,4.1,1.6,8.33,2.37,12.64-1.44,0-2.89,0-4.32.07Z"/><g class="cls-21"><g class="cls-4"><path class="cls-20" d="M174.5,269.85a18.31,18.31,0,0,1-3.85-.43c-3.67-.78-7.38-1.64-11-2.55a2.38,2.38,0,0,1-1.46-1.07,2,2,0,0,1-.23-1.53l9.4-36.86a2.11,2.11,0,0,1,2.57-1.51c2.55.64,5.15,1.25,7.73,1.82h0c4.44,1,7.45,2.47,9.2,4.58s2.43,5.21,1.78,9a11.07,11.07,0,0,1-2.88,6,7.73,7.73,0,0,1-2.95,1.88,8.57,8.57,0,0,1,2.89,3.32,11.65,11.65,0,0,1,.67,7c-.67,3.9-2.43,6.78-5.23,8.54A12.15,12.15,0,0,1,174.5,269.85Zm-14.57-5.07a.62.62,0,0,0,.19.09c3.62.91,7.31,1.77,11,2.54s6.57.39,8.94-1.1,3.72-3.8,4.29-7.15a9.63,9.63,0,0,0-.5-5.8,7.86,7.86,0,0,0-4.18-3.61,1,1,0,0,1-.59-1.14l.05-.27a1,1,0,0,1,1-.83,5.42,5.42,0,0,0,4.15-1.67,9,9,0,0,0,2.31-4.92c.55-3.14.1-5.6-1.32-7.31s-4.09-3-8.07-3.88h0c-2.6-.57-5.22-1.19-7.79-1.84a.07.07,0,0,0-.08,0l-9.4,36.86Zm12.47-1.85a8.57,8.57,0,0,1-1.83-.21l-2.71-.61a1,1,0,0,1-.64-.45,1,1,0,0,1-.13-.78l2.49-11a1,1,0,0,1,1.23-.77l2.47.55c4,.86,5.63,3.47,4.82,7.55h0a7.41,7.41,0,0,1-2.54,4.71A5.25,5.25,0,0,1,172.4,262.93Zm-3.08-2.6,1.69.38a4,4,0,0,0,3.33-.41,5.45,5.45,0,0,0,1.74-3.45h0c.59-3-.38-4.52-3.23-5.14l-1.49-.33Zm6.41-14.56a8.27,8.27,0,0,1-1.78-.21l-2.21-.49a1,1,0,0,1-.78-1.23l2.15-9.46a1,1,0,0,1,1.23-.78l1.85.42a6.07,6.07,0,0,1,3.92,2.23,5.72,5.72,0,0,1,.57,4.53h0a6.85,6.85,0,0,1-2.11,4.08A4.34,4.34,0,0,1,175.73,245.77Zm-2.53-2.48,1.19.26a3.4,3.4,0,0,0,2.88-.28,4.89,4.89,0,0,0,1.4-2.89,3.88,3.88,0,0,0-.25-3,4.33,4.33,0,0,0-2.68-1.4l-.85-.19Z"/><path class="cls-20" d="M217.63,275.79h-.13c-2.32-.14-4.68-.31-7-.5a2.3,2.3,0,0,1-2-1.44c-1.82-5-3.56-10-5.18-15l-1.25-.14-1.6,13.45a2,2,0,0,1-.77,1.35A2.34,2.34,0,0,1,198,274c-2.06-.25-4.13-.52-6.16-.81a2.35,2.35,0,0,1-1.55-.91,2,2,0,0,1-.39-1.5l5.52-37.63a2.12,2.12,0,0,1,2.39-1.78c2.89.42,5.82.79,8.72,1.1,4.48.5,7.64,1.85,9.66,4.14s3,5.67,2.68,9.92c-.32,5.12-2.35,8.69-6,10.65,2.06,5.38,4.27,10.79,6.59,16.09a1.75,1.75,0,0,1-.17,1.7A2,2,0,0,1,217.63,275.79Zm-16.45-19.22h.12l2.91.33a1,1,0,0,1,.87.71c1.67,5.17,3.47,10.39,5.36,15.52a.3.3,0,0,0,.21.1c2.24.18,4.5.34,6.72.48-2.4-5.51-4.68-11.12-6.8-16.69a1,1,0,0,1,.55-1.31c3.52-1.53,5.38-4.57,5.68-9.32.24-3.69-.49-6.53-2.17-8.43s-4.4-3-8.35-3.45c-2.92-.32-5.87-.7-8.78-1.11a.07.07,0,0,0-.07,0l-5.52,37.63a1.07,1.07,0,0,0,.2.07c2,.29,4.07.56,6.12.81a.28.28,0,0,0,.23,0l1.7-14.43A1,1,0,0,1,201.18,256.57Zm3.81-4a10.56,10.56,0,0,1-1.1-.06l-2.07-.24a1,1,0,0,1-.9-1.14l1.37-11.58a1,1,0,0,1,.39-.68,1,1,0,0,1,.75-.22l1.92.22a6.35,6.35,0,0,1,4.45,2.09c.95,1.18,1.3,2.89,1.08,5.22a7.84,7.84,0,0,1-1.94,5A5.4,5.4,0,0,1,205,252.54Zm-1.91-2.22,1,.11a4,4,0,0,0,3.38-.77,6,6,0,0,0,1.35-3.7h0a5.38,5.38,0,0,0-.64-3.75,4.46,4.46,0,0,0-3.08-1.32l-.91-.11Z"/><path class="cls-20" d="M236.44,276.35c-3.57,0-7.15-.06-10.7-.18a2.4,2.4,0,0,1-1.65-.73,2,2,0,0,1-.55-1.45L225,236a2.12,2.12,0,0,1,2.19-2c5.33.18,10.74.21,16.07.07a2.13,2.13,0,0,1,2.16,2l.13,4.32a2.09,2.09,0,0,1-.58,1.49,2.12,2.12,0,0,1-1.5.66c-2.95.08-5.94.1-8.9.09l-.08,7.5c2.31,0,4.63,0,6.92,0h0a2.13,2.13,0,0,1,2.17,2.05l.09,4.34a2,2,0,0,1-.58,1.47,2.25,2.25,0,0,1-1.58.68c-2.36,0-4.76.05-7.14,0l-.1,9.08c3.24,0,6.53,0,9.78-.09a2.18,2.18,0,0,1,2.3,2l.13,4.39a2,2,0,0,1-.57,1.45,2.35,2.35,0,0,1-1.64.72Q240.38,276.35,236.44,276.35Zm-10.84-2.28a1,1,0,0,0,.21.05c6.11.21,12.31.23,18.43.08a.26.26,0,0,0,.21-.08l-.13-4.36a.8.8,0,0,0-.19,0h0c-3.62.09-7.28.11-10.88.08a1.08,1.08,0,0,1-.72-.31,1,1,0,0,1-.29-.73l.11-11.13a1,1,0,0,1,1-1h0c2.7,0,5.43,0,8.12,0a.15.15,0,0,0,.14-.06l-.09-4.32a.14.14,0,0,0-.13,0c-2.64,0-5.33.06-8,0a1,1,0,0,1-1-1l.1-9.56a1,1,0,0,1,1-1h0c3.27,0,6.59,0,9.85-.07a.09.09,0,0,0,.06,0l-.11-4.33s0,0-.06,0c-5.37.13-10.82.11-16.19-.08a.06.06,0,0,0-.06.05l-1.44,38Z"/><path class="cls-20" d="M251.39,276a2,2,0,0,1-1.53-.71,1.71,1.71,0,0,1-.36-1.52c2.42-12.82,4.51-25.91,6.2-38.86a2.11,2.11,0,0,1,1.93-1.78c2.82-.22,5.68-.49,8.48-.79a2.1,2.1,0,0,1,2.21,1.35l0,0c4.07,12.41,8.57,24.88,13.36,37.08a1.68,1.68,0,0,1-.09,1.51,2,2,0,0,1-1.48,1c-2.14.29-4.33.58-6.49.83a2.22,2.22,0,0,1-2.38-1.34c-.68-2.19-1.34-4.34-2-6.48-2.84.3-5.67.57-8.42.79-.59,5.81-.73,6.57-.79,6.8a2.23,2.23,0,0,1-2.08,1.7c-2.16.15-4.35.27-6.48.37Zm.12-1.8Zm14.83-39.82h0c-2.82.31-5.7.58-8.54.8a.07.07,0,0,0-.06,0c-1.68,12.85-3.76,25.89-6.17,38.71,2.08-.1,4.19-.22,6.28-.36a.28.28,0,0,0,.21-.09.24.24,0,0,1,0-.09c0-.16.2-1.24.81-7.33a1,1,0,0,1,.94-.93c3.28-.25,6.66-.57,10.06-.94a1,1,0,0,1,1.1.72q1.08,3.58,2.19,7.16a.3.3,0,0,0,.22,0c2.09-.25,4.21-.52,6.29-.81-4.78-12.16-9.24-24.56-13.29-36.89A.06.06,0,0,0,266.34,234.38Zm13.45,37.2,0,0Zm-19.23-11.09a1,1,0,0,1-1-1.13c.74-7.74,1.51-16.19,1.69-18.37a1.45,1.45,0,0,1,2.82-.31c1.55,5.73,3.23,11.7,5,17.79a1,1,0,0,1-.13.86,1,1,0,0,1-.75.45c-2.51.27-5.05.51-7.54.71ZM263,244.58c-.31,3.43-.79,8.66-1.28,13.76,1.68-.15,3.37-.3,5.05-.48C265.43,253.34,264.17,248.89,263,244.58Z"/><path class="cls-20" d="M287.6,272.15a2.29,2.29,0,0,1-1.35-.43,2,2,0,0,1-.83-1.32l-6.06-37.54a2.12,2.12,0,0,1,1.74-2.42c2.77-.45,5.55-1,8.29-1.5a14.89,14.89,0,0,1,12.88,2.88h0c3.65,2.91,6.3,7.5,7.87,13.65,1.72,6.73,1.44,12.31-.84,16.59-2.37,4.47-6.67,7.34-12.77,8.52-2.83.55-5.7,1.06-8.53,1.53A1.75,1.75,0,0,1,287.6,272.15Zm-.14-2.08a.73.73,0,0,0,.21,0c2.81-.47,5.66-1,8.47-1.53,5.46-1.06,9.28-3.57,11.34-7.46s2.26-8.91.67-15.12c-1.46-5.71-3.87-9.93-7.16-12.56a13,13,0,0,0-11.2-2.46c-2.76.54-5.57,1-8.35,1.51,0,0-.06,0-.05.06l6.06,37.55Zm6.48-5.67a1,1,0,0,1-1-.84l-5.08-26.7a1,1,0,0,1,.82-1.2l1.68-.33c5.65-1.12,9.58,3,11.71,12.33,1.07,4.74,1.09,8.37.07,11.11a8.52,8.52,0,0,1-6.79,5.38l-1.21.23Zm-3.87-26.92,4.69,24.69.2,0c2.7-.53,4.42-1.86,5.25-4.08h0c.87-2.32.82-5.66-.15-9.93-2.75-12.07-7.68-11.09-9.3-10.77Z"/><path class="cls-20" d="M169.4,58.65a2.13,2.13,0,0,1-2.05-1.55l-10-36.71a2,2,0,0,1,.21-1.53A2.34,2.34,0,0,1,159,17.77c3-.79,6-1.55,9-2.25,4.95-1.16,8.85-1.09,11.61.19s4.55,3.9,5.25,7.73a10.9,10.9,0,0,1-.66,6.67,8,8,0,0,1-2.1,2.81A8.18,8.18,0,0,1,186,35h0a11.52,11.52,0,0,1,3,6.36,13,13,0,0,1-1.57,9.73,12.23,12.23,0,0,1-8,5.15c-3.18.72-6.38,1.51-9.53,2.35A2.15,2.15,0,0,1,169.4,58.65Zm4.93-41.89a25.87,25.87,0,0,0-5.84.76c-3,.69-6,1.45-8.92,2.23a.34.34,0,0,0-.21.15l10,36.66s0,0,.08,0c3.17-.85,6.4-1.65,9.6-2.38a10.25,10.25,0,0,0,6.75-4.27A11.06,11.06,0,0,0,187,41.71a9.69,9.69,0,0,0-2.43-5.26h0a7.42,7.42,0,0,0-5.19-1.79,1,1,0,0,1-1-.81l-.06-.28a1,1,0,0,1,.63-1.16,5.91,5.91,0,0,0,3.35-3.16,8.88,8.88,0,0,0,.51-5.43c-.59-3.19-1.93-5.23-4.1-6.24A10.46,10.46,0,0,0,174.33,16.76Zm-.3,34a1,1,0,0,1-1-.78L170.38,39a1.07,1.07,0,0,1,.12-.78,1,1,0,0,1,.64-.46l2.46-.58a6,6,0,0,1,4.74.54,6.5,6.5,0,0,1,2.63,4.4,7.77,7.77,0,0,1-.34,5.26,5.53,5.53,0,0,1-3.91,2.72l-2.45.58A1,1,0,0,1,174,50.75Zm-1.41-11.19,2.16,8.92,1.48-.34a3.57,3.57,0,0,0,2.55-1.67h0a6,6,0,0,0,.15-3.89,4.61,4.61,0,0,0-1.73-3.09,4.1,4.1,0,0,0-3.17-.27Zm-2.71-5.8a1,1,0,0,1-.53-.15,1,1,0,0,1-.47-.63l-2.28-9.43a1,1,0,0,1,.76-1.24l2-.49a6.87,6.87,0,0,1,4.84.27,5.48,5.48,0,0,1,2.5,3.93,6.76,6.76,0,0,1-.35,4.61c-.67,1.25-2,2.09-4,2.57l-2.26.53A1,1,0,0,1,169.91,33.76Zm-1-9.7,1.8,7.44,1.28-.31a3.79,3.79,0,0,0,2.65-1.53,4.7,4.7,0,0,0,.16-3.21,3.58,3.58,0,0,0-1.47-2.55,5.08,5.08,0,0,0-3.39-.08Z"/><path class="cls-20" d="M197.47,52.78A2.12,2.12,0,0,1,195.38,51l-5.86-37.59a2,2,0,0,1,.38-1.5,2.36,2.36,0,0,1,1.56-.92c6.15-.93,12.41-1.69,18.6-2.23a2.36,2.36,0,0,1,1.73.52,2,2,0,0,1,.73,1.38l.36,4.3a2.19,2.19,0,0,1-2.07,2.28c-3.26.29-6.56.64-9.82,1l.94,7.45c2.41-.29,4.83-.56,7.21-.79a2.33,2.33,0,0,1,1.66.5,2,2,0,0,1,.74,1.39l.4,4.32a2.16,2.16,0,0,1-2,2.3c-2.32.22-4.66.48-7,.76l1.14,9c2.94-.36,5.93-.67,8.88-.93a2.14,2.14,0,0,1,1.58.49,2.07,2.07,0,0,1,.74,1.42l.36,4.38a2.1,2.1,0,0,1-1.92,2.27c-5.33.47-10.71,1.12-16,1.92h0Zm12.82-42h0c-6.16.55-12.38,1.29-18.49,2.22a.27.27,0,0,0-.21.12l5.87,37.54s0,0,.06,0h0c5.32-.8,10.74-1.45,16.11-1.93a.06.06,0,0,0,.06,0l-.37-4.38a.09.09,0,0,0-.09,0c-3.27.28-6.58.64-9.83,1.05a1,1,0,0,1-1.14-.89l-1.4-11.05a1,1,0,0,1,.21-.75,1,1,0,0,1,.68-.39c2.66-.34,5.36-.64,8-.9a.17.17,0,0,0,.14-.07L209.5,27a.33.33,0,0,0-.13,0h0c-2.7.26-5.45.57-8.17.91A1,1,0,0,1,200,27l-1.2-9.49a1,1,0,0,1,.21-.76,1.08,1.08,0,0,1,.68-.39c3.62-.45,7.29-.85,10.92-1.17a.25.25,0,0,0,.2-.09l-.36-4.27A1.4,1.4,0,0,0,210.29,10.81Z"/><path class="cls-20" d="M274.29,52.62l-.27,0c-2-.3-4-.57-6-.82a2.13,2.13,0,0,1-1.79-1.53c-1.37-4.94-2.88-9.94-4.48-14.87l-1.15-.11-1.14,13.49a2.12,2.12,0,0,1-2.28,1.92c-1.78-.15-3.58-.27-5.36-.38h0a2.12,2.12,0,0,1-2-2.22l2.11-38a2,2,0,0,1,.68-1.39,2.37,2.37,0,0,1,1.72-.58c3.39.2,6.82.46,10.18.78,5,.48,8.73,2,10.95,4.45s3,5.87,2.38,10.19c-.72,5-3,8.39-6.76,10.22,1.81,5.47,3.49,11,5,16.52a1.83,1.83,0,0,1-1.78,2.32ZM259.62,33.13h.09l2.86.26a1,1,0,0,1,.88.71c1.69,5.17,3.28,10.42,4.72,15.6a.07.07,0,0,0,.06,0c1.91.24,3.85.5,5.76.78-1.57-5.66-3.32-11.37-5.18-17a1,1,0,0,1,.59-1.28c3.63-1.43,5.71-4.37,6.37-9,.54-3.74-.08-6.53-1.87-8.53s-5.1-3.35-9.61-3.77c-3.34-.32-6.75-.58-10.11-.78a.31.31,0,0,0-.24.07L251.85,48.2a.06.06,0,0,0,.06,0c1.79.11,3.6.23,5.39.38,0,0,.07,0,.07,0l1.23-14.52A1,1,0,0,1,259.62,33.13ZM263.18,29c-.32,0-.66,0-1-.05l-2.1-.19a1,1,0,0,1-.94-1.11l1-11.61a1,1,0,0,1,1.11-.93l2.14.18a7,7,0,0,1,4.84,2.08c1,1.18,1.41,3,1.14,5.3a7.79,7.79,0,0,1-2.07,4.93A5.77,5.77,0,0,1,263.18,29Zm-1.9-2.19,1.09.09a4.35,4.35,0,0,0,3.5-.79,5.89,5.89,0,0,0,1.45-3.67c.2-1.74,0-3-.65-3.72a5.1,5.1,0,0,0-3.48-1.38l-1.1-.1Z"/><path class="cls-20" d="M292.82,55.63a21.8,21.8,0,0,1-4.35-.47c-2.42-.51-4.9-1-7.37-1.41h0a2.13,2.13,0,0,1-1.73-2.43l6.44-37.49a2,2,0,0,1,.84-1.3,2.39,2.39,0,0,1,1.77-.38c3.19.56,6.43,1.18,9.64,1.86,5.68,1.19,9.69,4,11.91,8.47,2.14,4.24,2.35,9.59.63,15.9-1.77,6.5-4.61,11.26-8.44,14.15A15,15,0,0,1,292.82,55.63Zm-11.36-3.91c2.48.44,5,.92,7.43,1.42,4.78,1,8.71.25,12-2.25s6-7,7.69-13.06c1.6-5.88,1.44-10.6-.49-14.43s-5.46-6.32-10.5-7.38c-3.18-.67-6.4-1.29-9.56-1.85a.34.34,0,0,0-.25,0l-.92,5.46-5.5,32s0,.05.06.06ZM291.93,49a10.15,10.15,0,0,1-2.08-.22l-1.09-.22a1,1,0,0,1-.81-1.21l5.39-26.65a1,1,0,0,1,.44-.65,1,1,0,0,1,.77-.15l1.87.38a8.07,8.07,0,0,1,5.4,3.54c1.75,2.78,1.94,7,.57,12.67-1.1,4.58-2.67,8-4.66,10A7.81,7.81,0,0,1,291.93,49Zm-1.76-2.25.1,0a6,6,0,0,0,6-1.7c1.74-1.79,3.13-4.84,4.14-9.06,1.24-5.07,1.13-8.8-.31-11.09A6,6,0,0,0,296,22.28l-.85-.18Z"/><path class="cls-20" d="M219.89,50.37a1.83,1.83,0,0,1-1.81-2.15c1.78-12.94,4-26,6.58-38.94a2.24,2.24,0,0,1,2.16-1.68c3.29-.11,6.62-.16,9.92-.16A2.26,2.26,0,0,1,238.94,9s0,0,0,0c3,12.81,5.62,25.85,7.82,38.76a1.77,1.77,0,0,1-.4,1.51,1.82,1.82,0,0,1-1.47.66c-1.89-.06-3.8-.1-5.66-.12a2.1,2.1,0,0,1-2-1.66c-.36-2.24-.72-4.43-1.09-6.62-2.57,0-5.12.05-7.61.12-.52,3.77-.85,6.26-.86,6.54,0,0,0,.08,0,.12a2.09,2.09,0,0,1-2,1.71c-1.86.08-3.75.18-5.62.3Zm.22-1.83Zm16.33-39c-3.18,0-6.39.05-9.56.15a.28.28,0,0,0-.22.09c-2.54,12.71-4.74,25.7-6.52,38.56,1.8-.11,3.61-.21,5.4-.28h.05c.07-.71.54-4.19,1-7.46a1,1,0,0,1,1-.89c3.06-.1,6.23-.15,9.41-.14a1,1,0,0,1,1,.85q.63,3.72,1.23,7.44s0,0,.05,0c1.78,0,3.61.06,5.43.12-2.19-12.8-4.79-25.69-7.74-38.35A1.37,1.37,0,0,0,236.44,9.5Zm8.31,38.68v0ZM228.54,35.07a1,1,0,0,1-.76-.34,1,1,0,0,1-.25-.83c.83-5.81,2.33-15.91,2.95-18.36a1.5,1.5,0,0,1,2.89,0c1.18,5.84,2.34,12,3.46,18.22a1,1,0,0,1-1,1.21c-2.42,0-4.85,0-7.25.11Zm3.39-16.27c-.52,3-1.28,7.86-2.19,14.18,1.61,0,3.23-.06,4.85-.07C233.72,28.09,232.83,23.36,231.93,18.8Zm.55-2.79v0Z"/></g></g></svg>