<svg id="Layer_2" data-name="Layer 2" xmlns="http://www.w3.org/2000/svg" viewBox="0 0 470 280"><defs><style>.cls-1{fill:#fb8;}.cls-2{fill:#fff;}</style></defs><title>guru</title><path class="cls-1" d="M196.53,59.44v8.83a1.25,1.25,0,0,0,.62,1.07v-11A1.23,1.23,0,0,0,196.53,59.44Z"/><path class="cls-1" d="M204.48,50.53h-.1a2.54,2.54,0,0,0-2.54,2.54V74.64a2.54,2.54,0,0,0,2.54,2.54h.1A2.54,2.54,0,0,0,207,74.64V53.07A2.54,2.54,0,0,0,204.48,50.53Z"/><path class="cls-1" d="M265.52,77.18h.1a2.54,2.54,0,0,0,2.54-2.54V53.07a2.54,2.54,0,0,0-2.54-2.54h-.1A2.54,2.54,0,0,0,263,53.07V74.64A2.54,2.54,0,0,0,265.52,77.18Z"/><path class="cls-1" d="M183.22,227.25c1.49,0,7.59-1.63,15-3.83H167c-1.07.63-3.7,2.21-6.59,4.26C167.23,227.47,177.28,227.21,183.22,227.25Z"/><path class="cls-1" d="M207.86,37.68c6.71-6,16.61-9.47,27.14-9.47s20.43,3.45,27.14,9.47a6.17,6.17,0,0,0,7.28,1.06c-6.27-9-19.34-15.19-34.42-15.19s-28.2,6.22-34.45,15.24A6.28,6.28,0,0,0,207.86,37.68Z"/><path class="cls-1" d="M220.29,123.23l0,.07c-.81,4.42.24,10.29,1.78,14.43,1.48,0,3.9.52,5.75,3.66.42-.5.79-1.06,1.17-1.56a2.38,2.38,0,0,1,1-1.1,2.32,2.32,0,0,1,1.38-.25h0l.09,0a2.3,2.3,0,0,1,1.69,1.21c7.13,13.46.78,24-4.61,30.83a15.85,15.85,0,0,1-6.38,4.78l-.08,0-40.8,15a21.73,21.73,0,0,1-2.48,8.42h35.63a3.65,3.65,0,0,1,3.7,3.6v.73h8.57c3.18-1.47,23.25-11.18,28.14-23.2a2.34,2.34,0,1,1,4.34,1.77c-3.76,9.24-14.56,16.89-22.37,21.43h15v-.73a3.65,3.65,0,0,1,3.7-3.6h21.36a2.39,2.39,0,0,1,1-.9l9.11-4.21a26.78,26.78,0,0,0,12.24-11.31l1.89-3.38A27.19,27.19,0,0,0,303.48,158c-1.83-6.14-3.94-13-6.29-20.52a83.55,83.55,0,0,0-10.42-22.35,22.18,22.18,0,0,0-13.65-9.07L268.19,105a25.34,25.34,0,0,0-7.91-.47l-3.22.3c-2.28,4.68-11.17,20.42-28.91,24.64l-.26,0-.07,0C221.68,130.79,220.39,123.79,220.29,123.23Zm64,41.36a2.34,2.34,0,0,1,2.21,2.47c-.11,2,3.13,5.33,5.35,6.91a2.35,2.35,0,0,1-2.71,3.83c-.78-.56-7.62-5.58-7.32-11A2.33,2.33,0,0,1,284.33,164.59Zm-5.6,8.79-16.18,23a2.34,2.34,0,0,1-3.84-2.69l16.19-23a5.77,5.77,0,0,0,1-3.62l-.66-12.82A2.34,2.34,0,1,1,280,154l.67,12.81A10.49,10.49,0,0,1,278.73,173.38ZM276,114.24a2.34,2.34,0,1,1,4.67.35,100.48,100.48,0,0,1-11.3,36.27c-9.16,17.13-27.62,38.6-63.59,43.56l-.32,0a2.35,2.35,0,0,1-.32-4.67c27.25-3.75,47.44-17.54,60-41A97.88,97.88,0,0,0,276,114.24Zm-31.92,28c14-6.92,19.59-24.53,19.64-24.7a2.35,2.35,0,1,1,4.48,1.39c-.25.8-6.28,19.71-22,27.51a2.28,2.28,0,0,1-1,.25,2.35,2.35,0,0,1-1-4.45Z"/><path class="cls-1" d="M273.47,68.27V59.44a1.23,1.23,0,0,0-.62-1.07v11A1.25,1.25,0,0,0,273.47,68.27Z"/><path class="cls-1" d="M215.78,160.64v0a0,0,0,0,1,0,0c-.35-.81-.69-1.7-1-2.67-12-.72-37.85,6.89-38.12,7a2.59,2.59,0,0,1-.67.1,2.35,2.35,0,0,1-.66-4.6c1.09-.32,25-7.35,38.27-7.2a32.24,32.24,0,0,1-.46-5.36c0-.63,0-1.31,0-2a118.2,118.2,0,0,1,.5-13.67c-1.79-.56-4.26.53-5.28,1.06a2.77,2.77,0,0,1-.48.26,2.33,2.33,0,0,1-.85.16,2.35,2.35,0,0,1-2.19-1.49c-4.37-11.21.45-22.3,3.55-27.7a26.62,26.62,0,0,0-4.86.33l-4.24.87a23.83,23.83,0,0,0-14.31,9.1,90.39,90.39,0,0,0-12.64,23.46c-2.34,6.62-4.52,13.06-6.49,19.14A30.49,30.49,0,0,0,167.34,180l2,4.24A5.71,5.71,0,0,0,176.7,187l.08,0,43.66-16c.3-.12.59-.28.88-.43a42.87,42.87,0,0,1-3.93-6.61A31.6,31.6,0,0,1,215.78,160.64Zm-26.1-37.7a2.35,2.35,0,0,1,2.92,1.58c0,.06,1.42,4.55,4.81,6.21a2.35,2.35,0,0,1-1,4.45,2.41,2.41,0,0,1-1-.23c-5.26-2.58-7.16-8.83-7.24-9.1A2.34,2.34,0,0,1,189.68,122.94Zm-9.18,3.13a2.34,2.34,0,0,1,3.13,1.08c.08.15,5.19,10.17,20.19,16.57a2.35,2.35,0,0,1-.92,4.51A2.48,2.48,0,0,1,202,148c-16.75-7.16-22.34-18.37-22.57-18.84A2.34,2.34,0,0,1,180.5,126.07Z"/><path class="cls-1" d="M290.81,197c-.59.32-1.2.63-1.81.91l-1.83.85h4.1A12.79,12.79,0,0,1,290.81,197Z"/><path class="cls-1" d="M303,223.42a23,23,0,0,1,3.9,7.28,3.64,3.64,0,0,1-.69,3.56,4.14,4.14,0,0,1-3.78,1.37c-4.34-.69-15-2.26-19.95-2.13a176.62,176.62,0,0,0-18.38,2.06,64.57,64.57,0,0,0-11,3.67,2.18,2.18,0,0,1-.38.36c-3.61,2.74-4.21,8.3-4.27,10.94,8.95,1,17.79,3.14,26.49,5.23,11.43,2.74,22.23,5.34,32.71,5.34h.1c12.19,0,21.73-8.07,21.73-18.33v-.43c0-10.43-9.74-18.92-21.72-18.92Z"/><rect class="cls-1" x="335.04" y="201.57" width="3.37" height="1.5"/><path class="cls-1" d="M239.6,240.86c5.09-8.93,5-13.51,4.39-15.46a4,4,0,0,0-1.16-2H214.06c-5.16,1.67-26.62,8.52-30.84,8.52h0c-9.42-.07-29.51.64-29.71.65h-.09a2.34,2.34,0,0,1-1.57-4.08,63.29,63.29,0,0,1,5.91-4.67c-9.81,1.82-17.19,9.42-17.19,18.5v.43c.09,10.13,8.69,17.33,21.9,18.33,11.1.84,25.25,0,34.4-2,16.26-3.61,26.26-7.65,38.22-15.41C236.58,242.68,238.09,241.75,239.6,240.86Z"/><rect class="cls-1" x="131.59" y="201.57" width="3.37" height="1.5"/><path class="cls-1" d="M348.64,199.05h-1.53a3.27,3.27,0,0,0,0-.54,6.36,6.36,0,0,0-2.72-12.12H307l1.79-3.19a36,36,0,0,0,3.06-27.67c-1.84-6.2-4-13.15-6.32-20.65a92,92,0,0,0-11.56-24.68,30.9,30.9,0,0,0-19-12.64L270,96.48a34.55,34.55,0,0,0-10.59-.63l-2.92.27A22.71,22.71,0,0,0,259.71,91l2.56-5.62a11,11,0,0,0,3.25.48h.1a11.26,11.26,0,0,0,10.95-8.67,9.91,9.91,0,0,0,5.61-9V59.44a9.94,9.94,0,0,0-1.33-5,6.29,6.29,0,0,0,1.23-3.73,28.67,28.67,0,0,0-3.76-14.1,8.13,8.13,0,0,0-.47-.81c-7.62-12.76-24.42-21-42.85-21s-35.22,8.23-42.84,21a5.89,5.89,0,0,0-.62,1.09,28.57,28.57,0,0,0-3.62,13.83,6.29,6.29,0,0,0,1.23,3.73,9.94,9.94,0,0,0-1.33,5v8.83a9.91,9.91,0,0,0,5.61,9,11.26,11.26,0,0,0,10.95,8.67h.1a11.17,11.17,0,0,0,3.16-.45L210,90.82A23.23,23.23,0,0,0,213.17,96l-1.17-.1c-1.12-.1-2.57-.16-4-.16a33.51,33.51,0,0,0-6.28.51l-4.24.87A32.57,32.57,0,0,0,178,109.51a99.23,99.23,0,0,0-13.87,25.77c-2.37,6.71-4.58,13.23-6.56,19.36a39.12,39.12,0,0,0,2,29.08l1.29,2.67H125.65a6.36,6.36,0,0,0-2.72,12.12,3.27,3.27,0,0,0,0,.54h-1.53a6.37,6.37,0,0,0-6.36,6.37v15.66a6.36,6.36,0,0,0,6.36,6.36h15.3a25.81,25.81,0,0,0-4.83,14.9v.49c.14,15,11.9,25.59,29.95,27,3,.23,6.32.34,9.77.34a134.73,134.73,0,0,0,27.17-2.55,144.69,144.69,0,0,0,19.82-5.68l.12,0a56.64,56.64,0,0,1,19.46-3.22c11.53,0,23.34,2.84,34.77,5.59,11.95,2.86,23.23,5.57,34.74,5.57h.12c17.06,0,30.42-11.9,30.42-27v-.43a25.88,25.88,0,0,0-4.83-14.9h15.3a6.36,6.36,0,0,0,6.36-6.36V205.42A6.37,6.37,0,0,0,348.64,199.05ZM195.16,38.67a2.25,2.25,0,0,1,.35-.62c6.64-11.28,21.84-19.19,39.49-19.19s32.83,7.9,39.47,19.17a2.13,2.13,0,0,1,.27.46,24.67,24.67,0,0,1,3.32,12.26,2.35,2.35,0,0,1-4.69,0,20,20,0,0,0-1.66-7.91A10.82,10.82,0,0,1,259,41.17c-5.86-5.25-14.61-8.27-24-8.27s-18.15,3-24,8.27a11,11,0,0,1-7.44,3,11.86,11.86,0,0,1-5.28-1.3,19.94,19.94,0,0,0-1.64,7.86,2.35,2.35,0,0,1-4.69,0A24.73,24.73,0,0,1,195.16,38.67ZM351,221.08a2.34,2.34,0,0,1-2.34,2.34H323.52c6.45,4.31,10.63,11.19,10.63,18.92v.43c0,12.88-11.6,23-26.41,23h-.11c-11,0-22.1-2.66-33.8-5.47-18.5-4.45-37.63-9-56.53-2.24l-.09,0a140.89,140.89,0,0,1-19.36,5.55,131,131,0,0,1-26.3,2.45c-3.27,0-6.48-.1-9.46-.33-15.82-1.2-26.12-10.22-26.24-23v-.45c0-7.73,4.18-14.61,10.63-18.92H121.36a2.34,2.34,0,0,1-2.34-2.34V205.42a2.35,2.35,0,0,1,2.34-2.35h5.54v-3.84a2.35,2.35,0,0,1,2.35-2.35h1.68V195.1h-5.28a2.35,2.35,0,1,1,0-4.69H163a2.34,2.34,0,0,1,2.34,2.34v3.16a2.35,2.35,0,1,1-4.69,0v-.81H135.62v1.78h1.68a2.35,2.35,0,0,1,2.35,2.35v3.84h3.12v-.73a3.64,3.64,0,0,1,3.69-3.6h26.35c2.09-1.62,3.06-4.5,3.51-6.77a10.59,10.59,0,0,1-1.77.16,10.43,10.43,0,0,1-9.4-5.91l-2-4.24a35.15,35.15,0,0,1-1.76-26.11c2-6.11,4.18-12.59,6.53-19.25a95.06,95.06,0,0,1,13.31-24.71A28.47,28.47,0,0,1,198.31,101l4.24-.88a38.88,38.88,0,0,1,9.1-.28l8.37.7L221.57,98a19.29,19.29,0,0,1-7.88-8.8l-4.11-9.29s0-.08,0-.11a7.21,7.21,0,0,1-5.06,2.07h-.1a7.23,7.23,0,0,1-7.23-7.23v-.48a5.94,5.94,0,0,1-5.31-5.89V59.44a6,6,0,0,1,5.31-5.9v-.47a7.23,7.23,0,0,1,7.23-7.23h.1a7.21,7.21,0,0,1,5.35,2.38,22.51,22.51,0,0,1,14.67-12l.24-.07a41.68,41.68,0,0,1,20.52,0l.24.07a22.51,22.51,0,0,1,14.67,12,7.21,7.21,0,0,1,5.35-2.38h.1a7.23,7.23,0,0,1,7.23,7.23v.47a6,6,0,0,1,5.31,5.9v8.83a5.94,5.94,0,0,1-5.31,5.89v.48a7.23,7.23,0,0,1-7.23,7.23h-.1a7.22,7.22,0,0,1-5.1-2.11c0,.08-.07.17-.11.26l-4.26,9.35a19.2,19.2,0,0,1-8.15,8.83,7.78,7.78,0,0,0,1.39,1.67h0a2.29,2.29,0,0,1,.36.4l.36.51,9.82-.93a30.34,30.34,0,0,1,9.36.56l4.93,1.08a26.85,26.85,0,0,1,16.51,11,88.18,88.18,0,0,1,11,23.6c2.35,7.5,4.47,14.43,6.3,20.6a31.94,31.94,0,0,1-2.72,24.56l-1.89,3.37a31.43,31.43,0,0,1-8.05,9.43l.13.14a.63.63,0,0,0,.13-.13c-.29.38-.59,1.88.76,4.69h27.21a3.64,3.64,0,0,1,3.69,3.6v.73h3.12v-3.84a2.35,2.35,0,0,1,2.35-2.35h1.68V195.1H309.32v.81a2.35,2.35,0,1,1-4.69,0v-3.16a2.34,2.34,0,0,1,2.34-2.34h37.38a2.35,2.35,0,1,1,0,4.69h-5.28v1.78h1.68a2.35,2.35,0,0,1,2.35,2.35v3.84h5.54a2.35,2.35,0,0,1,2.34,2.35Z"/><path class="cls-2" d="M215.77,160.62v0l0,0A0,0,0,0,0,215.77,160.62Z"/><path class="cls-2" d="M221.43,137.77l.62,0c-1.54-4.14-2.59-10-1.78-14.43-1.76,5-2.29,10.83-2.43,16A7.56,7.56,0,0,1,221.43,137.77Z"/><path class="cls-2" d="M231.38,138.48l.1,0-.09,0Z"/><path class="cls-2" d="M251.79,87.43,256,78.08A21.68,21.68,0,0,0,258,68.7l-.22-11a17.9,17.9,0,0,0-13.41-16.91l-.25-.07a36.81,36.81,0,0,0-18.18,0l-.25.07a17.9,17.9,0,0,0-13.41,16.91L212,68.83A21.66,21.66,0,0,0,213.87,78L218,87.3A14.56,14.56,0,0,0,231.27,96h7.29A14.57,14.57,0,0,0,251.79,87.43Zm-18-11.11a2.22,2.22,0,0,0,1.45.43,2.25,2.25,0,0,0,1.45-.43v0a2.34,2.34,0,0,1,2.33-2.23,4.75,4.75,0,0,0,1.22-.15,2.35,2.35,0,0,1,4.38,1.17c0,1.78-1.48,3.08-3.82,3.51a6.86,6.86,0,0,1-11.07.09c-2.68-.31-4.41-1.68-4.41-3.6a2.34,2.34,0,0,1,4.37-1.17,4.88,4.88,0,0,0,1.22.15,3.11,3.11,0,0,1,2.88,2.26Zm-17-11.71a2.34,2.34,0,1,1,3.26-3.37,7.55,7.55,0,0,0,8.17,0,2.34,2.34,0,0,1,3.26,3.37,12,12,0,0,1-14.69,0ZM245,88.31c-2.41,2.33-6.43,2.53-10,2.53s-7.6-.2-10-2.53a2.34,2.34,0,0,1,3.26-3.37c1.1,1.07,4,1.21,6.75,1.21s5.65-.14,6.75-1.21A2.34,2.34,0,0,1,245,88.31Zm-6.56-23.7a2.34,2.34,0,1,1,3.26-3.37,7.55,7.55,0,0,0,8.17,0,2.34,2.34,0,0,1,3.26,3.37,12,12,0,0,1-14.69,0Z"/><path class="cls-2" d="M223.57,99.73a2.34,2.34,0,0,1,.48,3.28l-1,1.4a2.35,2.35,0,0,1-2.08.94l-7.26-.61c-2.11,3.21-8.77,14.69-4.49,25.67a2.34,2.34,0,0,1-.85,2.78c1-.53,3.49-1.62,5.28-1.06a44.42,44.42,0,0,1,2.77-11.84,2.34,2.34,0,0,1,4.34,1.77c-.16.38-.29.78-.43,1.17.1.56,1.39,7.56,7.53,6.28l.07,0-.28,0a2.34,2.34,0,0,1-.54-4.62c13.2-3.14,21-13.84,24.37-19.54l-2.36.22a2.34,2.34,0,0,1-2.15-1l-1.13-1.64a2.34,2.34,0,0,1,3.49-3.07h0a7.78,7.78,0,0,1-1.39-1.67,19.21,19.21,0,0,1-9.34,2.44h-7.29a19.2,19.2,0,0,1-9.7-2.64L220,100.57l.27-.36A2.34,2.34,0,0,1,223.57,99.73Z"/><path class="cls-2" d="M229.19,144.67A2.34,2.34,0,1,1,224.7,146c-.34-1.13-1.28-3.75-2.72-3.58-1.77.21-4,3.16-4.17,5.48A28.46,28.46,0,0,0,222.35,163a2.35,2.35,0,0,1-3.79,2.77c-.06-.09-.53-.75-1.17-1.88a42.87,42.87,0,0,0,3.93,6.61,11.16,11.16,0,0,0,3.57-2.91c7.47-9.4,8.71-17.09,4.14-25.72a2.32,2.32,0,0,1-.06-2.07c-.38.5-.75,1.06-1.17,1.56A14.75,14.75,0,0,1,229.19,144.67Z"/><path class="cls-1" d="M342.13,214.91a2.37,2.37,0,1,0-1.66.68A2.41,2.41,0,0,0,342.13,214.91Z"/><path class="cls-1" d="M336.74,214.91a2.34,2.34,0,0,0,0-3.32,2.41,2.41,0,0,0-3.31,0,2.34,2.34,0,0,0,1.65,4A2.39,2.39,0,0,0,336.74,214.91Z"/><path class="cls-1" d="M328,211.59a2.34,2.34,0,0,0,0,3.32,2.35,2.35,0,0,0,3.32-3.32A2.44,2.44,0,0,0,328,211.59Z"/><path class="cls-1" d="M322.65,211.59a2.35,2.35,0,0,0,3.32,3.32,2.35,2.35,0,1,0-3.32-3.32Z"/><path class="cls-1" d="M310.44,210.9a2.35,2.35,0,1,0,0,4.69h7.42a2.35,2.35,0,1,0,0-4.69Z"/><path class="cls-2" d="M263,231a177,177,0,0,1,19.29-2.17c4.84-.15,13.9,1.1,19.6,2-1.16-2.85-3.37-6.55-7.14-7.39H260.17c-.58,1.09-1.39,3.11-.6,4.22a2.34,2.34,0,0,1-3.82,2.72,7.68,7.68,0,0,1-.68-6.94h-6.8c0,.11.08.2.11.31,1.14,3.46.58,7.91-1.64,13.27A75.31,75.31,0,0,1,263,231Z"/><path class="cls-2" d="M242.15,244.8c-1.5.88-3,1.82-4.54,2.8-1.32.86-2.61,1.67-3.89,2.44q2.21-.12,4.41-.12c1.87,0,3.75.07,5.62.19a25.42,25.42,0,0,1,1.17-6.88l-2.14,1.2A2.48,2.48,0,0,1,242.15,244.8Z"/></svg>