<svg id="Layer_2" data-name="Layer 2" xmlns="http://www.w3.org/2000/svg" viewBox="0 0 470 280"><defs><style>.cls-1{fill:#fff;}.cls-2{fill:#fb8;}</style></defs><title>lesch</title><polygon class="cls-1" points="155.84 138.91 157.55 171.53 154.08 183.79 147.35 191.15 162.21 201.61 170.18 192.82 175.88 174.37 174.51 145.77 178.76 142.55 183.68 140.57 183.68 178.46 180.7 208.95 198.34 213.66 201.69 175.05 201.69 116.36 175.86 124.92 155.84 138.91"/><polygon class="cls-1" points="247.53 115.24 229.72 113.7 210.14 115.2 210.92 167.07 208.19 215.02 230.06 215.98 247.51 215.46 246.3 198.4 227.02 199.14 228.11 174.5 243.18 174.5 243.43 165.59 242.62 156.54 228.88 156.54 228.63 130.27 247.02 131.57 247.53 115.24"/><polygon class="cls-1" points="326 178.46 327.32 163.44 326.43 145.59 307.93 137.77 309.37 162.12 308.13 171.65 300.08 176.73 299.09 161.74 299.95 134.38 282.27 128.84 280.89 161.62 282.12 187.13 271.85 191.34 270.61 162.73 271.72 125.58 254.01 117.91 252.28 164.84 254.86 214.38 287.08 205.21 314.77 187.21 315.21 197.04 322.57 202.32 337.26 185.95 331.88 176.23 326 178.46"/><polygon class="cls-2" points="264.88 100.23 258.75 110.93 261.44 112.22 269.27 104.78 269.53 104.54 269.54 104.53 274.9 101.82 266.72 98.65 264.88 100.23"/><polygon class="cls-2" points="240.86 106.53 244.2 107.24 244.02 107.11 254.47 93.9 250.03 92.18 240.86 106.53"/><polygon class="cls-2" points="249.79 108.42 253.44 109.2 262.18 98.23 262.48 97.85 262.64 97.77 263.44 97.38 257.74 95.17 249.79 108.42"/><polygon class="cls-2" points="271.28 106.93 271.54 106.68 266.34 114.56 269.03 115.85 282.32 106.76 274.09 118.27 276.82 119.57 287.56 111.98 281 121.57 283.03 122.55 291.45 116.36 284 105.35 275.97 102.24 271.28 106.93"/><polygon class="cls-2" points="385.19 162.49 376.6 158.44 384.6 153.63 393.86 131.63 394.71 123.06 385.49 124.09 351.26 149.14 335.61 147.71 335.65 150.14 350.33 152.95 335.72 155.22 335.76 157.84 349.48 159.78 335.84 162.84 335.87 164.9 349.25 165.87 337.87 169.79 339.22 172.97 348.96 169.74 388.75 196.89 401.86 197.73 401.05 188.18 385.19 162.49"/><polygon class="cls-2" points="307.11 202.62 312.78 211.77 303.91 204.61 301.23 206.27 307.6 218.33 297.71 208.46 295.15 210.05 302.39 225.27 291.15 212.54 288.44 214.22 297.59 232.87 283.34 215.66 279.7 216.32 290.87 237.33 274.1 217.34 270.94 217.91 286.81 240.15 297.48 237.69 316.21 207.12 309.29 201.27 307.11 202.62"/><polygon class="cls-2" points="232.56 229.89 236.24 236.2 230.79 230.86 230.63 230.53 226.63 223.06 224.26 222.99 226.46 232.33 231.92 242.38 224.32 233.47 224.18 233.2 218.79 222.83 216.13 222.76 220.04 234.93 219.97 234.8 224.53 244.85 217.91 236.02 217.85 235.89 210.37 222.59 207.65 222.51 219.92 248.31 230.93 247.89 237.88 237.94 238.08 228.51 231.85 223.33 232.56 229.89"/><path class="cls-2" d="M146.81,143.31l-22.29,11.11-12.66,9.33.88,8.27L125,181.5l14.66,4.9,7-8.31,2.08-10.4Zm-5,19.19-4.37,1.91-4.6-2.48,1.32-6,5.78-2.59,3.51,3.09Z"/><polygon class="cls-2" points="222.54 66.02 224.02 71.86 228.96 70.31 227.47 64.78 222.54 66.02"/><polygon class="cls-2" points="287.03 75.95 286.46 69.59 282.06 74.03 280.09 78.13 285.97 79.89 287.03 75.95"/><polygon class="cls-2" points="317.3 80.07 312.2 78.64 310 84.85 314.85 86.5 317.3 80.07"/><polygon class="cls-2" points="223.62 53.83 219.27 54.87 220.58 60.09 224.98 58.82 223.62 53.83"/><path class="cls-2" d="M324.65,116.52,339.84,74,245.43,40.27,242.1,48.7l-13.17-11L139.66,62l11.45,43.74L236.7,82.43Zm-18.1-47.47L314,70.79l13.44,4.95-9.84,29.68-9.87-3,3.74-9-1.67-1-8.79,8L293.66,94l9-6.67-2.58-2.75ZM293.2,63.11,296,76.8l-4.86,18.92L282.48,93l1.66-6-7-1.89-2.08,5L267,87l7.38-16.46,10.36-10.08ZM173.25,91.56l-5.86-23-5.88,1.74,5.92,22.66-9.18,2.21-7.58-29.85,24.25-7.2L178.42,72l4.42,16.51Zm29.18-7.2-3.61-14.12-1.48,4-2,6.94,1.1,4.13-9.19,1.79L179.8,57.93l8.92-2.25,3.52,12.95,1.52-4.89,1.83-6.11-1-3.84,9.62-2.53,3.37,13.36,4.54,17Zm33.38-8.68-18.87,4.71L209,51l.17-.35,11.61-3.7,6.94-1.65,6.12,6.18.07.29-1.87,8,7,4.86.1.39Zm14.53-27.53L259,51.3l-3.7,10.9L261,63.8l3.95-11,9.49,3-4.9,13.46-5.78,16.61-9.54-3.16,4-11.25-5.8-1.85-3.6,10-8.78-3.2Z"/></svg>