<svg viewBox="0 0 470 280" xmlns="http://www.w3.org/2000/svg"><g fill="#fff"><path d="m226.62 32.17-62.38 108-8.94 15.48h160.5l-8.94-15.48-62.38-108-8.93-15.47zm13.38 2.58 62.38 108 4.46 7.74h-142.6l4.46-7.74 62.38-108 4.47-7.75z"/><path d="m230.66 69.49a14 14 0 0 0 -2.91-18.66l-5.53 9.58a26.51 26.51 0 0 1 8.44 9.08z"/><path d="m238.11 61.77a13.91 13.91 0 0 0 2.33 7.72 26.6 26.6 0 0 1 8.44-9.08l-5.53-9.58a14 14 0 0 0 -5.24 10.94z"/><path d="m213.47 75.57a42.6 42.6 0 0 1 15.65 16.64 23.62 23.62 0 0 0 -8.3-29.37z"/><path d="m250.28 62.84a23.59 23.59 0 0 0 -8.28 29.37 42.51 42.51 0 0 1 15.64-16.64z"/><path d="m194.31 108.76a64.76 64.76 0 0 1 25.8 26.85 37.14 37.14 0 0 0 -9.21-55.61z"/><path d="m260.2 80a37.14 37.14 0 0 0 -9.2 55.61 64.76 64.76 0 0 1 25.8-26.85z"/><path d="m221.18 145.37a61.73 61.73 0 0 0 -28.26-34.2l-19.75 34.2z"/><path d="m249.92 145.37h48l-19.74-34.2a61.7 61.7 0 0 0 -28.26 34.2z"/><path d="m229.48 47.84h12.14l-6.07-10.51z"/><path d="m110 222.91-18.25-20.43v20.43h-6.7v-32.58h4.84l18.29 20.43v-20.43h6.71v32.58z"/><path d="m146.26 222.91-1.72-3.67h-16.3l-1.72 3.67h-7.4l15.13-32.58h4.28l15.13 32.58zm-4.84-10.38-5-10.89-5.08 10.89z"/><path d="m175.14 190.33c7.22 0 11.68 4.47 11.68 11.68 0 5.45-2.6 9.36-7 10.89l7 10h-8.19l-6.47-9.26h-7.54v9.26h-6.7v-32.57zm-10.52 16.67h10.52a5.08 5.08 0 0 0 3.77-1.17 5.17 5.17 0 0 0 1.21-3.77 5.23 5.23 0 0 0 -1.21-3.82 5.08 5.08 0 0 0 -3.77-1.16h-10.52z"/><path d="m215.66 192.1a13.19 13.19 0 0 1 5.77 5.49l-5.82 3.26a7 7 0 0 0 -2.93-2.75 12.4 12.4 0 0 0 -5.4-1.07c-6.47 0-9.59 3.12-9.59 9.59s3.12 9.59 9.59 9.59c5.21 0 8.28-2.05 9.26-6.24h-11.12v-6.7h18.15v3.35a20.45 20.45 0 0 1 -1 6.66 14.58 14.58 0 0 1 -3.31 5.3 14.4 14.4 0 0 1 -5.31 3.31 22.22 22.22 0 0 1 -13.31 0 13.81 13.81 0 0 1 -8.61-8.61 22 22 0 0 1 -.03-13.28 13.81 13.81 0 0 1 8.61-8.61 20.15 20.15 0 0 1 6.66-1 18.93 18.93 0 0 1 8.39 1.71z"/><path d="m228.74 222.91v-32.58h6.71v32.58z"/><path d="m266.78 216.21v6.7h-25.32v-32.58h6.7v25.88z"/><path d="m277.71 197v6.24h17.88v6.76h-17.88v6.24h20.35v6.7h-27.06v-32.61h27.05v6.67z"/><path d="m339 190.33a9.14 9.14 0 0 1 9.82 9.82 10.15 10.15 0 0 1 -2 6.47 10.15 10.15 0 0 1 2 6.47 9.14 9.14 0 0 1 -9.82 9.82h-20.9v-32.58zm-14.2 12.94h14.2a3.63 3.63 0 0 0 2.42-.7 4.53 4.53 0 0 0 0-4.84 3.63 3.63 0 0 0 -2.42-.73h-14.2zm0 12.94h14.2a3.63 3.63 0 0 0 2.42-.7 4.53 4.53 0 0 0 0-4.84 3.63 3.63 0 0 0 -2.42-.67h-14.2z"/><path d="m378.14 192.1a13.13 13.13 0 0 1 5.77 5.49l-5.82 3.26a6.89 6.89 0 0 0 -2.93-2.75 12.37 12.37 0 0 0 -5.4-1.07c-6.47 0-9.59 3.12-9.59 9.59s3.12 9.59 9.59 9.59c5.22 0 8.29-2.05 9.27-6.24h-11.13v-6.7h18.16v3.35a20.19 20.19 0 0 1 -1 6.66 13.81 13.81 0 0 1 -8.61 8.61 22.22 22.22 0 0 1 -13.31 0 14.4 14.4 0 0 1 -5.31-3.31 14.58 14.58 0 0 1 -3.31-5.3 22.25 22.25 0 0 1 0-13.32 14.58 14.58 0 0 1 3.31-5.3 14.4 14.4 0 0 1 5.31-3.31 20.09 20.09 0 0 1 6.65-1 18.87 18.87 0 0 1 8.35 1.75z"/><path d="m304.7 216.21h6.7v6.7h-6.7z"/><path d="m174.28 258v-7a3 3 0 0 0 -3-3 2.92 2.92 0 0 0 -2.95 2.84v7.16h-2.52v-18.6h2.52v6.94a5.41 5.41 0 0 1 2.95-.87 5.49 5.49 0 0 1 5.52 5.53v7z"/><path d="m185.23 245.43a6.34 6.34 0 1 1 -6.33 6.35 6.32 6.32 0 0 1 6.33-6.35zm0 10.28a3.94 3.94 0 1 0 -3.93-3.93 3.93 3.93 0 0 0 3.93 3.93z"/><path d="m199.74 245.43a6.34 6.34 0 1 1 -6.33 6.35 6.31 6.31 0 0 1 6.33-6.35zm0 10.28a3.94 3.94 0 1 0 -3.93-3.93 3.94 3.94 0 0 0 3.93 3.93z"/><path d="m218.71 246.29-5.32 5.83 5.55 5.86h-3.26l-4.63-5.15v5.17h-2.52v-18.6h2.52v11.92l4.5-5z"/><path d="m230.75 258v-2.27a6.21 6.21 0 1 1 -4.86-10.36 6.27 6.27 0 0 1 4.86 2.39v-2.27h2.52v12.51zm-4.4-10.15a3.9 3.9 0 1 0 3.89 3.89 3.9 3.9 0 0 0 -3.89-3.91z"/><path d="m244.73 258v-7a3 3 0 0 0 -3-3 2.92 2.92 0 0 0 -2.94 2.84v7.16h-2.49v-18.6h2.52v6.94a5.4 5.4 0 0 1 2.94-.87 5.49 5.49 0 0 1 5.49 5.49v7z"/><path d="m256.09 254.89a2.3 2.3 0 0 0 2 .89 1.57 1.57 0 0 0 1.55-1.62c0-.78-.77-1.26-1.91-1.62-1.87-.57-3.76-1.16-3.76-3.7 0-2 1.41-3.45 3.78-3.45a3.46 3.46 0 0 1 3 1.7l-2.1 1.31a1 1 0 0 0 -.89-.53c-.82 0-1.3.42-1.3 1 0 .73 1 1 2 1.34 2.16.7 3.66 1.79 3.66 4a4 4 0 0 1 -4 4.1 4.66 4.66 0 0 1 -4.14-2z"/><path d="m272.89 258v-7a3 3 0 0 0 -3-3 2.92 2.92 0 0 0 -2.94 2.84v7.16h-2.52v-18.6h2.57v6.94a5.4 5.4 0 0 1 2.94-.87 5.49 5.49 0 0 1 5.49 5.49v7z"/><path d="m283.84 245.43a6.34 6.34 0 1 1 -6.33 6.35 6.32 6.32 0 0 1 6.33-6.35zm0 10.28a3.94 3.94 0 1 0 -3.93-3.93 3.94 3.94 0 0 0 3.93 3.93z"/><path d="m295.15 245.45v2.27a6.21 6.21 0 1 1 4.85 10.37 6.24 6.24 0 0 1 -4.85-2.4v7.61h-2.53v-17.85zm4.39 10.16a3.9 3.9 0 1 0 -3.89-3.89 3.9 3.9 0 0 0 3.89 3.89z"/></g></svg>