<svg viewBox="0 0 470 280" xmlns="http://www.w3.org/2000/svg"><path d="m152.16 199.47c-3.9 0-6.8 2.8-6.8 7.7s2.9 7.69 6.8 7.69 6.79-2.79 6.79-7.69-2.9-7.7-6.79-7.7z" fill="none"/><path d="m290.54 199.47c-3.54 0-5.49 2.1-5.89 5.25h11.59c-.35-3.25-2.45-5.25-5.7-5.25z" fill="none"/><path d="m226.66 131.91a21.65 21.65 0 0 1 -7.39-1.25c1.91 2.94 4.55 4.73 7.39 4.73h15.6c2.84 0 5.48-1.79 7.39-4.73a21.65 21.65 0 0 1 -7.39 1.25z" fill="none"/><path d="m198 243.54c-2.77.09-4.92 1.49-4.92 3.78s2 3.79 4.92 3.8 5.33-1.12 5.37-3.8c0-2.46-2.1-3.91-5.37-3.78z" fill="none"/><path d="m244.72 243.27c-2.55.06-4.16 1.18-4.74 2.66h9c-.2-.85-1.2-2.72-4.26-2.66z" fill="none"/><path d="m226.66 108.57a6.14 6.14 0 1 0 -12.28 0 4.37 4.37 0 0 0 8.73 0 2.6 2.6 0 1 0 -5.19 0 .83.83 0 0 0 1.65 0 1 1 0 1 1 1.9 0 2.73 2.73 0 0 1 -5.45 0 4.5 4.5 0 0 1 9 0 6.27 6.27 0 0 1 -12.54 0 8 8 0 0 1 8-8 7.91 7.91 0 0 1 2.08.29 8.16 8.16 0 0 0 -3.69-.88 8.31 8.31 0 0 0 -8.29 8.06 2.11 2.11 0 0 0 0 .25 8.32 8.32 0 0 0 7.29 8.24h.86a7.92 7.92 0 0 0 7.93-7.96z" fill="none"/><path d="m249 116.48h.86a7.92 7.92 0 0 0 7.91-7.91 6.14 6.14 0 1 0 -12.28 0 4.37 4.37 0 0 0 8.74 0 2.6 2.6 0 1 0 -5.19 0 .82.82 0 0 0 1.64 0 1 1 0 1 1 1.9 0 2.72 2.72 0 1 1 -5.44 0 4.5 4.5 0 1 1 9 0 6.27 6.27 0 0 1 -12.54 0 8 8 0 0 1 10.13-7.76 8.22 8.22 0 0 0 -3.69-.88 8.32 8.32 0 0 0 -8.3 8.06v.25a8.31 8.31 0 0 0 7.26 8.24z" fill="none"/><path d="m190.43 190.58h-7.15v10.19h7.15a5.1 5.1 0 1 0 0-10.19z" fill="none"/><path d="m129.14 208.52-7.09 1.1c-2.25.35-3.5 1.35-3.5 2.94s1.25 2.9 4 2.9c4 0 6.54-2.6 6.54-6.29z" fill="none"/><path d="m150.19 243.55c-3.09 0-5 1.6-4.91 3.82.08 2.06 2.14 3.81 4.95 3.81 3.07 0 5-1.75 4.93-3.81s-1.89-3.82-4.97-3.82z" fill="none"/><path d="m201.85 144.43h65.15a1.49 1.49 0 0 0 1.49-1.48v-65.19a1.49 1.49 0 0 0 -1.49-1.49h-65.15a1.49 1.49 0 0 0 -1.48 1.49v65.24a1.48 1.48 0 0 0 1.48 1.43zm40.41-4.43h-15.6c-6.8 0-12.73-6.17-14.42-15l.92-.18 3.39-1.56c.93 2 4.78 4.14 10.11 4.14h15.6c5.33 0 9.19-2.13 10.11-4.14l3.39 1.56.92.18c-1.68 8.78-7.62 15-14.42 15zm-3.62-50c2.44 0 3.85-1.22 5.64-2.77s3.88-3.35 7.18-3.92a11.47 11.47 0 0 1 12.16 5.67l-2 1-2 1.07a6.81 6.81 0 0 0 -7.34-3.29c-2 .35-3.4 1.52-5 2.88-2.11 1.82-4.5 3.88-8.63 3.88zm.75 11a13.13 13.13 0 1 1 -2.1 5.37 2.83 2.83 0 0 0 -5.66 0 12.86 12.86 0 1 1 -12.72-11 12.87 12.87 0 0 1 10.63 5.63 7.36 7.36 0 0 1 9.85 0zm-21.93-17.74c3.3.57 5.36 2.35 7.18 3.92s3.2 2.77 5.64 2.77v4.56c-4.13 0-6.52-2.06-8.62-3.88-1.57-1.36-2.93-2.53-5-2.88a6.81 6.81 0 0 0 -7.31 3.25l-4-2.11a11.45 11.45 0 0 1 12.11-5.63z" fill="none"/><path d="m369.42 199.57c-3.89 0-6.69 2.8-6.69 7.6s2.8 7.59 6.69 7.59 6.7-2.8 6.7-7.59-2.8-7.6-6.7-7.6z" fill="none"/><path d="m334.92 243.54c-2.78.09-4.92 1.49-4.92 3.78s2 3.79 4.92 3.8 5.33-1.12 5.37-3.8c.03-2.46-2.07-3.91-5.37-3.78z" fill="none"/><path d="m316 243.55c-3.09 0-5 1.6-4.91 3.82.08 2.06 2.14 3.81 5 3.81 3.07 0 5-1.75 4.93-3.81s-1.94-3.82-5.02-3.82z" fill="none"/><path d="m228.38 207.17c0 4.79 2.8 7.59 6.7 7.59s6.69-2.8 6.69-7.59-2.8-7.6-6.69-7.6-6.7 2.8-6.7 7.6z" fill="none"/><path d="m188.47 113.2v-5.71h.1l-15.56-15.56v-22.51h-5.7v24.87l18.92 18.91z" fill="#55dc77"/><path d="m190.09 95.18-7.01-7.02v-19.37l5.46-5.46-8.08-8.08v-5.16h-5.7v7.52l5.72 5.72-3.1 3.1v24.1l10.37 10.36h.72v-5.71z" fill="#55dc77"/><path d="m280.42 113.2h2.24l19.77-19.76v-22.5h-5.7v20.14l-16.42 16.41h.11z" fill="#55dc77"/><path d="m280.42 100.89h.72l11.11-11.1v-22.53l-3.03-3.02 2.85-2.85v-10.53h-5.7v8.17l-5.21 5.21 5.39 5.38v17.81l-7.75 7.75h1.62z" fill="#55dc77"/><path d="m193.52 82.87v-10.66l9.69-9.7-12-12.01v-10.21h-5.71v12.57l9.65 9.65-7.33 7.33v18.74h.65v-5.71z" fill="#55dc77"/><path d="m212.68 55.74-10.3-10.29v-14.17h-5.7v16.53l10.3 10.29v6.66h5.7z" fill="#55dc77"/><path d="m224.99 50.14-9.01-9v-8.2l8.17-8.17-4.03-4.04-9.84 9.85v12.92l9.01 9.01v12.25h5.7z" fill="#55dc77"/><path d="m237.29 58.16 8.11-8.1-13.14-13.14v-4.96h-5.7v7.32l10.78 10.78-5.74 5.74v8.96h5.69z" fill="#55dc77"/><path d="m249.6 61.59 7.93-7.92v-10.54l-12.36-12.36v-9.68h-5.7v12.04l12.36 12.36v5.82l-7.92 7.92v5.53h5.69z" fill="#55dc77"/><path d="m261.92 64.5 7.03-7.04v-22.67l-11.19-11.19-4.03 4.03 9.52 9.52v17.95l-7.04 7.04v2.62h5.71z" fill="#55dc77"/><path d="m280.42 88.58h.87v-19.38l-5.5-5.5 4.76-4.76v-19.52h-5.7v17.16l-7.12 7.12 7.86 7.87v11.3h4.83z" fill="#55dc77"/><path d="m284.18 125.51 13.86-13.85-4.03-4.03-12.19 12.18h-1.4v5.7z" fill="#55dc77"/><path d="m187.07 119.81-13.32-13.32-4.03 4.03 14.99 14.99h3.76v-5.7z" fill="#55dc77"/><path d="m188.47 113.2h6.2v6.58h-6.2v5.72h6.2v6.58h-6.2v5.73h6.2v5.19a7.19 7.19 0 0 0 7.18 7.18h5.15v5.82h5.71v-5.82h6.6v5.82h5.69v-5.82h6.6v5.82h5.71v-5.82h6.6v5.82h5.71v-5.82h6.6v5.82h5.71v-5.82h5.07a7.19 7.19 0 0 0 7.18-7.18v-5.11h6.2v-5.73h-6.2v-6.58h6.2v-5.72h-6.2v-6.58h6.2v-5.73h-6.2v-6.58h6.2v-5.79h-6.2v-6.58h6.2v-5.73h-6.2v-5.11a7.2 7.2 0 0 0 -7.18-7.19h-5.12v-5.81h-5.71v5.81h-6.6v-5.81h-5.67v5.81h-6.6v-5.81h-5.71v5.81h-6.59v-5.81h-5.71v5.81h-6.6v-5.81h-5.69v5.81h-5.12a7.2 7.2 0 0 0 -7.18 7.19v5.11h-6.2v5.73h6.2v6.58h-6.2v5.73h6.2v6.58h-6.2zm11.9-35.44a1.49 1.49 0 0 1 1.48-1.49h65.15a1.49 1.49 0 0 1 1.49 1.49v65.24a1.49 1.49 0 0 1 -1.49 1.48h-65.15a1.48 1.48 0 0 1 -1.48-1.48z" fill="#445"/><path d="m222.6 100.81a7.91 7.91 0 0 0 -2.08-.29 8 8 0 0 0 -8 8 6.27 6.27 0 0 0 12.54 0 4.5 4.5 0 0 0 -9 0 2.73 2.73 0 0 0 5.45 0 .95.95 0 1 0 -1.9 0 .83.83 0 0 1 -1.65 0 2.6 2.6 0 1 1 5.19 0 4.37 4.37 0 0 1 -8.73 0 6.14 6.14 0 1 1 12.28 0 7.92 7.92 0 0 1 -7.91 7.91h-.86a8.74 8.74 0 0 0 1 .07 8.3 8.3 0 0 0 3.69-15.74z" fill="#55dc77"/><path d="m243.57 108.57a6.27 6.27 0 0 0 12.54 0 4.5 4.5 0 1 0 -9 0 2.72 2.72 0 1 0 5.44 0 .95.95 0 1 0 -1.9 0 .82.82 0 0 1 -1.64 0 2.6 2.6 0 1 1 5.19 0 4.37 4.37 0 0 1 -8.74 0 6.14 6.14 0 1 1 12.28 0 7.92 7.92 0 0 1 -7.91 7.91h-.83a8.76 8.76 0 0 0 1 .07 8.3 8.3 0 0 0 3.69-15.74 8 8 0 0 0 -10.13 7.76z" fill="#55dc77"/><g fill="#445"><path d="m218.91 95.37a13 13 0 1 0 12.72 11 2.83 2.83 0 0 1 5.66 0 12.88 12.88 0 1 0 2.1-5.37 7.36 7.36 0 0 0 -9.85 0 12.87 12.87 0 0 0 -10.63-5.63zm0 21.18a8.74 8.74 0 0 1 -1-.07 8.32 8.32 0 0 1 -7.29-8.24 2.11 2.11 0 0 1 0-.25 8.31 8.31 0 0 1 8.29-8.06 8.16 8.16 0 0 1 3.69.88 8.3 8.3 0 0 1 -3.69 15.74zm22.8-8.56a8.32 8.32 0 0 1 8.3-8.06 8.22 8.22 0 0 1 3.69.88 8.3 8.3 0 0 1 -3.7 15.74 8.76 8.76 0 0 1 -1-.07 8.31 8.31 0 0 1 -7.28-8.24c-.02-.08-.01-.17-.01-.24z"/><path d="m252.37 123.21c-.92 2-4.78 4.14-10.11 4.14h-15.6c-5.33 0-9.18-2.13-10.11-4.14l-3.39 1.56-.92.18c1.69 8.83 7.62 15 14.42 15h15.6c6.8 0 12.73-6.17 14.42-15l-.92-.18zm-10.11 12.18h-15.6c-2.84 0-5.48-1.79-7.39-4.73a21.65 21.65 0 0 0 7.39 1.25h15.6a21.65 21.65 0 0 0 7.39-1.25c-1.91 2.94-4.55 4.73-7.39 4.73z"/><path d="m216.69 87.75c2 .35 3.4 1.52 5 2.88 2.1 1.82 4.49 3.88 8.62 3.88v-4.51c-2.44 0-3.85-1.22-5.64-2.77s-3.88-3.35-7.18-3.92a11.45 11.45 0 0 0 -12.15 5.67l4 2.11a6.81 6.81 0 0 1 7.35-3.34z"/><path d="m252.23 87.75a6.81 6.81 0 0 1 7.34 3.25l2-1.07 2-1a11.47 11.47 0 0 0 -12.16-5.67c-3.3.57-5.36 2.35-7.18 3.92s-3.15 2.82-5.59 2.82v4.56c4.13 0 6.52-2.06 8.63-3.88 1.56-1.41 2.92-2.58 4.96-2.93z"/><path d="m89.38 212.87h-.5l-7.55-28.29h-11.29v34.98h6.4v-28.18h.5l7.54 28.18h9.29l7.55-28.18h.5v28.18h6.39v-34.98h-11.29z"/><path d="m128.74 216.36h.5v3.2h6.1v-15.64c0-6.19-4.25-9.84-10.74-9.84s-10.4 3.65-12.1 7.74l6 2.05c.6-2.8 2.4-4.8 5.8-4.8s4.79 2 4.79 4.4v.6l-7.79 1.2c-5.2.8-9.1 2.95-9.1 7.64s3.8 7.35 8.9 7.35c4.9 0 6.84-2.45 7.64-3.9zm-6.14-.9c-2.8 0-4-1.3-4-2.9s1.25-2.59 3.5-2.94l7.09-1.1v.65c-.05 3.69-2.6 6.29-6.59 6.29z"/><path d="m165.15 219.56v-35h-6.3v13.44h-.5c-1.4-2-3.79-3.89-8.09-3.89-5.9 0-11.19 5-11.19 13.09s5.29 13.09 11.19 13.09a9.25 9.25 0 0 0 8.19-4h.5v3.35zm-13-4.7c-3.9 0-6.8-2.79-6.8-7.69s2.9-7.7 6.8-7.7 6.79 2.8 6.79 7.7-2.89 7.69-6.78 7.69z"/><path d="m191.07 184.58h-14.38v35h6.59v-12.81h7.79c6.45 0 11.2-4.4 11.2-11.09s-4.6-11.1-11.2-11.1zm-.64 16.19h-7.15v-10.19h7.15a5.1 5.1 0 1 1 0 10.19z"/><path d="m205.28 194.78v24.78h6.29v-14.39c0-3.5 2.3-5.2 5.5-5.2h3.7v-5.29h-2.6c-3.15 0-5.25.95-6.2 3.59h-.5v-3.49z"/><path d="m222.08 207.17c0 8.09 5.6 13.09 13 13.09s13-5 13-13.09-5.6-13.09-13-13.09-13 4.99-13 13.09zm19.69 0c0 4.79-2.8 7.59-6.69 7.59s-6.7-2.8-6.7-7.59 2.8-7.6 6.7-7.6 6.69 2.8 6.69 7.6z"/><path d="m269.78 209.32c-.55 3.19-2.4 5.44-6.19 5.44s-6.7-2.8-6.7-7.59 2.9-7.6 6.7-7.6 5.64 2.4 6 5.4l6.1-1.3c-1.1-5.55-5.3-9.59-12.19-9.59a13.09 13.09 0 0 0 0 26.18c6.94 0 11-4 12.39-9.49z"/><path d="m302.23 214.16-5-3.09a6.8 6.8 0 0 1 -6.3 3.79 6.17 6.17 0 0 1 -6.29-5.74h18v-2.35c0-7.65-4.84-12.69-12-12.69s-12.44 5.19-12.44 12.89 5.15 13.29 12.74 13.29a13 13 0 0 0 11.29-6.1zm-11.69-14.69c3.25 0 5.35 2 5.7 5.25h-11.59c.4-3.15 2.35-5.25 5.89-5.25z"/><path d="m318.34 204.72-2.49-.5c-2.7-.55-4-1.2-4-2.8s1.55-2.45 4-2.45a6.67 6.67 0 0 1 6.79 4.8l5.6-2.25a13.46 13.46 0 0 0 -12.49-7.44c-5.8 0-10.05 2.85-10.05 7.54s4.15 6.8 9.35 7.85l2.49.5c2.9.6 4.3 1.1 4.3 2.69s-1.5 2.7-4.6 2.7-6-1.1-7.19-5.24l-5.7 2c2.05 5.34 6.8 8.14 13 8.14s10.6-2.8 10.6-7.9-4.51-6.64-9.61-7.64z"/><path d="m341.86 199a6.68 6.68 0 0 1 6.8 4.8l5.59-2.25a13.44 13.44 0 0 0 -12.49-7.44c-5.79 0-10 2.85-10 7.54s4.15 6.8 9.34 7.85l2.5.5c2.9.6 4.3 1.1 4.3 2.69s-1.5 2.7-4.6 2.7-6-1.1-7.19-5.24l-5.7 2c2.05 5.34 6.8 8.14 13 8.14s10.59-2.8 10.59-7.9-4.54-6.64-9.64-7.64l-2.5-.5c-2.7-.55-4-1.2-4-2.8s1.5-2.45 4-2.45z"/><path d="m369.42 194.08c-7.39 0-13 5-13 13.09s5.6 13.09 13 13.09 13-5 13-13.09-5.6-13.09-13-13.09zm0 20.68c-3.89 0-6.69-2.8-6.69-7.59s2.8-7.6 6.69-7.6 6.7 2.8 6.7 7.6-2.8 7.59-6.7 7.59z"/><path d="m399.26 194.68c-3.14 0-5.24.95-6.19 3.59h-.5v-3.49h-6.2v24.78h6.3v-14.39c0-3.5 2.3-5.2 5.49-5.2h3.7v-5.29z"/></g><path d="m136.85 250.19a6.92 6.92 0 0 1 -3.52.91c-3.09 0-5-1.62-5-3.74s1.54-3.7 4.84-3.78a6.49 6.49 0 0 1 5 2.1l2.33-1.55s-1.76-3-7.17-3-7.94 3-7.94 6.26c0 3.35 2.59 6.26 7.94 6.26 4.91 0 7.09-2.71 7.37-3.08l-2.21-1.64a6.09 6.09 0 0 1 -1.64 1.26z" fill="#55dc77"/><path d="m150.26 241.26c-4.51 0-8.16 2.21-8.16 6.19s3.65 6.19 8.16 6.19 8.16-2.26 8.16-6.19-3.66-6.19-8.16-6.19zm0 9.92c-2.81 0-4.87-1.75-4.95-3.81-.08-2.22 1.82-3.82 4.91-3.82s4.93 1.66 5 3.82-1.92 3.81-4.99 3.81z" fill="#55dc77"/><path d="m184.76 242.57c-2.49-2.56-6.72-1.57-8.08-.5a7.22 7.22 0 0 0 -1.86 2.13c0-.06-.09-.22-.13-.28a5 5 0 0 0 -2.89-2.57 7 7 0 0 0 -6.16.64 3.9 3.9 0 0 0 -1.64 1.73l-.22-2.33h-2.88v11.93h3.24c0-1.83 0-2.7 0-4.53a7.11 7.11 0 0 1 .76-3.56 4.25 4.25 0 0 1 2.44-1.78 3.57 3.57 0 0 1 3.62.7 3.33 3.33 0 0 1 1 1.31 7.75 7.75 0 0 1 .42 2.91v4.91h3.26c0-1.82 0-2.69 0-4.52v-.05c0-3.06 1-4.46 2.59-5.06a3.91 3.91 0 0 1 3.8.52c1 .92 1.27 2.29 1.27 4.19v4.91h3.22v-4.63c0-.28 0-1 0-1.45a6.44 6.44 0 0 0 -1.76-4.62z" fill="#55dc77"/><path d="m197.68 241.19a6 6 0 0 0 -4.88 2.6l-.22-2.46h-2.81v17.93h3v-7.79s1.13 1.86 5.11 2.13c6 .43 9-2.39 9-6.37-.02-4.35-4.35-6.43-9.2-6.04zm.29 9.93c-2.91 0-4.92-1.43-4.92-3.8s2.15-3.69 4.92-3.78c3.3-.13 5.4 1.32 5.37 3.78-.04 2.68-2.34 3.81-5.34 3.8z" fill="#55dc77"/><path d="m220 241.29v5.68a3.7 3.7 0 0 1 -2.34 3.86 4.36 4.36 0 0 1 -4.12-.35c-1.17-.93-1.1-2.25-1.09-4.28s0-2.83 0-4.91h-3.06v4.64 1.17c0 1.46.13 3.85 1.67 5.18 2.11 1.83 5.9 1.39 7.34.39a4.79 4.79 0 0 0 1.72-1.88l.17 2.43h2.86v-11.92z" fill="#55dc77"/><path d="m231.42 250.25a2.54 2.54 0 0 1 -.59-2.07v-4.24h4.32v-2.55h-4.32v-5.58h-2.56l-.39 5.58h-2.5v2.55h2.5v4.06a22.5 22.5 0 0 0 .11 2.56 3.08 3.08 0 0 0 1.72 2.42c1.76.85 5.38.31 5.38.31l.11-2.65s-1 .07-1.6.07a3.69 3.69 0 0 1 -2.18-.46z" fill="#55dc77"/><path d="m251.14 244a7.25 7.25 0 0 0 -6.29-2.94c-5.32 0-8.12 3.11-8.12 6.28 0 3.34 2.77 6.27 8.12 6.27 4.91 0 7.08-2.71 7.36-3.09l-2.21-1.66a6.33 6.33 0 0 1 -1.62 1.28 6.91 6.91 0 0 1 -3.51.84c-2.66 0-4.57-1.17-5-2.83h12.5a7.18 7.18 0 0 0 -1.23-4.15zm-11.16 2c.58-1.48 2.19-2.6 4.74-2.66 3.06-.06 4.06 1.81 4.23 2.66z" fill="#55dc77"/><path d="m259.75 241.79a6.36 6.36 0 0 0 -1.77 1.84l-.27-2.25h-2.78v11.9h3.07c0-1.83 0-3.57 0-3.57 0-2-.07-5 2.42-5.56a9.22 9.22 0 0 1 3.54.2l.18-2.69h-.26c-1.11-.23-2.94-.55-4.13.13z" fill="#55dc77"/><path d="m285.87 246.62c-1.37-.56-4.24-.7-6.57-1.12-1.63-.29-1.72-1.06-1.48-1.45.43-.68 1.91-.81 3.72-.68a7.59 7.59 0 0 1 4.34 1.68l1.85-2.07a11.78 11.78 0 0 0 -9.73-1.82 4 4 0 0 0 -3.07 2.15 2.77 2.77 0 0 0 .59 3.32c1.27 1.21 3 1.4 5.2 1.67 1.56.19 4.22.28 4.41 1.19.4 1.83-4.49 1.92-6.78 1.06a5.88 5.88 0 0 1 -2.12-1.26l-2.05 1.83a4.35 4.35 0 0 0 1.26 1c3.42 2 9.22 1.92 11.44.17a3.33 3.33 0 0 0 1.27-3.3c-.25-1.13-.78-1.75-2.28-2.37z" fill="#55dc77"/><path d="m303.57 242.52a7.21 7.21 0 0 0 -7.84-.54 4.73 4.73 0 0 0 -1.74 1.71v-9.69h-3.09v19.26h3.23c0-1.82 0-2.69 0-4.52a6.55 6.55 0 0 1 .65-3.32c1.35-2.2 4.9-2.23 6.14-1.25s1.44 2.37 1.43 4.4 0 2.61 0 4.69h3.21v-4.64c0-.27 0-.71 0-1.17a6.58 6.58 0 0 0 -1.99-4.93z" fill="#55dc77"/><path d="m316.07 241.26c-4.51 0-8.16 2.21-8.16 6.19s3.65 6.19 8.16 6.19 8.15-2.26 8.15-6.19-3.65-6.19-8.15-6.19zm0 9.92c-2.81 0-4.87-1.75-5-3.81-.08-2.22 1.82-3.82 4.91-3.82s4.93 1.66 5 3.82-1.87 3.81-4.98 3.81z" fill="#55dc77"/><path d="m334.62 241.19a6 6 0 0 0 -4.87 2.6l-.23-2.46h-2.81v17.93h3v-7.79s1.13 1.86 5.1 2.13c6 .43 9-2.39 9-6.37 0-4.35-4.33-6.43-9.19-6.04zm.3 9.93c-2.92 0-4.92-1.43-4.92-3.8s2.14-3.69 4.92-3.78c3.3-.13 5.4 1.32 5.37 3.78-.04 2.68-2.29 3.81-5.37 3.8z" fill="#55dc77"/></svg>