<svg viewBox="0 0 470 280" xmlns="http://www.w3.org/2000/svg"><g fill="#c96"><path d="m171.15 229.42a6.08 6.08 0 0 0 -1.9 2.82l-3.88 11.56a2.78 2.78 0 0 0 .34 2.62h-6.22a2.91 2.91 0 0 0 .21-2.62l-3.81-11.56a7.16 7.16 0 0 0 -1.87-2.82h5.44a5.34 5.34 0 0 0 0 2.79l2.08 7c.3 1.33.88 3.37 1.05 4.69.17-1.32.68-3.36 1-4.69l2.11-7a5.2 5.2 0 0 0 0-2.79z"/><path d="m187.62 237.75h-12.48c.07 3.95 2 6.22 5.2 6.22a3.88 3.88 0 0 0 3.64-2.21l3 1.74c-1.36 1.32-3.37 3.26-6.7 3.26-5.13 0-8.5-3.6-8.5-9s3.06-8.71 8.16-8.71a7.46 7.46 0 0 1 7.69 7.69zm-3.3-1.94a4.31 4.31 0 0 0 -4.39-4 4.38 4.38 0 0 0 -4.62 4z"/><path d="m206.29 246.42h-5.37a4.29 4.29 0 0 0 1-3.06v-6.15c0-3.74-1.15-5.37-3.6-5.37a4.11 4.11 0 0 0 -4.05 4.18v7.34a4.27 4.27 0 0 0 1 3.06h-5.37a4.29 4.29 0 0 0 1-3.06v-10.88a4.29 4.29 0 0 0 -1-3.06h4.48l-.1 1.87v.14a5.9 5.9 0 0 1 5-2.35c3.84 0 6.08 2.38 6.08 6.87v7.41a4.27 4.27 0 0 0 .93 3.06z"/><path d="m223.91 243.36a4.29 4.29 0 0 0 1 3.06h-4l.1-1.94a6.58 6.58 0 0 1 -5.23 2.28c-4.63.07-7.14-3.84-7.14-8.87 0-6.5 3.53-8.84 7.1-8.84a6.49 6.49 0 0 1 4.8 1.9v-4.73a4.32 4.32 0 0 0 -1-3.06h5.37a4.34 4.34 0 0 0 -1 3.06zm-3.4-4.89v-1.67c-.17-2.14-1-4.76-4.18-4.76-2.76 0-4.36 2.07-4.36 5.85 0 3.43 1.47 5.91 4.39 5.88 1.9-.03 4.15-.77 4.15-5.3z"/><path d="m243.07 237.75h-12.47c.06 3.95 2 6.22 5.2 6.22a3.88 3.88 0 0 0 3.64-2.21l3 1.74c-1.36 1.32-3.37 3.26-6.7 3.26-5.13 0-8.5-3.6-8.5-9s3.06-8.71 8.16-8.71a7.45 7.45 0 0 1 7.68 7.69zm-3.29-1.94a4.32 4.32 0 0 0 -4.39-4 4.38 4.38 0 0 0 -4.62 4zm-7.25-8.26-.68-1.67a6.5 6.5 0 0 0 5-4l1.36 1.8a15.39 15.39 0 0 1 -5.68 3.87z"/><path d="m261.25 248c0 2.41-1.94 5.34-8 5.34-6.56 0-8-2.35-8-4.46 0-1.42 1.13-2.85 3.1-3.57a2.8 2.8 0 0 1 -3-2.78 4.25 4.25 0 0 1 1.87-3.17 6.29 6.29 0 0 1 -1.26-3.91c0-3.7 2.66-6.35 6.94-6.35h7.31l.65 2.51-2.76-.58a6.24 6.24 0 0 1 1.7 4.42c0 3.74-2.65 6.26-6.9 6.26a8.26 8.26 0 0 1 -3.88-.88 3.33 3.33 0 0 0 -.71 1.46c0 .81.48 1.32 2.48 1.32h5.41c3.59.02 5.05 2.13 5.05 4.39zm-3.33-.2a1.89 1.89 0 0 0 -2-2h-5c-1.23.78-2.28 1.7-2.28 2.79 0 1.87 2.24 2.21 4.62 2.21 3.74.01 4.66-1.93 4.66-2.98zm-8.78-12.35c0 2.32 1.36 3.61 3.71 3.61a3.59 3.59 0 1 0 0-7.18c-2.31.02-3.71 1.35-3.71 3.59z"/><path d="m279.73 246.42h-5.37a4.27 4.27 0 0 0 1-3.06v-6.15c0-3.74-1.16-5.37-3.57-5.37a4.11 4.11 0 0 0 -4.09 4.16v7.34a4.29 4.29 0 0 0 1 3.06h-5.37a4.27 4.27 0 0 0 1-3.06v-17.12a4.32 4.32 0 0 0 -1-3.06h5.37a4.34 4.34 0 0 0 -1 3.06v5.21a5.88 5.88 0 0 1 5-2.35c3.84 0 6.09 2.38 6.09 6.87v7.41a4.29 4.29 0 0 0 .94 3.06z"/><path d="m297.39 243.36a4.29 4.29 0 0 0 1 3.06h-3.7l.17-2a6.61 6.61 0 0 1 -5.54 2.31c-5.1 0-7.25-3.84-7.25-8.94 0-6.53 3.64-8.84 7.31-8.84a6.6 6.6 0 0 1 5.27 2.28l-.2-1.84h3.94a4.29 4.29 0 0 0 -1 3.06zm-3.4-5v-.75c0-2.25-.51-5.68-4.22-5.68-2.75 0-4.35 2.11-4.35 5.85 0 3.5 1.09 6 4.42 6 2.89-.08 4.16-1.68 4.16-5.38zm-6.5-10.81-.68-1.67a6.5 6.5 0 0 0 5-4l1.36 1.81a15.5 15.5 0 0 1 -5.68 3.9z"/><path d="m314.34 242.85-1.29 3.57h-11.52l-1.23-2.68 9.45-11.43h-5.23a13.86 13.86 0 0 0 -4.46.72l1.33-3.61h11.32l1.23 2.69-9.73 11.49h5.68a14.19 14.19 0 0 0 4.45-.75z"/><path d="m35.19 176.18c0-14.65 11-25.75 25.82-25.75a25.77 25.77 0 0 1 18.21 7.11l-6.22 6.89c-2.61-4.64-6.16-6.1-12-6.1-10.37 0-17.84 7.48-17.84 17.85 0 10.59 7.69 17.84 17.63 17.84a18 18 0 0 0 12.54-4.86v-6.09a8.06 8.06 0 0 0 -1.81-5.59h10.89c-1.16 1.16-2.1 3.34-2.1 6.75v9.86a27.51 27.51 0 0 1 -19.51 7.84c-14.66 0-25.61-10.81-25.61-25.75z"/><path d="m87.35 175.09v-9.58c0-10.08 6.16-15 16-15s16 4.93 16 15v9.58c0 10.15-6.16 15.09-16 15.09s-16-4.94-16-15.09zm23.57 26.11h-20.45l1.16-5.65h19.58c1.67 0 4.14-.22 5.59-.37l-1.38 6.75a11.46 11.46 0 0 0 -4.5-.73zm.94-26v-9.65c0-5.52-2.83-8.27-8.56-8.27s-8.56 2.75-8.56 8.34v9.5c0 5.59 2.91 8.34 8.56 8.34 5.81.04 8.56-2.78 8.56-8.22z"/><path d="m127 186.55v-30.39c0-3.77-1.81-5.59-2-5.73h11.25c-.15.07-1.74 1.52-1.74 4.86v31c0 5.59 3 8.63 8.92 8.63s8.92-3 8.92-8.63v-31c0-3.34-1.67-4.79-1.81-4.86h11.31c-.21.14-2 2-2 5.73v30.39c0 9-5.22 15.38-16.39 15.38s-16.46-6.38-16.46-15.38z"/><path d="m197.75 192.86-2.75 8.34h-26.77c.21-.21 2.1-2.17 2.1-6.53v-37.67c0-4.36-1.89-6.32-2.1-6.53h11.68c-.22.21-2.11 2.17-2.11 6.53v37.5h10.2a31.9 31.9 0 0 0 9.75-1.64z"/><path d="m244.1 176c0 17.19-10.15 25.24-27.2 25.24h-12.48c.22-.21 2.11-2.17 2.11-6.53v-36.96c-2.11 0-10.45.44-10.45 8.13 0 3.33 1.53 5.29 5.52 5.66l-2 6.09c-7.18-1.16-10.74-5.95-10.74-12.48 0-9.79 8.13-14.72 17.41-14.72h10.63c17.1 0 27.2 8.19 27.2 25.57zm-7.61-.07c0-10.45-4.14-18.35-18.14-18.35h-4.35v36.42h4.35c14 0 18.14-7.67 18.14-18.11z"/><path d="m309.75 150.43a17 17 0 0 0 -4.79 7.83l-12.91 37.07a6.23 6.23 0 0 0 .58 5.87h-12.69a6.26 6.26 0 0 0 .65-5.8l-12.33-37.14a17.38 17.38 0 0 0 -4.79-7.83h12.33c-.72 1.38-.72 3.7 0 6.09l8.71 29.38c.51 1.67 1.38 4.42 1.81 6.67.51-2.39 1.45-5.37 2-7l9.21-29.09c.73-2.4.8-4.64 0-6z"/><path d="m316.21 194.67v-37.67c0-4.36-1.89-6.32-2.1-6.53h11.6c-.22.21-2.1 2.17-2.1 6.53v37.71c0 4.36 1.88 6.32 2.1 6.53h-11.6c.21-.24 2.1-2.24 2.1-6.57z"/><path d="m371.92 194.46a32 32 0 0 0 9.72-1.6l-2.76 8.34h-45.48c.22-.21 2.1-2.17 2.1-6.53v-37.67c0-4.36-1.88-6.32-2.1-6.53h11.68c-.22.21-2.1 2.17-2.1 6.53v37.5zm-17.92-15.96v-21.69c0-4.35-1.88-6.38-2.1-6.53h11.1c-.22.15-2.11 2.18-2.11 6.53v21.47h11.25a31.94 31.94 0 0 0 9.71-1.59l-2.75 8.31h-27.2c.22-.19 2.1-2.15 2.1-6.5z"/><path d="m423.06 201.2a13 13 0 0 0 -.29-5.94l-3.34-9.58a24.23 24.23 0 0 1 -9.94 2.1 26.66 26.66 0 0 1 -9.49-1.78l-3.48 9.43a12.19 12.19 0 0 0 -.29 5.73h-11.62c2.18-1.95 3.41-4.13 4.72-7.47l14.36-37.57a7 7 0 0 0 -.29-5.73h13.35a7.11 7.11 0 0 0 -.36 5.8l13.61 37.4c1.52 3.55 2.61 5.58 4.86 7.61zm-5.44-20.6-7.62-21.76-8.12 22.16c4.21 1.42 10.3 2.07 15.74-.4z"/><path d="m297.71 78.76-1.08-1.09-1.09 1.09.82.81v4.83l-.82.81 1.09 1.09 1.08-1.09-.81-.81v-4.83z"/><path d="m301.94 81.98-1.08-1.08-1.09 1.08.81.82v1.6l-.81.81 1.09 1.09 1.08-1.09-.81-.81v-1.6z"/><path d="m304.32 84.44h1.53v1.53h-1.53z" transform="matrix(.70710678 -.70710678 .70710678 .70710678 29.1 240.67)"/><path d="m231.49 79.3h-8.12v22.29h8.12zm-.62 21.7h-6.87v-21h6.88z"/><path d="m236.85 101.59h8.15v-22.29h-8.13zm.63-21.66h6.87v21h-6.87z"/><path d="m185.49 69.08-1.08-1.08-1.09 1.08.82.81v14.51l-.82.81 1.09 1.09 1.08-1.09-.81-.81v-14.51z"/><path d="m181.26 72.31-1.08-1.09-1.09 1.09.82.81v11.28l-.82.81 1.09 1.09 1.08-1.09-.81-.81v-11.28z"/><path d="m177.03 75.53-1.08-1.08-1.08 1.08.81.82v8.05l-.81.81 1.08 1.09 1.08-1.09-.81-.81v-8.05z"/><path d="m172.81 78.76-1.09-1.09-1.08 1.09.81.81v4.83l-.81.81 1.08 1.09 1.09-1.09-.82-.81v-4.83z"/><path d="m168.58 81.98-1.09-1.08-1.08 1.08.81.82v1.6l-.81.81 1.08 1.09 1.09-1.09-.82-.81v-1.6z"/><path d="m162.5 84.44h1.53v1.53h-1.53z" transform="matrix(.70710678 -.70710678 .70710678 .70710678 -12.44 140.4)"/><path d="m188.91 66.67.81-.82-1.08-1.08-1.09 1.08.82.82v17.73l-.82.81 1.09 1.09 1.08-1.09-.81-.81z"/><path d="m209.35 59.74h1.53v1.53h-1.53z" transform="matrix(.70710678 -.70710678 .70710678 .70710678 18.76 166.29)"/><path d="m206.86 60.5-1.09-1.08-1.08 1.08.81.82v3.74l-.81.81 1.08 1.09 1.09-1.09-.82-.81v-3.75z"/><path d="m202.52 60.5-1.09-1.08-1.08 1.08.81.82v9.11l-.81.81 1.08 1.09 1.09-1.09-.82-.81v-9.12z"/><path d="m280.79 65.85-1.08-1.08-1.08 1.08.81.82v17.73l-.81.81 1.08 1.09 1.08-1.09-.81-.81v-17.73z"/><path d="m285.02 69.08-1.08-1.08-1.09 1.08.82.81v14.51l-.82.81 1.09 1.09 1.08-1.09-.81-.81v-14.51z"/><path d="m289.25 72.31-1.08-1.09-1.09 1.09.82.81v11.28l-.82.81 1.09 1.09 1.08-1.09-.81-.81v-11.28z"/><path d="m293.48 75.53-1.08-1.08-1.09 1.08.82.81v8.06l-.82.81 1.09 1.09 1.08-1.09-.81-.81v-8.05z"/><path d="m257.47 59.74h1.53v1.53h-1.53z" transform="matrix(.70710678 -.70710678 .70710678 .70710678 32.86 200.33)"/><path d="m263.66 60.5-1.09-1.08-1.08 1.08.81.81v3.75l-.81.81 1.08 1.09 1.09-1.09-.81-.81v-3.74z"/><path d="m267.19 61.31.81-.81-1.08-1.08-1.09 1.08.82.82v9.11l-.82.81 1.09 1.09 1.08-1.09-.81-.81z"/><path d="m348.86 105.89-69.52-54.23c-.51-.58-2.06-2-2.12-2.06a50.78 50.78 0 0 0 -7.58-4.29c-.61-.3-1.5-.82-2.53-1.44a42.5 42.5 0 0 0 -4.72-2.56c-.59-.31-1.39-.78-2.39-1.31a43.52 43.52 0 0 0 -4.25-2.32c-.53-.25-1.29-.7-2.17-1.22-1.19-.7-2.53-1.48-3.73-2.05l-.19-.1-1.24-.72c-1.47-.85-3.47-2-5-2.67-.3-.13-.61-.28-.91-.43-1-.55-2-1.16-3-1.71l-.84-.49a16.14 16.14 0 0 0 -1.72-1 6.65 6.65 0 0 0 -5.65 0 15.2 15.2 0 0 0 -1.72 1l-.84.49c-.93.55-2 1.16-3 1.71-.3.15-.61.3-.91.43-1.5.66-3.51 1.83-5 2.68l-1.23.71-.18.1c-1.2.56-2.55 1.35-3.74 2.05-.88.52-1.64 1-2.16 1.22a42.49 42.49 0 0 0 -4.16 2.32c-1 .57-1.81 1.06-2.4 1.35a42.5 42.5 0 0 0 -4.72 2.56c-1 .62-1.93 1.15-2.54 1.44a51.43 51.43 0 0 0 -7.57 4.29c-.07 0-1.62 1.48-2.12 2.06l-69.32 54.08-.2.15v6.07l.75.11a8.86 8.86 0 0 1 5.64-1.78 5.55 5.55 0 0 0 2-.26 3.2 3.2 0 0 0 1.95-2.11l.15-.06h.12l.39.21 16.11-6v11h4.58v-10.9h2v-.58a2.65 2.65 0 0 0 1.94.56 14.23 14.23 0 0 0 4.12-1.27 24.29 24.29 0 0 1 4-1.4 34.63 34.63 0 0 1 7.29-.6h.47c.16 0 .16 0 .24.31v.16c.19.64.46.77.82.77s.62-.13.81-.77v-.16c.08-.28.08-.28.2-.3h.4a34.63 34.63 0 0 1 7.29.6 24.29 24.29 0 0 1 4 1.4 14.42 14.42 0 0 0 4.12 1.27 2.67 2.67 0 0 0 1.94-.56v.58h2v10.78h4.58v-10.9h2v-.71a2.23 2.23 0 0 0 2 .46 3.43 3.43 0 0 0 1.53-1.45c.72-1 1.45-2 3.26-2h2.42a20.86 20.86 0 0 1 6.39 11.21 20.88 20.88 0 0 1 12.05 7.15 20.41 20.41 0 0 1 14.23 0 20.88 20.88 0 0 1 12.05-7.15 20.8 20.8 0 0 1 6.26-11.24h2.41c1.8 0 2.54 1 3.25 2a3.45 3.45 0 0 0 1.54 1.45 2.24 2.24 0 0 0 2-.46v.71h2v10.93h4.58v-10.9h2v-.58a2.65 2.65 0 0 0 2 .56 14.42 14.42 0 0 0 4.12-1.27 24.17 24.17 0 0 1 4-1.4 34.72 34.72 0 0 1 7.3-.6h.36c.15 0 .16 0 .23.31l.05.16c.18.64.46.77.81.77s.63-.13.82-.77v-.16c.08-.28.08-.28.19-.3h.41a34.68 34.68 0 0 1 7.29.6 23.85 23.85 0 0 1 4 1.4 14.39 14.39 0 0 0 4.13 1.27 2.62 2.62 0 0 0 1.93-.56v.58h2v10.89h4.58v-11l16.12 6 .38-.21h.11l.16.07a3.24 3.24 0 0 0 2 2.11 5.5 5.5 0 0 0 2 .26 8.85 8.85 0 0 1 5.64 1.78l.76-.11zm-129.41-.73v-29.26l.19-.17h13.29l.51 1.37h-12.61v26.69h26.68v-26.69h-12.6l.52-1.37h13l.46.44v29zm28.78 1.28a21.29 21.29 0 0 1 -28.11 0zm-56.15-55.86a4.26 4.26 0 0 1 .76-.15 4 4 0 0 1 3.6 1.56.31.31 0 0 0 .4.09l2.72-1.54q.52-.08 1-.18a3.18 3.18 0 0 1 .52-.1 4.82 4.82 0 0 1 1.2 0 3.18 3.18 0 0 1 .52.1 13.88 13.88 0 0 0 5.88 0 3.29 3.29 0 0 1 .53-.1 4.74 4.74 0 0 1 1.19 0 3.29 3.29 0 0 1 .53.1 13.88 13.88 0 0 0 5.88 0 3.18 3.18 0 0 1 .52-.1 4.74 4.74 0 0 1 1.19 0 3.29 3.29 0 0 1 .53.1 13.88 13.88 0 0 0 5.88 0 3.1 3.1 0 0 1 .53-.1 4.74 4.74 0 0 1 1.19 0 3.18 3.18 0 0 1 .52.1 13.88 13.88 0 0 0 5.88 0 3.29 3.29 0 0 1 .53-.1 4.74 4.74 0 0 1 1.19 0 3.29 3.29 0 0 1 .53.1 13.88 13.88 0 0 0 5.88 0 3.18 3.18 0 0 1 .52-.1 4.74 4.74 0 0 1 1.19 0 3.1 3.1 0 0 1 .53.1 13.88 13.88 0 0 0 5.88 0 3.29 3.29 0 0 1 .53-.1 4.74 4.74 0 0 1 1.19 0 3.51 3.51 0 0 1 .53.1 13.83 13.83 0 0 0 5.87 0 3.29 3.29 0 0 1 .53-.1 4.74 4.74 0 0 1 1.19 0 3.29 3.29 0 0 1 .53.1 13.88 13.88 0 0 0 5.88 0 3.1 3.1 0 0 1 .53-.1 4.74 4.74 0 0 1 1.19 0 3.18 3.18 0 0 1 .52.1c.3.07.62.12.95.17l2.72 1.54a.31.31 0 0 0 .4-.09 4 4 0 0 1 3.6-1.56 4.15 4.15 0 0 1 .75.15l.62.48-2.1 2.11h-81.16l-2.1-2.11zm4.67.81h.08-.06zm36.72-18.24a3.05 3.05 0 0 1 1.41 0 8.6 8.6 0 0 0 3.43.05l3.62 2a9.05 9.05 0 0 1 -1.1-.17 4.17 4.17 0 0 0 -1.86 0 9 9 0 0 1 -3.87 0 4.13 4.13 0 0 0 -1.85 0 9 9 0 0 1 -3.87 0 4.17 4.17 0 0 0 -1.86 0 8.92 8.92 0 0 1 -1.11.17l3.63-2a8.6 8.6 0 0 0 3.43-.05zm-2.65-.39 3.35-1.89 3.35 1.89a8.29 8.29 0 0 1 -2.51-.13 3.62 3.62 0 0 0 -1.67 0 8.35 8.35 0 0 1 -2.52.13zm-3.16 2.9a3.51 3.51 0 0 1 1.58 0 9.68 9.68 0 0 0 4.15 0 3.47 3.47 0 0 1 1.57 0 9.68 9.68 0 0 0 4.15 0 3.51 3.51 0 0 1 1.58 0 9 9 0 0 0 2.07.23h.29l3.44 1.94a4.13 4.13 0 0 0 -.69.11 10.24 10.24 0 0 1 -4.27 0 4.18 4.18 0 0 0 -2.05 0 10.29 10.29 0 0 1 -4.28 0 4.18 4.18 0 0 0 -2 0 10.29 10.29 0 0 1 -4.28 0 4.18 4.18 0 0 0 -2.05 0 10.24 10.24 0 0 1 -4.27 0 4.13 4.13 0 0 0 -.69-.11l3.44-1.94a9 9 0 0 0 2.31-.23zm-5.26 2.89a10.72 10.72 0 0 0 4.58 0 3.93 3.93 0 0 1 1.74 0 10.72 10.72 0 0 0 4.58 0 4 4 0 0 1 1.75 0 10.72 10.72 0 0 0 4.58 0 3.93 3.93 0 0 1 1.74 0 10.72 10.72 0 0 0 4.58 0 4 4 0 0 1 1.75 0h.16l4.95 2.79a10.83 10.83 0 0 1 -3.66-.16 5 5 0 0 0 -2.25 0 10.86 10.86 0 0 1 -4.68 0 5 5 0 0 0 -2.24 0 10.86 10.86 0 0 1 -4.68 0 5 5 0 0 0 -2.25 0 10.86 10.86 0 0 1 -4.68 0 5 5 0 0 0 -2.24 0 10.86 10.86 0 0 1 -4.68 0 5 5 0 0 0 -2.25 0 10.84 10.84 0 0 1 -3.66.16l5-2.79a.9.9 0 0 0 .16 0 4 4 0 0 1 1.7 0zm-3 3.36a4.11 4.11 0 0 1 1.91 0 11.76 11.76 0 0 0 5 0 4.11 4.11 0 0 1 1.91 0 11.8 11.8 0 0 0 5 0 4.11 4.11 0 0 1 1.91 0 11.76 11.76 0 0 0 5 0 4.15 4.15 0 0 1 1.92 0 11.76 11.76 0 0 0 5 0 4.11 4.11 0 0 1 1.91 0 12 12 0 0 0 4.84 0l6.06 3.42a11 11 0 0 1 -1.91-.25 5 5 0 0 0 -2.44 0 12.13 12.13 0 0 1 -5.09 0 5 5 0 0 0 -2.43 0 12.13 12.13 0 0 1 -5.09 0 5 5 0 0 0 -2.44 0 12.13 12.13 0 0 1 -5.09 0 5 5 0 0 0 -2.43 0 12.13 12.13 0 0 1 -5.09 0 5 5 0 0 0 -2.44 0 12.13 12.13 0 0 1 -5.09 0 5 5 0 0 0 -2.43 0 12.13 12.13 0 0 1 -5.09 0 5 5 0 0 0 -2.44 0 11 11 0 0 1 -1.91.25l6.06-3.42a12 12 0 0 0 4.86 0zm-8.81 4a4.31 4.31 0 0 1 2.08 0 12.84 12.84 0 0 0 5.45 0 4.26 4.26 0 0 1 2.07 0 12.84 12.84 0 0 0 5.45 0 4.31 4.31 0 0 1 2.08 0 12.84 12.84 0 0 0 5.45 0 4.26 4.26 0 0 1 2.07 0 12.84 12.84 0 0 0 5.45 0 4.31 4.31 0 0 1 2.08 0 12.79 12.79 0 0 0 5.44 0 4.31 4.31 0 0 1 2.08 0 12.84 12.84 0 0 0 5.45 0 4.31 4.31 0 0 1 2.08 0 12.2 12.2 0 0 0 2.72.29h.71l5.83 3.28a5.8 5.8 0 0 0 -1.66.14 13.07 13.07 0 0 1 -5.5 0 5.57 5.57 0 0 0 -2.63 0 13 13 0 0 1 -5.49 0 5.57 5.57 0 0 0 -2.63 0 13.07 13.07 0 0 1 -5.5 0 5.57 5.57 0 0 0 -2.63 0 13 13 0 0 1 -5.49 0 5.57 5.57 0 0 0 -2.63 0 13 13 0 0 1 -5.49 0 5.57 5.57 0 0 0 -2.63 0 13.07 13.07 0 0 1 -5.5 0 5.57 5.57 0 0 0 -2.63 0 13 13 0 0 1 -5.49 0 5.57 5.57 0 0 0 -2.63 0 13.07 13.07 0 0 1 -5.5 0 5.31 5.31 0 0 0 -1.73-.13l5.83-3.29a12.79 12.79 0 0 0 3.41-.34zm61 5.51h.06zm46.41 57.87h2.92v2.89h-2.92zm2.09-.83h-1.25v-11.3h1.25zm-48.43.83h2.92v2.89h-2.92zm2.08-.83h-1.25v-11.3h1.25zm-80 .83h2.92v2.89h-2.92zm2.08-.83h-1.22v-11.3h1.25zm-48.43.83h2.92v2.89h-2.92zm2.09-.83h-1.25v-11.3h1.25zm103.74-18 3.78-1.46h.08a1.35 1.35 0 0 0 2.57 0h54.84l3.74 2.91h-58.56a1.35 1.35 0 0 0 -2.57 0zm-38.15 0-3.77 1.43h-.08a1.36 1.36 0 0 0 -2.58 0h-58.55l3.74-2.89h54.84a1.36 1.36 0 0 0 2.58 0zm127.37 18.22a4.77 4.77 0 0 1 -1.69-.21 2.49 2.49 0 0 1 -1.58-2.21v-.7l-1.24.69-62.52-48.82v-.21-2.55l69.49 54.21a10.24 10.24 0 0 0 -2.43-.24zm-27.24-13.68a2.08 2.08 0 0 1 -2 .78 15.54 15.54 0 0 1 -4-1 27.07 27.07 0 0 0 -4-1.19h11.85v2.25h-1.42l-.05-.7a.21.21 0 0 0 -.16-.19.23.23 0 0 0 -.22.05zm-31.86-.26a15.57 15.57 0 0 1 -4 1 2.09 2.09 0 0 1 -2-.78.23.23 0 0 0 -.23-.09.21.21 0 0 0 -.16.19v.7h-1.53v-2.19h12a27.43 27.43 0 0 0 -4.08 1.19zm-14.43.26a2.5 2.5 0 0 1 -1.94.64 2.78 2.78 0 0 1 -1.28-1.07 8.17 8.17 0 0 0 -1-1h6v2.25h-1.39v-.69a.23.23 0 0 0 -.13-.18.2.2 0 0 0 -.26.05zm-66.25-.43a2.83 2.83 0 0 1 -1.28 1.07 2.48 2.48 0 0 1 -1.94-.64.2.2 0 0 0 -.22 0 .19.19 0 0 0 -.13.18v.69h-1.53v-2.3h6.1a7.38 7.38 0 0 0 -1 .99zm-11.66.43a2.14 2.14 0 0 1 -2 .78 15.47 15.47 0 0 1 -4-1 27.57 27.57 0 0 0 -4-1.19h11.85v2.25h-1.45v-.7a.21.21 0 0 0 -.16-.19.23.23 0 0 0 -.24.05zm-31.88-.26a15.47 15.47 0 0 1 -4 1 2.06 2.06 0 0 1 -2-.77.21.21 0 0 0 -.39.09v.7h-1.54v-2.19h12a27.57 27.57 0 0 0 -4.09 1.19zm-35.65 14.12 69.49-54.21v2.54.21l-62.56 48.81-1.24-.68v.69a2.51 2.51 0 0 1 -1.59 2.21 4.73 4.73 0 0 1 -1.69.21 10.16 10.16 0 0 0 -2.43.24zm70.3-54.66h80.81v2.19h-80.81zm80.81 3.64v30.31h-2.92v-30.93h2.92zm-80.81.83v-1.44h2.92v30.92h-2.92zm-46.35 35.33 1.58-1.27h1.31v2.89h-2.92zm49.27 1.64h-2.92v-2.91h2.92zm-3.75-36.3v28.81h-36.94zm4.58-1.26h26.1a34.12 34.12 0 0 0 -23.43 30.09h-2.67zm34.36-.76v2.92a30.35 30.35 0 0 0 -27.88 27.91h-3a33.27 33.27 0 0 1 30.88-30.85zm3.75 10.22-1.43 3.85h-.06l-1.43-3.77v-.08a1.36 1.36 0 0 0 .94-1.29 1.34 1.34 0 0 0 -.94-1.28v-7.75h2.92v7.78a1.35 1.35 0 0 0 0 2.57zm.83-7.3v-2.94a33.28 33.28 0 0 1 30.87 30.85h-2.93a30.36 30.36 0 0 0 -27.94-27.93zm8.26-2.16h26.11v30.07h-2.68a34.12 34.12 0 0 0 -23.43-30.09zm30.69 1.26 37 28.83h-37zm-.83 36.3h-2.92v-2.91h2.92v2.89zm46.34 0h-2.92v-2.91h1.32l1.6 1.25v1.64zm-109.4-1.64h-.07l-.06-.41h.09l.75-.29c.05.35.1.69.16 1zm-3.66-10.65a20.92 20.92 0 0 1 1.14 4.8h-3.33a30 30 0 0 1 8.55-14 20.88 20.88 0 0 1 -6.36 9.18zm24.14-13.13v.88h.31a.63.63 0 0 1 0 1.26h-.31v.83l.62 1.68h-12a21.14 21.14 0 0 1 11.38-4.65zm1.44 7.78h1.46v25h-1.46zm2.9-4.66v-.94h-.31a.63.63 0 1 1 0-1.26h.31v-.85a21.21 21.21 0 0 1 11.07 4.62h-11.66zm26.33 14.85h-3.32a20.92 20.92 0 0 1 1.14-4.82 20.88 20.88 0 0 1 -6.36-9.2 30 30 0 0 1 8.54 13.98zm-5.88 5.39h.21l-.06.43-.95.35c.07-.34.12-.69.16-1zm-41 3.16v-1.11l-2.52-1q-.17-.82-.27-1.68l2.9-1.1v-2l-3-1.13c0-.29 0-.58.08-.87a21.27 21.27 0 0 1 5.55-11.08v28.23a21.34 21.34 0 0 1 -4.53-7.63zm-3.68-8.3-.59-.22h-.26a23 23 0 0 1 20.59-20.61v.87a22.17 22.17 0 0 0 -19.71 19.92zm20.53-10v24.55h-11v-24.61zm3 24.55v-24.61h11v24.55zm.76-34.5v-.84a23 23 0 0 1 20.62 20.59h-.12l-.73.28a22.18 22.18 0 0 0 -19.73-20.09zm13.31 8.62a21.26 21.26 0 0 1 5.42 11.77l-2.75 1v2l2.88 1.12c0 .36 0 .71-.1 1.06s-.09.44-.13.66l-2.51.95v1.03l1.78.68a21.36 21.36 0 0 1 -4.55 7.58zm98.07 32.79-72-56.2 1.93-1.93 70.11 54.69zm-76.91-63.18c1.07.58 2.22 1.22 3.22 1.8l1 .64a5.57 5.57 0 0 0 -2.91.78 2.3 2.3 0 0 0 -.76.76l-.21-.07-1.21-.69-5.31-3a1.46 1.46 0 0 1 .82-.81 5.56 5.56 0 0 1 2.39-.49 8.78 8.78 0 0 1 2.97 1.08zm-10.32-5.18a5.94 5.94 0 0 1 2.17.72c.86.46 1.8 1 2.72 1.52l1.75 1 .21.13a5.68 5.68 0 0 0 -2.23.55 2.31 2.31 0 0 0 -1.17 1.09l-6.61-3.72a1.46 1.46 0 0 1 .81-.8 5.22 5.22 0 0 1 2.34-.49zm-6.88-3.81a5.44 5.44 0 0 1 2 .61c1.31.67 2.93 1.6 4.26 2.36l.25.14a5.68 5.68 0 0 0 -2.29.54 2.25 2.25 0 0 0 -1.13 1.08l-6.18-3.46c.2-.64 1.42-1.27 3.09-1.27zm-6.28-3.52a5.15 5.15 0 0 1 1.9.57h.06l2.21 1.26 1.78 1c-1.65.08-3 .72-3.35 1.58l-5.66-3.2a1.5 1.5 0 0 1 .79-.76 5 5 0 0 1 2.26-.49zm-5.5-3.09a3.34 3.34 0 0 1 1.06.22l.24.11c1.2.53 2.75 1.4 4.07 2.16a5.61 5.61 0 0 0 -2.42.55 2.11 2.11 0 0 0 -1 1l-4.93-2.77c.19-.63 1.34-1.25 3-1.27zm-5.12-3 .23-.12c.41.21 1 .58 1.7 1s1.8 1.1 2.79 1.64c-1.54.1-2.75.71-3.09 1.51l-3.94-2.22v-1a4.35 4.35 0 0 0 2.22-.66zm-2.6-.9a6.83 6.83 0 0 1 2.27.47 3.81 3.81 0 0 1 -2.27.63 3.78 3.78 0 0 1 -2.26-.63 6.77 6.77 0 0 1 2.26-.43zm-4.52 1.78c.7-.42 1.3-.79 1.71-1 .06.07.14.13.21.2a.41.41 0 0 1 .11.07 4.32 4.32 0 0 0 2.22.66v1l-3.9 2.18c-.34-.8-1.55-1.41-3.09-1.51.95-.54 1.91-1.13 2.74-1.6zm-4.49 2.49.24-.11a3.34 3.34 0 0 1 1-.22c1.66 0 2.81.64 3 1.27l-4.92 2.77a2.2 2.2 0 0 0 -1-1 5.64 5.64 0 0 0 -2.42-.55c1.35-.8 2.94-1.65 4.1-2.2zm-8.38 4.62 2.22-1.3h.06a5.31 5.31 0 0 1 1.89-.56 5 5 0 0 1 2.27.49 1.44 1.44 0 0 1 .78.76l-5.66 3.2c-.38-.86-1.69-1.5-3.34-1.58zm-8.35 4.63c1.33-.77 3-1.7 4.28-2.37a5.46 5.46 0 0 1 2-.6c1.69 0 2.89.63 3.1 1.25l-6.17 3.48a2.25 2.25 0 0 0 -1.13-1.08 5.72 5.72 0 0 0 -2.29-.54 2 2 0 0 1 .21-.18zm-7.27 4.06 1.75-1c.92-.52 1.86-1.06 2.71-1.52a6 6 0 0 1 2.18-.72 5.14 5.14 0 0 1 2.33.49 1.39 1.39 0 0 1 .81.8l-6.61 3.72a2.31 2.31 0 0 0 -1.17-1.11 5.54 5.54 0 0 0 -2.22-.55zm-6.85 3.73c1-.56 2.09-1.18 3.13-1.75a8.91 8.91 0 0 1 3-1.09 5.48 5.48 0 0 1 2.38.49 1.4 1.4 0 0 1 .82.81l-5.3 3-1.24.69-.21.07a2.21 2.21 0 0 0 -.76-.76 5.51 5.51 0 0 0 -2.9-.78zm-3.67 3.22 1.93 1.93-72 56.2v-3.48zm43.53 61.73a23 23 0 0 1 -21.72-15.48l.81-.3a22.12 22.12 0 0 0 41.82 0l.81.31a23 23 0 0 1 -21.72 15.43z"/></g></svg>