<svg viewBox="0 0 470 280" xmlns="http://www.w3.org/2000/svg"><g fill="#fff"><path d="m226.1 25.9-66 114.33-9.45 16.37h169.81l-9.46-16.37-66-114.33-9.45-16.38zm14.18 2.73 66 114.32 4.73 8.19h-150.92l4.73-8.19 66-114.32 4.73-8.19z"/><path d="m230.38 65.39a14.83 14.83 0 0 0 -3.08-19.74l-5.85 10.13a28.25 28.25 0 0 1 8.93 9.61z"/><path d="m238.26 57.22a14.75 14.75 0 0 0 2.46 8.17 28.25 28.25 0 0 1 8.93-9.61l-5.85-10.13a14.84 14.84 0 0 0 -5.54 11.57z"/><path d="m212.19 71.82a45.07 45.07 0 0 1 16.55 17.61 25 25 0 0 0 -8.74-31.08z"/><path d="m251.14 58.35a25 25 0 0 0 -8.78 31.08 45.07 45.07 0 0 1 16.55-17.61z"/><path d="m191.91 106.94a68.48 68.48 0 0 1 27.3 28.42 39.3 39.3 0 0 0 -9.74-58.83z"/><path d="m261.63 76.53a39.3 39.3 0 0 0 -9.74 58.83 68.48 68.48 0 0 1 27.3-28.42z"/><path d="m220.34 145.68a65.22 65.22 0 0 0 -29.9-36.18l-20.9 36.18z"/><path d="m250.76 145.68h50.8l-20.89-36.18a65.2 65.2 0 0 0 -29.91 36.18z"/><path d="m229.13 42.47h12.84l-6.42-11.11z"/></g><path d="m102.69 227.74-19.3-21.63v21.63h-7.1v-34.49h5.12l19.36 21.63v-21.63h7.1v34.49z" fill="#fb8"/><path d="m141.06 227.74-1.82-3.9h-17.24l-1.82 3.9h-7.83l16-34.49h4.53l16 34.49zm-5.12-11-5.32-11.53-5.37 11.53z" fill="#fb8"/><path d="m171.63 193.25c7.63 0 12.36 4.73 12.36 12.37 0 5.76-2.76 9.9-7.44 11.52l7.44 10.6h-8.67l-6.85-9.81h-8v9.81h-7.07v-34.49zm-11.14 17.59h11.14c1.82 0 3.2-.39 4-1.23a6.94 6.94 0 0 0 0-8c-.79-.84-2.17-1.23-4-1.23h-11.14z" fill="#fb8"/><path d="m214.5 195.13a13.94 13.94 0 0 1 6.11 5.81l-6.16 3.45a7.38 7.38 0 0 0 -3.1-2.91 13.13 13.13 0 0 0 -5.72-1.13c-6.84 0-10.14 3.3-10.14 10.14s3.3 10.15 10.14 10.15c5.52 0 8.77-2.17 9.81-6.6h-11.78v-7.04h19.21v3.54a21.33 21.33 0 0 1 -1.08 7 14.65 14.65 0 0 1 -9.11 9.11 23.31 23.31 0 0 1 -14.09 0 14.59 14.59 0 0 1 -9.11-9.11 23.31 23.31 0 0 1 0-14.09 14.59 14.59 0 0 1 9.11-9.11 21.31 21.31 0 0 1 7-1.09 20 20 0 0 1 8.91 1.88z" fill="#fb8"/><path d="m228.35 227.74v-34.49h7.09v34.49z" fill="#fb8"/><path d="m268.59 220.64v7.1h-26.79v-34.49h7.09v27.39z" fill="#fb8"/><path d="m280.17 200.35v6.65h18.91v7h-18.91v6.6h21.52v7.1h-28.62v-34.45h28.62v7.1z" fill="#fb8"/><path d="m345 193.25a9.69 9.69 0 0 1 10.39 10.4 10.71 10.71 0 0 1 -2.12 6.84 10.76 10.76 0 0 1 2.12 6.85 9.69 9.69 0 0 1 -10.39 10.4h-22.1v-34.49zm-15 13.75h15a3.85 3.85 0 0 0 2.56-.74 4.8 4.8 0 0 0 0-5.12 3.85 3.85 0 0 0 -2.56-.74h-15zm0 13.69h15a3.85 3.85 0 0 0 2.56-.74 4.8 4.8 0 0 0 0-5.12 3.85 3.85 0 0 0 -2.56-.83h-15z" fill="#fb8"/><path d="m386.44 195.13a13.92 13.92 0 0 1 6.1 5.81l-6.15 3.45a7.41 7.41 0 0 0 -3.11-2.91 13.08 13.08 0 0 0 -5.71-1.13c-6.85 0-10.15 3.3-10.15 10.14s3.3 10.15 10.15 10.15c5.52 0 8.77-2.17 9.8-6.6h-11.77v-7.04h19.21v3.54a21.59 21.59 0 0 1 -1.08 7 14.64 14.64 0 0 1 -9.12 9.11 23.31 23.31 0 0 1 -14.09 0 15.34 15.34 0 0 1 -5.61-3.5 15.17 15.17 0 0 1 -3.5-5.61 23.52 23.52 0 0 1 0-14.09 15.17 15.17 0 0 1 3.5-5.61 15.34 15.34 0 0 1 5.61-3.5 21.37 21.37 0 0 1 7.05-1.09 20 20 0 0 1 8.87 1.88z" fill="#fb8"/><path d="m308.73 220.64h7.09v7.09h-7.09z" fill="#fb8"/><path d="m170.72 264.85v-7.43a3.14 3.14 0 0 0 -3.14-3.14 3.09 3.09 0 0 0 -3.12 3v7.57h-2.67v-19.67h2.67v7.34a5.73 5.73 0 0 1 3.12-.91 5.81 5.81 0 0 1 5.81 5.81v7.43z" fill="#fff"/><path d="m182.3 251.56a6.71 6.71 0 1 1 -6.7 6.72 6.69 6.69 0 0 1 6.7-6.72zm0 10.88a4.17 4.17 0 1 0 -4.16-4.16 4.16 4.16 0 0 0 4.16 4.16z" fill="#fff"/><path d="m197.66 251.56a6.71 6.71 0 1 1 -6.7 6.72 6.69 6.69 0 0 1 6.7-6.72zm0 10.88a4.17 4.17 0 1 0 -4.16-4.16 4.17 4.17 0 0 0 4.16 4.16z" fill="#fff"/><path d="m217.73 252.48-5.63 6.16 5.87 6.21h-3.45l-4.89-5.45v5.45h-2.63v-19.67h2.67v12.61l4.76-5.31z" fill="#fff"/><path d="m230.47 264.85v-2.41a6.57 6.57 0 1 1 -5.14-11 6.63 6.63 0 0 1 5.14 2.53v-2.4h2.67v13.24zm-4.65-10.75a4.13 4.13 0 1 0 4.11 4.12 4.13 4.13 0 0 0 -4.11-4.12z" fill="#fff"/><path d="m245.26 264.85v-7.43a3.13 3.13 0 0 0 -3.13-3.14 3.09 3.09 0 0 0 -3.12 3v7.57h-2.67v-19.67h2.66v7.34a5.73 5.73 0 0 1 3.12-.91 5.81 5.81 0 0 1 5.8 5.81v7.43z" fill="#fff"/><path d="m257.28 261.58a2.44 2.44 0 0 0 2.16.93 1.66 1.66 0 0 0 1.65-1.71c0-.82-.82-1.34-2-1.72-2-.6-4-1.22-4-3.91 0-2.09 1.49-3.65 4-3.65a3.67 3.67 0 0 1 3.16 1.8l-2.25 1.38a1.1 1.1 0 0 0 -.93-.56c-.87 0-1.38.45-1.38 1 0 .78 1.07 1.11 2.11 1.42 2.29.74 3.87 1.89 3.87 4.21a4.26 4.26 0 0 1 -4.27 4.34 4.92 4.92 0 0 1 -4.38-2.14z" fill="#fff"/><path d="m275.06 264.85v-7.43a3.13 3.13 0 0 0 -3.14-3.14 3.08 3.08 0 0 0 -3.11 3v7.57h-2.67v-19.67h2.67v7.34a5.72 5.72 0 0 1 3.11-.91 5.81 5.81 0 0 1 5.81 5.81v7.43z" fill="#fff"/><path d="m286.65 251.56a6.71 6.71 0 1 1 -6.7 6.72 6.7 6.7 0 0 1 6.7-6.72zm0 10.88a4.17 4.17 0 1 0 -4.16-4.16 4.17 4.17 0 0 0 4.16 4.16z" fill="#fff"/><path d="m298.61 251.59v2.41a6.76 6.76 0 1 1 0 8.43v8.06h-2.67v-18.9zm4.65 10.74a4.13 4.13 0 1 0 -4.11-4.11 4.12 4.12 0 0 0 4.11 4.11z" fill="#fff"/></svg>