<svg viewBox="0 0 470 280" xmlns="http://www.w3.org/2000/svg"><path d="m282 48.75c-.52-.61-2.13-2.1-2.2-2.14a52.8 52.8 0 0 0 -7.88-4.47c-.64-.31-1.56-.85-2.64-1.49a44.39 44.39 0 0 0 -4.93-2.65c-.61-.3-1.48-.81-2.49-1.41a47.12 47.12 0 0 0 -4.43-2.41c-.54-.26-1.33-.72-2.25-1.26-1.24-.73-2.63-1.55-3.89-2.14l-.19-.11c-.35-.19-.79-.45-1.29-.74-1.52-.88-3.61-2.09-5.17-2.78-.32-.13-.63-.29-.95-.45-1.05-.57-2.12-1.2-3.09-1.78l-.87-.51a17.22 17.22 0 0 0 -1.79-1 6.88 6.88 0 0 0 -5.88 0 17.22 17.22 0 0 0 -1.79 1l-.87.51c-1 .58-2 1.21-3.09 1.78-.32.16-.63.32-.95.45-1.56.69-3.65 1.9-5.17 2.78-.5.29-.94.55-1.29.74l-.18.11c-1.26.59-2.66 1.41-3.9 2.14-.91.54-1.7 1-2.24 1.26a47.23 47.23 0 0 0 -4.44 2.41c-1 .6-1.88 1.11-2.49 1.41a44.39 44.39 0 0 0 -4.91 2.67c-1.08.64-2 1.19-2.64 1.49a53.75 53.75 0 0 0 -7.88 4.47c-.07 0-1.68 1.54-2.2 2.14l-71.76 55.74-.21.16v6l.43.09.29-.19v2.06a1.77 1.77 0 0 0 2.37 1.66l21.87-8v7.12a1.54 1.54 0 0 0 1.54 1.55h7.45a1.54 1.54 0 0 0 1.55-1.55v-8.1h1.27a14.87 14.87 0 0 0 4.28-1.31 24.68 24.68 0 0 1 4.18-1.46 35.52 35.52 0 0 1 7.58-.62h3a35.56 35.56 0 0 1 7.59.62 24.87 24.87 0 0 1 4.17 1.46 15 15 0 0 0 4.29 1.32h1.3v8.08a1.54 1.54 0 0 0 1.54 1.55h7.44a1.54 1.54 0 0 0 1.55-1.55v-8.1a5.47 5.47 0 0 0 1.08-.12c1.14-.41 1.4-1.36 2.37-2.07h.06a3 3 0 0 1 4.46 1 31.4 31.4 0 0 0 54.51 0 3.09 3.09 0 0 1 4.5-1c1 .71 1.23 1.66 2.37 2.07a5.47 5.47 0 0 0 1.08.12v8.17a1.54 1.54 0 0 0 1.55 1.55h7.44a1.54 1.54 0 0 0 1.54-1.55v-8.08h1.3a15 15 0 0 0 4.29-1.32 24.87 24.87 0 0 1 4.17-1.46 35.56 35.56 0 0 1 7.59-.62h3a35.52 35.52 0 0 1 7.58.62 24.68 24.68 0 0 1 4.27 1.39 14.87 14.87 0 0 0 4.29 1.32h1.27v8.1a1.54 1.54 0 0 0 1.54 1.58h7.44a1.54 1.54 0 0 0 1.54-1.55v-7.12l21.87 8a1.77 1.77 0 0 0 2.37-1.66v-2.27l.29.18.43.27v-5.95z" fill="#fb8"/><g fill="#333"><path d="m301.1 76.29-1.13-1.13-1.13 1.13.85.85v5.02l-.85.84 1.13 1.13 1.13-1.13-.85-.84v-5.02z"/><path d="m305.5 79.65-1.13-1.13-1.13 1.13.85.84v1.67l-.85.84 1.13 1.13 1.13-1.13-.85-.84v-1.67z"/><path d="m307.97 82.21h1.59v1.59h-1.59z" transform="matrix(.70710678 -.70710678 .70710678 .70710678 31.74 242.63)"/><path d="m232.21 76.86h-8.45v23.14h8.45zm-.65 22.53h-7.15v-21.88h7.15z"/><path d="m237.79 100h8.45v-23.14h-8.45zm.65-22.53h7.15v21.92h-7.15z"/><path d="m184.36 66.22-1.13-1.13-1.13 1.13.85.85v15.09l-.85.84 1.13 1.13 1.13-1.13-.85-.84v-15.09z"/><path d="m179.96 69.58-1.13-1.13-1.13 1.13.85.84v11.74l-.85.84 1.13 1.13 1.13-1.13-.85-.84v-11.74z"/><path d="m175.56 72.93-1.13-1.12-1.13 1.12.85.85v8.38l-.85.84 1.13 1.13 1.13-1.13-.85-.84v-8.38z"/><path d="m171.16 76.29-1.13-1.13-1.13 1.13.85.85v5.02l-.85.84 1.13 1.13 1.13-1.13-.85-.84v-5.02z"/><path d="m166.76 79.65-1.13-1.13-1.13 1.13.85.84v1.67l-.85.84 1.13 1.13 1.13-1.13-.85-.84v-1.67z"/><path d="m160.43 82.21h1.59v1.59h-1.59z" transform="matrix(.70710678 -.70710678 .70710678 .70710678 -11.47 138.31)"/><path d="m187.91 63.71.85-.85-1.13-1.12-1.13 1.12.85.85v18.45l-.85.84 1.13 1.13 1.13-1.13-.85-.84z"/><path d="m209.17 56.5h1.59v1.59h-1.59z" transform="matrix(.70710678 -.70710678 .70710678 .70710678 20.98 165.25)"/><path d="m206.58 57.3-1.13-1.13-1.12 1.13.84.84v3.9l-.84.84 1.12 1.13 1.13-1.13-.84-.84v-3.9z"/><path d="m202.07 57.3-1.13-1.13-1.13 1.13.85.84v9.48l-.85.85 1.13 1.13 1.13-1.13-.85-.85v-9.48z"/><path d="m283.5 62.86-1.13-1.12-1.13 1.12.85.85v18.45l-.85.84 1.13 1.13 1.13-1.13-.85-.84v-18.45z"/><path d="m287.9 66.22-1.13-1.13-1.13 1.13.85.85v15.09l-.85.84 1.13 1.13 1.13-1.13-.85-.84v-15.09z"/><path d="m292.3 69.58-1.13-1.13-1.13 1.13.85.84v11.74l-.85.84 1.13 1.13 1.13-1.13-.85-.84v-11.74z"/><path d="m296.7 72.93-1.13-1.12-1.13 1.12.85.85v8.38l-.85.84 1.13 1.13 1.13-1.13-.85-.84v-8.38z"/><path d="m259.23 56.5h1.59v1.59h-1.59z" transform="matrix(.70710678 -.70710678 .70710678 .70710678 35.65 200.66)"/><path d="m265.67 57.3-1.12-1.13-1.13 1.13.84.84v3.9l-.84.84 1.13 1.13 1.12-1.13-.84-.84v-3.9z"/><path d="m269.34 58.14.85-.84-1.13-1.13-1.12 1.13.84.84v9.48l-.84.85 1.12 1.13 1.13-1.13-.85-.85z"/><path d="m354.31 104.52-72.31-56.42c-.52-.6-2.13-2.09-2.2-2.14a52.8 52.8 0 0 0 -7.88-4.47c-.64-.3-1.56-.85-2.64-1.49a42.62 42.62 0 0 0 -4.91-2.66c-.61-.29-1.48-.81-2.49-1.41a44.74 44.74 0 0 0 -4.43-2.4c-.54-.27-1.33-.73-2.25-1.27-1.24-.73-2.63-1.55-3.89-2.14l-.21-.12c-.35-.19-.79-.45-1.29-.74-1.52-.88-3.61-2.09-5.17-2.78-.32-.13-.63-.29-.95-.45-1.05-.57-2.12-1.2-3.09-1.78l-.87-.51a17.22 17.22 0 0 0 -1.79-1 6.88 6.88 0 0 0 -5.88 0 17.22 17.22 0 0 0 -1.79 1l-.87.51c-1 .58-2 1.21-3.09 1.78-.32.16-.63.32-.95.45-1.56.69-3.65 1.9-5.17 2.78-.5.29-.94.55-1.29.74l-.18.11c-1.26.59-2.66 1.41-3.9 2.14-.91.54-1.7 1-2.24 1.26a47.23 47.23 0 0 0 -4.44 2.41c-1 .6-1.88 1.12-2.49 1.41a42.62 42.62 0 0 0 -4.91 2.67c-1.08.64-2 1.19-2.64 1.49a53.75 53.75 0 0 0 -7.88 4.51c-.07 0-1.68 1.54-2.2 2.14l-72.12 56.22-.21.16v6.32l.79.11a9.27 9.27 0 0 1 5.86-1.85 5.74 5.74 0 0 0 2.07-.27 3.34 3.34 0 0 0 2-2.19l.15-.06h.13l.4.22 16.77-6.24v11.41h4.76v-11.38h2.11v-.61a2.66 2.66 0 0 0 2 .58 14.57 14.57 0 0 0 4.29-1.32 25 25 0 0 1 4.18-1.45 35.58 35.58 0 0 1 7.58-.63h.38c.16 0 .17 0 .25.33v.16c.2.66.48.8.85.8s.65-.14.85-.8v-.16c.08-.3.08-.3.2-.32h.42a35.62 35.62 0 0 1 7.59.63 25.3 25.3 0 0 1 4.18 1.45 14.51 14.51 0 0 0 4.28 1.32 2.72 2.72 0 0 0 2-.58v.61h2.11v11.33h4.77v-11.34h2.34v-.75a2.34 2.34 0 0 0 2 .48 3.51 3.51 0 0 0 1.6-1.51c.74-1 1.5-2.12 3.38-2.12h2.52a21.63 21.63 0 0 1 6.51 11.7 21.69 21.69 0 0 1 12.54 7.43 21.4 21.4 0 0 1 14.8 0 21.69 21.69 0 0 1 12.54-7.43 21.63 21.63 0 0 1 6.51-11.7h2.6c1.88 0 2.64 1.08 3.38 2.12a3.51 3.51 0 0 0 1.6 1.51 2.34 2.34 0 0 0 2-.48v.75h2.1v11.33h4.77v-11.33h2.15v-.61a2.72 2.72 0 0 0 2 .58 14.66 14.66 0 0 0 4.29-1.32 24.87 24.87 0 0 1 4.17-1.45 35.62 35.62 0 0 1 7.59-.63h.37c.17 0 .17 0 .25.33v.16c.2.66.48.8.85.8s.66-.14.85-.8v-.16c.08-.3.08-.3.2-.32h.42a35.58 35.58 0 0 1 7.58.63 24.67 24.67 0 0 1 4.18 1.45 14.57 14.57 0 0 0 4.29 1.32 2.68 2.68 0 0 0 2-.58v.61h2.11v11.33h4.76v-11.42l16.77 6.24.4-.22h.1l.18.07a3.34 3.34 0 0 0 2 2.19 5.72 5.72 0 0 0 2.06.27 9.27 9.27 0 0 1 5.87 1.85l.79-.11zm-134.62-.76v-30.44l.19-.19h13.83l.53 1.44h-13.12v27.76h27.76v-27.76h-13.12l.54-1.44h13.53l.48.47v30.16zm29.93 1.33a22.15 22.15 0 0 1 -29.24 0zm-58.41-58.09a4.6 4.6 0 0 1 .79-.16 4.1 4.1 0 0 1 3.74 1.62.33.33 0 0 0 .42.09l2.83-1.6c.37-.06.72-.12 1.06-.2l.55-.1a5.14 5.14 0 0 1 1.24 0l.55.1a14.31 14.31 0 0 0 6.11 0l.55-.1a5.14 5.14 0 0 1 1.24 0l.55.1a14.31 14.31 0 0 0 6.11 0l.55-.1a5.14 5.14 0 0 1 1.24 0l.55.1a14.31 14.31 0 0 0 6.11 0l.55-.1a5.14 5.14 0 0 1 1.24 0l.55.1a14.35 14.35 0 0 0 6.12 0l.54-.1a5.14 5.14 0 0 1 1.24 0l.55.1a14.35 14.35 0 0 0 6.12 0l.54-.1a5.14 5.14 0 0 1 1.24 0l.55.1a14.35 14.35 0 0 0 6.12 0l.55-.1a5.14 5.14 0 0 1 1.24 0l.54.1a14.35 14.35 0 0 0 6.12 0l.55-.1a5.14 5.14 0 0 1 1.24 0l.54.1a14.35 14.35 0 0 0 6.12 0l.55-.1a5.14 5.14 0 0 1 1.24 0l.55.1a9.48 9.48 0 0 0 1 .18 0 0 0 0 0 0 0l2.83 1.6a.33.33 0 0 0 .42-.09 4.15 4.15 0 0 1 3.75-1.62 4.6 4.6 0 0 1 .79.16l.64.5-2.19 2.19h-84.48l-2.19-2.19zm4.86.84h.05-.07zm38.2-19a3.32 3.32 0 0 1 1.47 0 8.88 8.88 0 0 0 3.56.05l3.77 2.11a6.92 6.92 0 0 1 -1.15-.17 4.2 4.2 0 0 0 -1.93 0 9.4 9.4 0 0 1 -4 0 4.2 4.2 0 0 0 -1.93 0 9.44 9.44 0 0 1 -4 0 4.2 4.2 0 0 0 -1.93 0 6.92 6.92 0 0 1 -1.15.17l3.77-2.13a8.93 8.93 0 0 0 3.52-.03zm-2.76-.4 3.49-2 3.49 2a8.67 8.67 0 0 1 -2.62-.14 3.62 3.62 0 0 0 -1.73 0 8.75 8.75 0 0 1 -2.63.14zm-3.29 3a3.5 3.5 0 0 1 1.64 0 10.15 10.15 0 0 0 4.32 0 3.5 3.5 0 0 1 1.64 0 10.15 10.15 0 0 0 4.32 0 3.5 3.5 0 0 1 1.64 0 9.74 9.74 0 0 0 2.16.23h.3l3.57 2a4.2 4.2 0 0 0 -.71.11 10.43 10.43 0 0 1 -4.45 0 4.51 4.51 0 0 0 -2.13 0 10.43 10.43 0 0 1 -4.45 0 4.51 4.51 0 0 0 -2.13 0 10.43 10.43 0 0 1 -4.45 0 4.55 4.55 0 0 0 -2.14 0 10.39 10.39 0 0 1 -4.44 0 4.48 4.48 0 0 0 -.72-.11l3.58-2a10.11 10.11 0 0 0 2.45-.21zm-5.47 3a11.08 11.08 0 0 0 4.76 0 4 4 0 0 1 1.82 0 11.23 11.23 0 0 0 4.76 0 4 4 0 0 1 1.82 0 11.23 11.23 0 0 0 4.76 0 4 4 0 0 1 1.82 0 11.12 11.12 0 0 0 4.77 0 4 4 0 0 1 1.81 0h.17l5.15 2.9a11.45 11.45 0 0 1 -3.81-.17 5.14 5.14 0 0 0 -2.34 0 11.43 11.43 0 0 1 -4.87 0 5.09 5.09 0 0 0 -2.33 0 11.43 11.43 0 0 1 -4.87 0 5.14 5.14 0 0 0 -2.34 0 11.42 11.42 0 0 1 -4.87 0 5.09 5.09 0 0 0 -2.33 0 11.43 11.43 0 0 1 -4.87 0 5.09 5.09 0 0 0 -2.33 0 11.47 11.47 0 0 1 -3.81.17l5.14-2.9h.17a4 4 0 0 1 1.82.02zm-3.15 3.56a4.46 4.46 0 0 1 2 0 12 12 0 0 0 5.21 0 4.46 4.46 0 0 1 2 0 12.09 12.09 0 0 0 5.19 0 4.46 4.46 0 0 1 2 0 12 12 0 0 0 5.21 0 4.46 4.46 0 0 1 2 0 12.09 12.09 0 0 0 5.22 0 4.41 4.41 0 0 1 2 0 12.4 12.4 0 0 0 5 0l6.3 3.55a10.19 10.19 0 0 1 -2-.26 5.41 5.41 0 0 0 -2.53 0 12.46 12.46 0 0 1 -5.3 0 5.41 5.41 0 0 0 -2.53 0 12.42 12.42 0 0 1 -5.29 0 5.45 5.45 0 0 0 -2.54 0 12.42 12.42 0 0 1 -5.29 0 5.45 5.45 0 0 0 -2.54 0 12.42 12.42 0 0 1 -5.29 0 5.41 5.41 0 0 0 -2.53 0 12.46 12.46 0 0 1 -5.3 0 5.41 5.41 0 0 0 -2.53 0 12.46 12.46 0 0 1 -5.3 0 5.41 5.41 0 0 0 -2.53 0 10.19 10.19 0 0 1 -2 .26l6.3-3.55a12.4 12.4 0 0 0 5.07 0zm-9.16 4.11a4.64 4.64 0 0 1 2.16 0 13.18 13.18 0 0 0 5.66 0 4.68 4.68 0 0 1 2.17 0 13.18 13.18 0 0 0 5.66 0 4.64 4.64 0 0 1 2.16 0 13.22 13.22 0 0 0 5.67 0 4.64 4.64 0 0 1 2.16 0 13.22 13.22 0 0 0 5.67 0 4.64 4.64 0 0 1 2.16 0 13.22 13.22 0 0 0 5.67 0 4.64 4.64 0 0 1 2.16 0 13.18 13.18 0 0 0 5.66 0 4.68 4.68 0 0 1 2.17 0 12.58 12.58 0 0 0 2.83.31h.74l6.06 3.42a5.61 5.61 0 0 0 -1.73.14 13.41 13.41 0 0 1 -5.71 0 5.77 5.77 0 0 0 -2.74 0 13.45 13.45 0 0 1 -5.72 0 5.73 5.73 0 0 0 -2.73 0 13.45 13.45 0 0 1 -5.72 0 5.73 5.73 0 0 0 -2.73 0 13.45 13.45 0 0 1 -5.72 0 5.77 5.77 0 0 0 -2.74 0 13.41 13.41 0 0 1 -5.71 0 5.77 5.77 0 0 0 -2.74 0 13.41 13.41 0 0 1 -5.71 0 5.77 5.77 0 0 0 -2.74 0 13.41 13.41 0 0 1 -5.71 0 5.77 5.77 0 0 0 -2.74 0 13.41 13.41 0 0 1 -5.71 0 6.15 6.15 0 0 0 -1.81-.14l6.07-3.41a13 13 0 0 0 3.58-.37zm111.77 66h3v3h-3zm2.17-.87h-1.3v-11.8h1.3zm-50.38.87h3v3h-3zm2.17-.87h-1.31v-11.8h1.31zm-83.2.87h3v3h-3zm2.16-.87h-1.3v-11.8h1.3zm-50.37.87h3v3h-3zm2.16-.87h-1.3v-11.8h1.3zm107.93-18.76v-.06l3.91-1.49h.09a1.41 1.41 0 0 0 1.34 1 1.42 1.42 0 0 0 1.34-1h57.05l3.89 3h-60.94a1.42 1.42 0 0 0 -1.34-1 1.41 1.41 0 0 0 -1.34 1zm-39.7-.06v.06l-3.91 1.52h-.09a1.41 1.41 0 0 0 -1.34-1 1.42 1.42 0 0 0 -1.34 1h-60.94l3.89-3h57.05a1.42 1.42 0 0 0 1.34 1 1.41 1.41 0 0 0 1.34-1zm132.52 19a5.12 5.12 0 0 1 -1.76-.21 2.62 2.62 0 0 1 -1.65-2.3v-.73l-1.29.72-65.07-50.8v-2.87l72.29 56.39a11.73 11.73 0 0 0 -2.52-.25zm-28.37-14.21a2.21 2.21 0 0 1 -2.07.81 16.34 16.34 0 0 1 -4.13-1.09 29.42 29.42 0 0 0 -4.2-1.23h12.32v2.3h-1.47l-.05-.73a.24.24 0 0 0 -.17-.2.21.21 0 0 0 -.23.14zm-33.15-.28a16.41 16.41 0 0 1 -4.15 1.07 2.22 2.22 0 0 1 -2.08-.81.21.21 0 0 0 -.23-.1.23.23 0 0 0 -.17.2v.73h-1.62v-2.32h12.44a29.27 29.27 0 0 0 -4.19 1.23zm-15 .24a2.61 2.61 0 0 1 -2 .67 3 3 0 0 1 -1.33-1.11 7.39 7.39 0 0 0 -1-1h6.18v2.27h-1.47v-.72a.26.26 0 0 0 -.13-.19.24.24 0 0 0 -.26.08zm-68.92-.44a3 3 0 0 1 -1.33 1.11 2.61 2.61 0 0 1 -2-.67.24.24 0 0 0 -.23 0 .26.26 0 0 0 -.13.19v.72h-1.59v-2.38h6.35a7.39 7.39 0 0 0 -1.08 1.03zm-12.15.48a2.25 2.25 0 0 1 -2.08.79 16.52 16.52 0 0 1 -4.14-1.09 28.9 28.9 0 0 0 -4.19-1.23h12.33v2.32h-1.47v-.73a.24.24 0 0 0 -.16-.2.22.22 0 0 0 -.3.14zm-33.16-.28a16.52 16.52 0 0 1 -4.15 1.07 2.14 2.14 0 0 1 -2.06-.81.23.23 0 0 0 -.24-.1.22.22 0 0 0 -.17.2l-.05.73h-1.6v-2.32h12.45a28.9 28.9 0 0 0 -4.19 1.23zm-37.1 14.69 72.28-56.39v2.87l-65.1 50.75-1.29-.71v.72a2.62 2.62 0 0 1 -1.65 2.3 5.12 5.12 0 0 1 -1.76.21 11.73 11.73 0 0 0 -2.49.25zm73.18-56.87h84v2.25h-84zm84 3.77v31.54h-3v-32.17h3zm-84 .87v-1.5h3v32.17h-3zm-48.24 36.74 1.66-1.3h1.37v3h-3zm51.24 1.7h-3v-3h3zm-3.9-37.76v30h-38.46zm4.77-1.32h27.13a35.52 35.52 0 0 0 -24.37 31.31h-2.78zm35.75-.75v3a31.58 31.58 0 0 0 -29.07 29.05h-3a34.63 34.63 0 0 1 32.07-32.05zm3.9 10.64-1.49 4h-.03l-1.49-3.92v-.12a1.41 1.41 0 0 0 0-2.68v-8h3v8a1.41 1.41 0 0 0 0 2.68zm.86-7.59v-3.05a34.63 34.63 0 0 1 32.11 32.1h-3a31.58 31.58 0 0 0 -29.11-29.1zm8.6-2.26h27.15v31.27h-2.78a35.52 35.52 0 0 0 -24.35-31.31zm31.92 1.32 38.46 30h-38.46zm-.9 37.72h-3v-3h3zm48.21 0h-3v-3h1.37l1.66 1.3v1.7zm-113.81-1.7h-.07l-.06-.42h.09l.78-.3c.05.36.11.72.17 1.07zm-3.77-11.13a22.13 22.13 0 0 1 1.18 5h-3.46a31.25 31.25 0 0 1 8.89-14.59 21.74 21.74 0 0 1 -6.61 9.59zm25.1-13.63v.91h.32a.66.66 0 0 1 0 1.32h-.32v.85l.64 1.75h-12.45a22 22 0 0 1 11.81-4.79zm1.51 8h1.52v26h-1.52zm3-4.85v-1h-.24a.66.66 0 0 1 0-1.32h.32v-.88a22 22 0 0 1 11.52 4.8h-12.2zm27.4 15.45h-3.46a22.13 22.13 0 0 1 1.18-5 21.74 21.74 0 0 1 -6.61-9.57 31.25 31.25 0 0 1 8.9 14.66zm-6.12 5.61h.17c0 .15 0 .3-.06.45l-1 .37c.06-.36.12-.72.17-1.09zm-42.61 3.42v-1.16l-2.63-1c-.11-.58-.2-1.16-.27-1.76l3-1.14v-2.12l-3.09-1.17c0-.31 0-.61.09-.91a22.1 22.1 0 0 1 5.77-11.53v29.34a22.25 22.25 0 0 1 -4.74-7.89zm-3.83-8.62-.61-.24h-.28a24 24 0 0 1 21.43-21.45v.91a23.06 23.06 0 0 0 -20.54 20.73zm21.35-10.48v25.53h-11.43v-25.53zm3.14 25.53v-25.53h11.43v25.53zm.79-35.88v-.88a24 24 0 0 1 21.45 21.42h-.13l-.76.29a23 23 0 0 0 -20.56-20.83zm13.85 9a22.11 22.11 0 0 1 5.63 12.24l-2.84 1.03v2.12l3 1.12c0 .37-.06.74-.1 1.11s-.1.46-.15.69l-2.6 1v1.14l1.85.71a22.23 22.23 0 0 1 -4.73 7.89zm102 34.11-75-58.46 2-2 72.94 56.9zm-80.04-65.66c1.12.6 2.31 1.27 3.36 1.88l1.07.66a5.78 5.78 0 0 0 -3 .81 2.38 2.38 0 0 0 -.79.79l-.21-.07-1.29-.72-5.52-3.11a1.54 1.54 0 0 1 .85-.85 5.81 5.81 0 0 1 2.49-.5 9 9 0 0 1 3.04 1.11zm-10.73-5.39a6.37 6.37 0 0 1 2.26.75c.89.48 1.87 1 2.83 1.58l1.82 1 .22.13a6 6 0 0 0 -2.32.58 2.43 2.43 0 0 0 -1.25 1.14l-6.87-3.88a1.46 1.46 0 0 1 .84-.83 5.42 5.42 0 0 1 2.43-.51zm-7.15-4a5.72 5.72 0 0 1 2.06.63c1.36.7 3 1.66 4.44 2.45l.25.15a6 6 0 0 0 -2.38.57 2.35 2.35 0 0 0 -1.18 1.12l-6.42-3.62c.22-.65 1.48-1.3 3.23-1.3zm-6.54-3.67a5.65 5.65 0 0 1 2 .59h.07l2.3 1.31 1.85 1.06c-1.72.08-3.08.74-3.48 1.63l-5.89-3.32a1.53 1.53 0 0 1 .81-.8 5.48 5.48 0 0 1 2.36-.51zm-5.75-3.21a3.67 3.67 0 0 1 1.1.23l.25.12c1.25.55 2.86 1.45 4.24 2.24a5.89 5.89 0 0 0 -2.52.57 2.32 2.32 0 0 0 -1.07 1.05l-5.12-2.89c.2-.65 1.39-1.3 3.13-1.32zm-5.33-3.08a2.4 2.4 0 0 0 .23-.21c.43.22 1 .6 1.77 1 .87.53 1.87 1.14 2.9 1.7-1.6.11-2.86.74-3.21 1.58l-4.11-2.32v-1a4.42 4.42 0 0 0 2.31-.69zm-2.7-.93a6.8 6.8 0 0 1 2.35.48 3.87 3.87 0 0 1 -2.35.65 3.89 3.89 0 0 1 -2.35-.65 6.75 6.75 0 0 1 2.38-.48zm-4.7 1.77c.72-.45 1.34-.83 1.77-1a2.4 2.4 0 0 0 .23.21l.11.07a4.42 4.42 0 0 0 2.31.69v1l-4.11 2.32c-.34-.84-1.61-1.47-3.21-1.58 1.06-.57 2.06-1.2 2.93-1.71zm-4.68 2.59.25-.12a3.73 3.73 0 0 1 1.1-.23c1.73 0 2.92.67 3.12 1.32l-5.06 2.89a2.27 2.27 0 0 0 -1.09-1.05 5.89 5.89 0 0 0 -2.52-.57c1.37-.79 2.98-1.69 4.23-2.24zm-8.71 4.8c.8-.46 1.6-.92 2.31-1.31h.06a5.65 5.65 0 0 1 2-.59 5.44 5.44 0 0 1 2.36.51 1.53 1.53 0 0 1 .81.8l-5.89 3.32c-.4-.89-1.76-1.55-3.48-1.63zm-8.7 4.81c1.39-.79 3.09-1.76 4.46-2.46a5.79 5.79 0 0 1 2-.62c1.75 0 3 .65 3.23 1.3l-6.42 3.62a2.35 2.35 0 0 0 -1.18-1.12 6 6 0 0 0 -2.38-.57zm-7.56 4.23 1.82-1c1-.54 1.94-1.1 2.83-1.58a6.37 6.37 0 0 1 2.26-.75 5.42 5.42 0 0 1 2.43.51 1.46 1.46 0 0 1 .84.83l-6.8 3.86a2.43 2.43 0 0 0 -1.22-1.16 6 6 0 0 0 -2.32-.58zm-7.12 3.89c1-.59 2.17-1.24 3.26-1.83a9.2 9.2 0 0 1 3.11-1.13 5.81 5.81 0 0 1 2.49.5 1.54 1.54 0 0 1 .85.85l-5.52 3.11-1.28.72-.22.07a2.38 2.38 0 0 0 -.79-.79 5.78 5.78 0 0 0 -3-.81c.35-.22.73-.5 1.13-.69zm-3.82 3.34 2 2-74.95 58.46v-3.57zm45.32 64.22a24 24 0 0 1 -22.6-16.09l.84-.32a23 23 0 0 0 43.51 0l.85.33a24 24 0 0 1 -22.6 16.08z"/></g><path d="m168.58 233a6.26 6.26 0 0 0 -2 2.93l-4 12a2.87 2.87 0 0 0 .35 2.72h-6.47a3 3 0 0 0 .21-2.72l-4-12a7.2 7.2 0 0 0 -1.95-2.93h5.66a5.56 5.56 0 0 0 0 2.9l2.15 7.25c.32 1.38.92 3.5 1.1 4.88.18-1.38.71-3.5 1-4.88l2.19-7.25a5.3 5.3 0 0 0 0-2.9z" fill="#fff"/><path d="m185.71 241.69h-13c.07 4.11 2.08 6.48 5.41 6.48a4 4 0 0 0 3.78-2.3l3.12 1.8c-1.42 1.38-3.51 3.4-7 3.4-5.34 0-8.85-3.75-8.85-9.34s3.19-9.06 8.49-9.06a7.75 7.75 0 0 1 8 8zm-3.43-2a4.49 4.49 0 0 0 -4.57-4.14c-2.72 0-4.31 1.55-4.81 4.14z" fill="#fff"/><path d="m205.13 250.71h-5.59a4.4 4.4 0 0 0 1-3.18v-6.4c0-3.89-1.2-5.59-3.75-5.59a4.27 4.27 0 0 0 -4.21 4.35v7.64a4.47 4.47 0 0 0 1 3.18h-5.58a4.47 4.47 0 0 0 1-3.18v-11.32a4.47 4.47 0 0 0 -1-3.18h4.66l-.1 1.94v.14a6.13 6.13 0 0 1 5.16-2.44c4 0 6.33 2.48 6.33 7.15v7.71a4.4 4.4 0 0 0 1.08 3.18z" fill="#fff"/><path d="m223.46 247.53a4.4 4.4 0 0 0 1 3.18h-4.18l.11-2a7 7 0 0 1 -5.45 2.37c-4.81.07-7.43-4-7.43-9.24 0-6.75 3.68-9.19 7.4-9.19a6.69 6.69 0 0 1 5 2v-4.95a4.47 4.47 0 0 0 -1-3.18h5.59a4.4 4.4 0 0 0 -1 3.18zm-3.54-5.1v-1.73c-.17-2.23-1.06-4.95-4.35-4.95-2.86 0-4.53 2.16-4.53 6.08 0 3.58 1.53 6.16 4.57 6.12 1.98-.03 4.31-.77 4.31-5.52z" fill="#fff"/><path d="m243.4 241.69h-13c.07 4.11 2.08 6.48 5.41 6.48a4 4 0 0 0 3.78-2.3l3.12 1.8c-1.42 1.38-3.5 3.4-7 3.4-5.34 0-8.84-3.75-8.84-9.34s3.18-9.06 8.49-9.06a7.75 7.75 0 0 1 8 8zm-3.43-2a4.48 4.48 0 0 0 -4.56-4.14c-2.73 0-4.32 1.55-4.82 4.14zm-7.54-8.6-.7-1.73a6.77 6.77 0 0 0 5.23-4.21l1.42 1.87a15.92 15.92 0 0 1 -5.95 4.06z" fill="#fff"/><path d="m262.31 252.37c0 2.52-2 5.56-8.35 5.56-6.83 0-8.31-2.44-8.31-4.64 0-1.48 1.16-3 3.21-3.71a2.91 2.91 0 0 1 -3.14-2.9 4.38 4.38 0 0 1 1.94-3.29 6.52 6.52 0 0 1 -1.31-4.07c0-3.85 2.76-6.61 7.22-6.61h7.6l.68 2.61-2.87-.6a6.49 6.49 0 0 1 1.77 4.6c0 3.89-2.76 6.51-7.18 6.51a8.47 8.47 0 0 1 -4-.92 3.52 3.52 0 0 0 -.75 1.52c0 .85.5 1.38 2.59 1.38h5.59c3.79 0 5.31 2.19 5.31 4.56zm-3.47-.21a2 2 0 0 0 -2.09-2.08h-5.23c-1.28.81-2.37 1.76-2.37 2.89 0 1.95 2.33 2.3 4.81 2.3 3.89 0 4.88-2.01 4.88-3.11zm-9.13-12.84c0 2.41 1.42 3.75 3.86 3.75s3.82-1.34 3.82-3.75a3.47 3.47 0 0 0 -3.82-3.71c-2.41 0-3.86 1.39-3.86 3.71z" fill="#fff"/><path d="m281.54 250.71h-5.54a4.47 4.47 0 0 0 1-3.18v-6.4c0-3.89-1.2-5.59-3.71-5.59a4.28 4.28 0 0 0 -4.24 4.35v7.64a4.47 4.47 0 0 0 1 3.18h-5.59a4.4 4.4 0 0 0 1-3.18v-17.83a4.4 4.4 0 0 0 -1-3.18h5.54a4.47 4.47 0 0 0 -1 3.18v5.41a6.13 6.13 0 0 1 5.16-2.44c4 0 6.33 2.48 6.33 7.15v7.71a4.4 4.4 0 0 0 1.05 3.18z" fill="#fff"/><path d="m299.9 247.53a4.4 4.4 0 0 0 1 3.18h-3.86l.18-2.05a6.89 6.89 0 0 1 -5.77 2.41c-5.3 0-7.53-4-7.53-9.31 0-6.79 3.79-9.19 7.61-9.19a6.85 6.85 0 0 1 5.48 2.37l-.21-1.91h4.1a4.4 4.4 0 0 0 -1 3.18zm-3.53-5.17v-.77c0-2.34-.54-5.91-4.39-5.91-2.87 0-4.53 2.19-4.53 6.08 0 3.65 1.13 6.23 4.6 6.19 3.01-.07 4.32-1.73 4.32-5.59zm-6.76-11.24-.71-1.74a6.73 6.73 0 0 0 5.24-4.21l1.41 1.88a16 16 0 0 1 -5.94 4.07z" fill="#fff"/><path d="m317.54 247-1.34 3.71h-12l-1.28-2.79 9.85-11.92h-5.45a14.44 14.44 0 0 0 -4.63.75l1.38-3.75h11.78l1.27 2.79-10.12 12h5.91a14.84 14.84 0 0 0 4.63-.79z" fill="#fff"/><path d="m27.14 177.64c0-15.25 11.47-26.79 26.86-26.79a26.82 26.82 0 0 1 18.94 7.39l-6.49 7.17c-2.72-4.83-6.41-6.34-12.45-6.34-10.79 0-18.56 7.78-18.56 18.57 0 11 8 18.56 18.33 18.56a18.78 18.78 0 0 0 13.06-5.06v-6.33a8.39 8.39 0 0 0 -1.89-5.81h11.32c-1.21 1.21-2.19 3.48-2.19 7v10.27a28.67 28.67 0 0 1 -20.3 8.15c-15.24.01-26.63-11.24-26.63-26.78z" fill="#fff"/><path d="m81.39 176.5v-10c0-10.49 6.42-15.62 16.61-15.62s16.67 5.13 16.67 15.62v10c0 10.57-6.41 15.7-16.67 15.7s-16.61-5.13-16.61-15.7zm24.53 27.17h-21.28l1.21-5.88h20.37c1.74 0 4.3-.23 5.81-.38l-1.43 7a11.75 11.75 0 0 0 -4.68-.74zm1-27v-10c0-5.74-2.94-8.6-8.9-8.6s-8.91 2.86-8.91 8.67v9.89c0 5.81 3 8.68 8.91 8.68s8.88-2.99 8.88-8.65z" fill="#fff"/><path d="m122.67 188.43v-31.62c0-3.93-1.88-5.81-2.11-6h11.7c-.15.07-1.81 1.58-1.81 5.05v32.23c0 5.81 3.09 9 9.28 9s9.28-3.16 9.28-9v-32.19c0-3.47-1.74-5-1.89-5.05h11.77c-.22.15-2.11 2-2.11 6v31.62c0 9.36-5.43 16-17.05 16s-17.06-6.68-17.06-16.04z" fill="#fff"/><path d="m196.25 195-2.87 8.68h-27.84c.22-.23 2.18-2.26 2.18-6.79v-39.25c0-4.53-2-6.57-2.18-6.79h12.14c-.22.22-2.18 2.26-2.18 6.79v39h10.64a33.13 33.13 0 0 0 10.11-1.64z" fill="#fff"/><path d="m244.47 177.41c0 17.88-10.57 26.26-28.3 26.26h-13c.23-.23 2.19-2.26 2.19-6.79v-38.41c-2.19 0-10.87.45-10.87 8.45 0 3.47 1.59 5.51 5.74 5.89l-2 6.34c-7.47-1.21-11.17-6.19-11.17-13 0-10.19 8.46-15.32 18.11-15.32h11c17.73.02 28.3 8.55 28.3 26.58zm-7.92-.08c0-10.86-4.3-19.09-18.87-19.09h-4.53v38h4.53c14.57-.04 18.87-8.04 18.87-18.91z" fill="#fff"/><path d="m312.76 150.85a17.73 17.73 0 0 0 -5 8.15l-13.43 38.56a6.47 6.47 0 0 0 .61 6.11h-13.19a6.49 6.49 0 0 0 .68-6l-12.83-38.67a18.07 18.07 0 0 0 -5-8.15h12.83c-.76 1.43-.76 3.85 0 6.34l9.05 30.56c.53 1.73 1.44 4.6 1.89 6.94.53-2.49 1.51-5.58 2-7.32l9.63-30.26c.76-2.49.83-4.83 0-6.26z" fill="#fff"/><path d="m319.48 196.88v-39.24c0-4.53-2-6.57-2.19-6.79h12.08c-.23.22-2.19 2.26-2.19 6.79v39.24c0 4.53 2 6.56 2.19 6.79h-12.08c.23-.23 2.19-2.26 2.19-6.79z" fill="#fff"/><path d="m377.44 196.65a33.13 33.13 0 0 0 10.11-1.65l-2.87 8.68h-47.31c.22-.23 2.19-2.26 2.19-6.79v-39.25c0-4.53-2-6.57-2.19-6.79h12.15c-.23.22-2.19 2.26-2.19 6.79v39zm-18.64-16.6v-22.56c0-4.53-2-6.64-2.19-6.79h11.54c-.22.15-2.18 2.26-2.18 6.79v22.33h11.69a33.07 33.07 0 0 0 10.11-1.66l-2.86 8.68h-28.3c.23-.22 2.19-2.26 2.19-6.79z" fill="#fff"/><path d="m430.64 203.67a13.51 13.51 0 0 0 -.3-6.19l-3.47-10a25.23 25.23 0 0 1 -10.34 2.19 27.84 27.84 0 0 1 -9.89-1.81l-3.64 9.85a12.64 12.64 0 0 0 -.3 6h-12.05c2.26-2 3.54-4.3 4.9-7.77l14.94-39.09a7.24 7.24 0 0 0 -.3-6h13.88a7.44 7.44 0 0 0 -.37 6l14.11 38.87c1.58 3.69 2.71 5.81 5.05 7.92zm-5.64-21.43-7.92-22.64-8.46 23c4.38 1.53 10.7 2.21 16.38-.36z" fill="#fff"/></svg>