<svg viewBox="0 0 470 280" xmlns="http://www.w3.org/2000/svg"><g fill="none"><path d="m143.48 202.5c-4.3 0-7.49 3.09-7.49 8.49s3.19 8.49 7.49 8.49 7.5-3.09 7.5-8.49-3.2-8.49-7.5-8.49z"/><path d="m296.19 202.5c-3.91 0-6.06 2.31-6.5 5.79h12.79c-.39-3.59-2.7-5.79-6.29-5.79z"/><path d="m226.08 129.05a23.1 23.1 0 0 1 -7.82-1.31c2 3.11 4.82 5 7.82 5h16.49c3 0 5.8-1.88 7.82-5a23.1 23.1 0 0 1 -7.82 1.31z"/><path d="m194 251.12c-3.06.11-5.43 1.65-5.43 4.18s2.22 4.18 5.43 4.19c3.36 0 5.88-1.23 5.93-4.19.07-2.72-2.25-4.3-5.93-4.18z"/><path d="m245.63 250.83c-2.82.06-4.59 1.29-5.24 2.93h9.9c-.18-.94-1.29-3-4.66-2.93z"/><path d="m226.08 104.38a6.5 6.5 0 1 0 -13 0 4.62 4.62 0 0 0 9.24 0 2.75 2.75 0 1 0 -5.49 0 .87.87 0 1 0 1.74 0 1 1 0 1 1 2 0 2.88 2.88 0 0 1 -5.76 0 4.76 4.76 0 1 1 9.51 0 6.63 6.63 0 0 1 -13.26 0 8.52 8.52 0 0 1 8.51-8.51 8.4 8.4 0 0 1 2.2.3 8.76 8.76 0 0 0 -12.67 7.6v.26a8.79 8.79 0 0 0 7.71 8.71h.9a8.37 8.37 0 0 0 8.37-8.36z"/><path d="m249.68 112.74h.9a8.37 8.37 0 0 0 8.37-8.36 6.5 6.5 0 1 0 -13 0 4.62 4.62 0 0 0 9.24 0 2.75 2.75 0 1 0 -5.49 0 .87.87 0 1 0 1.74 0 1 1 0 1 1 2 0 2.88 2.88 0 0 1 -5.76 0 4.76 4.76 0 1 1 9.51 0 6.63 6.63 0 0 1 -13.25 0 8.51 8.51 0 0 1 8.5-8.51 8.4 8.4 0 0 1 2.2.3 8.76 8.76 0 0 0 -12.67 7.6v.26a8.78 8.78 0 0 0 7.71 8.71z"/><path d="m185.71 192.68h-7.88v11.25h7.88c3.48 0 5.79-2.2 5.79-5.62s-2.31-5.63-5.79-5.63z"/><path d="m118.09 212.48-7.83 1.21c-2.48.39-3.86 1.49-3.86 3.25s1.38 3.2 4.46 3.2c4.41 0 7.23-2.86 7.23-6.95z"/><path d="m141.31 251.14c-3.41 0-5.5 1.76-5.41 4.21.08 2.28 2.36 4.21 5.46 4.21 3.39 0 5.47-1.93 5.44-4.21s-2.09-4.21-5.49-4.21z"/><path d="m199.85 142.29h68.92a1.57 1.57 0 0 0 1.57-1.57v-68.91a1.57 1.57 0 0 0 -1.57-1.57h-68.92a1.57 1.57 0 0 0 -1.57 1.57v68.91a1.57 1.57 0 0 0 1.57 1.57zm42.72-4.74h-16.49c-7.19 0-13.46-6.52-15.24-15.86l1-.18 3.58-1.65c1 2.12 5.06 4.37 10.69 4.37h16.49c5.63 0 9.71-2.25 10.69-4.37l3.58 1.65 1 .18c-1.87 9.31-8.11 15.86-15.3 15.86zm-3.83-52.85c2.58 0 4.08-1.3 6-2.93s4.1-3.55 7.58-4.15a12.14 12.14 0 0 1 12.86 6l-2.18 1.1-2.14 1.12a7.2 7.2 0 0 0 -7.76-3.47c-2.16.37-3.59 1.61-5.25 3-2.22 1.93-4.75 4.11-9.12 4.11zm.79 11.66a13.61 13.61 0 1 1 -2.37 7.67 13 13 0 0 1 .16-2 3 3 0 0 0 -6 0 13.24 13.24 0 0 1 .16 2 13.6 13.6 0 1 1 -2.37-7.67 7.8 7.8 0 0 1 10.41 0zm-23.17-18.74c3.48.6 5.66 2.48 7.58 4.15s3.39 2.93 6 2.93v4.82c-4.37 0-6.9-2.18-9.12-4.11-1.66-1.43-3.09-2.67-5.25-3a7.21 7.21 0 0 0 -7.76 3.47l-4.28-2.23a12.14 12.14 0 0 1 12.83-6.03z"/><path d="m383.24 202.61c-4.3 0-7.39 3.09-7.39 8.38s3.09 8.38 7.39 8.38 7.39-3.09 7.39-8.38-3.09-8.38-7.39-8.38z"/><path d="m345.16 251.12c-3.06.11-5.43 1.65-5.43 4.18s2.22 4.18 5.43 4.19 5.88-1.23 5.93-4.19c.03-2.72-2.29-4.3-5.93-4.18z"/><path d="m324.28 251.14c-3.41 0-5.5 1.76-5.41 4.21.08 2.28 2.36 4.21 5.46 4.21 3.39 0 5.47-1.93 5.44-4.21s-2.09-4.21-5.49-4.21z"/><path d="m227.6 211c0 5.29 3.08 8.38 7.38 8.38s7.39-3.09 7.39-8.38-3.08-8.38-7.39-8.38-7.38 3.08-7.38 8.38z"/></g><path d="m185.71 109.28v-6.04h.1l-16.44-16.45v-23.8h-6.03v26.29l20 20z" fill="#fff"/><path d="m187.42 90.22-7.42-7.41v-20.48l5.78-5.78-8.54-8.54v-5.45h-6.03v7.95l6.05 6.04-3.28 3.28v25.47l10.96 10.96h.77v-6.04z" fill="#fff"/><path d="m282.91 109.28h2.37l20.9-20.9v-23.78h-6.03v21.29l-17.35 17.35h.11z" fill="#fff"/><path d="m282.91 96.26h.77l11.74-11.74v-23.81l-3.2-3.2 3.01-3v-11.14h-6.03v8.64l-5.5 5.5 5.69 5.7v18.82l-8.19 8.19h1.71z" fill="#fff"/><path d="m191.04 77.21v-11.27l10.25-10.25-12.69-12.7v-10.79h-6.03v13.29l10.2 10.2-7.75 7.75v19.81h.69v-6.04z" fill="#fff"/><path d="m211.29 48.53-10.88-10.88v-14.98h-6.02v17.48l10.88 10.88v7.04h6.02z" fill="#fff"/><path d="m224.31 42.61-9.52-9.52v-8.67l8.64-8.64-4.26-4.26-10.41 10.41v13.66l9.52 9.52v12.96h6.03z" fill="#fff"/><path d="m237.32 51.09 8.57-8.56-13.89-13.89v-5.25h-6.03v7.74l11.4 11.4-6.07 6.07v9.47h6.02z" fill="#fff"/><path d="m250.34 54.72 8.37-8.38v-11.15l-13.06-13.06v-10.23h-6.02v12.73l13.06 13.06v6.16l-8.38 8.37v5.85h6.03z" fill="#fff"/><path d="m263.35 57.79 7.43-7.44v-23.97l-11.82-11.83-4.26 4.27 10.06 10.06v18.98l-7.44 7.43v2.78h6.03z" fill="#fff"/><path d="m282.91 83.25h.92v-20.49l-5.82-5.81 5.04-5.04v-20.63h-6.02v18.13l-7.53 7.54 8.31 8.31v11.95h5.1z" fill="#fff"/><path d="m286.89 122.29 14.65-14.65-4.26-4.25-12.89 12.88h-1.48v6.02z" fill="#fff"/><path d="m184.22 116.27-14.08-14.08-4.26 4.25 15.85 15.85h3.98v-6.02z" fill="#fff"/><path d="m196.8 68.76v-.01h75.02v.01 75.02h-75.02z" fill="#fff"/><path d="m185.71 109.28h6.55v7h-6.55v6.06h6.55v7h-6.55v6h6.55v5.4a7.6 7.6 0 0 0 7.59 7.6h5.42v6.15h6v-6.15h7v6.15h6v-6.15h7v6.15h6v-6.15h7v6.15h6v-6.15h7v6.15h6v-6.15h5.42a7.6 7.6 0 0 0 7.59-7.6v-5.4h6.55v-6h-6.55v-7h6.55v-6.06h-6.55v-7h6.55v-6h-6.55v-7h6.55v-6.06h-6.55v-7h6.55v-6.01h-6.55v-5.4a7.6 7.6 0 0 0 -7.59-7.6h-5.42v-6.14h-6v6.14h-7v-6.14h-6v6.14h-7v-6.14h-6v6.14h-7v-6.14h-6v6.14h-7v-6.14h-6v6.14h-5.42a7.6 7.6 0 0 0 -7.59 7.6v5.4h-6.55v6.06h6.55v7h-6.55v6.06h6.55v7h-6.55zm12.57-37.47a1.57 1.57 0 0 1 1.57-1.57h68.92a1.57 1.57 0 0 1 1.57 1.57v68.91a1.57 1.57 0 0 1 -1.57 1.57h-68.92a1.57 1.57 0 0 1 -1.57-1.57z" fill="#fb8"/><path d="m221.79 96.17a8.4 8.4 0 0 0 -2.2-.3 8.52 8.52 0 0 0 -8.51 8.51 6.63 6.63 0 0 0 13.26 0 4.76 4.76 0 1 0 -9.51 0 2.88 2.88 0 0 0 5.76 0 1 1 0 1 0 -2 0 .87.87 0 1 1 -1.74 0 2.75 2.75 0 1 1 5.49 0 4.62 4.62 0 0 1 -9.24 0 6.5 6.5 0 1 1 13 0 8.37 8.37 0 0 1 -8.37 8.36h-.9a7.62 7.62 0 0 0 1.08.08 8.78 8.78 0 0 0 3.9-16.65z" fill="#fb8"/><path d="m244 104.38a6.63 6.63 0 0 0 13.25 0 4.76 4.76 0 1 0 -9.51 0 2.88 2.88 0 0 0 5.76 0 1 1 0 1 0 -2 0 .87.87 0 1 1 -1.74 0 2.75 2.75 0 1 1 5.49 0 4.62 4.62 0 0 1 -9.24 0 6.5 6.5 0 1 1 13 0 8.37 8.37 0 0 1 -8.37 8.36h-.9a7.62 7.62 0 0 0 1.08.08 8.78 8.78 0 0 0 3.9-16.65 8.4 8.4 0 0 0 -2.2-.3 8.51 8.51 0 0 0 -8.52 8.51z" fill="#fb8"/><path d="m217.89 90.43a13.61 13.61 0 1 0 13.6 13.6 13.24 13.24 0 0 0 -.16-2 3 3 0 0 1 6 0 13 13 0 0 0 -.16 2 13.6 13.6 0 1 0 2.37-7.67 7.8 7.8 0 0 0 -10.41 0 13.59 13.59 0 0 0 -11.24-5.93zm0 22.39a7.62 7.62 0 0 1 -1.08-.08 8.79 8.79 0 0 1 -7.71-8.74c0-.09 0-.17 0-.26a8.78 8.78 0 1 1 8.77 9zm24.1-9a8.78 8.78 0 1 1 8.77 9 7.62 7.62 0 0 1 -1.08-.08 8.78 8.78 0 0 1 -7.68-8.74c0-.06 0-.14 0-.23z" fill="#333"/><path d="m253.26 119.86c-1 2.12-5.06 4.37-10.69 4.37h-16.49c-5.63 0-9.71-2.25-10.69-4.37l-3.58 1.65-1 .18c1.78 9.34 8 15.86 15.24 15.86h16.49c7.19 0 13.46-6.52 15.24-15.86l-1-.18zm-10.69 12.87h-16.49c-3 0-5.8-1.88-7.82-5a23.1 23.1 0 0 0 7.82 1.31h16.49a23.1 23.1 0 0 0 7.82-1.31c-2.02 3.12-4.82 5-7.82 5z" fill="#333"/><path d="m215.54 82.37c2.16.37 3.59 1.61 5.25 3 2.22 1.93 4.75 4.11 9.12 4.11v-4.78c-2.58 0-4.08-1.3-6-2.93s-4.1-3.55-7.58-4.15a12.14 12.14 0 0 0 -12.86 6l4.28 2.23a7.21 7.21 0 0 1 7.79-3.48z" fill="#333"/><path d="m253.11 82.37a7.2 7.2 0 0 1 7.76 3.47l2.13-1.12 2.14-1.11a12.14 12.14 0 0 0 -12.86-6c-3.48.6-5.66 2.48-7.58 4.15s-3.39 2.93-6 2.93v4.82c4.37 0 6.9-2.18 9.12-4.11 1.7-1.4 3.18-2.66 5.29-3.03z" fill="#333"/><path d="m74.21 217.28h-.56l-8.32-31.21h-12.46v38.59h7.06v-31.09h.55l8.32 31.09h10.26l8.32-31.09h.55v31.09h7.06v-38.59h-12.46z" fill="#fff"/><path d="m117.64 221.13h.56v3.53h6.72v-17.26c0-6.83-4.68-10.86-11.85-10.86s-11.47 4-13.34 8.55l6.67 2.26c.66-3.09 2.64-5.29 6.39-5.29s5.3 2.2 5.3 4.85v.66l-8.61 1.32c-5.73.89-10 3.26-10 8.44s4.19 8.11 9.81 8.11c5.32 0 7.47-2.71 8.35-4.31zm-6.78-1c-3.08 0-4.46-1.43-4.46-3.2s1.38-2.86 3.86-3.25l7.83-1.21v.71c0 4.1-2.82 6.96-7.23 6.96z" fill="#fff"/><path d="m157.82 224.66v-38.59h-6.95v14.77h-.55c-1.54-2.2-4.19-4.3-8.93-4.3-6.51 0-12.35 5.52-12.35 14.45s5.84 14.45 12.35 14.45c4.74 0 7.39-2.1 9-4.47h.61v3.69zm-14.34-5.18c-4.3 0-7.49-3.09-7.49-8.49s3.19-8.49 7.49-8.49 7.5 3.09 7.5 8.49-3.2 8.49-7.5 8.49z" fill="#fff"/><path d="m186.43 186.07h-15.88v38.59h7.28v-14.11h8.6c7.11 0 12.35-4.85 12.35-12.24s-5.07-12.24-12.35-12.24zm-.72 17.86h-7.88v-11.25h7.88c3.48 0 5.79 2.21 5.79 5.63s-2.31 5.62-5.79 5.62z" fill="#fff"/><path d="m202.1 197.32v27.34h7v-15.88c0-3.86 2.54-5.73 6.07-5.73h4.08v-5.84h-2.87c-3.47 0-5.79 1-6.84 4h-.55v-3.85z" fill="#fff"/><path d="m220.65 211c0 8.93 6.17 14.45 14.33 14.45s14.34-5.52 14.34-14.45-6.18-14.45-14.34-14.45-14.33 5.51-14.33 14.45zm21.72 0c0 5.29-3.08 8.38-7.39 8.38s-7.38-3.09-7.38-8.38 3.08-8.38 7.38-8.38 7.39 3.08 7.39 8.38z" fill="#fff"/><path d="m273.28 213.36c-.6 3.53-2.64 6-6.83 6s-7.39-3.09-7.39-8.38 3.2-8.38 7.39-8.38 6.23 2.64 6.61 5.95l6.73-1.43c-1.21-6.12-5.85-10.59-13.45-10.59a14.45 14.45 0 0 0 0 28.9c7.66.01 12.12-4.43 13.66-10.43z" fill="#fff"/><path d="m309.1 218.71-5.57-3.42a7.5 7.5 0 0 1 -6.95 4.19 6.82 6.82 0 0 1 -6.95-6.34h19.91v-2.59c0-8.44-5.35-14-13.29-14s-13.73 5.74-13.73 14.23 5.68 14.67 14.06 14.67c7.72-.01 10.97-4.65 12.52-6.74zm-12.91-16.21c3.59 0 5.9 2.2 6.29 5.79h-12.79c.44-3.48 2.59-5.79 6.5-5.79z" fill="#fff"/><path d="m326.87 208.29-2.76-.55c-3-.61-4.41-1.33-4.41-3.09s1.71-2.7 4.47-2.7a7.35 7.35 0 0 1 7.5 5.29l6.17-2.48a14.83 14.83 0 0 0 -13.78-8.22c-6.4 0-11.08 3.15-11.08 8.33s4.57 7.5 10.31 8.65l2.76.56c3.19.66 4.74 1.21 4.74 3s-1.66 3-5.08 3-6.67-1.21-7.94-5.79l-6.28 2.21c2.26 5.9 7.5 9 14.33 9s11.69-3.09 11.69-8.72-5.01-7.39-10.64-8.49z" fill="#fff"/><path d="m352.83 202a7.35 7.35 0 0 1 7.49 5.29l6.18-2.48a14.86 14.86 0 0 0 -13.79-8.22c-6.39 0-11.08 3.15-11.08 8.33s4.58 7.5 10.31 8.65l2.76.56c3.2.66 4.74 1.21 4.74 3s-1.65 3-5.07 3-6.67-1.21-7.94-5.79l-6.29 2.21c2.26 5.9 7.5 9 14.34 9s11.69-3.09 11.69-8.72-5-7.33-10.64-8.43l-2.76-.55c-3-.61-4.41-1.33-4.41-3.09s1.71-2.76 4.47-2.76z" fill="#fff"/><path d="m383.24 196.54c-8.16 0-14.34 5.52-14.34 14.45s6.18 14.45 14.34 14.45 14.33-5.52 14.33-14.45-6.17-14.45-14.33-14.45zm0 22.83c-4.3 0-7.39-3.09-7.39-8.38s3.09-8.38 7.39-8.38 7.39 3.09 7.39 8.38-3.09 8.38-7.39 8.38z" fill="#fff"/><path d="m416.17 197.21c-3.48 0-5.79 1-6.84 4h-.55v-3.85h-6.84v27.34h6.95v-15.92c0-3.86 2.54-5.73 6.06-5.73h4.05v-5.84z" fill="#fff"/><path d="m126.59 258.47a7.62 7.62 0 0 1 -3.88 1c-3.41 0-5.57-1.79-5.55-4.13s1.7-4.08 5.34-4.18a7.14 7.14 0 0 1 5.52 2.33l2.58-1.71s-1.94-3.36-7.91-3.36-8.77 3.29-8.77 6.91c0 3.7 2.87 6.91 8.77 6.91 5.42 0 7.82-3 8.13-3.4l-2.44-1.81a7.11 7.11 0 0 1 -1.79 1.44z" fill="#fb8"/><path d="m141.39 248.6c-5 0-9 2.44-9 6.84s4 6.83 9 6.83 9-2.49 9-6.83-4.04-6.84-9-6.84zm0 11c-3.1 0-5.38-1.93-5.46-4.21-.09-2.45 2-4.21 5.41-4.21s5.44 1.83 5.49 4.21-2.08 4.17-5.47 4.17z" fill="#fb8"/><path d="m179.46 250.06c-2.74-2.83-7.41-1.74-8.91-.56a7.93 7.93 0 0 0 -2.06 2.36 2.92 2.92 0 0 0 -.14-.31 5.56 5.56 0 0 0 -3.19-2.84 7.68 7.68 0 0 0 -6.8.7 4.4 4.4 0 0 0 -1.81 1.92l-.24-2.58h-3.17v13.17h3.57c0-2 0-3 0-5a7.9 7.9 0 0 1 .83-3.93 4.71 4.71 0 0 1 2.7-2 4.1 4.1 0 0 1 5.07 2.22 8.61 8.61 0 0 1 .45 3.21v5.42h3.6c0-2 0-3 0-5 0-3.38 1.12-4.93 2.86-5.59a4.3 4.3 0 0 1 4.19.57c1.15 1 1.41 2.52 1.41 4.63v5.42h3.55v-5.12c0-.3 0-1.09 0-1.6a7.06 7.06 0 0 0 -1.91-5.09z" fill="#fb8"/><path d="m193.72 248.53c-4 .33-5.39 2.87-5.39 2.87l-.24-2.72h-3.09v19.8h3.34v-8.6s1.26 2.05 5.64 2.35c6.58.47 9.88-2.64 9.88-7-.01-4.83-4.79-7.13-10.14-6.7zm.32 11c-3.21 0-5.43-1.58-5.43-4.19s2.37-4.07 5.43-4.18c3.64-.14 6 1.46 5.93 4.18-.05 2.92-2.57 4.16-5.97 4.15z" fill="#fb8"/><path d="m218.31 248.64v6.27s-.73 3.51-2.57 4.26a4.81 4.81 0 0 1 -4.55-.39c-1.29-1-1.21-2.48-1.21-4.71s0-3.13 0-5.42h-3.38v5.12 1.29c0 1.6.14 4.24 1.84 5.71 2.33 2 6.51 1.54 8.1.43a5.32 5.32 0 0 0 1.9-2.07l.19 2.68h3.15v-13.16z" fill="#fb8"/><path d="m231 258.53a2.77 2.77 0 0 1 -.65-2.29v-4.67h4.76v-2.82h-4.76v-6.15h-2.83l-.43 6.15h-2.76v2.82h2.76v4.5a23 23 0 0 0 .12 2.83 3.4 3.4 0 0 0 1.9 2.67c1.94.93 5.93.34 5.93.34l.13-2.92s-1.08.07-1.77.07a4.11 4.11 0 0 1 -2.4-.53z" fill="#fb8"/><path d="m252.71 251.6a8 8 0 0 0 -6.94-3.24c-5.87 0-9 3.43-9 6.93 0 3.69 3.05 6.91 9 6.91 5.42 0 7.81-3 8.12-3.41l-2.44-1.8a7 7 0 0 1 -1.79 1.41 7.61 7.61 0 0 1 -3.87.93c-2.94 0-5-1.28-5.55-3.12h13.76a7.93 7.93 0 0 0 -1.29-4.61zm-12.32 2.16c.65-1.64 2.42-2.87 5.24-2.93 3.38-.07 4.48 2 4.66 2.93z" fill="#fb8"/><path d="m262.21 249.2a6.91 6.91 0 0 0 -1.95 2l-.3-2.48h-3.06v13.14h3.39c0-2 0-3.95 0-3.95 0-2.18-.08-5.52 2.67-6.13a10.29 10.29 0 0 1 3.91.22l.2-3-.28-.06c-1.25-.14-3.26-.49-4.58.26z" fill="#fb8"/><path d="m291 254.53c-1.51-.63-4.68-.78-7.25-1.24-1.8-.32-1.9-1.17-1.63-1.6.47-.75 2.1-.9 4.1-.75a8.4 8.4 0 0 1 4.79 1.85l2-2.29a13.08 13.08 0 0 0 -10.74-2 4.42 4.42 0 0 0 -3.39 2.39 3.07 3.07 0 0 0 .65 3.66c1.41 1.33 3.34 1.54 5.74 1.84 1.72.21 4.66.31 4.87 1.31.44 2-5 2.12-7.48 1.17a6.4 6.4 0 0 1 -2.34-1.39l-2.26 2a4.86 4.86 0 0 0 1.38 1.07c3.78 2.2 10.18 2.12 12.63.19a3.7 3.7 0 0 0 1.41-3.65c-.2-1.2-.78-1.88-2.48-2.56z" fill="#fb8"/><path d="m310.57 250a7.94 7.94 0 0 0 -8.65-.59 5.21 5.21 0 0 0 -1.92 1.89v-10.68h-3.42v21.26h3.56c0-2 0-3 0-5a7.14 7.14 0 0 1 .72-3.67c1.49-2.43 5.4-2.46 6.78-1.38s1.58 2.62 1.57 4.85 0 2.89 0 5.19h3.54c0-2.53 0-2.59 0-5.12 0-.3 0-.79 0-1.3a7.3 7.3 0 0 0 -2.18-5.45z" fill="#fb8"/><path d="m324.36 248.6c-5 0-9 2.44-9 6.84s4 6.83 9 6.83 9-2.49 9-6.83-4.04-6.84-9-6.84zm0 11c-3.1 0-5.38-1.93-5.46-4.21-.09-2.45 2-4.21 5.41-4.21s5.44 1.83 5.49 4.21-2.08 4.17-5.47 4.17z" fill="#fb8"/><path d="m344.84 248.53c-4 .33-5.39 2.87-5.39 2.87l-.25-2.72h-3.09v19.8h3.34v-8.6s1.26 2.05 5.64 2.35c6.58.47 9.88-2.64 9.88-7 .03-4.83-4.78-7.13-10.13-6.7zm.32 11c-3.21 0-5.43-1.58-5.43-4.19s2.37-4.07 5.43-4.18c3.64-.14 6 1.46 5.93 4.18-.09 2.92-2.57 4.16-5.93 4.15z" fill="#fb8"/></svg>