<svg viewBox="0 0 1000 1000" xmlns="http://www.w3.org/2000/svg">
  <path d="m230.85 270.2-.01.01c-5.72 2.19-12.05-.47-14.15-5.94l-.01-.03c-2.1-5.48.83-11.7 6.54-13.89l.03-.01c5.71-2.19 12.05.47 14.15 5.94l.01.03c2.1 5.48-.83 11.69-6.54 13.89z" fill="#fff"/>
  <path d="m332.22 955.06 13.86-.24.76 43.46-13.87.24zM35.76 38.74l13.3-6.49 19.06 39.07-13.3 6.5zm693.98 599.18 24.94-35.61 11.36 7.95-24.93 35.61zm215.73-117.85-.01-.01c-5.14-4.96-5.14-13.3 0-18.62l.02-.02c5.14-5.32 13.47-5.61 18.61-.65l.02.02c5.14 4.96 5.14 13.3 0 18.62l-.02.02c-5.14 5.32-13.47 5.61-18.61.65zm-757.2 449.1 43.46-.76.24 13.86-43.46.76zm408.65-851.91h-.01c-6.08-.75-10.42-6.07-9.71-11.89v-.03c.72-5.82 6.22-9.94 12.3-9.19h.03c6.08.75 10.42 6.07 9.71 11.89v.03c-.72 5.82-6.22 9.94-12.3 9.19zM153.84 913.12v.01a11.08 11.08 0 0 1-12.84 8.99l-.03-.01a11.08 11.08 0 0 1-8.99-12.84l.01-.03a11.08 11.08 0 0 1 12.84-8.99h.03a11.08 11.08 0 0 1 8.99 12.84z" fill="#333"/>
  <path d="m779.9 96.79 13.43-41.35 13.2 4.29-13.44 41.34z" fill="#fff"/>
  <path d="m602.98 190.19 6.05-43.05 14.65 2.06-6.04 43.05zM132.26 609.65 164.05 580l10.1 10.82-31.8 29.65zm-13.52-180.98 12.26-8.28 24.31 36.04-12.27 8.28z" fill="#333"/>
  <path d="m700.03 450.12 16.28-40.31 12.86 5.2-16.28 40.3z" fill="#fff"/>
  <path d="m3.53 306.06 35.6-24.93 8.5 12.12-35.6 24.94zm984.66 271.85 33.78-27.35 8.73 10.78-33.78 27.35zm-84.67-12.36 30.73-30.74 10.47 10.46-30.74 30.74zM5.47 191.28l12.55-7.85 22.55 36.08-12.55 7.85z" fill="#333"/>
  <path d="M14.15 857.99v.01a12.93 12.93 0 0 1-15.51 9.69l-.03-.01a12.93 12.93 0 0 1-9.69-15.51l.01-.03a12.93 12.93 0 0 1 15.51-9.69l.03.01a12.93 12.93 0 0 1 9.69 15.51z" fill="#fff"/>
  <path d="m113.54 293.95 12.94-7.18L147.11 324l-12.94 7.17zm353.54 338.1 43.47-.76.24 13.87-43.46.76zM878.5 816.48l-.01-.01a11.09 11.09 0 0 1 5.87-14.53l.03-.01a11.08 11.08 0 0 1 14.53 5.87l.01.03a11.08 11.08 0 0 1-5.87 14.53l-.03.01a11.09 11.09 0 0 1-14.53-5.87zM390.83 470.03h-.01a12.94 12.94 0 0 1-15.34-9.96l-.01-.03a12.93 12.93 0 0 1 9.96-15.34l.03-.01a12.93 12.93 0 0 1 15.34 9.96l.01.03a12.93 12.93 0 0 1-9.96 15.34zm344.96 69.84-.01-.01a11.09 11.09 0 0 1-4.32-15.07l.01-.03a11.09 11.09 0 0 1 15.07-4.32l.03.01a11.09 11.09 0 0 1 4.32 15.07l-.01.03a11.09 11.09 0 0 1-15.07 4.32zM144.92 697.49l-.01.01a12.94 12.94 0 0 1-18.16 2.23l-.02-.02a12.94 12.94 0 0 1-2.23-18.16l.02-.02a12.94 12.94 0 0 1 18.16-2.23l.02.02a12.94 12.94 0 0 1 2.23 18.16z" fill="#333"/>
  <path d="m881.81 49.46-.01-.01a12.94 12.94 0 0 1-7.15-16.84l.01-.03a12.94 12.94 0 0 1 16.84-7.15l.03.01a12.94 12.94 0 0 1 7.15 16.84l-.01.03a12.94 12.94 0 0 1-16.84 7.15z" fill="#fff"/>
  <path d="M104.19 976.94v.01a12.94 12.94 0 0 1-12.71 13.16h-.03a12.94 12.94 0 0 1-13.16-12.71v-.03A12.94 12.94 0 0 1 91 964.21h.03a12.94 12.94 0 0 1 13.16 12.71z" fill="#333"/>
  <path d="m781.9 360.3-.01-.01a10.62 10.62 0 0 1-5.14-14.12l.01-.03a10.62 10.62 0 0 1 14.12-5.14l.03.01a10.62 10.62 0 0 1 5.14 14.12l-.01.03a10.62 10.62 0 0 1-14.12 5.14z" fill="#fff"/>
  <path d="m933.98 838.28 14.3-3.83 11.25 41.98-14.3 3.83z" fill="#333"/>
  <path d="m327.22 536.2 40.23-13.85 4.82 14-40.23 13.85z" fill="#fff"/>
  <path d="m532.85 752.58 3.6-13.4 41.98 11.26-3.59 13.4zM979.2 8.53l-.01-.01c-5.5-2.68-7.88-9.13-5.31-14.41l.01-.03c2.57-5.27 9.12-7.37 14.62-4.69l.03.01c5.5 2.68 7.88 9.13 5.31 14.41l-.01.03c-2.57 5.27-9.12 7.37-14.62 4.69zM403.77 45.4l43.3-3.79 1.3 14.74-43.31 3.79zm395.99 417.63 21.91-36.48 12.7 7.63-21.92 36.47zm165.48-210.71 23.67-36.46 12.41 8.06-23.67 36.46zm-44.12 190.07-.01-.01c-4.76-3.85-5.62-10.67-1.93-15.23l.02-.02c3.69-4.56 10.54-5.13 15.3-1.28l.02.02c4.76 3.85 5.62 10.67 1.93 15.23l-.02.02c-3.69 4.56-10.54 5.13-15.3 1.28zm4.26 554.83.24-13.87 43.47.76-.25 13.87zm-319.25-66.57 41.35-13.44 4.57 14.08-41.34 13.43zm-307.53-596 41.8-11.98 3.82 13.33-41.79 11.98zM3.41 261.72l-.01.01a12.92 12.92 0 0 1-18.01-3.18l-.02-.02a12.92 12.92 0 0 1 3.18-18.01l.02-.02a12.92 12.92 0 0 1 18.01 3.18l.02.02a12.92 12.92 0 0 1-3.18 18.01zm431.46 670.75 9.71-11.17 32.8 28.52-9.7 11.17zm-157.6-555.35 40.23-13.85 4.82 13.99-40.23 13.85zm35.39 392.16 34.71-26.17 8.9 11.82-34.7 26.16z" fill="#333"/>
  <path d="m324.55 880.7 7.62-12.68 37.27 22.39-7.63 12.68z" fill="#fff"/>
  <path d="M506.3 546.15h-.01a12.94 12.94 0 0 1-12.71-13.16v-.03a12.95 12.95 0 0 1 13.16-12.71h.03a12.94 12.94 0 0 1 12.71 13.16v.03a12.95 12.95 0 0 1-13.16 12.71z" fill="#333"/>
  <path d="m146.66 208.81-.01.01c-5.55 2.59-12.06.37-14.53-4.94l-.01-.03c-2.48-5.32.01-11.72 5.56-14.31l.03-.01c5.55-2.59 12.06-.37 14.53 4.94l.01.03c2.48 5.32-.01 11.72-5.56 14.31zm416.48 753.95v-.01a12.93 12.93 0 0 1 10.49-14.98l.03-.01a12.94 12.94 0 0 1 14.98 10.49l.01.03a12.93 12.93 0 0 1-10.49 14.98h-.03a12.94 12.94 0 0 1-14.98-10.49z" fill="#fff"/>
  <path d="m169.98 789.58 7.4-12.82 37.65 21.74-7.4 12.81zm372.94 98.16-.01-.01a10.62 10.62 0 0 1-3.63-14.58l.01-.02a10.6 10.6 0 0 1 14.57-3.63l.03.01a10.62 10.62 0 0 1 3.63 14.58l-.01.02a10.6 10.6 0 0 1-14.57 3.63z" fill="#333"/>
  <path d="m284.2 639.33-.01.01a12.93 12.93 0 0 1-17.89-3.8l-.02-.02a12.93 12.93 0 0 1 3.8-17.89l.02-.02c5.99-3.89 14-2.19 17.89 3.8l.02.02c3.89 5.99 2.19 14-3.8 17.89zm169.04 166.34h-.01a12.94 12.94 0 0 1-15.68-9.42l-.01-.03a12.94 12.94 0 0 1 9.42-15.68l.03-.01a12.94 12.94 0 0 1 15.68 9.42l.01.03a12.94 12.94 0 0 1-9.42 15.68zm273.98-417.58-.01-.01a11.07 11.07 0 0 1-6.12-14.43l.01-.03a11.08 11.08 0 0 1 14.43-6.13l.03.01a11.07 11.07 0 0 1 6.12 14.43l-.01.03a11.07 11.07 0 0 1-14.43 6.12zM428.24 173.78h-.01c-5.84.51-11-3.81-11.51-9.66v-.03c-.51-5.84 3.81-11 9.66-11.51h.03c5.84-.51 11 3.81 11.51 9.66v.03c.51 5.84-3.81 11-9.66 11.51z" fill="#fff"/>
  <path d="m629.12 59.55 2.31-14.62 42.03 6.66-2.32 14.61z" fill="#333"/>
  <path d="M552.25 223.71h-.01a11.08 11.08 0 0 1-10.28-11.83v-.03a11.08 11.08 0 0 1 11.83-10.28h.03a11.1 11.1 0 0 1 10.29 11.83v.03a11.08 11.08 0 0 1-11.83 10.28zm106.42 161.82 4.05-13.26 41.57 12.7-4.05 13.27z" fill="#fff"/>
  <path d="M492.7 169.21h-.01c-5.87 0-10.62-4.96-10.62-11.08v-.03c0-6.12 4.76-11.08 10.62-11.08h.03c5.87 0 10.62 4.96 10.62 11.08v.03c0 6.12-4.76 11.08-10.62 11.08zM841.5 922l43.05-6.06 2.06 14.66-43.05 6.05zm28.5-43.88 42.18-10.52 3.36 13.46-42.18 10.51zM642.57 285.05h-.01a12.93 12.93 0 0 1-9.96-15.34l.01-.03a12.92 12.92 0 0 1 15.34-9.96l.03.01a12.93 12.93 0 0 1 9.96 15.34l-.01.03a12.92 12.92 0 0 1-15.34 9.96zm-536.92-59.5-.01.01a12.93 12.93 0 0 1-17.49-5.35l-.01-.03a12.93 12.93 0 0 1 5.35-17.49l.03-.01a12.93 12.93 0 0 1 17.49 5.35l.01.03a12.93 12.93 0 0 1-5.35 17.49z" fill="#333"/>
  <path d="M309.44 24.23h-.01a12.94 12.94 0 0 1-15.34-9.96l-.01-.03a12.94 12.94 0 0 1 9.96-15.34l.03-.01a12.93 12.93 0 0 1 15.34 9.96l.01.03a12.93 12.93 0 0 1-9.96 15.34z" fill="#fff"/>
  <path d="m321.54 424.86 14.15-4.33 12.72 41.57-14.16 4.33z" fill="#333"/>
  <path d="m128.63 376.78-.01.01a12.94 12.94 0 0 1-17.82-4.11l-.02-.02a12.93 12.93 0 0 1 4.11-17.82l.02-.02a12.93 12.93 0 0 1 17.82 4.11l.02.02a12.93 12.93 0 0 1-4.11 17.82z" fill="#fff"/>
  <path d="m89.86 583.2 31.27-30.2 9.63 9.98-31.27 30.2zM519.27 91.52h-.01c-5.87-.1-10.53-5.15-10.43-11.27v-.03c.11-6.12 4.95-11 10.81-10.9h.03c5.87.1 10.53 5.15 10.43 11.27v.03c-.11 6.12-4.95 11-10.82 10.9zm311.89 55.24-.01-.01c-5.68-2.29-8.5-8.56-6.3-14l.01-.03c2.2-5.44 8.58-7.99 14.26-5.7l.03.01c5.68 2.29 8.5 8.56 6.3 14l-.01.03c-2.2 5.44-8.58 7.99-14.26 5.7zm-820.55-7.89 12.82-7.4 21.73 37.64-12.81 7.4zM422.57 17.06h-.01A12.93 12.93 0 0 1 408.55 5.3v-.03a12.93 12.93 0 0 1 11.76-14.01h.03a12.93 12.93 0 0 1 14.01 11.76v.03a12.93 12.93 0 0 1-11.76 14.01z" fill="#333"/>
  <path d="m226.19 741.21 30.2-31.26 10.64 10.28-30.2 31.27zm73.11 99.74 27.36-33.78 11.5 9.32-27.36 33.78z" fill="#fff"/>
  <path d="m454.62 388.14 14.76-1.03 3.03 43.37-14.76 1.03zM363.94 720.8l-.01.01a10.64 10.64 0 0 1-14.29-4.64l-.01-.03a10.64 10.64 0 0 1 4.64-14.29l.03-.01a10.64 10.64 0 0 1 14.29 4.64l.01.03a10.63 10.63 0 0 1-4.64 14.29zm-10.36-587.3 43.04-6.05 2.06 14.66-43.04 6.05z" fill="#333"/>
  <path d="M510.51 978.17v-.01a12.92 12.92 0 0 1 15.34-9.96l.03.01a12.93 12.93 0 0 1 9.96 15.34l-.01.03a12.92 12.92 0 0 1-15.34 9.96l-.03-.01a12.93 12.93 0 0 1-9.96-15.34z" fill="#fff"/>
  <path d="m-27.66 435.76 10.64-10.28 30.2 31.26-10.65 10.29z" fill="#333"/>
  <path d="M385.76 359.13h-.01a12.94 12.94 0 0 1-14.98-10.49v-.03a12.94 12.94 0 0 1 10.49-14.98h.03a12.94 12.94 0 0 1 14.98 10.49l.01.03a12.94 12.94 0 0 1-10.49 14.98z" fill="#fff"/>
  <path d="m13.1 653.9 8.28-12.26 36.04 24.3-8.28 12.27zm446.01-541.54h-.01a12.94 12.94 0 0 1-13.59-12.24v-.03a12.94 12.94 0 0 1 12.24-13.59h.03a12.93 12.93 0 0 1 13.59 12.24v.03a12.94 12.94 0 0 1-12.24 13.59zm100.15 43.87h-.01a10.64 10.64 0 0 1-9.86-11.34v-.03a10.63 10.63 0 0 1 11.34-9.86h.03a10.64 10.64 0 0 1 9.86 11.34v.03a10.63 10.63 0 0 1-11.34 9.86zm99.14 332.73h-.01c-7.03-2.29-10.95-9.65-8.74-16.44l.01-.03c2.21-6.79 9.7-10.45 16.74-8.16l.03.01c7.04 2.29 10.95 9.65 8.74 16.44l-.01.03c-2.21 6.79-9.7 10.45-16.74 8.16zm-39.46 260.28 7.55-11.63 36.46 23.68-7.56 11.63z" fill="#333"/>
  <path d="m605.69 819.63 9.9-11 32.3 29.09-9.9 11z" fill="#fff"/>
  <path d="m81.61 770.15 21.08-38.02 12.94 7.18-21.07 38.02zm135.51-325.9-.01.01a11.09 11.09 0 0 1-14.99-4.58l-.01-.03a11.1 11.1 0 0 1 4.58-14.99l.03-.01a11.09 11.09 0 0 1 14.99 4.58l.01.03a11.09 11.09 0 0 1-4.58 14.99zM193.85 674.1l9.8-9.82 30.74 30.74-9.8 9.81z" fill="#333"/>
  <path d="M608.92 396.4h-.01c-6.01-1.17-9.97-6.78-8.85-12.54l.01-.03c1.12-5.76 6.9-9.48 12.91-8.31l.03.01c6.01 1.17 9.97 6.78 8.85 12.54l-.01.03c-1.12 5.76-6.9 9.48-12.91 8.31z" fill="#fff"/>
  <path d="m50.82 766-.01.01a11.08 11.08 0 0 1-14.73 5.36l-.03-.01a11.08 11.08 0 0 1-5.36-14.73l.01-.03a11.08 11.08 0 0 1 14.73-5.36l.03.01a11.08 11.08 0 0 1 5.36 14.73zm167.17-168.06 36.04-24.3 7.75 11.5-36.03 24.3zm20.25 218.46 24.94-35.6 12.12 8.49-24.93 35.6z" fill="#333"/>
  <path d="m860.8 282.28-.01-.01a10.62 10.62 0 0 1-4.39-14.37l.01-.03a10.62 10.62 0 0 1 14.37-4.39l.02.01a10.62 10.62 0 0 1 4.39 14.37l-.01.02a10.62 10.62 0 0 1-14.37 4.39zm-672.1 25.3-.01.01a10.62 10.62 0 0 1-14.12-5.14l-.01-.03a10.62 10.62 0 0 1 5.14-14.12l.03-.01a10.62 10.62 0 0 1 14.12 5.14l.01.03a10.62 10.62 0 0 1-5.14 14.12zm509.94 167.65 5.64-12.67L744 480.24l-5.64 12.67zM28.69 717.79l-.01.01a12.93 12.93 0 0 1-17.49 5.35l-.03-.01a12.93 12.93 0 0 1-5.35-17.49l.01-.03a12.93 12.93 0 0 1 17.49-5.35l.03.01a12.93 12.93 0 0 1 5.35 17.49z" fill="#fff"/>
  <path d="m137.82 274.67-.01.01a12.95 12.95 0 0 1-17.4-5.65l-.01-.03a12.95 12.95 0 0 1 5.65-17.4l.03-.01a12.95 12.95 0 0 1 17.4 5.65l.01.03a12.95 12.95 0 0 1-5.65 17.4z" fill="#333"/>
  <path d="m498.1 838.26 3.03-43.36 14.76 1.03-3.03 43.37zM243.52 189.27l14.08-4.57 13.43 41.34-14.07 4.57z" fill="#fff"/>
  <path d="m262.52 301.22 41.35-13.43 4.57 14.07-41.34 13.44z" fill="#333"/>
  <path d="M346.92 89.98h-.01a12.93 12.93 0 0 1-14.98-10.49l-.01-.03a12.94 12.94 0 0 1 10.49-14.98l.03-.01a12.94 12.94 0 0 1 14.98 10.49l.01.03a12.94 12.94 0 0 1-10.49 14.98z" fill="#fff"/>
  <path d="m385.07 69.49 14.69-1.8 5.3 43.13-14.7 1.8z" fill="#333"/>
  <path d="m927.07 337.03-.01-.01a10.62 10.62 0 0 1-2.87-14.75l.02-.02a10.63 10.63 0 0 1 14.75-2.87l.02.02a10.63 10.63 0 0 1 2.87 14.75l-.02.02a10.63 10.63 0 0 1-14.75 2.87z" fill="#fff"/>
  <path d="m209.73 472.46 12.94-7.18 20.63 37.22-12.95 7.17zm415.66 112.51 4.97-12.95 39.72 15.25-4.97 12.95zM106.84 931.44v.01c-.64 6.09-5.89 10.53-11.72 9.91h-.03c-5.83-.61-10.05-6.05-9.41-12.13v-.03c.64-6.09 5.89-10.53 11.72-9.91h.03c5.83.61 10.05 6.05 9.41 12.13zm775.6-215.88 36.46-23.68 8.06 12.41-36.46 23.68zM493.9 289.13l.25-14.8 43.47.76-.26 14.8z" fill="#333"/>
  <path d="m3.18 83.01-.01.01a12.93 12.93 0 0 1-17.58-5.04l-.01-.03a12.93 12.93 0 0 1 5.04-17.58l.03-.01A12.93 12.93 0 0 1 8.23 65.4l.01.03A12.93 12.93 0 0 1 3.2 83z" fill="#fff"/>
  <path d="m995.05 303.03-.01-.01c-5.78-4.2-6.94-12.46-2.59-18.44l.02-.02c4.35-5.99 12.56-7.43 18.34-3.24l.02.02c5.78 4.2 6.94 12.45 2.59 18.44l-.02.02c-4.35 5.99-12.56 7.43-18.34 3.24zm-338.2 575.4 38.02-21.08 6.73 12.13-38.02 21.08zM422.79 285.26h-.01a12.94 12.94 0 0 1-14.22-11.51v-.03a12.94 12.94 0 0 1 11.51-14.22h.03a12.94 12.94 0 0 1 14.22 11.51v.03a12.94 12.94 0 0 1-11.51 14.22z" fill="#333"/>
  <path d="m676.68 644.35 21.07-38.02 12.13 6.73-21.07 38.01z" fill="#fff"/>
  <path d="M130.52 870.67v.01a12.93 12.93 0 0 1-16 8.87l-.03-.01a12.93 12.93 0 0 1-8.87-16l.01-.03a12.93 12.93 0 0 1 16-8.87l.03.01a12.93 12.93 0 0 1 8.87 16z" fill="#333"/>
  <path d="m983.66 999.07.25-14.8 43.47.76-.26 14.8z" fill="#fff"/>
  <path d="m874.53 761.66-.01-.01a12.94 12.94 0 0 1 4.73-17.67l.03-.01a12.94 12.94 0 0 1 17.67 4.73l.01.02a12.94 12.94 0 0 1-4.73 17.67l-.03.01a12.94 12.94 0 0 1-17.67-4.73z" fill="#333"/>
  <path d="m306.76 246.4 13.46-3.36 10.52 42.18-13.46 3.35zm473 657.13v-.01a12.94 12.94 0 0 1 9.42-15.68l.03-.01a12.94 12.94 0 0 1 15.68 9.42l.01.03a12.94 12.94 0 0 1-9.42 15.68l-.03.01a12.94 12.94 0 0 1-15.68-9.42zM178.35 729.68l-.01.01a12.94 12.94 0 0 1-18.11 2.55l-.02-.02a12.93 12.93 0 0 1-2.55-18.11l.02-.02a12.93 12.93 0 0 1 18.11-2.55l.02.02a12.94 12.94 0 0 1 2.55 18.11zM769.4 495.51l-.01-.01a12.92 12.92 0 0 1-5.04-17.58l.01-.03a12.92 12.92 0 0 1 17.58-5.04l.02.01a12.92 12.92 0 0 1 5.04 17.58l-.01.03a12.92 12.92 0 0 1-17.58 5.04zm-82.36-203.06h-.01a11.09 11.09 0 0 1-7.6-13.71l.01-.03a11.08 11.08 0 0 1 13.71-7.6l.03.01a11.09 11.09 0 0 1 7.6 13.71l-.01.03a11.09 11.09 0 0 1-13.71 7.6z" fill="#fff"/>
  <path d="m124.62 833.5 17.68-39.7 13.52 6.01-17.68 39.71zm-39.68-1.66v.01c-2.33 6.75-9.88 10.28-16.88 7.87l-.03-.01c-7-2.41-10.78-9.84-8.46-16.59l.01-.03c2.33-6.75 9.88-10.28 16.88-7.87l.03.01c7 2.41 10.78 9.84 8.46 16.59z" fill="#333"/>
  <path d="m694.12 778.45 31.78-29.65 10.1 10.83-31.8 29.64z" fill="#fff"/>
  <path d="M537.8 698.61h-.01a12.93 12.93 0 0 1-10.75-14.8v-.03a12.93 12.93 0 0 1 14.8-10.75h.03a12.93 12.93 0 0 1 10.75 14.8v.03a12.93 12.93 0 0 1-14.8 10.75z" fill="#333"/>
  <path d="m375.6 788.51 38.73-19.73 6.3 12.36-38.74 19.73zm89.06-420.88h-.01a12.94 12.94 0 0 1-13.59-12.24v-.03a12.94 12.94 0 0 1 12.24-13.59h.03a12.93 12.93 0 0 1 13.59 12.24v.03a12.94 12.94 0 0 1-12.24 13.59zm-302.6 284.92 31.27-30.2L203.6 633l-31.27 30.2z" fill="#fff"/>
  <path d="m181.17 64.33 13.11-4.52 14.16 41.1-13.12 4.52z" fill="#333"/>
  <path d="m9.18 7.1 38.25-18.66L53.5.91 15.26 19.56z" fill="#fff"/>
  <path d="m95.73 679.06-.01.01c-3.6 4.95-10.36 6.17-15.11 2.72l-.02-.02c-4.75-3.45-5.68-10.26-2.08-15.21l.02-.02c3.6-4.95 10.36-6.17 15.11-2.72l.02.02c4.75 3.45 5.68 10.26 2.08 15.21zM304.25 574.9l13.42-6.25 18.37 39.4-13.42 6.25zm630.81 87.5 11.63-7.56 23.68 36.46-11.63 7.55zm-87.41 46.93-.01-.01a12.93 12.93 0 0 1 2.55-18.11l.02-.02a12.93 12.93 0 0 1 18.11 2.55l.02.02a12.92 12.92 0 0 1-2.55 18.11l-.02.02a12.93 12.93 0 0 1-18.11-2.55zM683.64 332.44l4.28-13.19 41.34 13.44-4.28 13.19z" fill="#333"/>
  <path d="M600.3 45.19h-.01c-5.83-.61-10.05-6.05-9.41-12.13v-.03c.64-6.09 5.89-10.53 11.72-9.91h.03c5.83.61 10.05 6.05 9.41 12.13v.03c-.64 6.09-5.89 10.53-11.72 9.91zm110.56 129.99h-.01c-5.67-1.52-8.98-7.54-7.39-13.46l.01-.03c1.58-5.91 7.46-9.48 13.13-7.96l.03.01c5.67 1.52 8.98 7.54 7.39 13.46l-.01.03c-1.59 5.91-7.46 9.48-13.13 7.96zM526.8 934.3l30.74-30.73 9.81 9.8-30.74 30.74zM234.7 521.47l12.94-7.17 21.08 38.02-12.95 7.17zm569.63-334.11-.01-.01a12.93 12.93 0 0 1-7.44-16.71l.01-.03a12.93 12.93 0 0 1 16.71-7.44l.03.01a12.93 12.93 0 0 1 7.44 16.71l-.01.03a12.93 12.93 0 0 1-16.71 7.44z" fill="#fff"/>
  <path d="m28.26 552.51 30.2-31.26 10.65 10.28-30.2 31.27z" fill="#333"/>
  <path d="M496.86 495.7h-.01c-6.12 0-11.08-4.76-11.08-10.62v-.03c0-5.87 4.96-10.62 11.08-10.62h.03c6.12 0 11.08 4.76 11.08 10.62v.03c0 5.87-4.96 10.62-11.08 10.62zm90.12 395.15 33.3-27.94 8.91 10.63-33.3 27.94z" fill="#fff"/>
  <path d="m352.2 954.86 11.72-40.9 14.23 4.08-11.73 40.9zm122.2-264.48 14.78-.78 2.27 43.41-14.78.77z" fill="#333"/>
  <path d="m956.55 151.97 20.63-37.22 12.94 7.18-20.63 37.21z" fill="#fff"/>
  <path d="m598.58 729.18-.01-.01a12.93 12.93 0 0 1-6.85-16.96l.01-.03a12.93 12.93 0 0 1 16.96-6.85l.03.01a12.93 12.93 0 0 1 6.85 16.96l-.01.03a12.93 12.93 0 0 1-16.96 6.85zm384.43-232.23 10.83-10.1 29.64 31.8-10.82 10.1zM100.78 644.73l29.08-32.3 11 9.9-29.08 32.3zM264.45 93.36l42.17-10.52 3.58 14.36-42.17 10.52z" fill="#333"/>
  <path d="m195.04 578.84-.01.01c-5.83 4.56-14.12 3.68-18.52-1.94l-.02-.02c-4.4-5.63-3.24-13.89 2.59-18.44l.02-.02c5.83-4.55 14.12-3.68 18.52 1.94l.02.02c4.4 5.63 3.24 13.88-2.59 18.44zm744.53 146 13.18-6.72 19.74 38.73-13.19 6.72zm-159.72 47.44 36.04-24.3 8.27 12.26-36.04 24.31z" fill="#fff"/>
  <path d="m613.1 666.55 16.28-40.3 12.86 5.19-16.28 40.3z" fill="#333"/>
  <path d="M52.35 933.9v.01a12.94 12.94 0 0 1-14.01 11.76h-.03a12.94 12.94 0 0 1-11.76-14.01v-.03a12.94 12.94 0 0 1 14.01-11.76h.03c7.12.62 12.38 6.9 11.76 14.01zm754.43-305.98-.01-.01a12.94 12.94 0 0 1-.96-18.27l.02-.02a12.94 12.94 0 0 1 18.27-.96l.02.02a12.94 12.94 0 0 1 .96 18.27l-.02.02a12.94 12.94 0 0 1-18.27.96z" fill="#fff"/>
  <path d="M363.76 403.76h-.01c-5.72 1.32-11.47-2.45-12.84-8.41l-.01-.03c-1.38-5.96 2.14-11.87 7.86-13.19l.03-.01c5.72-1.32 11.47 2.45 12.84 8.41l.01.03c1.38 5.96-2.14 11.87-7.86 13.19z" fill="#333"/>
  <path d="M696.67 918.35v-.01a11.08 11.08 0 0 1 7.6-13.71l.03-.01a11.08 11.08 0 0 1 13.71 7.6l.01.03a11.08 11.08 0 0 1-7.6 13.71l-.03.01a11.08 11.08 0 0 1-13.71-7.6zm-433.19 36.91 7.4-41.9 14.57 2.57-7.4 41.9z" fill="#fff"/>
  <path d="m763.84 252.12 5.55-13.72 40.3 16.28-5.54 13.72z" fill="#333"/>
  <path d="m99.53 28.67 13.62-5.78 16.98 40.01-13.62 5.79zm45.55 76.15 12.86-5.2 16.29 40.31-12.86 5.2z" fill="#fff"/>
  <path d="M760.12 9.41 764.2-4.8l41.78 11.98-4.08 14.22z" fill="#333"/>
  <path d="m759.52 671.82 10.28-10.65 31.27 30.2L790.8 702z" fill="#fff"/>
  <path d="m377.47 492.42 14.42-3.33 9.78 42.36-14.42 3.33z" fill="#333"/>
  <path d="m925.18 188.86 7.4-12.81 37.64 21.73-7.4 12.82zM271.32 453.47l-.01.01a12.94 12.94 0 0 1-17.08-6.55l-.01-.03a12.93 12.93 0 0 1 6.56-17.08l.03-.01a12.93 12.93 0 0 1 17.08 6.56l.01.03a12.93 12.93 0 0 1-6.56 17.08z" fill="#fff"/>
  <path d="m863.45 456.04-.01-.01c-4.8-3.36-5.85-10.16-2.34-15.17l.02-.02c3.51-5.01 10.25-6.35 15.06-2.99l.02.02c4.81 3.36 5.85 10.16 2.34 15.17l-.02.02c-3.51 5.01-10.25 6.35-15.06 2.99zM350.84 200h-.01a12.93 12.93 0 0 1-15.16-10.23l-.01-.03a12.93 12.93 0 0 1 10.23-15.16l.03-.01a12.93 12.93 0 0 1 15.16 10.23l.01.03a12.93 12.93 0 0 1-10.23 15.16zm451.2 802 .76-43.46 14.8.26-.76 43.46z" fill="#333"/>
  <path d="M331.21 504.35h-.01c-5.79 1.99-12.03-.89-13.94-6.43l-.01-.03c-1.91-5.55 1.23-11.66 7.02-13.65l.03-.01c5.79-1.99 12.03.89 13.94 6.43l.01.03c1.91 5.55-1.23 11.66-7.02 13.65z" fill="#fff"/>
  <path d="M684.68 238.7h-.01a12.94 12.94 0 0 1-9.42-15.68l.01-.03a12.94 12.94 0 0 1 15.68-9.42l.03.01a12.94 12.94 0 0 1 9.42 15.68l-.01.03a12.94 12.94 0 0 1-15.68 9.42zM489.18 31.91h-.01a12.94 12.94 0 0 1-13.16-12.71v-.03a12.94 12.94 0 0 1 12.71-13.16h.03a12.94 12.94 0 0 1 13.16 12.71v.03a12.94 12.94 0 0 1-12.71 13.16zM907.4 932.73l42.4-3.7 1.29 14.74-42.4 3.7zM549.97 564.94h-.01a10.62 10.62 0 0 1-9.04-12v-.03a10.62 10.62 0 0 1 12-9.04h.03c5.81.82 9.86 6.19 9.04 12v.03a10.62 10.62 0 0 1-12 9.04zm-156 68.89 41.46-9.58 3.33 14.43-41.46 9.57zM926.8 41.5l6.48-13.3 39.07 19.06-6.49 13.3zM694.88 590.07l-.01-.01a12.92 12.92 0 0 1-5.65-17.4l.01-.03a12.93 12.93 0 0 1 17.4-5.65l.03.01a12.92 12.92 0 0 1 5.65 17.4l-.01.03a12.93 12.93 0 0 1-17.4 5.65zm17.74 129.19 28.52-32.8 10.47 9.1-28.52 32.8zM474.23 207.28l14.8-.26.76 43.46-14.8.26z" fill="#333"/>
  <path d="m782.1 581.27 26.15-34.71 11.82 8.9-26.16 34.72zM370.51 252.85h-.01c-7.29 1.28-14.2-3.38-15.44-10.41l-.01-.03c-1.24-7.03 3.66-13.78 10.95-15.06l.03-.01c7.29-1.28 14.2 3.38 15.44 10.41v.03c1.24 7.04-3.66 13.78-10.95 15.06z" fill="#fff"/>
  <path d="M706.72 43.07 716.5.72l14.42 3.33-9.78 42.35zM99.07 488l-.01.01a10.62 10.62 0 0 1-14.94-1.57l-.02-.02a10.62 10.62 0 0 1 1.57-14.94l.02-.02a10.62 10.62 0 0 1 14.94 1.57l.02.02a10.62 10.62 0 0 1-1.57 14.94z" fill="#333"/>
  <path d="m867.42 174.65 18.37-39.4 12.57 5.86-18.37 39.4z" fill="#fff"/>
  <path d="m829.33 829.4-.01-.01c-3.01-6.76-.16-14.59 6.37-17.5l.03-.01c6.52-2.91 14.25.22 17.26 6.98l.01.03c3.01 6.76.16 14.59-6.37 17.5l-.03.01c-6.53 2.91-14.25-.22-17.26-6.98zm-107.27-31.77 11.5-7.76 24.3 36.04-11.5 7.75zm-322.62 92.63 10.46-10.47 30.74 30.74-10.46 10.46zm530.96-98.69-.01-.01a10.63 10.63 0 0 1 5.63-13.93l.03-.01c5.4-2.29 11.64.23 13.93 5.63l.01.03a10.63 10.63 0 0 1-5.63 13.93l-.03.01a10.63 10.63 0 0 1-13.93-5.63zM539.99 488.4l4.45-42.32 14.71 1.55-4.44 42.31z" fill="#333"/>
  <path d="m988.86 440.8-.01-.01c-4.48-4.18-4.86-11.04-.86-15.33l.02-.02c4-4.29 10.87-4.38 15.35-.21l.02.02c4.48 4.18 4.86 11.04.86 15.33l-.02.02c-4 4.29-10.88 4.38-15.35.21z" fill="#fff"/>
  <path d="m836.63 544.77 9.51-11.34 33.3 27.94-9.5 11.34z" fill="#333"/>
  <path d="m966.56 369.53-.01-.01a12.94 12.94 0 0 1-2.23-18.16l.02-.02a12.93 12.93 0 0 1 18.15-2.23l.02.02a12.94 12.94 0 0 1 2.23 18.16l-.02.02a12.93 12.93 0 0 1-18.15 2.23z" fill="#fff"/>
  <path d="m92.38 406.8-.01.01a12.94 12.94 0 0 1-18.07-2.86l-.02-.02a12.94 12.94 0 0 1 2.86-18.07l.02-.02a12.94 12.94 0 0 1 18.07 2.86l.02.02a12.94 12.94 0 0 1-2.86 18.07zm95.43-221.86-.01.01a10.62 10.62 0 0 1-13.72-6.11l-.01-.03a10.62 10.62 0 0 1 6.11-13.72l.03-.01c5.48-2.1 11.62.63 13.72 6.11l.01.03a10.62 10.62 0 0 1-6.11 13.72zm126.52 532.85-.01.01c-4.81 3.36-11.55 2.03-15.06-2.99l-.02-.02c-3.51-5.01-2.46-11.81 2.34-15.17l.02-.02c4.81-3.37 11.55-2.03 15.06 2.99l.02.02c3.51 5.01 2.46 11.81-2.34 15.17zm303.79-267.5 9.58-41.46 13.51 3.12-9.57 41.46zM399.2 678.02l13.26-4.06 12.7 41.57-13.26 4.06zm355.4 182.32-.01-.01a12.93 12.93 0 0 1 6.56-17.08l.03-.01a12.93 12.93 0 0 1 17.08 6.56l.01.03a12.93 12.93 0 0 1-6.56 17.08l-.03.01a12.93 12.93 0 0 1-17.08-6.56z" fill="#333"/>
  <path d="m865.7 599.92 9.97-9.63 29.56 30.6-9.98 9.64z" fill="#fff"/>
  <path d="m841.46 331.9-.01-.01a11.07 11.07 0 0 1-4.58-14.99l.01-.03a11.07 11.07 0 0 1 14.99-4.58l.03.01a11.07 11.07 0 0 1 4.58 14.99l-.01.03a11.07 11.07 0 0 1-14.99 4.58z" fill="#333"/>
  <path d="M611.79 232.45h-.01a12.93 12.93 0 0 1-10.75-14.8v-.03a12.93 12.93 0 0 1 14.8-10.75h.03a12.93 12.93 0 0 1 10.75 14.8v.03a12.93 12.93 0 0 1-14.8 10.75zM461.41 983.24v.01c1.81 5.58-1.44 11.64-7.26 13.53l-.03.01c-5.82 1.89-12.01-1.1-13.83-6.68l-.01-.03c-1.81-5.58 1.44-11.64 7.26-13.53l.03-.01c5.82-1.89 12.01 1.1 13.82 6.68z" fill="#fff"/>
  <path d="m551.41 648.83 3.12-13.52 42.36 9.78-3.12 13.51zm85.61-312.91h-.01a12.93 12.93 0 0 1-9.96-15.34l.01-.03a12.92 12.92 0 0 1 15.34-9.96l.03.01a12.93 12.93 0 0 1 9.96 15.34l-.01.03a12.92 12.92 0 0 1-15.34 9.96zm41.62-192.38h-.01a12.93 12.93 0 0 1-9.96-15.34l.01-.03a12.92 12.92 0 0 1 15.34-9.96l.03.01a12.93 12.93 0 0 1 9.96 15.34l-.01.03a12.92 12.92 0 0 1-15.34 9.96zm-504.96 730.6 15.58-40.59 12.95 4.98-15.58 40.58z" fill="#333"/>
  <path d="m250.97 856.85-.01.01a12.94 12.94 0 0 1-17.19 6.26l-.03-.01a12.95 12.95 0 0 1-6.26-17.19l.01-.03a12.94 12.94 0 0 1 17.19-6.26l.03.01a12.95 12.95 0 0 1 6.26 17.19zM680.5 978.29v-.01c.1-5.87 5.15-10.53 11.27-10.43h.03c6.12.11 11 4.95 10.9 10.81v.03c-.1 5.87-5.15 10.53-11.27 10.43h-.03c-6.12-.11-11-4.95-10.9-10.81zm57.53-564.57 6.26-13.41 39.4 18.37-6.26 13.41zM426.71 589.05l43.15-5.3 1.8 14.69-43.14 5.3z" fill="#fff"/>
  <path d="m154.35-1.34 13.11-4.52 14.16 41.1-13.12 4.52zm394.89 814.46h-.01a10.63 10.63 0 0 1-6.59-13.5l.01-.03a10.63 10.63 0 0 1 13.5-6.59l.03.01a10.63 10.63 0 0 1 6.59 13.5l-.01.03a10.62 10.62 0 0 1-13.5 6.59z" fill="#333"/>
  <path d="M504.97 902.01h-.01c-7.31-1.16-12.33-7.82-11.21-14.87l.01-.03c1.12-7.06 7.95-11.84 15.25-10.68h.03c7.31 1.16 12.33 7.82 11.21 14.87v.03c-1.12 7.06-7.95 11.84-15.26 10.68zM49.97 100l39.07-19.06 6.49 13.3-39.07 19.06z" fill="#fff"/>
  <path d="M384.83 607.01h-.01a10.61 10.61 0 0 1-13.26-7.05l-.01-.03a10.61 10.61 0 0 1 7.05-13.26l.03-.01a10.61 10.61 0 0 1 13.26 7.05l.01.03a10.61 10.61 0 0 1-7.05 13.26z" fill="#333"/>
  <path d="m120.6 965.3.52-14.79 43.45 1.52-.52 14.79z" fill="#fff"/>
  <path d="m192.15 394.3-.01.01a11.1 11.1 0 0 1-14.99-4.58l-.01-.03a11.1 11.1 0 0 1 4.58-14.99l.03-.01a11.1 11.1 0 0 1 14.99 4.58l.01.03a11.09 11.09 0 0 1-4.58 14.99zm40.59-273.73 14.15-4.33 12.71 41.57-14.15 4.33z" fill="#333"/>
  <path d="m857.57 391.29 7.55-11.63 36.46 23.67-7.55 11.64z" fill="#fff"/>
  <path d="m113.36 138.51-.01.01c-5.55 2.59-12.06.37-14.53-4.94l-.01-.03c-2.48-5.32.01-11.72 5.56-14.31l.03-.01c5.55-2.59 12.06-.37 14.53 4.94l.01.03c2.48 5.32-.01 11.72-5.56 14.31z" fill="#333"/>
  <path d="M595.3 540.54h-.01a11.09 11.09 0 0 1-8.31-13.29l.01-.03a11.1 11.1 0 0 1 13.29-8.31l.03.01a11.1 11.1 0 0 1 8.31 13.29l-.01.03a11.1 11.1 0 0 1-13.29 8.31z" fill="#fff"/>
  <path d="m166.74 505.23-.01.01a10.62 10.62 0 0 1-14.79-2.61l-.02-.02a10.62 10.62 0 0 1 2.61-14.79l.02-.02a10.62 10.62 0 0 1 14.79 2.61l.02.02a10.62 10.62 0 0 1-2.61 14.79z" fill="#333"/>
  <path d="m387.72 828.63 11.5-7.76 24.3 36.04-11.5 7.75z" fill="#fff"/>
  <path d="m53.56 256.93 12.55-7.84 23.03 36.86-12.55 7.85zm912.2 356.33 11.22-8.15 25.55 35.16-11.22 8.16z" fill="#333"/>
  <path d="m430.2 186.66 14.74-1.29 3.79 43.3-14.75 1.3z" fill="#fff"/>
  <path d="m288.34 513.51-.01.01c-6.53 2.91-14.26-.22-17.26-6.98l-.01-.03c-3.01-6.76-.16-14.59 6.37-17.5l.03-.01c6.53-2.91 14.26.22 17.26 6.98l.01.03c3.01 6.76.16 14.59-6.37 17.5zM837.95 87.76h-.01c-5.48-2.1-8.14-8.44-5.95-14.15l.01-.03c2.19-5.72 8.41-8.64 13.89-6.54l.03.01c5.48 2.1 8.14 8.44 5.94 14.15l-.01.03c-2.19 5.71-8.41 8.64-13.89 6.54z" fill="#333"/>
  <path d="m719.89 125.93 11.25-41.99 14.3 3.83-11.26 41.99zM237.98 41.27l13.4-3.59 11.25 41.99-13.4 3.59z" fill="#fff"/>
  <path d="M628.71 991.31v-.01a12.93 12.93 0 0 1 14.41-11.26h.03a12.93 12.93 0 0 1 11.26 14.41v.03a12.93 12.93 0 0 1-14.41 11.26h-.03a12.93 12.93 0 0 1-11.26-14.41z" fill="#333"/>
  <path d="M983.71 905.3v-.01a10.62 10.62 0 0 1 9.45-11.67h.03a10.62 10.62 0 0 1 11.67 9.45v.03a10.62 10.62 0 0 1-9.45 11.67h-.03a10.62 10.62 0 0 1-11.67-9.45zM536.99 374.5h-.01c-5.85-.41-10.25-5.69-9.82-11.8v-.03c.43-6.11 5.52-10.73 11.37-10.32h.03c5.85.41 10.25 5.69 9.82 11.8v.03c-.43 6.11-5.52 10.73-11.37 10.32z" fill="#fff"/>
  <path d="m247.78 355.61-.01.01a12.93 12.93 0 0 1-16.84-7.15l-.01-.03a12.93 12.93 0 0 1 7.15-16.84l.03-.01a12.93 12.93 0 0 1 16.84 7.15l.01.03a12.93 12.93 0 0 1-7.15 16.84zm171.59 107.3 43.23-4.54 1.45 13.8-43.23 4.54z" fill="#333"/>
  <path d="M231.37 910.89v.01c-1.38 5.96-7.13 9.73-12.84 8.41l-.03-.01c-5.72-1.32-9.23-7.22-7.86-13.19l.01-.03c1.38-5.96 7.13-9.73 12.84-8.41l.03.01c5.72 1.32 9.23 7.22 7.86 13.19z" fill="#fff"/>
  <path d="M515.31 423.55h-.01c-5.86-.2-10.44-5.33-10.23-11.45v-.03c.21-6.12 5.14-10.91 11-10.71h.03c5.86.2 10.44 5.33 10.23 11.45v.03c-.21 6.12-5.14 10.91-11 10.71z" fill="#333"/>
  <path d="m912.09 114.9 18.65-38.25 13.3 6.5-18.65 38.24zM664.41 713.6l24.31-36.04 12.27 8.28-24.3 36.04z" fill="#fff"/>
  <path d="M279.93 985.97v.01c.52 7.38-4.84 13.77-11.97 14.27h-.03c-7.13.5-13.32-5.08-13.84-12.46v-.03c-.52-7.38 4.84-13.77 11.97-14.27h.03c7.13-.5 13.32 5.08 13.84 12.46z" fill="#333"/>
</svg>
